<svg width="165" height="38" viewBox="0 0 165 38" xmlns="http://www.w3.org/2000/svg" xmlns:xlink="http://www.w3.org/1999/xlink"><title>Group 21</title><defs><path id="a" d="M164.269 0v37.604H0V0h164.269z"/></defs><g fill="none" fill-rule="evenodd"><mask id="b" fill="#fff"><use xlink:href="#a"/></mask><path d="M18.822 36.963L0 0l5.044.036c3.2 6.493 7.423 15.012 10.446 20.944 2.128 4.18 3.6 7.465 3.6 7.465s1.56-3.343 3.793-7.585C25.983 14.978 30.27 6.62 33.53.235l5.04.035-19.336 36.705-.412-.012zM58.031 3.894c-7.882-.055-14.317 6.5-14.374 14.64-.057 8.14 6.288 14.784 14.17 14.84 7.883.055 14.317-6.5 14.375-14.64.056-8.14-6.288-14.783-14.171-14.84zm-.23 33.359c-10.227-.072-18.458-8.466-18.387-18.748C39.485 8.222 47.832-.057 58.058.015c10.227.072 18.458 8.466 18.387 18.75-.071 10.282-8.418 18.56-18.645 18.488zm43.279-.085l-18.11-.127L83.224.58l4.24.029-.224 32.196 13.871.096-.03 4.267zm14.093-32.097l-13.87-.096.03-4.268 18.107.127-.252 36.461-4.237-.03.222-32.194zm14.834.104a2.128 2.128 0 0 1-2.105-2.148 2.125 2.125 0 0 1 2.134-2.118 2.125 2.125 0 0 1 2.104 2.148 2.126 2.126 0 0 1-2.133 2.118zm29.219 32.394c-3.201-6.495-7.424-15.017-10.447-20.951-2.128-4.181-3.6-7.466-3.6-7.466s-1.56 3.343-3.793 7.587c-3.1 5.884-7.388 14.244-10.647 20.63l-5.04-.036L145.033.621l.413.01 18.822 36.974-5.043-.036z" fill="#C9C9C9" mask="url(#b)"/></g></svg>