<?xml version="1.0" encoding="UTF-8"?>
<svg width="1192px" height="638px" viewBox="0 0 1192 638" version="1.1" xmlns="http://www.w3.org/2000/svg" xmlns:xlink="http://www.w3.org/1999/xlink">
    <!-- Generator: Sketch 47 (45396) - http://www.bohemiancoding.com/sketch -->
    <title>Group 6</title>
    <desc>Created with Sketch.</desc>
    <defs>
        <rect id="path-1" x="0" y="0" width="1205" height="638"></rect>
        <polygon id="path-3" points="475.181988 324.936812 0.683601255 324.936812 0.683601255 0.460238474 475.181988 0.460238474 475.181988 324.936812"></polygon>
    </defs>
    <g id="Page-1" stroke="none" stroke-width="1" fill="none" fill-rule="evenodd">
        <g id="Lalaland_1-Copy" transform="translate(0.000000, -268.000000)">
            <g id="Group-6" transform="translate(0.000000, 268.000000)">
                <mask id="mask-2" fill="white">
                    <use xlink:href="#path-1"></use>
                </mask>
                <g id="Mask"></g>
                <g mask="url(#mask-2)">
                    <g transform="translate(-30.000000, -344.000000)">
                        <g id="Group-9">
                            <g id="Page-1">
                                <g id="Group-3" transform="translate(441.355932, 950.981132)">
                                    <mask id="mask-4" fill="white">
                                        <use xlink:href="#path-3"></use>
                                    </mask>
                                    <g id="Clip-2"></g>
                                    <path d="M0.683601255,57.918463 C26.7645441,171.061463 101.156087,290.949525 191.943849,314.666039 C391.897744,366.885885 452.753278,210.226347 474.487397,66.6217707 C496.221516,-76.9828056 0.683601255,57.918463 0.683601255,57.918463" id="Fill-1" fill="#C62B19" mask="url(#mask-4)"></path>
                                </g>
                                <path d="M514.414851,159.019574 C543.526561,138.527184 719.656316,-54.2598456 929.884388,14.9106805 C1254.38743,121.685438 1210.35934,461.308452 1155.93234,560.04134 C1053.11614,746.520339 770.556199,855.68239 770.556199,855.68239 L514.414851,159.019574 Z" id="Fill-4" fill="#EB495F"></path>
                                <path d="M200.161421,315.603701 C228.888692,245.776643 414.763874,165.307448 526.186386,141.933063 C637.617592,118.558677 753.239642,131.290925 857.289053,259.771665 C961.338463,388.261114 989.839672,520.112155 971.68515,547.675467 C953.521933,575.23007 200.161421,315.603701 200.161421,315.603701" id="Fill-6" fill="#C62B19"></path>
                                <path d="M380.296083,827.01233 C326.350529,820.006116 -33.9588249,691.166737 2.59895989,390.831991 C20.0388924,247.579332 276.004243,48.3728237 561.641823,201.83852 C739.570865,297.433244 619.012767,468.100762 613.770355,547.373798 C608.54533,626.646834 481.623309,840.170765 380.296083,827.01233" id="Fill-8" fill="#EB495F"></path>
                                <path d="M810.412783,642.568542 C800.359532,618.690263 782.294962,591.327376 758.825791,577.380231 C739.258012,561.002571 714.850422,547.787194 691.129269,540.878958 C678.113047,537.089446 665.366185,533.578703 652.758349,528.473752 L691.763571,544.973373 C669.371845,535.355854 647.032253,526.714025 624.562326,517.627908 C637.535103,523.124878 738.571576,376.640654 684.829695,331.985397 C659.353351,310.816401 653.140668,268.269333 501.629404,253.468459 C486.214999,251.970078 409.030015,249.975139 354.280203,283.653879 C254.912031,344.791333 265.556138,456.891185 269.752958,487.494758 C282.047988,576.91852 345.36522,665.157516 362.439237,689.889523 C397.508312,740.677691 442.404722,785.036755 496.850417,814.882426 C525.637296,830.65899 555.866561,843.377811 588.311538,848.430493 C625.161871,854.162674 656.56416,860.722449 693.362359,849.772067 C715.015515,843.334253 735.886654,833.777715 754.003359,820.588472 C763.578711,814.978253 772.597963,808.444612 780.609283,800.41259 C803.148723,777.814904 816.051988,748.744559 820.248807,717.444064 C823.785257,691.01331 820.752773,667.161165 810.412783,642.568542" id="Fill-10" fill="#FFDA00"></path>
                                <path d="M907.748359,725.775707 C899.663038,718.844998 892.055367,711.452242 885.0643,703.379491 C866.635672,679.675594 846.091274,652.263712 813.133385,646.169919 C782.094783,640.424841 743.199915,638.822817 715.062199,653.225566 C686.924482,667.628315 674.185918,706.74459 664.910813,737.832526 C642.999679,811.202147 692.406116,870.152405 745.50349,911.344356 C752.954839,917.115588 760.423556,923.087331 768.109388,928.719077 C765.182693,931.691872 762.169152,934.594924 759.042712,937.375925 C734.187514,954.916286 708.333591,970.660765 685.215304,990.860077 C655.826768,1016.54293 630.36365,1055.1108 623.937079,1094.11457 C620.324304,1115.99643 618.517917,1134.3214 623.72865,1156.18582 C626.768244,1169.00982 644.910281,1199.62699 661.280669,1207.15923 C732.068482,1239.7292 784.931373,1226.34727 860.391477,1170.14314 C906.106978,1136.09113 962.530536,1047.14267 983.911912,1004.45124 C994.177057,983.955522 1004.58115,960.731107 1009.60951,938.003612 C1019.25805,894.475271 1015.79292,854.756641 996.365565,814.863653 C977.537449,776.199886 941.626811,750.665235 907.748359,725.775707 Z" id="Fill-14" fill="#FFFFFF"></path>
                                <path d="M924.680102,353.214109 C878.71835,319.927999 825.658156,302.33105 769.974059,294.386289 C741.61505,290.344218 713.099648,292.164892 684.584247,293.532576 C655.069677,294.961239 628.90015,299.743776 601.036381,312.044218 C548.488804,335.23386 516.341642,391.335024 518.522436,447.723662 C519.512916,473.204393 526.133494,495.035063 539.496287,516.743774 C555.083316,542.093834 580.071218,567.304512 609.516281,576.007162 C645.703558,586.696001 667.119966,644.144696 704.619196,638.499735 C717.625763,636.539678 790.756765,641.194275 804.692994,669.053206 C821.305257,702.260914 846.009188,756.459411 875.349989,779.021835 C918.644396,812.299234 954.606596,818.082433 1009.11178,794.610799 C1052.0331,776.127536 1096.59257,706.796232 1013.88748,488.594066 C996.189167,441.901172 965.133395,382.501704 924.680102,353.214109 Z" id="Fill-12" fill="#00E07D"></path>
                                <path d="M580.805943,766.515083 C597.86554,748.908078 613.846957,730.707775 630.576144,712.934996 C621.959395,722.070048 613.360037,731.196374 604.751983,740.331426 C614.342572,730.515826 624.524422,721.16265 635.697501,712.524922 C655.730789,697.064262 683.859499,688.915364 698.40624,669.825114 C732.421095,625.179404 711.717918,554.890754 673.746837,514.598809 C636.080081,474.647137 566.667868,451.543396 505.541992,467.597355 C464.96241,478.259277 429.191165,493.353488 399.915088,519.266671 C379.95136,536.943476 361.900532,556.417626 345.388721,576.301849 C319.09503,607.956067 302.357148,647.131216 293.557804,684.805669 C284.906276,721.834473 280.393569,759.997525 280.228364,797.741777 C280.037074,840.249867 291.444918,882.00761 298.783501,923.896226 C297.244486,914.429626 586.196846,760.965997 606.169269,739.607252 C597.717725,748.576529 589.266182,757.545806 580.805943,766.515083 Z" id="Fill-16" fill="#FFFFFF"></path>
                                <path d="M379.647493,771.064023 C516.901644,704.597516 595.656152,684.184806 674.89957,641.656658 C754.133011,599.12851 842.378915,541.027764 900.000515,624.381331 C957.612136,707.734898 951.505743,1009.1026 900.000515,1081.31832 C848.485308,1153.54405 503.112371,1093.5007 408.932237,1084.83682 C314.76208,1076.17294 308.805354,1065.25544 283.920805,1018.0498 C252.640509,958.654622 242.383365,837.53053 379.647493,771.064023 Z" id="Fill-18" fill="#0900C6"></path>
                                <path d="M390.697035,635.53786 C390.565973,635.340834 390.445832,635.1657 390.31477,634.990566 C390.43491,635.1657 390.555051,635.340834 390.664269,635.526914 L390.697035,635.53786 Z" id="Fill-20" fill="#4F4646"></path>
                                <path d="M429.319771,633.728596 C429.658668,633.476841 430.008156,633.236032 430.347054,632.984277 C429.753983,633.279815 429.033826,633.728596 428.34544,634.188323 C428.620794,634.08981 428.864377,633.991297 429.097369,633.892785 C429.182093,633.827109 429.235046,633.794272 429.319771,633.728596" id="Fill-22" fill="#4F4646"></path>
                                <path d="M133.109026,715.928704 C133.420988,736.857848 151.644746,752.454168 167.407473,763.285918 C182.79758,773.86414 200.371417,790.378405 219.037121,791.462454 C224.565774,791.777178 231.108302,788.079172 233.577998,783.043588 C245.579855,758.591285 225.588315,737.399872 204.340262,727.389902 C187.528997,719.469349 170.709067,711.889747 154.07978,703.785605 C144.902909,699.318273 132.94438,704.589899 133.109026,715.928704" id="Fill-28" fill="#0900C6"></path>
                                <path d="M94.7600648,886.550526 C114.056654,894.792597 132.589709,895.621164 153.37866,894.295456 C170.506118,893.196513 189.715942,892.926138 205.541921,885.861506 C217.194493,880.645889 218.270382,865.033925 213.559029,855.099832 C203.320731,833.5309 176.86601,835.388637 157.231036,838.493586 C135.140607,841.991015 113.058854,845.514609 94.7600648,859.216506 C86.5607498,865.347909 82.638961,881.369796 94.7600648,886.550526" id="Fill-30" fill="#0900C6"></path>
                                <path d="M130.766492,1036.23318 C155.371545,1035.16348 181.356563,1020.8014 202.845844,1009.49061 C215.751563,1002.69536 246.952679,985.282001 237.405745,965.992275 C227.2426,945.448717 191.832154,958.7937 177.216666,965.20315 C155.345508,974.804172 128.562019,990.990006 117.773983,1013.33978 C113.043911,1023.11617 118.589812,1036.76803 130.766492,1036.23318" id="Fill-32" fill="#0900C6"></path>
                                <path d="M868.069598,367.679458 C870.57357,371.767491 873.622625,375.460757 876.313969,379.425974 C878.869043,383.18942 880.964203,388.505618 885.086389,390.663679 C888.14396,392.269065 891.516658,390.277684 891.70403,386.742325 C892.019156,381.215585 887.334854,376.267836 883.885504,372.513162 C880.28285,368.583036 876.194732,365.36349 871.323058,363.319474 C868.955357,362.32817 866.817612,365.635441 868.069598,367.679458" id="Fill-34" fill="#10131C"></path>
                                <path d="M897.729565,413.975146 C897.926233,418.003557 899.739005,421.773736 901.662936,425.25986 C903.749333,429.038647 905.844281,432.722749 908.879818,435.830134 C912.625072,439.669175 920.517467,435.778488 918.379765,430.26955 C916.789315,426.137847 914.50625,422.772231 911.889702,419.23446 C909.521129,416.023783 906.964437,412.580697 903.355996,410.72143 C900.978872,409.490527 897.5671,410.962446 897.729565,413.975146" id="Fill-36" fill="#10131C"></path>
                                <path d="M920.196328,463.067864 C921.998746,466.022562 923.919633,469.038633 924.850459,472.431712 C925.772823,475.851095 925.84052,479.480901 926.576718,482.961658 C927.406,486.889564 933.549453,487.98552 935.258789,484.127755 C939.692906,474.176474 933.761005,461.682576 924.215805,457.658225 C921.287933,456.430755 918.656233,460.525246 920.196328,463.067864" id="Fill-38" fill="#2C2C2C"></path>
                                <path d="M934.75911,518.499971 C935.047879,523.845805 936.036694,528.466632 938.171834,533.38445 C939.816942,537.19292 944.367241,543.927622 949.460076,540.966449 C953.292828,538.739019 951.577715,533.61156 949.836351,530.650388 C947.027416,525.87233 943.422179,521.583434 940.359478,516.988812 C938.810626,514.682766 934.584098,515.346628 934.75911,518.499971" id="Fill-40" fill="#2C2C2C"></path>
                                <path d="M952.83678,574.984953 C952.410352,580.284076 954.063851,586.414434 955.395353,591.523066 C956.37875,595.263623 958.893809,600.978364 963.889118,599.696877 C968.518916,598.510635 968.109892,592.648697 967.213522,589.176559 C965.847209,583.85146 964.06317,577.348778 960.895414,572.820279 C958.39776,569.244237 953.184886,570.655604 952.83678,574.984953" id="Fill-42" fill="#2C2C2C"></path>
                                <path d="M964.806362,636.881524 C965.483791,643.425809 965.535901,656.271999 972.970247,658.946846 C973.856115,659.267135 975.054643,658.91222 975.679962,658.237016 C980.821473,652.679567 975.237028,641.668548 972.892082,635.79081 C971.33747,631.904059 964.276578,631.860776 964.806362,636.881524" id="Fill-44" fill="#2C2C2C"></path>
                                <path d="M830.020129,327.353362 C829.368329,330.107868 829.594286,331.786806 830.950031,334.26149 C831.949459,336.054105 833.174843,337.724298 834.513207,339.272069 C836.824926,342.000342 840.831326,344.65866 844.524862,343.967847 C845.454763,343.792958 846.18478,342.901022 846.4455,342.03532 C847.470999,338.528789 844.976777,334.287723 842.717202,331.778061 C841.465745,330.396436 839.97964,329.207188 838.493535,328.105386 C836.120981,326.356493 834.643567,325.753124 831.610522,326.129136 C830.897887,326.225326 830.202634,326.583849 830.020129,327.353362" id="Fill-46" fill="#10131C"></path>
                                <path d="M939.749967,417.28053 C944.086834,420.68241 947.265461,427.529895 949.529689,432.497165 C951.480409,436.791054 952.865071,443.516107 957.175813,445.973507 C958.499515,446.725593 960.032223,446.437002 961.129503,445.45754 C966.171764,440.953766 962.967011,431.176641 960.119309,426.288078 C958.316635,423.183535 956.03499,420.26264 953.213414,418.058852 C950.060912,415.601453 946.760364,414.499558 943.32048,412.628087 C940.525029,411.106424 937.006767,415.129212 939.749967,417.28053" id="Fill-52" fill="#2C2C2C"></path>
                                <path d="M969.954921,481.414518 C971.935249,487.011831 974.091606,492.582699 976.485602,498.012533 C978.71237,503.045707 980.367044,508.528429 985.5423,511.208088 C987.073753,512.010222 988.842846,511.569489 989.7758,510.09744 C996.816965,499.123181 983.878825,483.380189 975.561449,477.095332 C972.921012,475.112033 968.898747,478.417532 969.954921,481.414518" id="Fill-54" fill="#2C2C2C"></path>
                                <path d="M995.846637,557.792739 C995.880632,568.716242 994.325341,588.340188 1007.09912,592.742717 C1008.24647,593.135022 1009.99723,592.498617 1010.52416,591.312985 C1012.98033,585.74226 1011.51003,581.418192 1009.62329,575.803878 C1007.54106,569.622901 1004.94041,563.101928 1003.75907,556.694286 C1002.89219,552.047657 995.829639,553.22457 995.846637,557.792739" id="Fill-56" fill="#2C2C2C"></path>
                                <path d="M977.532644,712.686837 C978.932716,709.280429 980.367358,705.968168 982.026704,702.681583 C983.556412,699.634645 985.293539,696.185443 985.76023,692.796153 C986.04543,690.72492 984.550291,688.63657 982.216837,689.278481 C973.055869,691.786213 968.751942,702.981142 967.801276,711.385897 C967.533361,713.799483 969.901384,715.904951 972.09656,716.19595 C974.723856,716.546862 976.59062,714.989158 977.532644,712.686837" id="Fill-62" fill="#10131C"></path>
                                <path d="M954.945001,353.575699 C959.922197,357.468235 963.030762,363.35515 965.388382,369.075866 C966.759294,372.373588 969.798003,379.922485 974.495778,376.15241 C979.141161,372.408577 975.692051,363.897481 973.194721,359.934966 C969.675756,354.327964 964.890662,350.977759 958.952954,348.362324 C955.861853,347.006497 951.705457,351.047737 954.945001,353.575699" id="Fill-66" fill="#FFDA00"></path>
                                <path d="M980.959318,402.306092 C983.435296,409.799401 987.955897,423.763422 998.187639,423.316573 C999.516212,423.265014 1000.90518,422.173672 1000.80165,420.721413 C1000.4997,416.562283 997.609623,413.503089 995.107763,410.392334 C992.364345,406.998003 989.068793,403.586485 986.929272,399.796865 C985.143462,396.634551 979.777405,398.739896 980.959318,402.306092" id="Fill-68" fill="#FFDA00"></path>
                                <path d="M1013.97041,458.619225 C1016.13421,465.769181 1016.77566,477.351935 1024.21643,481.175114 C1025.16577,481.662809 1026.61116,481.688936 1027.34668,480.765799 C1034.10324,472.379188 1025.58484,461.162206 1019.51249,455.335993 C1017.19474,453.097822 1012.9612,455.28374 1013.97041,458.619225" id="Fill-70" fill="#FFDA00"></path>
                                <path d="M1037.92034,522.146668 C1039.01113,527.309562 1041.86594,551.476115 1050.98429,547.21607 C1061.06561,542.517748 1048.69192,523.163469 1044.80597,518.026872 C1042.07047,514.424241 1037.13633,518.447617 1037.92034,522.146668" id="Fill-72" fill="#FFDA00"></path>
                                <path d="M1028.92492,606.185973 C1030.69448,614.380227 1028.06695,626.357109 1035.51161,632.250768 C1036.76282,633.241661 1038.12127,633.215812 1039.39035,632.250768 C1048.80119,625.06464 1041.00797,610.864711 1036.81644,602.980649 C1034.4749,598.603487 1027.96864,601.765728 1028.92492,606.185973" id="Fill-74" fill="#2C2C2C"></path>
                                <path d="M1045.55073,682.253716 C1045.01387,690.064646 1039.8653,699.923775 1045.33951,707.023043 C1046.24601,708.203361 1047.42534,708.524477 1048.8159,707.925639 C1059.07784,703.525482 1055.56625,689.318268 1053.90286,681.142828 C1052.91715,676.274015 1045.85877,677.775449 1045.55073,682.253716" id="Fill-76" fill="#10131C"></path>
                                <path d="M1006.92296,376.73712 C1008.47038,383.211116 1011.79732,389.676423 1014.99531,395.472605 C1016.97256,399.026786 1021.27953,406.604403 1026.43758,403.562928 C1031.57843,400.521453 1027.14251,392.978595 1025.07929,389.511314 C1021.71796,383.845481 1017.74627,377.719081 1012.94928,373.182939 C1010.31008,370.68024 1006.07188,373.156869 1006.92296,376.73712" id="Fill-82" fill="#FFDA00"></path>
                                <path d="M1050.24787,450.789072 C1052.77582,455.818471 1062.11898,480.912525 1070.78745,474.427248 C1079.25949,468.091969 1059.32628,450.550837 1055.63685,446.492024 C1052.87831,443.465561 1048.4971,447.303786 1050.24787,450.789072" id="Fill-84" fill="#FFDA00"></path>
                                <path d="M1083.59405,509.356582 C1081.77901,519.02571 1083.36825,528.774384 1088.63101,537.126602 C1091.87029,542.261669 1100.51128,539.097548 1098.61808,532.840014 C1096.07355,524.399413 1092.37399,516.374213 1088.04047,508.764414 C1087.04176,507.032102 1083.99353,507.208869 1083.59405,509.356582" id="Fill-86" fill="#FFDA00"></path>
                                <path d="M1084.04785,576.464149 C1084.99091,579.491733 1085.52246,582.850867 1085.73679,586.026776 C1085.96827,589.359736 1085.29955,592.605445 1085.39386,595.912229 C1085.54818,601.269394 1093.78713,604.628529 1096.22195,598.904913 C1100.09709,589.795987 1096.83923,579.544083 1090.19491,572.825814 C1087.65721,570.269382 1082.9076,572.825814 1084.04785,576.464149" id="Fill-88" fill="#FFDA00"></path>
                                <path d="M1086.19422,698.707152 C1084.7994,706.054495 1082.95753,714.876482 1084.39705,722.266943 C1084.79046,724.250381 1087.14198,724.638445 1088.72456,723.965801 C1098.67602,719.731592 1099.82943,705.830281 1095.48404,697.534337 C1093.58853,693.92103 1086.9721,694.585051 1086.19422,698.707152" id="Fill-92" fill="#C62B19"></path>
                                <path d="M1075.1289,749.964933 C1073.60046,753.446035 1072.14269,756.970979 1070.16367,760.232868 C1068.25532,763.35446 1065.79037,766.774182 1065.86105,770.570951 C1065.90522,772.754312 1067.60153,774.253728 1069.73075,774.402793 C1079.71424,775.113043 1085.13889,760.443312 1084.86501,752.577952 C1084.68831,747.904332 1077.32881,744.923035 1075.1289,749.964933" id="Fill-94" fill="#C62B19"></path>
                                <path d="M1031.02761,829.418299 C1039.42996,827.031897 1049.59381,818.597647 1051.73404,810.085861 C1052.57956,806.665639 1048.56334,802.969732 1045.22529,805.20106 C1041.7111,807.570232 1038.99839,810.852611 1036.05669,813.850689 C1033.1326,816.840153 1029.7241,819.441934 1026.92331,822.526164 C1024.25464,825.489782 1026.78239,830.633037 1031.02761,829.418299" id="Fill-96" fill="#2C2C2C"></path>
                                <path d="M1002.04869,848.392922 C1005.19631,847.090029 1008.1098,845.671126 1010.74582,843.422297 C1013.3645,841.200241 1014.8646,838.728314 1016.53812,835.738801 C1017.46593,834.087875 1015.94849,832.285243 1014.24028,832.660048 C1011.10134,833.34719 1008.40462,833.971864 1005.66455,835.765572 C1002.94182,837.550357 1000.68733,839.790261 998.623604,842.324655 C996.637919,844.76981 998.450181,849.883217 1002.04869,848.392922" id="Fill-102" fill="#2C2C2C"></path>
                            </g>
                        </g>
                        <g id="Group-3" transform="translate(799.266309, 634.000000)">
                            <path d="M31.1425549,20.21207 C31.1430574,7.36024886 25.7693433,1.8750808 14.3772102,16.1629824 C7.25580801,25.0940444 9.68840103,132.713691 9.07635841,154.472606 C8.73315225,166.662312 27.0873957,161.796816 28.6466471,160.450615 C33.5068082,156.243239 31.1420524,39.2526188 31.1425549,20.21207" id="Fill-5" fill="#F8F6F6"></path>
                            <path d="M55.6898617,23.4861654 C55.6904403,10.805503 49.5025271,5.39420373 36.3843133,19.4905811 C28.1839107,28.3031831 30.9856571,134.48779 30.2803021,155.956645 C29.885095,167.983747 51.0202844,163.183168 52.8157861,161.855126 C58.4123351,157.703624 55.689283,42.2730329 55.6898617,23.4861654" id="Fill-7" fill="#F8F6F6"></path>
                            <path d="M85.9540752,20.9001693 C85.9546538,8.04805868 79.7667571,2.56346676 66.6485781,16.8513527 C58.4481974,25.7824043 61.2493577,133.402175 60.5445832,155.160384 C60.1493771,167.350751 81.2845103,162.484985 83.0805858,161.13854 C88.6765414,156.931523 85.9534965,39.9405365 85.9540752,20.9001693" id="Fill-9" fill="#F8F6F6"></path>
                            <path d="M111.344711,22.798315 C111.345289,10.1171697 105.157393,4.70576071 92.0392138,18.8030364 C83.838833,27.6154594 86.6399933,133.799729 85.9352188,155.268787 C85.5400128,167.295641 106.675146,162.495004 108.471221,161.166412 C114.067177,157.015564 111.344132,41.5846781 111.344711,22.798315" id="Fill-11" fill="#F8F6F6"></path>
                            <path d="M136.735414,23.9518225 C136.735414,11.5001091 130.54808,6.18587788 117.429866,20.0282826 C109.229463,28.6824734 112.030631,132.953821 111.325854,154.035722 C110.930647,165.846347 132.065837,161.131699 133.861338,159.827519 C139.457888,155.750958 136.734835,42.400361 136.735414,23.9518225" id="Fill-13" fill="#F8F6F6"></path>
                            <path d="M162.056038,20.2122652 C162.056038,7.3605847 155.868704,1.87507486 142.75049,16.1624161 C134.550087,25.0943092 137.351255,132.713554 136.646478,154.47271 C136.251271,166.662621 157.386461,161.796523 159.181962,160.45056 C164.778512,156.243242 162.055459,39.2525855 162.056038,20.2122652" id="Fill-15" fill="#F8F6F6"></path>
                            <path d="M185.457985,24.0074183 C185.457985,11.4985398 179.270651,6.15979266 166.152437,20.0663196 C157.952034,28.7600226 160.753202,133.5092 160.048426,154.687796 C159.653219,166.553067 180.788408,161.816453 182.58391,160.506251 C188.180459,156.411246 185.457407,42.5406262 185.457985,24.0074183" id="Fill-17" fill="#F8F6F6"></path>
                            <path d="M213.680638,22.0541797 C213.680638,9.43068711 208.307427,4.04362012 196.915293,18.0768125 C189.793891,26.8495516 192.226484,132.556597 191.614442,153.928403 C191.271235,165.900882 209.625981,161.121959 211.18473,159.799494 C216.044892,155.667099 213.680136,40.7561302 213.680638,22.0541797" id="Fill-19" fill="#F8F6F6"></path>
                            <path d="M236.326522,27.0593075 C236.327024,14.949811 230.953269,9.7824138 219.560547,23.2438978 C212.439593,31.6597583 214.872205,133.060821 214.260158,153.56322 C213.916446,165.048377 232.271332,160.463397 233.830595,159.195254 C238.69029,155.231121 236.326019,44.9994685 236.326522,27.0593075" id="Fill-21" fill="#F8F6F6"></path>
                            <path d="M261.716917,28.3798734 C261.716917,16.3280663 256.34372,11.1844276 244.951617,24.5827969 C237.830234,32.9580855 240.263323,133.881508 239.650779,154.287182 C239.307574,165.718266 257.661769,161.154999 259.221519,159.892628 C264.081164,155.947096 261.716415,46.235897 261.716917,28.3798734" id="Fill-23" fill="#F8F6F6"></path>
                            <path d="M287.793774,22.0540438 C287.794276,9.43090981 282.420461,4.04350527 271.028614,18.0767687 C263.907077,26.8496843 266.339716,132.555864 265.727662,153.928403 C265.383947,165.901247 283.73904,161.121613 285.298321,159.799523 C290.158072,155.666679 287.793271,40.7563912 287.793774,22.0540438" id="Fill-25" fill="#F8F6F6"></path>
                            <path d="M313.184493,14.5188254 C313.184493,1.15256086 307.811397,-4.55158041 296.419008,10.3075707 C289.297759,19.596034 291.730802,131.520199 291.11827,154.149531 C290.775574,166.827614 309.129421,161.76634 310.688639,160.366572 C315.548695,155.991488 313.183991,34.3212336 313.184493,14.5188254" id="Fill-27" fill="#F8F6F6"></path>
                            <path d="M338.575496,18.3142656 C338.575999,5.29098587 333.201812,-0.266951682 321.810245,14.210849 C314.688882,23.2615341 317.120959,132.315649 316.50892,154.365147 C316.165715,166.71734 334.519857,161.786549 336.079602,160.422904 C340.939234,156.158706 338.574491,37.6090121 338.575496,18.3142656" id="Fill-29" fill="#F8F6F6"></path>
                            <path d="M363.965706,17.5703402 C363.965706,4.60418344 358.592624,-0.929090436 347.200265,13.4850305 C340.079035,22.4959192 342.512072,131.072227 341.899541,153.024264 C341.556846,165.322707 359.910645,160.413633 361.470361,159.055698 C366.329902,154.810837 363.965203,36.7799984 363.965706,17.5703402" id="Fill-31" fill="#F8F6F6"></path>
                            <path d="M9,4 C12.5273385,0.536859089 384.822599,-2.1746415 392,4 C396.648598,7.99913957 396.781049,63.7988466 392.397353,171.399121 C392.32736,173.117153 392.469649,176.96397 392.397353,178.708415 C392.336853,180.168221 392,182.066497 385.90653,181.106328 C379.813059,180.146158 57.0215924,173.692039 50.3068808,173.641719 C43.5921692,173.5914 18.4185831,177.995127 12.5273385,173.641719 C6.63609384,169.288312 9,161.876269 9,154.79267 C9,147.709071 5.47266152,7.46314091 9,4 Z" id="Rectangle-5" fill="#FFFFFF"></path>
                            <path d="M389.955455,27.0038426 C389.956034,14.9515558 383.768004,9.80792491 370.649542,23.206772 C362.449562,31.5825459 365.250783,132.505316 364.545993,152.910461 C364.1502,164.342523 385.286368,159.778267 387.081904,158.515898 C392.67798,154.57087 389.954877,44.8598389 389.955455,27.0038426" id="Fill-33" fill="#F8F6F6"></path>
                            <path d="M63.5176319,17.36379 C63.5176319,8.85258569 59.2841803,5.22057819 50.3085383,14.6818076 C44.6978185,20.5965769 46.6140177,91.8639682 46.1319487,106.274433 C45.8617283,114.345894 60.3222892,111.124114 61.5511123,110.232621 C65.3799883,107.446081 63.5171287,29.9722591 63.5176319,17.36379" id="Fill-35" fill="#2C2C2C"></path>
                            <path d="M90.9669089,17.36379 C90.9669089,8.85258569 86.7334716,5.22057819 77.75786,14.6818076 C72.1471592,20.5965769 74.0633519,91.8639682 73.5812845,106.274433 C73.3110651,114.345894 87.7715771,111.124114 89.0008992,110.232621 C92.829259,107.446081 90.9664057,29.9722591 90.9669089,17.36379" id="Fill-37" fill="#2C2C2C"></path>
                            <path d="M129.395599,15.2987963 C129.396102,6.78760956 125.162635,3.15610984 116.18696,12.61782 C110.576219,18.5320768 112.492425,89.7998211 112.010355,104.209256 C111.740133,112.281701 126.200747,109.059427 127.429575,108.167936 C131.258465,105.381401 129.395599,27.9077396 129.395599,15.2987963" id="Fill-39" fill="#2C2C2C"></path>
                            <path d="M158.845315,15.2987963 C158.845315,6.78760956 154.611878,3.15610984 145.636266,12.61782 C140.025565,18.5320768 141.941758,89.7998211 141.45969,104.209256 C141.189471,112.281701 155.649983,109.059427 156.879305,108.167936 C160.707665,105.381401 158.844812,27.9077396 158.845315,15.2987963" id="Fill-41" fill="#2C2C2C"></path>
                            <path d="M184.29427,15.2987963 C184.294773,6.78760956 180.061306,3.15610984 171.085631,12.61782 C165.474891,18.5320768 167.391097,89.7998211 166.909026,104.209256 C166.638805,112.281701 181.099419,109.059427 182.328247,108.167936 C186.157137,105.381401 184.29427,27.9077396 184.29427,15.2987963" id="Fill-43" fill="#2C2C2C"></path>
                            <path d="M224.09582,17.36379 C224.096323,8.85258569 219.862472,5.22057819 210.88705,14.6818076 C205.276468,20.5965769 207.193123,91.8639682 206.710563,106.274433 C206.440349,114.345894 220.901059,111.124114 222.129852,110.232621 C225.958634,107.446081 224.09582,29.9722591 224.09582,17.36379" id="Fill-45" fill="#2C2C2C"></path>
                            <path d="M252.918248,15.2987963 C252.918248,6.78760956 248.684364,3.15610984 239.708872,12.61782 C234.098749,18.5320768 236.014413,89.7998211 235.532352,104.209256 C235.26264,112.281701 249.722456,109.059427 250.951761,108.167936 C254.780573,105.381401 252.917242,27.9077396 252.918248,15.2987963" id="Fill-47" fill="#2C2C2C"></path>
                            <path d="M293.405567,17.36379 C293.405567,8.85258569 289.172058,5.22057819 280.196797,14.6818076 C274.586001,20.5965769 276.502226,91.8639682 276.02015,106.274433 C275.749423,114.345894 290.210181,111.124114 291.439524,110.232621 C295.268452,107.446081 293.405064,29.9722591 293.405567,17.36379" id="Fill-49" fill="#2C2C2C"></path>
                            <path d="M319.482507,17.36379 C319.482507,8.85258569 315.2491,5.22057819 306.274055,14.6818076 C300.66289,20.5965769 302.579572,91.8639682 302.097005,106.274433 C301.826788,114.345894 316.287198,111.124114 317.516008,110.232621 C321.345347,107.446081 319.482004,29.9722591 319.482507,17.36379" id="Fill-51" fill="#2C2C2C"></path>
                            <path d="M345.55957,15.2987963 C345.55957,6.78760956 341.325735,3.15610984 332.350346,12.61782 C326.740288,18.5320768 328.656433,89.7998211 328.173874,104.209256 C327.903661,112.281701 342.364318,109.059427 343.593106,108.167936 C347.421874,105.381401 345.559067,27.9077396 345.55957,15.2987963" id="Fill-53" fill="#2C2C2C"></path>
                            <path d="M378.498761,15.2989431 C378.499264,6.78770819 374.265309,3.15618794 365.289667,12.6174513 C359.678947,18.5317415 361.59565,89.7998888 361.113077,104.209405 C360.842857,112.281395 375.303418,109.059603 376.532241,108.168107 C380.361117,105.381557 378.498257,27.9079576 378.498761,15.2989431" id="Fill-55" fill="#2C2C2C"></path>
                            <path d="M17.5401808,17.3635112 C17.540684,8.85227176 13.3066838,5.22074956 4.33094565,14.682018 C-1.27983422,20.5963114 0.636888695,91.8639965 0.154311305,106.27352 C-0.115911904,114.346016 14.3443007,111.124221 15.5736402,110.232725 C19.4025571,107.445673 17.5391743,29.9725325 17.5401808,17.3635112" id="Fill-57" fill="#2C2C2C"></path>
                            <path d="M77.751805,118.588911 C79.5654176,114.812154 84.608582,109.883183 83.2324365,107.375852 C81.0451004,103.392184 69.6642696,110.630502 68.0696476,112.975151 C67.094985,114.440811 66.4168487,116.243485 66.3114659,118.311576 C66.9108628,117.467156 67.9786585,116.856634 68.9049992,116.599393 C72.0484917,115.236426 75.2140377,116.671752 77.751805,118.588911 Z" id="Fill-59" fill="#EB495F"></path>
                            <path d="M104.377364,109.024716 C105.700786,105.81941 108.397034,102.879811 108.156634,99.2659806 C107.636822,91.4401413 96.6247811,103.233452 94.4470351,106.851739 C95.2823416,106.46946 96.231316,106.423387 96.910094,106.273348 C99.5866832,105.680121 102.233869,106.652421 104.086367,108.803982 L104.377364,109.024716 Z" id="Fill-61" fill="#EB495F"></path>
                            <path d="M177.012648,154.076882 C168.036225,149.28346 157.879339,175.659775 154.57484,180.46419 C154.387425,180.737486 154.198511,181.007284 154.007597,181.273086 C147.804915,177.403474 152.014003,160.840335 152.854121,155.130596 C154.24499,145.67865 157.154168,136.073818 157.739902,126.536936 C158.031769,121.77399 161.858531,99.4461534 157.275613,98.7771527 C149.473157,97.6395017 148.336174,107.497145 147.262161,110.984542 C145.606913,116.357532 144.550893,121.887905 142.933628,127.26739 C140.788102,134.403065 133.894733,137.127032 131.285419,128.501969 C128.423219,119.04053 130.386827,109.12543 131.74571,99.5945427 C132.377922,95.1538568 134.323039,83.3536633 131.798685,79.6194501 C128.384236,74.5687195 124.037711,81.9941779 122.728805,85.7343865 C121.056565,90.51332 120.707224,95.639994 119.500772,100.533842 C118.610176,104.146146 115.603542,127.54868 110.528847,127.255399 C106.769555,127.039061 104.685501,114.564371 104.360149,111.68502 C104.193725,110.203125 104.492589,108.895601 105.004356,107.675012 C103.105719,105.504132 100.216031,104.18112 97.4727776,104.779673 C96.7770936,104.93106 95.8370206,105.152395 94.9809095,105.538107 C94.8519681,105.74895 94.7505141,105.93581 94.6855436,106.088196 C93.1182556,109.764953 87.3213887,144.9417 79.6963523,135.377838 C76.8891274,131.855966 76.8126622,124.343073 77.200486,119.960344 C77.2564606,119.329814 77.5103453,118.607353 77.8801773,117.830433 C75.4532797,115.693528 71.8809024,114.392499 68.8242908,115.731999 C67.9241997,115.984811 67.1990291,116.713267 66.6162938,117.543148 C66.4658621,120.519426 66.8376932,123.779493 66.6302874,126.265138 C63.32229,165.850096 57.6408707,205.269677 53.8216056,244.827655 C52.1748536,261.884925 52.6826229,281.456319 44.6042924,296.873813 C44.0210574,297.987982 43.4833016,299.134626 42.9795305,300.303254 C53.2453673,304.913313 63.4122492,309.74171 74.0429203,313.485416 C85.1128919,317.383507 96.8305693,320.552641 108.626211,320.117466 C114.073237,319.916117 119.316355,318.966325 124.415039,316.792947 C129.474241,314.637056 134.070154,311.136169 137.810954,306.977273 C138.226266,306.515118 138.691055,306.258809 139.160841,306.160382 C140.398279,292.330204 141.456299,280.359638 142.139988,272.469526 C143.361933,258.34057 145.000689,244.618311 150.790059,231.497603 C154.877202,222.235516 162.277341,213.673406 165.024593,203.889208 C166.735816,197.796754 180.130231,155.74164 177.012648,154.076882" id="Fill-63" fill="#EB495F"></path>
                            <path d="M145.146353,278.048103 C133.65623,279.974785 104.531493,277.409198 98.565353,276.87794 C88.5626669,275.987859 51.1949289,270.614977 45.6475964,264.41431 C46.154835,264.980952 40.7813845,285.350657 40.5573251,288.052298 C39.920917,295.707197 38.8910388,306.473394 45.6659782,311.081284 C51.7036579,315.188317 61.458438,316.05348 68.2671602,318.07834 C75.757003,320.305537 83.4261927,321.056076 91.2041829,321.906288 C101.992816,323.08592 112.232478,322.968305 123.024588,322.816304 C130.40265,322.712145 139.315841,323.7627 142.28972,314.077958 C143.142239,311.302558 147.339253,277.682303 145.146353,278.048103" id="Fill-65" fill="#FFFFFF"></path>
                            <path d="M140.509399,350.474803 C141.429967,338.978329 142.026863,331.055465 141.392505,325.07716 C136.789663,326.635383 132.021988,327.756253 127.268798,328.536355 C115.886317,330.405628 104.236606,330.626533 92.7437364,329.688429 C81.2233947,328.748345 69.7335222,326.758713 58.623765,323.603139 C50.642342,321.335642 42.705374,318.495576 35.3438237,314.652026 C28.0706839,332.398231 23.0212938,358.044516 19.5063508,377.277125 L138.61132,377.277125 C139.185239,368.25667 139.802614,359.303081 140.509399,350.474803" id="Fill-71" fill="#FFFFFF"></path>
                            <path d="M282.276456,160.197406 C282.884695,160.14244 283.494425,159.971049 284.104156,159.666241 C290.225832,156.59868 286.660947,142.300719 286.843468,136.92062 C287.073733,130.111924 287.299523,123.281242 286.467484,116.501028 C286.004964,112.734409 277.613955,96.4786851 283.247251,93.977766 C285.710045,92.8924521 286.264572,95.4038645 287.802824,96.6925499 C293.185961,101.2012 295.698489,107.51221 298.473609,113.773252 C299.861666,116.904773 300.05314,127.121814 303.084387,128.870709 C312.654075,134.391719 311.299837,104.971317 310.317603,101.443047 C309.60393,98.8791676 304.154151,88.8889829 306.581138,86.6144208 C314.991045,78.7398986 322.955342,106.27949 324.417999,110.753162 C325.888116,115.246821 326.051739,126.553174 331.31651,128.666338 C337.857439,131.291179 338.908304,117.580845 338.275696,113.816725 C337.030373,106.414404 329.644973,99.7031468 332.783644,91.7971445 C333.520692,89.9393189 341.780902,97.78386 342.443847,98.4944109 C345.391045,101.653414 347.472882,104.683498 348.774901,108.970788 C350.92537,116.052312 348.578454,125.241003 352.591437,131.825841 C356.760583,138.667516 358.936914,131.743892 359.741599,126.980903 C360.31204,123.605037 360.251366,121.042657 359.472542,117.89065 C358.763344,115.020964 354.021768,108.022388 357.594113,105.419033 C360.452786,103.335351 364.410067,110.343421 365.322177,112.694434 C367.413464,118.084527 368.143549,124.634387 368.935801,130.348774 C370.292029,140.132589 369.84045,150.007847 371.403569,159.732699 C375.01968,182.245968 379.330566,204.245561 380.980221,227.002675 C382.250907,244.540089 386.747298,258.002578 390.887101,274.335254 C394.649926,289.183867 382.495098,292.094028 369.454022,293.555104 C344.329238,296.370324 313.67709,304.434726 305.164235,271.133278 C303.781151,265.722698 304.342143,262.040026 301.711747,256.523513 C295.810886,244.150835 286.811639,233.85934 281.996954,220.771614 C277.926778,209.710606 274.424059,198.450724 270.62294,187.294776 C265.909712,173.460521 260.171479,161.097836 253.720568,148.21448 C253.718082,148.209484 253.715098,148.204487 253.711119,148.194993 C251.392053,143.551428 251.457204,138.452651 257.117355,139.415543 C260.703626,140.025657 264.713128,144.740676 267.272405,147.154151 C270.538394,150.233704 276.313429,160.745059 282.276456,160.197406" id="Fill-67" fill="#EB495F"></path>
                            <path d="M299.008367,270.560186 C310.034576,271.129661 337.051477,265.282009 342.584993,264.07839 C351.863278,262.061664 386.265668,252.521945 390.697958,245.817071 C390.292216,246.429157 397.881821,265.750723 398.430443,268.369008 C399.984208,275.789235 402.296685,286.207732 396.513252,291.49393 C391.35959,296.205639 382.311308,298.169728 376.173411,300.931384 C369.421675,303.969757 362.316969,305.582436 355.122651,307.306403 C345.142907,309.696597 335.517127,310.754338 325.368116,311.842658 C318.429689,312.586585 310.195379,314.634392 306.193226,305.496714 C305.0457,302.878429 296.904486,270.453409 299.008367,270.560186" id="Fill-69" fill="#FFFFFF"></path>
                            <path d="M417.138455,333.819173 C414.39754,326.359343 410.001414,307.273497 404.311313,302.048802 C396.833464,295.182562 378.182689,309.325177 370.584262,311.51005 C361.160717,314.220659 351.497511,318.118448 341.683333,318.966361 C334.979278,319.545878 329.409755,318.259683 324.741082,319.180978 C320.976249,319.923845 317.79886,322.102184 315.086845,327.850103 C309.391263,339.921939 310.519816,354.797369 313.333975,369.690892 L427.674608,369.690892 C424.736384,357.552208 421.433933,345.509524 417.138455,333.819173" id="Fill-73" fill="#FFFFFF"></path>
                        </g>
                    </g>
                </g>
            </g>
        </g>
    </g>
</svg>