<?xml version="1.0" encoding="UTF-8"?>
<svg width="1140px" height="712px" viewBox="0 0 1140 712" version="1.1" xmlns="http://www.w3.org/2000/svg" xmlns:xlink="http://www.w3.org/1999/xlink">
    <!-- Generator: Sketch 47 (45396) - http://www.bohemiancoding.com/sketch -->
    <title>Page 1</title>
    <desc>Created with Sketch.</desc>
    <defs></defs>
    <g id="Page-1" stroke="none" stroke-width="1" fill="none" fill-rule="evenodd">
        <g id="Lalaland_1-Copy" transform="translate(-148.000000, -2737.000000)">
            <g id="Page-1" transform="translate(148.000000, 2737.000000)">
                <g id="Group-3">
                    <path d="M0.000132075285,651.371386 L0.000132075285,67.4556448 C0.000132075285,5.33256767 36.2587599,0.00109477599 74.007197,0.00109477599 L1069.58163,0.00109477599 C1116.78005,0.00109477599 1139.54191,13.0875573 1139.54191,82.8323043 L1139.54191,645.657114 C1139.54191,676.669152 1130.99663,711.720386 1078.45312,711.488066 C1072.19011,711.459026 1026.36906,711.534266 963.355937,711.609506 C859.155141,711.736226 63.0911748,711.861625 53.0521324,711.515786 C35.3831008,710.912547 0.000132075285,697.481565 0.000132075285,651.371386 Z M307.216753,27.8757616 C293.624886,27.9589215 266.824169,28.0090814 253.22966,28.0592414 C231.042333,28.1437212 115.522685,28.2268811 93.3327168,28.311361 C81.7932992,28.352281 79.5559439,28.4394008 68.017847,28.4394008 C36.2722316,28.4394008 39.2595944,45.5320581 39.2595944,63.3955942 C39.2595944,84.6832058 40.2014813,292.326849 40.1803492,313.614461 C40.1526134,344.770379 40.1328021,375.923657 40.1394059,407.080896 C40.1446889,421.561277 40.0350664,631.867356 40.0548777,646.346417 C40.0760097,659.01972 34.7731771,684.621086 61.1089889,684.621086 C78.9642466,684.621086 219.473859,684.561686 237.327796,684.569606 C256.222486,684.572246 288.324705,684.585446 307.216753,684.593366 C341.346328,684.610526 930.190776,684.619766 964.31903,684.639566 C971.568642,684.643526 977.667879,684.642206 983.397305,684.642206 C994.510119,684.636926 1004.24011,684.635606 1018.29952,684.676526 C1030.12422,684.706886 1057.15211,687.352162 1057.15211,642.235942 C1057.15211,624.228526 1056.74531,77.4971354 1056.86682,62.6101953 C1057.15211,27.3834023 1030.37648,27.2923224 1023.70008,27.3121224 C1003.80954,27.3768023 983.920323,27.4480822 964.028464,27.5154021 C929.996626,27.6315619 341.251233,27.7556418 307.216753,27.8757616 Z" id="Combined-Shape" fill="#F4F4FC"></path>
                    <circle id="Oval" fill="#847FE2" cx="20" cy="356" r="4"></circle>
                </g>
                <path d="M1093.16975,344.5842 C1092.1104,345.71515 1091.08041,347.235505 1090.30185,349.021891 C1089.52712,350.805707 1089,352.852982 1089,355.019778 C1089,356.525997 1089.25782,358.084908 1089.85641,359.632252 C1090.45373,361.174456 1091.39566,362.701237 1092.73963,364.136772 L1093.3127,363.521176 L1093.88832,362.906865 C1092.68092,361.615269 1091.87173,360.291544 1091.35865,358.966534 C1090.84429,357.641524 1090.62604,356.316514 1090.62604,355.019778 C1090.62604,353.156282 1091.08041,351.349334 1091.77601,349.755723 C1092.46905,348.163398 1093.40332,346.790837 1094.31717,345.814108 C1095.55648,344.490383 1096.88513,343.468673 1098.25846,342.778537 C1099.62795,342.093541 1101.03574,341.736264 1102.4499,341.736264 C1103.72623,341.738835 1105.01149,342.025427 1106.29164,342.641024 C1107.57179,343.257905 1108.85067,344.205075 1110.09253,345.530085 C1111.32929,346.85124 1112.14359,348.187816 1112.65156,349.498689 C1113.16209,350.810847 1113.37269,352.106298 1113.37269,353.356769 C1113.37269,355.360348 1112.83025,357.254688 1112.1053,358.840588 C1111.38545,360.418776 1110.47543,361.687239 1109.82323,362.385086 C1107.31015,365.07109 1104.34397,366.257302 1101.49394,366.261157 C1098.63752,366.261157 1095.90108,365.059524 1093.88832,362.906865 L1093.3127,363.521176 L1092.73963,364.136772 C1095.05743,366.617149 1098.21123,367.999992 1101.49394,367.999992 C1104.77154,368.003848 1108.17677,366.610724 1110.97192,363.611138 C1111.77218,362.752644 1112.7575,361.368516 1113.56669,359.603978 C1114.37205,357.83944 1114.99872,355.694492 1115,353.356769 C1115,351.898101 1114.75367,350.364894 1114.1538,348.831686 C1113.55775,347.295908 1112.612,345.766556 1111.24123,344.300178 C1109.88194,342.844081 1108.44225,341.769679 1106.95916,341.056409 C1105.4799,340.34314 1103.95724,340 1102.4499,340 C1100.7792,340 1099.12891,340.425391 1097.56541,341.205489 C1096.00319,341.992013 1094.52265,343.134529 1093.16975,344.5842" id="Fill-4" fill="#FFFFFF"></path>
                <path d="M1080.25185,335.363756 C1078.38675,337.612434 1076.82081,340.2791 1075.72214,343.394179 C1074.62611,346.509259 1074,350.071428 1074,354.104497 L1074.84452,354.104497 L1075.68905,354.104497 C1075.68905,348.986772 1076.74139,344.751322 1078.46485,341.256613 C1081.05137,336.013227 1085.1747,332.404762 1089.65015,330.089947 C1094.12426,327.777778 1098.94916,326.787037 1102.81173,326.787037 L1102.82497,326.787037 C1106.66371,326.787037 1110.23903,327.373016 1113.43577,328.527778 C1118.23684,330.257936 1122.18545,333.248677 1124.95067,337.480158 C1127.71324,341.71164 1129.31359,347.206349 1129.31359,354.010581 C1129.31359,359.593914 1128.10902,364.044973 1126.20819,367.612433 C1124.77991,370.288359 1122.95452,372.470898 1120.92529,374.247353 C1117.88209,376.912697 1114.3756,378.657406 1111.1087,379.734126 C1107.84842,380.8082 1104.82376,381.208993 1102.80908,381.210316 L1102.76937,381.210316 C1094.53064,381.20767 1087.77975,377.956348 1083.06604,372.948411 C1078.35498,367.941798 1075.68905,361.166666 1075.68905,354.104497 L1074.84452,354.104497 L1074,354.104497 C1074,361.645502 1076.84729,368.871692 1081.87339,374.214284 C1086.89552,379.555554 1094.10705,383.002644 1102.76937,382.999998 L1102.81173,382.999998 C1104.78008,382.997353 1107.48705,382.658729 1110.47465,381.792327 C1114.95538,380.492062 1120.06753,377.99603 1124.09158,373.574073 C1126.10361,371.366401 1127.83502,368.675925 1129.06077,365.429893 C1130.28387,362.191798 1131.00264,358.402116 1130.99999,354.010581 C1131.00264,349.276454 1130.25475,345.085978 1128.8728,341.464285 C1126.80121,336.026455 1123.2828,331.879629 1118.78353,329.128307 C1114.28559,326.373016 1108.82531,325 1102.82497,325 L1102.80908,325 C1100.05843,325 1096.90404,325.465608 1093.702,326.493386 C1088.9049,328.039682 1083.98734,330.867725 1080.25185,335.363756" id="Fill-6" fill="#FFFFFF"></path>
                <path d="M1125.5724,367.946242 C1125.09304,368.913888 1124.56685,369.816492 1124,370.656711 C1124.34627,371.188983 1124.7061,371.632321 1125.07825,372 C1126.32409,370.193463 1127.39741,368.120126 1128.22797,365.757425 C1129.21627,362.932802 1129.85336,359.692716 1130,356 C1129.38879,356.783143 1128.80345,357.546375 1128.26001,358.293678 C1127.85952,362.080637 1126.89834,365.26232 1125.5724,367.946242" id="Fill-8" fill="#FFFFFF"></path>
                <path d="M1093,326.431357 C1093.04841,327.005571 1093.17925,327.532033 1093.4069,328 C1096.5313,327.043772 1099.63607,326.61162 1102.2816,326.61162 L1102.29469,326.61162 C1103.02999,326.61162 1103.75876,326.633108 1104.47444,326.673697 C1104.99124,326.191405 1105.50151,325.687624 1106,325.168325 C1104.79106,325.056108 1103.55334,325 1102.29469,325 L1102.27899,325 C1099.56019,325 1096.44233,325.419021 1093.27738,326.347791 L1093,326.431357 Z" id="Fill-10" fill="#FFFFFF"></path>
                <path d="M1123.90015,338.757713 C1124.55247,339.766484 1125.1385,340.851718 1125.65558,342 C1126.10107,341.604272 1126.54921,341.215251 1127,340.830255 C1124.87466,336.274688 1121.67537,332.738623 1117.72432,330.289134 C1116.96594,329.819626 1116.18103,329.389021 1115.36961,329 C1114.91617,329.446703 1114.45875,329.894748 1114,330.341451 C1118.07302,332.152409 1121.44865,334.96409 1123.90015,338.757713" id="Fill-12" fill="#FFFFFF"></path>
                <path d="M1112.74786,349.758776 C1113.23745,351.083663 1113.43941,352.390384 1113.43941,353.654282 C1113.43941,355.677298 1112.92044,357.590015 1112.22399,359.191299 C1111.53488,360.784797 1110.66095,362.064267 1110.0355,362.768884 C1109.847,362.984292 1109.65116,363.190616 1109.45655,363.383964 C1109.3011,364.246893 1109.14688,365.122797 1109,366 C1109.74296,365.438123 1110.459,364.773733 1111.13831,364.00683 C1111.90575,363.141306 1112.84945,361.742453 1113.62668,359.960798 C1114.39902,358.18044 1114.99878,356.013386 1115,353.654282 C1115,352.181464 1114.76377,350.633383 1114.18972,349.084005 C1113.93268,348.387174 1113.6071,347.690343 1113.20808,347 C1112.99755,347.707212 1112.78213,348.472818 1112.56304,349.285139 C1112.62913,349.442153 1112.69155,349.600464 1112.74786,349.758776" id="Fill-14" fill="#FFFFFF"></path>
                <path d="M1124,335 C1124.171,335.196 1124.34,335.397 1124.5,335.603 C1124.34,335.397 1124.171,335.196 1124,335" id="Fill-16" fill="#1F1F1D"></path>
                <path d="M1123,333 C1123.119,333.112 1123.233,333.229 1123.351,333.343 C1123.233,333.229 1123.119,333.112 1123,333" id="Fill-18" fill="#1F1F1D"></path>
                <path d="M1122,332 C1122.213,332.183 1122.427,332.368 1122.631,332.561 C1122.427,332.368 1122.213,332.183 1122,332" id="Fill-20" fill="#1F1F1D"></path>
                <path d="M1123,334 C1123.186,334.185 1123.368,334.37 1123.546,334.564 C1123.368,334.37 1123.186,334.185 1123,334" id="Fill-22" fill="#1F1F1D"></path>
                <path d="M1124,334 C1124.115,334.124 1124.229,334.251 1124.341,334.38 C1124.229,334.251 1124.115,334.124 1124,334" id="Fill-24" fill="#1F1F1D"></path>
                <path d="M1125,336 C1125.107,336.132 1125.214,336.265 1125.316,336.398 C1125.214,336.265 1125.107,336.132 1125,336" id="Fill-26" fill="#1F1F1D"></path>
                <path d="M1131,358 C1130.70523,360.977017 1130.00663,363.63586 1129,366 C1130.00663,363.638468 1130.70671,360.978321 1131,358" id="Fill-28" fill="#FFFFFF"></path>
                <path d="M1129,366 C1128.44079,367.449452 1127.76503,368.781973 1127,370 C1127.76503,368.781973 1128.44079,367.449452 1129,366" id="Fill-30" fill="#1F1F1D"></path>
                <polygon id="Fill-32" fill="#1F1F1D" points="1120 331 1120 331 1120.019 331.015"></polygon>
                <path d="M1121,332 C1121.109,332.088 1121.212,332.182 1121.318,332.272 C1121.212,332.182 1121.109,332.088 1121,332" id="Fill-34" fill="#1F1F1D"></path>
                <path d="M1120,331 C1120.336,331.236 1120.662,331.485 1120.979,331.745 C1120.662,331.485 1120.336,331.236 1120,331" id="Fill-36" fill="#1F1F1D"></path>
                <path d="M1128.22674,349.995989 C1128.35982,351.31237 1128.4313,352.682902 1128.4313,354.1179 C1128.4313,354.928873 1128.40542,355.717929 1128.35613,356.481198 C1128.32532,356.999499 1128.28096,357.504907 1128.22797,358 C1128.77017,357.27541 1129.35551,356.53277 1129.96672,355.772079 C1129.9889,355.230571 1129.99999,354.676169 1129.99999,354.1179 C1130.00246,349.503474 1129.30745,345.418953 1128.02095,341.890122 C1127.78558,341.239023 1127.5231,340.611131 1127.24584,340 C1126.82686,340.370031 1126.41158,340.745219 1126,341.121696 C1127.12261,343.705465 1127.88293,346.660554 1128.22674,349.995989" id="Fill-38" fill="#FFFFFF"></path>
                <path d="M1125,370.243 L1125.159,370 L1125,370.243 Z" id="Fill-40" fill="#1F1F1D"></path>
                <path d="M1124,370.519 C1124.119,370.349 1124.236,370.176 1124.354,370 C1124.236,370.176 1124.119,370.349 1124,370.519" id="Fill-42" fill="#1F1F1D"></path>
                <path d="M1125,369.788 C1125.163,369.531 1125.321,369.27 1125.472,369 C1125.321,369.271 1125.163,369.531 1125,369.788" id="Fill-44" fill="#1F1F1D"></path>
                <path d="M1126,337 C1126.086,337.128 1126.178,337.253 1126.262,337.386 C1126.178,337.253 1126.086,337.128 1126,337" id="Fill-46" fill="#1F1F1D"></path>
                <path d="M1127.58,339.998239 C1127.396,339.65581 1127.202,339.324824 1127,339 C1127.202,339.324824 1127.394,339.658451 1127.577,340 L1127.58,339.998239 Z" id="Fill-48" fill="#1F1F1D"></path>
                <path d="M1126,338 C1126.189,338.291 1126.37,338.591 1126.545,338.896 C1126.37,338.591 1126.189,338.291 1126,338" id="Fill-50" fill="#1F1F1D"></path>
                <path d="M1125,336 C1125.165,336.224 1125.324,336.449 1125.484,336.681 C1125.324,336.449 1125.165,336.224 1125,336" id="Fill-52" fill="#1F1F1D"></path>
                <path d="M1127,339 L1127.137,339.231 L1127,339 Z" id="Fill-54" fill="#1F1F1D"></path>
                <path d="M1123.98758,337.845297 L1124.01242,337.881188 L1124.01491,337.891089 L1124.03975,337.924505 L1124.04845,337.935644 L1124.06584,337.967822 L1124.09565,338.008663 L1124.11925,338.050743 L1124.12422,338.053218 L1124.14907,338.089109 L1124.15528,338.097772 L1124.17516,338.133663 L1124.18261,338.143564 L1124.20497,338.179455 L1124.21242,338.189356 L1124.23354,338.22401 L1124.24099,338.233911 L1124.26211,338.268564 L1124.26832,338.278465 L1124.28944,338.315594 L1124.29565,338.32302 L1124.31925,338.360149 L1124.32422,338.365099 L1124.34783,338.403465 L1124.34783,338.405941 L1124.37516,338.44802 L1124.37764,338.450495 L1124.40373,338.492574 L1124.40497,338.496287 L1124.4323,338.539604 C1124.90807,339.316832 1125.34783,340.137376 1125.74037,341 C1126.15776,340.634901 1126.57764,340.27599 1127,339.920792 C1125.23354,336.191832 1122.67702,333.20297 1119.5354,331 C1119.35901,331.553218 1119.17888,332.09901 1119,332.636139 C1120.93416,334.053218 1122.61366,335.790842 1123.98758,337.845297" id="Fill-56" fill="#FFFFFF"></path>
            </g>
        </g>
    </g>
</svg>