<?xml version="1.0" encoding="UTF-8"?>
<svg width="556px" height="458px" viewBox="0 0 556 458" version="1.1" xmlns="http://www.w3.org/2000/svg" xmlns:xlink="http://www.w3.org/1999/xlink">
    <!-- Generator: Sketch 47 (45396) - http://www.bohemiancoding.com/sketch -->
    <title>Group 8</title>
    <desc>Created with Sketch.</desc>
    <defs>
        <rect id="path-1" x="0" y="0" width="555" height="420"></rect>
        <rect id="path-3" x="5" y="0" width="550" height="420"></rect>
        <rect id="path-5" x="0" y="0" width="556" height="508"></rect>
    </defs>
    <g id="Page-1" stroke="none" stroke-width="1" fill="none" fill-rule="evenodd">
        <g id="Lalaland_1-Copy-2" transform="translate(-733.000000, -1753.000000)">
            <g id="Group-8" transform="translate(733.000000, 1703.000000)">
                <g id="Group-20" transform="translate(0.000000, 88.000000)">
                    <g>
                        <mask id="mask-2" fill="white">
                            <use xlink:href="#path-1"></use>
                        </mask>
                        <use id="Mask" fill="#FFFFFF" xlink:href="#path-1"></use>
                        <mask id="mask-4" fill="white">
                            <use xlink:href="#path-3"></use>
                        </mask>
                        <g id="Mask"></g>
                    </g>
                </g>
                <g id="Group">
                    <mask id="mask-6" fill="white">
                        <use xlink:href="#path-5"></use>
                    </mask>
                    <g id="Mask"></g>
                    <g mask="url(#mask-6)" id="Page-1">
                        <g transform="translate(-24.000000, 50.000000)">
                            <g>
                                <path d="M125.010266,491.143615 C125.367407,456.819705 227.658068,398.392321 348.704056,369.994165 C369.454322,365.125848 578.880501,337.71694 589.149934,339.295698 C591.912909,352.066823 587.287389,492.039783 587.287389,492.039783 C587.287389,492.039783 152.911654,490.614356 125.010266,491.143615 Z" id="Fill-1" fill="#05C872"></path>
                                <path d="M194.920482,83.1940367 C194.246604,82.4143988 193.142713,82.4014108 192.358084,83.0053506 C191.197195,83.8989938 190.165093,84.9484925 189.004203,85.8424965 C188.219936,86.4457147 188.195765,87.6875072 188.815532,88.40437 C189.48905,89.1843687 190.593301,89.1973566 191.377569,88.5934169 C192.538459,87.6994129 193.570561,86.6499142 194.731811,85.756271 C195.515718,85.152692 195.540249,83.9108995 194.920482,83.1940367" id="Fill-3" fill="#FDC004"></path>
                                <path d="M206.071622,73.2638817 C204.716289,74.557626 203.235055,75.7492705 201.602306,76.6753837 C199.577784,77.8240959 201.146681,81.1035537 203.189601,79.944379 C205.093632,78.8634928 206.861662,77.5257337 208.444988,76.014802 C210.13221,74.4046568 207.772192,71.6411092 206.071622,73.2638817" id="Fill-5" fill="#FDC004"></path>
                                <path d="M218.134518,65.4902678 C217.15256,65.1352638 216.211367,65.680397 215.809854,66.5830596 C215.25863,67.8216052 214.5411,68.3396801 213.470037,68.9382082 C212.606766,69.4205663 212.178196,70.4357912 212.629132,71.3658729 C213.042189,72.2173053 214.192256,72.6899224 215.056971,72.2068428 C216.976154,71.134976 218.325355,69.8426748 219.227226,67.815472 C219.630543,66.9095623 219.014385,65.8084726 218.134518,65.4902678" id="Fill-7" fill="#FDC004"></path>
                                <path d="M231.357871,57.4978791 C230.949864,56.6558269 229.787532,56.1608416 228.930393,56.6569092 C227.474411,57.4986007 226.481631,58.7331776 225.183296,59.7530926 C224.405161,60.3638871 224.369808,61.5926917 224.994264,62.3153269 C225.663453,63.0891924 226.777805,63.115529 227.556662,62.504013 C228.585878,61.695513 229.371949,60.5879293 230.516966,59.9255438 C231.373023,59.4305585 231.813858,58.4377017 231.357871,57.4978791" id="Fill-9" fill="#FDC004"></path>
                                <path d="M236.682053,49.0478094 C235.771884,50.2932097 234.315181,51.1186662 233.200828,52.1739373 C231.506391,53.7775886 233.867492,56.5407753 235.574194,54.9248576 C236.93566,53.6358034 238.555421,52.6386173 239.674825,51.1067606 C241.059739,49.2116019 238.062639,47.1580624 236.682053,49.0478094" id="Fill-11" fill="#FDC004"></path>
                                <path d="M249.08528,41.2111319 C248.403465,42.1433782 247.371363,42.6275402 246.262421,42.8551901 C243.969863,43.3260033 244.626786,46.8991332 246.922952,46.4275984 C248.986435,46.0036861 250.822646,44.9866573 252.078051,43.270083 C253.464048,41.3760067 250.466947,39.3224672 249.08528,41.2111319" id="Fill-13" fill="#FDC004"></path>
                                <path d="M261.556832,32.3330009 C259.853016,33.2987995 258.29891,34.5023497 256.595455,35.4677874 C254.570933,36.615778 256.138747,39.8955967 258.182389,38.7367827 C259.885844,37.7709842 261.44031,36.5677948 263.143405,35.602357 C265.168288,34.4543664 263.600113,31.1745478 261.556832,32.3330009" id="Fill-15" fill="#FDC004"></path>
                                <path d="M272.932033,24.31911 C271.718474,25.4649359 270.352319,26.2921963 268.899584,27.0952847 C266.860271,28.2230718 268.43025,31.5010865 270.486518,30.3646408 C272.19827,29.4179634 273.875752,28.419695 275.305399,27.0700303 C277.001639,25.4681829 274.640539,22.705357 272.932033,24.31911" id="Fill-17" fill="#FDC004"></path>
                                <path d="M285.853475,17.6035452 C285.175268,16.8188564 284.081477,16.8184956 283.291438,17.4148591 L280.374063,19.6170385 C279.584023,20.2134019 279.569954,21.4678216 280.185031,22.1796335 C280.863599,22.9643223 281.957028,22.9646831 282.747429,22.3683196 L285.664804,20.1661402 C286.454483,19.5697768 286.468552,18.3153571 285.853475,17.6035452" id="Fill-19" fill="#FDC004"></path>
                                <path d="M297.72117,9.86655013 C297.038273,9.07644973 295.954945,9.08835535 295.158772,9.67786406 C293.831578,10.6602583 292.482738,11.4972596 291.495008,12.8609946 C290.118752,14.7615649 293.11477,16.8158259 294.487779,14.9199457 C295.259782,13.8542121 296.488853,13.2012068 297.532499,12.4287844 C298.32795,11.8399973 298.331557,10.5729504 297.72117,9.86655013" id="Fill-21" fill="#FDC004"></path>
                                <g id="Group-25" transform="translate(301.802609, 0.133487)" fill="#FDC004">
                                    <path d="M5.41887873,0.476188822 C3.86224799,1.37271827 2.5451544,2.61775776 0.992852638,3.51176178 C-1.02228973,4.67274036 0.544441974,7.95328052 2.57978627,6.7807571 C4.13641702,5.88386687 5.45387136,4.63918815 7.00545162,3.74518414 C9.02095474,2.58420556 7.45458378,-0.696334605 5.41887873,0.476188822" id="Fill-23"></path>
                                </g>
                                <path d="M210.318861,82.5615956 C209.636685,81.7722167 208.551914,81.7826793 207.756463,82.3729095 C207.156177,82.8188292 206.51693,83.2113539 205.933239,83.6800025 C205.117225,84.3355333 204.711744,85.1296023 204.775957,86.1819871 C204.836202,87.1726793 206.008636,87.8011518 206.892109,87.6377201 C207.581861,87.5100052 208.010791,87.0713011 208.213171,86.5106545 C208.393906,86.3483051 208.594122,86.2065199 208.79073,86.064374 C209.233008,85.7447261 209.69188,85.449611 210.13019,85.1238299 C210.924919,84.5339604 210.93033,83.2687174 210.318861,82.5615956" id="Fill-26" fill="#FDC004"></path>
                                <path d="M222.087242,74.2884146 C221.409035,73.5037258 220.315244,73.5030043 219.525205,74.0997285 C218.552626,74.8339086 217.580408,75.5677278 216.60783,76.3019079 C215.81779,76.8979106 215.803721,78.152691 216.418798,78.8645029 C217.097366,79.6488309 218.190795,79.6491917 218.981196,79.0528282 C219.953774,78.319009 220.925992,77.5848289 221.898931,76.8510096 C222.68861,76.2546462 222.702319,75.0002265 222.087242,74.2884146" id="Fill-28" fill="#FDC004"></path>
                                <path d="M232.123055,67.2680659 C231.950257,66.3336549 230.970102,65.5803537 230.006542,65.8123329 C229.429345,65.9515926 229.040457,66.178521 228.558497,66.5187332 C228.481297,66.5732104 228.406622,66.6309347 228.330865,66.6882981 C228.301283,66.7038115 228.271341,66.7193249 228.240317,66.7319521 C228.20352,66.7460224 228.16492,66.7575672 228.129206,66.7738021 L228.123795,66.7759668 C228.125238,66.775606 228.126681,66.7752452 228.128124,66.7745237 C227.36983,67.116179 226.880655,67.8853544 227.042631,68.7624019 C227.21543,69.6964521 228.195945,70.4497533 229.159144,70.2181348 C229.736342,70.0788751 230.12559,69.8515859 230.607189,69.5117345 C230.684389,69.4568965 230.759425,69.3991723 230.835182,69.3421696 C230.864764,69.3266562 230.894706,69.3111428 230.925369,69.2985157 C230.962166,69.2844454 231.000766,69.2729005 231.03648,69.2566656 C231.038284,69.255944 231.040448,69.2552225 231.041891,69.2545009 C231.040809,69.2548617 231.039366,69.2555833 231.037923,69.255944 C231.795856,68.913928 232.285392,68.1451134 232.123055,67.2680659" id="Fill-30" fill="#FDC004"></path>
                                <path d="M175.430167,93.3411987 C174.074834,94.634943 172.5936,95.8265876 170.961212,96.7527007 C168.93705,97.9014129 170.504864,101.180871 172.548145,100.021696 C174.452538,98.9408098 176.220567,97.6030508 177.803533,96.0921191 C179.490754,94.4819738 177.130015,91.7184263 175.430167,93.3411987" id="Fill-32" fill="#FDC004"></path>
                                <path d="M183.130601,100.337592 C182.446982,99.5467699 181.365097,99.561201 180.568203,100.148906 C179.454571,100.970394 178.229829,101.628089 177.115116,102.449938 C176.318583,103.037643 176.316418,104.307215 176.926444,105.012533 C177.609702,105.802994 178.691588,105.788924 179.488482,105.201219 C180.602474,104.379731 181.827216,103.722036 182.941929,102.900187 C183.738462,102.312843 183.739905,101.04291 183.130601,100.337592" id="Fill-34" fill="#FDC004"></path>
                                <path d="M195.970658,91.866056 C195.302191,91.0929121 194.185673,91.06405 193.40826,91.6773699 C192.374715,92.4923639 191.623636,93.6003084 190.590091,94.4153023 C189.813399,95.0282615 189.775881,96.2541799 190.401419,96.9778974 C191.069526,97.7510413 192.186404,97.7799034 192.963457,97.1665835 C193.997002,96.3515895 194.748081,95.243645 195.781986,94.4286511 C196.558678,93.8156919 196.596196,92.5897736 195.970658,91.866056" id="Fill-36" fill="#FDC004"></path>
                                <path d="M241.635314,60.1427312 C240.956745,59.3580424 239.863316,59.3573209 239.072915,59.9540451 C238.100698,60.6882252 237.128119,61.4220444 236.155901,62.1562245 C235.365862,62.7522272 235.351792,64.0066469 235.966869,64.7184588 C236.645437,65.5031475 237.738867,65.5035083 238.529267,64.9071448 C239.501485,64.1733256 240.474064,63.4391455 241.446642,62.7053262 C242.236321,62.108602 242.25039,60.8545431 241.635314,60.1427312" id="Fill-38" fill="#FDC004"></path>
                                <path d="M253.22296,49.5776818 C251.883139,50.8238036 250.246061,51.5850419 248.655159,52.4534308 C246.608271,53.5700339 248.179692,56.847327 250.241732,55.7220653 C252.098506,54.7093659 254.03248,53.7832527 255.596325,52.3289629 C257.306274,50.7386604 254.944092,47.9772775 253.22296,49.5776818" id="Fill-40" fill="#FDC004"></path>
                                <path d="M266.036935,40.8457736 C265.204326,40.2732214 264.094303,40.5138592 263.511333,41.3133398 C263.509168,41.316226 263.508807,41.3165868 263.507004,41.3191122 C263.395172,41.3458097 263.282618,41.3685386 263.168982,41.3898244 C262.195682,41.5709342 261.533347,42.5320426 261.713361,43.506139 C261.893375,44.4791531 262.856574,45.1433425 263.829874,44.961872 C264.933765,44.7565902 265.830586,44.2951571 266.504104,43.3719302 C267.087796,42.5720888 266.835632,41.3948753 266.036935,40.8457736" id="Fill-42" fill="#FDC004"></path>
                                <path d="M276.887246,32.7427708 C276.245474,33.6504843 275.681263,34.0682635 274.599738,34.2872548 C272.306098,34.7519348 272.963021,38.3254254 275.26063,37.8596631 C277.225268,37.4617266 278.728147,36.4317099 279.880017,34.8013612 C281.234268,32.8856383 278.239332,30.8292126 276.887246,32.7427708" id="Fill-44" fill="#FDC004"></path>
                                <path d="M290.982853,22.9306258 C290.150606,22.3577128 289.040221,22.5987114 288.457251,23.3978313 C288.421537,23.4490615 288.381494,23.4974056 288.342894,23.5461104 C288.322692,23.5663139 288.294193,23.5962583 288.255953,23.6352222 C288.08099,23.809838 287.890876,23.9693011 287.702204,24.1287643 C287.277603,24.4880977 286.828832,24.8196512 286.385471,25.1548125 C285.595432,25.751176 285.581362,27.0052349 286.196439,27.7174076 C286.874647,28.5017355 287.968798,28.5024571 288.758837,27.9060936 C289.726005,27.1758821 290.728164,26.4460314 291.450023,25.4567824 C292.033714,24.656941 291.781551,23.4793667 290.982853,22.9306258" id="Fill-46" fill="#FDC004"></path>
                                <path d="M302.480312,13.3104859 C301.140491,14.5566078 299.503413,15.3178461 297.912511,16.1862349 C295.865623,17.302838 297.437045,20.580492 299.499084,19.4548695 C301.355858,18.44217 303.289832,17.5156961 304.853678,16.0614063 C306.563627,14.4714645 304.201444,11.7100817 302.480312,13.3104859" id="Fill-48" fill="#FDC004"></path>
                                <path d="M315.856189,4.73995301 C314.778993,5.7768245 313.665362,6.68562035 312.359812,7.41727497 C310.328076,8.55588541 311.896972,11.8349825 313.946385,10.6862703 C315.525743,9.8009249 316.92653,8.74529304 318.229555,7.49123414 C319.909201,5.87459491 317.549183,3.10996506 315.856189,4.73995301" id="Fill-50" fill="#FDC004"></path>
                                <path d="M151.746544,422.924943 C151.369922,422.548292 150.709031,422.529532 150.335295,422.924943 C149.873176,423.413434 149.578805,424.028197 149.281187,424.623839 C149.037682,425.110527 149.14771,425.701118 149.63905,425.989017 C150.085296,426.25058 150.761339,426.117454 151.004484,425.631127 C151.141208,425.357298 151.279014,425.084551 151.426921,424.816494 C151.492938,424.697798 151.564366,424.582711 151.638319,424.467984 C151.655635,424.444173 151.668983,424.425412 151.678002,424.412424 C151.700368,424.386809 151.722374,424.360472 151.746544,424.33594 C152.119919,423.940889 152.139039,423.317468 151.746544,422.924943" id="Fill-52" fill="#FFFFFF"></path>
                                <path d="M157.232089,417.080617 C156.778628,416.814725 156.120262,416.957592 155.867016,417.438507 C155.540178,418.058682 155.019978,418.538515 154.526113,419.032779 C153.615583,419.9441 155.026832,421.355457 155.937362,420.443775 C156.543781,419.837671 157.185913,419.212445 157.590313,418.445795 C157.843919,417.964519 157.716214,417.363827 157.232089,417.080617" id="Fill-54" fill="#FFFFFF"></path>
                                <path d="M162.608436,411.249027 C162.002017,411.856214 161.359884,412.481078 160.955846,413.247368 C160.702239,413.728283 160.829584,414.328975 161.313708,414.612546 C161.76753,414.878438 162.425536,414.73521 162.679142,414.254655 C163.006341,413.634841 163.52618,413.154648 164.019685,412.660384 C164.930575,411.749424 163.518965,410.338427 162.608436,411.249027" id="Fill-56" fill="#FFFFFF"></path>
                                <path d="M169.707502,406.459215 C169.322943,406.074627 168.680811,406.074988 168.296253,406.459215 C168.189832,406.565283 168.081968,406.669908 167.969775,406.769121 C167.959674,406.775976 167.949934,406.781749 167.940194,406.787882 C167.935143,406.788603 167.929732,406.790047 167.924681,406.791129 C167.91422,406.793294 167.904119,406.795097 167.893657,406.797262 C167.891853,406.797623 167.89041,406.798344 167.888606,406.798344 C167.889689,406.798344 167.890771,406.798344 167.891853,406.797984 C167.447411,406.906577 167.105782,407.272765 167.105782,407.763421 C167.105782,408.285465 167.560325,408.791273 168.103973,408.76169 C168.77677,408.724891 169.250794,408.326593 169.707502,407.870572 C170.09206,407.486345 170.091699,406.843081 169.707502,406.459215" id="Fill-58" fill="#FFFFFF"></path>
                                <path d="M175.993837,401.968522 C175.609279,401.584295 174.967146,401.584295 174.582588,401.968522 C174.483021,402.067735 174.383094,402.16731 174.282084,402.265441 C174.237712,402.308013 174.192979,402.350223 174.147525,402.391352 C174.135259,402.402536 174.085115,402.443665 174.050123,402.472527 C173.994567,402.503914 173.914842,402.543239 173.880571,402.562721 C173.849185,402.568493 173.814193,402.573905 173.791466,402.574266 C173.247817,402.587254 172.793635,403.018742 172.793635,403.572173 C172.793635,404.106844 173.247457,404.583069 173.791466,404.570081 C174.734824,404.548073 175.358197,404.015207 175.993837,403.379519 C176.378034,402.995652 176.378034,402.352749 175.993837,401.968522" id="Fill-60" fill="#FFFFFF"></path>
                                <path d="M181.168344,397.478226 C180.976787,397.664387 180.802184,397.808697 180.572027,397.942546 C180.457308,397.99558 180.437467,398.009289 180.51106,397.983674 C180.445764,398.009289 180.379026,398.031297 180.311566,398.050057 C180.266833,398.062323 180.221379,398.070982 180.175924,398.080362 C180.17376,398.077837 180.142736,398.078919 180.078162,398.08397 C179.534513,398.099122 179.07997,398.526282 179.07997,399.081878 C179.07997,399.614384 179.534152,400.094938 180.078162,400.079785 C181.064809,400.052005 181.885873,399.563514 182.579593,398.889223 C183.503831,397.99089 182.091139,396.580975 181.168344,397.478226" id="Fill-62" fill="#FFFFFF"></path>
                                <path d="M190.219458,392.291343 C189.935548,391.806821 189.335262,391.679827 188.854024,391.933092 C188.214055,392.270058 187.697824,392.793905 187.057856,393.130509 C186.576978,393.384135 186.434482,394.042552 186.699993,394.496048 C186.983541,394.980571 187.583827,395.107925 188.065066,394.854299 C188.705034,394.517334 189.221266,393.993847 189.861234,393.656521 C190.342112,393.403617 190.484969,392.744839 190.219458,392.291343" id="Fill-64" fill="#FFFFFF"></path>
                                <path d="M278.157587,363.948205 C277.500302,364.58714 276.724332,365.081765 275.964956,365.588656 C275.513298,365.889543 275.319576,366.463899 275.607093,366.953834 C275.869357,367.401918 276.519066,367.614055 276.972166,367.312085 C277.87007,366.712835 278.791783,366.115028 279.568836,365.359202 C280.493435,364.461229 279.080743,363.051315 278.157587,363.948205" id="Fill-66" fill="#FFFFFF"></path>
                                <path d="M288.837048,357.505315 C287.550257,358.166258 286.373494,359.044027 285.342114,360.056365 C284.422926,360.959389 285.834897,362.369664 286.753363,361.467362 C287.671468,360.566143 288.698881,359.817171 289.844258,359.228744 C290.989274,358.640318 289.979539,356.918332 288.837048,357.505315" id="Fill-68" fill="#FFFFFF"></path>
                                <path d="M299.014815,353.314103 C298.244977,353.811975 297.424274,354.122242 296.558838,354.410864 C295.344558,354.816015 295.865479,356.744366 297.089499,356.335606 C298.108975,355.995394 299.115103,355.623794 300.022026,355.037171 C301.0985,354.341594 300.099226,352.613115 299.014815,353.314103" id="Fill-70" fill="#FFFFFF"></path>
                                <path d="M307.19472,350.476524 C306.638446,351.016607 305.973947,351.457836 305.240184,351.716874 C304.72756,351.897262 304.391342,352.391886 304.543217,352.944235 C304.67958,353.440664 305.2575,353.822365 305.770845,353.640894 C306.835415,353.265687 307.795367,352.675096 308.605969,351.887521 C309.530568,350.989548 308.117876,349.579634 307.19472,350.476524" id="Fill-72" fill="#FFFFFF"></path>
                                <path d="M316.844388,347.684367 C316.55651,347.19299 315.965243,347.083314 315.478954,347.326838 C314.880472,347.625921 314.281629,347.925366 313.682786,348.22481 C313.196858,348.467613 313.064102,349.144069 313.324923,349.589988 C313.613162,350.082087 314.204068,350.191403 314.689997,349.948239 C315.288839,349.648795 315.887682,349.34935 316.486164,349.049906 C316.972454,348.806743 317.105931,348.130287 316.844388,347.684367" id="Fill-74" fill="#FFFFFF"></path>
                                <path d="M324.963327,343.597816 C323.803519,343.621988 322.73426,344.006576 321.76565,344.632162 C320.688454,345.3281 321.688089,347.05658 322.77286,346.355952 C323.449264,345.918691 324.148395,345.610588 324.963327,345.593992 C326.248674,345.566934 326.250839,343.571119 324.963327,343.597816" id="Fill-76" fill="#FFFFFF"></path>
                                <path d="M334.576739,340.340618 C333.681721,340.567547 332.778767,340.88503 331.848396,340.90379 C330.563049,340.930127 330.560523,342.925942 331.848396,342.899606 C332.964192,342.876877 334.034173,342.537386 335.10704,342.265 C336.354148,341.94896 335.824569,340.023857 334.576739,340.340618" id="Fill-78" fill="#FFFFFF"></path>
                                <path d="M344.420886,337.610479 C343.811942,337.631404 343.195784,337.890441 342.624718,337.909923 C342.081431,337.928323 341.627248,338.34971 341.627248,338.908192 C341.627248,339.437451 342.08107,339.924138 342.624718,339.905739 C343.234384,339.885535 343.850182,339.626137 344.420886,339.606294 C344.964535,339.587534 345.419078,339.166147 345.419078,338.608747 C345.419078,338.078406 344.964895,337.591718 344.420886,337.610479" id="Fill-80" fill="#FFFFFF"></path>
                                <path d="M352.909737,335.507838 C352.523014,335.121446 351.908659,335.134073 351.514361,335.495571 C351.471431,335.501344 351.416958,335.509642 351.387377,335.510724 C351.260754,335.516136 351.133771,335.515053 351.006787,335.515053 C350.462778,335.515053 350.008956,335.968549 350.008956,336.512961 C350.008956,337.056651 350.462778,337.510868 351.006787,337.510868 C351.722152,337.510508 352.369335,337.433662 352.909737,336.919195 C353.303674,336.543988 353.28708,335.88521 352.909737,335.507838" id="Fill-82" fill="#FFFFFF"></path>
                                <path d="M153.041199,414.685567 C152.548056,414.396585 151.980959,414.594651 151.676126,415.043818 C151.087745,415.910403 150.437676,416.677413 150.078731,417.677125 C149.894388,418.189428 150.281471,418.768474 150.775697,418.904486 C151.330529,419.057095 151.819343,418.719047 152.002964,418.207827 C152.290842,417.406543 152.927202,416.746683 153.399062,416.051106 C153.705337,415.600496 153.486363,414.946769 153.041199,414.685567" id="Fill-84" fill="#FFFFFF"></path>
                                <path d="M158.787457,409.056192 C158.524832,408.608107 157.875485,408.395971 157.422384,408.698301 C156.521234,409.299355 154.915902,410.290769 155.467126,411.621312 C155.674917,412.123513 156.120442,412.475991 156.694393,412.318332 C157.142804,412.194947 157.550089,411.660637 157.42058,411.177918 C157.465674,411.133182 157.512211,411.089528 157.558747,411.046595 C157.819568,410.805236 158.134141,410.618354 158.429595,410.42137 C158.881252,410.120482 159.074613,409.546487 158.787457,409.056192" id="Fill-86" fill="#FFFFFF"></path>
                                <path d="M164.774696,404.86498 C164.488261,404.376488 163.893747,404.258875 163.409262,404.507089 C162.574128,404.934249 161.783006,405.504997 161.112014,406.160167 C160.189579,407.059943 161.601911,408.470218 162.523263,407.571164 C163.079177,407.028556 163.725638,406.584079 164.416472,406.230518 C164.900597,405.982665 165.037681,405.314507 164.774696,404.86498" id="Fill-88" fill="#FFFFFF"></path>
                                <path d="M170.904971,400.172396 C170.520413,399.787809 169.87828,399.78817 169.493722,400.172396 C169.309379,400.356753 169.122872,400.537141 168.928068,400.709953 C168.708372,400.904773 168.55794,401.026354 168.198995,401.213958 C167.717034,401.465058 167.575621,402.126722 167.840771,402.579136 C168.125402,403.064741 168.723884,403.188487 169.206205,402.937026 C169.848338,402.601865 170.395594,402.092809 170.904971,401.583754 C171.289168,401.199527 171.289168,400.556623 170.904971,400.172396" id="Fill-90" fill="#FFFFFF"></path>
                                <path d="M177.490403,395.68174 C177.102237,395.293184 176.469123,395.302925 176.079514,395.68174 C176.00989,395.749205 175.936297,395.810898 175.862344,395.872951 C175.822661,395.90037 175.688824,396.001027 175.657078,396.022674 C175.438825,396.173478 175.225622,396.323922 175.016749,396.488436 C174.430532,396.95023 174.401672,397.747185 174.882189,398.290154 C175.242577,398.698553 175.926557,398.657424 176.293438,398.290154 C176.430523,398.153419 176.512413,397.991791 176.551013,397.82367 C176.552095,397.823309 176.553178,397.822587 176.55426,397.821505 C176.880737,397.599267 177.206854,397.369091 177.490403,397.092737 C177.880372,396.713921 177.870993,396.062359 177.490403,395.68174" id="Fill-92" fill="#FFFFFF"></path>
                                <path d="M184.076159,391.191408 C183.685468,390.800327 183.058126,390.815479 182.66491,391.191408 C182.635329,391.220992 182.603944,391.249493 182.571837,391.276551 C182.570755,391.277273 182.570394,391.277634 182.569673,391.278716 C182.563901,391.283045 182.558489,391.286653 182.550914,391.291704 C182.4481,391.365663 182.341679,391.435293 182.23598,391.505644 C181.969387,391.683507 181.699907,391.867142 181.467946,392.089381 C181.07473,392.46531 181.089881,393.122644 181.467946,393.500377 C181.858637,393.891459 182.485979,393.876306 182.879195,393.500377 C182.909137,393.470794 182.939801,393.442653 182.971907,393.415234 C182.97299,393.414513 182.97335,393.414152 182.974433,393.412709 C182.980565,393.40874 182.985616,393.405132 182.992831,393.400082 C183.095644,393.326122 183.202065,393.256853 183.307404,393.18578 C183.574358,393.008278 183.843837,392.824282 184.076159,392.602405 C184.469375,392.226476 184.454224,391.569141 184.076159,391.191408" id="Fill-94" fill="#FFFFFF"></path>
                                <path d="M190.362494,387.598796 C189.97,387.205911 189.346626,387.225754 188.951606,387.598796 C188.9296,387.619361 188.915892,387.63307 188.907595,387.64245 C188.903627,387.644976 188.900741,387.64714 188.896412,387.650387 C188.791794,387.723264 188.677437,387.779545 188.56308,387.834023 C188.727942,387.755373 188.418059,387.8701 188.415894,387.870822 C188.363946,387.884531 188.310916,387.894272 188.258608,387.904374 C188.282056,387.897159 188.250671,387.897519 188.160484,387.905096 C187.616836,387.921331 187.162292,388.347047 187.162292,388.903003 C187.162292,389.435148 187.616475,389.917146 188.160484,389.900911 C188.975776,389.87746 189.766898,389.572965 190.362494,389.009793 C190.758236,388.636389 190.738755,387.974725 190.362494,387.598796" id="Fill-96" fill="#FFFFFF"></path>
                                <path d="M154.098445,408.396295 C153.961722,407.898785 153.384524,407.519609 152.871178,407.699275 C151.646436,408.128238 150.806613,408.967765 150.378044,410.192601 C150.19803,410.706347 150.577538,411.283589 151.07501,411.420323 C151.626234,411.57185 152.122625,411.236328 152.302277,410.723303 C152.38525,410.486634 152.534239,410.238059 152.686475,410.074627 C152.73734,410.02015 152.793978,409.971445 152.849894,409.92238 C152.837629,409.939697 152.992029,409.823166 153.001769,409.816672 C153.084741,409.763999 153.173125,409.720345 153.260426,409.67633 C153.096646,409.758226 153.398232,409.6251 153.401479,409.624018 C153.914464,409.444351 154.250321,408.947923 154.098445,408.396295" id="Fill-98" fill="#FFFFFF"></path>
                                <path d="M160.225546,402.111931 C159.771724,401.846038 159.114079,401.988906 158.860473,402.469821 C158.838106,402.511671 158.740344,402.647323 158.717256,402.686647 C158.691282,402.713345 158.66639,402.741125 158.639695,402.76674 C158.633201,402.772512 158.629233,402.777202 158.624543,402.781532 C158.573678,402.812558 158.480965,402.858016 158.434789,402.882188 C158.429017,402.883992 158.423245,402.886157 158.417113,402.8876 C157.923248,402.955065 157.526785,403.350837 157.526785,403.871798 C157.526785,404.401057 157.980607,404.888827 158.524616,404.869706 C159.391134,404.83904 160.188389,404.22572 160.583769,403.477109 C160.837376,402.995833 160.709671,402.39514 160.225546,402.111931" id="Fill-100" fill="#FFFFFF"></path>
                                <path d="M168.067249,397.3806 C167.785144,396.897881 167.181972,396.766198 166.702176,397.022349 C166.369205,397.200212 166.080245,397.452395 165.81293,397.716483 C165.710478,397.8175 165.609107,397.919961 165.503408,398.018814 C165.491503,398.029637 165.416107,398.088804 165.384361,398.115502 C165.32628,398.153383 165.266035,398.187296 165.20543,398.219766 C164.725995,398.475917 164.580613,399.130005 164.847206,399.585305 C165.129672,400.067663 165.732844,400.199346 166.21264,399.943556 C166.54525,399.765693 166.834571,399.513871 167.101525,399.249783 C167.204338,399.148405 167.306069,399.045944 167.411769,398.947452 C167.423313,398.936268 167.498709,398.877101 167.530816,398.850403 C167.588536,398.812883 167.64842,398.778609 167.709387,398.745778 C168.188822,398.489988 168.334203,397.8359 168.067249,397.3806" id="Fill-102" fill="#FFFFFF"></path>
                                <path d="M174.952463,392.590824 C174.668193,392.104858 174.06935,391.980751 173.58739,392.232573 C172.944897,392.568456 172.398002,393.077511 171.888264,393.586206 C171.503706,393.970433 171.504066,394.612976 171.888264,394.997203 C172.272822,395.38179 172.914955,395.38143 173.299513,394.997203 C173.483855,394.813568 173.670362,394.632819 173.865167,394.460007 C174.084863,394.264827 174.235295,394.143606 174.594601,393.956002 C175.0762,393.704541 175.217253,393.042877 174.952463,392.590824" id="Fill-104" fill="#FFFFFF"></path>
                                <path d="M182.436232,387.501206 C182.151962,387.015601 181.553119,386.891494 181.071158,387.143316 C180.428665,387.478838 179.881409,387.987894 179.372393,388.496949 C178.987474,388.881176 178.987835,389.523358 179.372393,389.907946 C179.75659,390.292534 180.399084,390.292534 180.783642,389.907946 C180.967624,389.72395 181.154491,389.543562 181.348935,389.370389 C181.568631,389.17557 181.719063,389.054349 182.078369,388.866745 C182.559968,388.614923 182.701021,387.953259 182.436232,387.501206" id="Fill-106" fill="#FFFFFF"></path>
                                <path d="M194.852842,385.204071 C194.468645,384.819483 193.826151,384.819844 193.441593,385.204071 C193.335533,385.310139 193.22803,385.414043 193.115476,385.513256 C193.105375,385.520111 193.095635,385.526244 193.085895,385.532016 C193.080483,385.53346 193.075072,385.534542 193.070022,385.535263 C193.05956,385.537789 193.049459,385.539593 193.039358,385.542118 L193.033947,385.54284 C193.035029,385.542479 193.036111,385.542479 193.037194,385.542479 C192.592751,385.651433 192.251483,386.017621 192.251483,386.507917 C192.251483,387.029599 192.705666,387.535408 193.249314,387.505824 C193.92211,387.469025 194.396495,387.071449 194.852842,386.615067 C195.2374,386.23084 195.237039,385.588298 194.852842,385.204071" id="Fill-108" fill="#FFFFFF"></path>
                                <path d="M194.845771,389.501676 C194.845771,388.980354 194.391589,388.474184 193.84794,388.503768 C193.175144,388.540567 192.700759,388.938864 192.244052,389.394886 C191.859493,389.779113 191.860215,390.422016 192.244052,390.806243 C192.62861,391.191192 193.270742,391.190109 193.655301,390.806243 C193.761721,390.699453 193.869585,390.595189 193.982139,390.495976 C193.991879,390.489482 194.001619,390.48407 194.01136,390.477937 C194.016771,390.476854 194.021821,390.475411 194.026872,390.474329 C194.037694,390.472164 194.047795,390.470721 194.057896,390.468196 C194.0597,390.467835 194.061504,390.467113 194.063307,390.467113 C194.062225,390.467113 194.061143,390.467474 194.060061,390.467474 C194.504142,390.35852 194.845771,389.992332 194.845771,389.501676" id="Fill-110" fill="#FFFFFF"></path>
                                <path d="M280.394301,358.302595 C279.463569,358.631623 278.627714,359.172427 277.699869,359.500012 C276.494968,359.925728 277.013725,361.8548 278.23053,361.424754 C279.160901,361.096087 279.996756,360.554922 280.924601,360.227337 C282.129502,359.801621 281.610746,357.87291 280.394301,358.302595" id="Fill-112" fill="#FFFFFF"></path>
                                <path d="M287.736836,353.171055 C287.203649,353.673978 286.462311,353.885032 285.782299,354.111599 C284.568019,354.516751 285.08858,356.445101 286.312961,356.035981 C287.334962,355.695047 288.35083,355.334992 289.148085,354.582052 C290.085671,353.696707 288.671897,352.288235 287.736836,353.171055" id="Fill-114" fill="#FFFFFF"></path>
                                <path d="M295.361513,349.621087 C294.339872,349.962382 293.324004,350.322437 292.526749,351.075016 C291.588803,351.960001 293.002577,353.369194 293.937638,352.486374 C294.470464,351.983091 295.212524,351.772758 295.892174,351.54583 C297.106454,351.140317 296.585894,349.212328 295.361513,349.621087" id="Fill-116" fill="#FFFFFF"></path>
                                <path d="M301.50694,347.781957 C301.045542,348.217414 300.439484,348.375795 299.817553,348.388062 C298.532566,348.412955 298.530041,350.409131 299.817553,350.383877 C300.974474,350.360787 302.068265,349.99496 302.918189,349.192954 C303.856135,348.308691 302.442361,346.899859 301.50694,347.781957" id="Fill-118" fill="#FFFFFF"></path>
                                <path d="M310.558053,345.589122 C310.269815,345.097384 309.678908,344.987708 309.19298,345.230871 C308.594137,345.530315 307.995294,345.82976 307.396451,346.129204 C306.910523,346.372368 306.777406,347.048823 307.038588,347.494743 C307.326466,347.986481 307.917372,348.095797 308.403661,347.852273 C309.002504,347.553189 309.601347,347.253744 310.20019,346.9543 C310.686119,346.711497 310.819596,346.035042 310.558053,345.589122" id="Fill-120" fill="#FFFFFF"></path>
                                <path d="M318.341279,341.99651 C318.050515,341.501164 317.46502,341.401229 316.975845,341.63862 C316.291865,341.971256 315.564957,342.203957 314.880255,342.536593 C314.391441,342.774344 314.263375,343.46018 314.522393,343.902131 C314.812795,344.397477 315.398291,344.497773 315.887466,344.259661 C316.571445,343.928107 317.298715,343.694685 317.983055,343.362049 C318.47187,343.124297 318.600296,342.438822 318.341279,341.99651" id="Fill-122" fill="#FFFFFF"></path>
                                <path d="M326.723059,339.003184 C326.434821,338.511085 325.843914,338.402131 325.357625,338.644933 C324.759143,338.944378 324.1603,339.243461 323.561457,339.542906 C323.075529,339.78643 322.942412,340.462164 323.203594,340.908084 C323.491472,341.400183 324.082378,341.509498 324.568667,341.266335 C325.16751,340.96689 325.766353,340.667446 326.364835,340.368001 C326.851125,340.125199 326.984241,339.448743 326.723059,339.003184" id="Fill-124" fill="#FFFFFF"></path>
                                <path d="M335.703357,336.009173 C335.412955,335.513105 334.82782,335.414252 334.338284,335.650922 C333.649254,335.98464 332.906112,336.206878 332.181728,336.448598 C330.967087,336.85375 331.487648,338.78174 332.712029,338.373341 C333.602357,338.076422 334.499539,337.784193 335.345494,337.374351 C335.83467,337.137321 335.962014,336.450763 335.703357,336.009173" id="Fill-126" fill="#FFFFFF"></path>
                                <path d="M344.228535,333.412232 C343.849749,333.033416 343.291671,333.051094 342.888714,333.358837 C342.882942,333.359919 342.876088,333.361362 342.868512,333.362805 C342.921903,333.305081 342.829551,333.357394 342.836045,333.36966 C342.760288,333.384813 342.667575,333.401769 342.681644,333.403573 C342.464113,333.422333 342.244056,333.419447 342.026525,333.419447 C341.482516,333.419808 341.028333,333.872943 341.028333,334.416994 C341.028333,334.961045 341.482516,335.415623 342.026525,335.415262 C342.820533,335.414902 343.607326,335.377381 344.228535,334.823228 C344.634738,334.46137 344.596499,333.780224 344.228535,333.412232" id="Fill-128" fill="#FFFFFF"></path>
                                <path d="M352.238275,331.359233 C351.438495,331.607087 350.639797,331.622239 349.809354,331.6226 C348.522202,331.623322 348.522202,333.619498 349.809354,333.618776 C350.808267,333.618415 351.80718,333.581977 352.768936,333.283976 C353.993678,332.903717 353.470593,330.97681 352.238275,331.359233" id="Fill-130" fill="#FFFFFF"></path>
                                <path d="M286.081757,365.786974 C284.827434,366.119971 283.635881,366.675928 282.550748,367.384493 C281.477882,368.08512 282.476795,369.813961 283.557959,369.107922 C284.508532,368.487025 285.513217,368.003585 286.612418,367.711717 C287.855198,367.381967 287.327422,365.456503 286.081757,365.786974" id="Fill-132" fill="#FFFFFF"></path>
                                <path d="M297.087407,361.455889 C296.803498,360.971367 296.203212,360.844373 295.721973,361.097638 C295.082005,361.434964 294.565773,361.958812 293.925805,362.295416 C293.444927,362.54832 293.302431,363.207098 293.567942,363.660233 C293.851491,364.145117 294.451777,364.27211 294.933016,364.018845 C295.573345,363.68188 296.089215,363.158393 296.729183,362.821067 C297.210061,362.568163 297.352918,361.909385 297.087407,361.455889" id="Fill-134" fill="#FFFFFF"></path>
                                <path d="M307.109115,357.361907 C306.733936,356.98706 306.170807,356.997883 305.770737,357.306708 C305.766047,357.309594 305.763883,357.310676 305.758111,357.314645 C305.719871,357.326911 305.681993,357.338817 305.643032,357.346754 C305.617779,357.348558 305.504504,357.36335 305.463018,357.365154 C305.37716,357.369483 305.291663,357.369122 305.206165,357.369122 C304.662156,357.369483 304.208334,357.822618 304.208334,358.36703 C304.208334,358.91072 304.662156,359.365298 305.206165,359.364937 C305.900246,359.364577 306.578453,359.257065 307.109115,358.773264 C307.51135,358.406715 307.480325,357.733146 307.109115,357.361907" id="Fill-136" fill="#FFFFFF"></path>
                                <path d="M317.143485,353.971546 C316.855607,353.479808 316.265062,353.370493 315.778412,353.613656 C315.259294,353.872693 314.796093,354.064266 314.186788,354.076171 C312.90108,354.101065 312.898915,356.097602 314.186788,356.071986 C315.134475,356.053226 315.947963,355.754864 316.785622,355.336724 C317.271911,355.093922 317.405028,354.417105 317.143485,353.971546" id="Fill-138" fill="#FFFFFF"></path>
                                <path d="M325.968084,349.578444 C325.591462,349.201432 325.036631,349.217306 324.634035,349.520719 C324.626459,349.524327 324.609865,349.534068 324.576676,349.554632 C324.459794,349.597204 324.338221,349.62787 324.218813,349.661061 C323.888728,349.754142 323.572712,349.873919 323.262108,350.021477 C322.770407,350.253095 322.647753,350.948672 322.904245,351.386294 C323.196812,351.88597 323.777618,351.976524 324.269318,351.744545 C324.205826,351.76078 324.2318,351.749596 324.346518,351.711354 C324.414339,351.686821 324.482881,351.664092 324.551784,351.643528 C324.709071,351.593741 324.868883,351.553334 325.026891,351.505711 C325.38295,351.398561 325.690307,351.237654 325.968084,350.98944 C326.374287,350.627221 326.336408,349.946435 325.968084,349.578444" id="Fill-140" fill="#FFFFFF"></path>
                                <path d="M335.141094,345.993228 C334.306322,346.021729 333.576888,346.36122 332.841321,346.727768 C332.354671,346.97021 332.222276,347.647388 332.483458,348.092947 C332.771697,348.585046 333.361882,348.694 333.848532,348.451198 C334.254735,348.248802 334.704949,348.004196 335.141094,347.989043 C335.684743,347.969922 336.139286,347.549256 336.139286,346.991135 C336.139286,346.461155 335.685103,345.973746 335.141094,345.993228" id="Fill-142" fill="#FFFFFF"></path>
                                <path d="M345.318862,342.400255 L344.121537,342.400255 C343.577528,342.400255 343.123706,342.854112 343.123706,343.398523 C343.123706,343.941853 343.577528,344.396431 344.121537,344.396431 L345.318862,344.396431 C345.863232,344.396431 346.317054,343.941853 346.317054,343.398523 C346.317054,342.854112 345.863232,342.400255 345.318862,342.400255" id="Fill-144" fill="#FFFFFF"></path>
                                <path d="M356.394966,340.005205 L355.197641,340.005205 C354.653632,340.005205 354.199449,340.459422 354.199449,341.003473 C354.199449,341.547163 354.653632,342.00102 355.197641,342.00102 L356.394966,342.00102 C356.938975,342.00102 357.392797,341.547163 357.392797,341.003473 C357.392797,340.459422 356.938975,340.005205 356.394966,340.005205" id="Fill-146" fill="#FFFFFF"></path>
                                <path d="M386.555904,115.216445 C386.555904,115.216445 377.196279,76.8146795 345.756667,75.8542926 C314.317415,74.8942665 306.637796,87.1350503 299.437973,92.1754579 C292.23815,97.2155048 273.998334,101.295886 258.638736,104.896074 C243.279137,108.496262 193.60007,120.49713 179.200424,152.178713 C164.800778,183.860657 166.000628,202.101153 173.200451,216.982098 C180.400274,231.863044 207.390411,258.984413 244.293924,247.943932 C281.198157,236.903452 275.438082,205.221869 290.558144,193.700834 C305.677844,182.18016 309.517654,183.860657 322.237293,170.659847 C334.957293,157.459037 331.309402,135.307364 342.244056,124.157568 C353.899487,112.27287 367.226266,115.547999 367.226266,115.547999 L386.555904,115.216445 Z" id="Fill-148" fill="#0900C6"></path>
                                <path d="M158.725481,412.765767 C158.725481,412.765767 160.594159,298.138795 158.725481,270.119092 C156.857163,242.099029 155.611858,200.069296 158.725481,194.975133 C161.839464,189.880608 186.750245,194.975133 186.750245,194.975133 C186.750245,194.975133 182.390958,408.944784 186.750245,412.765767 C191.109894,416.58639 158.725481,412.765767 158.725481,412.765767" id="Fill-150" fill="#FFDA00"></path>
                                <path d="M159.233487,118.62903 C159.233487,118.62903 158.559608,131.034327 159.233487,139.993849 C159.907366,148.953372 159.233487,177.899548 159.233487,177.899548 C159.233487,177.899548 184.777022,183.412933 185.316341,177.899548 C185.856021,172.385801 187.809836,121.385722 185.316341,118.62903 C182.823207,115.871976 159.233487,118.62903 159.233487,118.62903" id="Fill-152" fill="#FFDA00"></path>
                                <path d="M186.028928,195.818267 L157.038439,195.818267 C154.714496,195.818267 152.830666,193.934293 152.830666,191.610171 L152.830666,181.418597 C152.830666,179.094475 154.714496,177.21014 157.038439,177.21014 L186.028928,177.21014 C188.352871,177.21014 190.237062,179.094475 190.237062,181.418597 L190.237062,191.610171 C190.237062,193.934293 188.352871,195.818267 186.028928,195.818267" id="Fill-154" fill="#EB495F"></path>
                                <path d="M386.555904,115.216445 C386.555904,115.216445 380.512281,80.7236922 360.212229,80.1038782 C339.911455,79.4837035 334.952603,87.3875938 330.303634,90.642158 C325.655026,93.8963615 313.877302,96.5311118 303.959598,98.8555944 C294.041894,101.180438 229.887423,84.6900683 215.739941,118.669436 C207.102895,139.414082 223.73305,189.9769 228.382019,199.585459 C233.030988,209.193657 270.868478,198.350882 294.697374,191.221939 C318.526271,184.092997 320.226479,168.579249 329.989061,161.1404 C339.752004,153.70155 336.812263,149.843407 345.025429,141.319703 C353.238595,132.795999 350.883267,118.492656 357.943841,111.293001 C365.469781,103.618926 374.07472,105.733797 374.07472,105.733797 L386.555904,115.216445 Z" id="Fill-156" fill="#847FE2"></path>
                                <path d="M205.438184,106.707208 L205.438184,215.573303 C205.438184,219.420983 208.557217,222.539896 212.404602,222.539896 L225.775393,222.539896 C228.40489,222.539896 230.811084,221.063238 231.993619,218.714583 C235.293387,212.163604 241.073303,197.667968 239.464364,178.894605 C237.640058,157.608074 223.816167,117.821287 218.956881,104.341236 C217.960854,101.579853 215.339654,99.7402544 212.404602,99.7402544 C208.557217,99.7402544 205.438184,102.859527 205.438184,106.707208" id="Fill-158" fill="#EB495F"></path>
                                <path d="M89.8580442,327.367819 L88.236118,322.733285 C87.5218355,320.693094 87.9554555,318.426336 89.3735587,316.794905 C98.8854203,305.855803 135.617938,264.555559 152.919807,258.788187 C166.384753,254.299406 176.487882,252.836819 181.641538,252.360594 C183.937343,252.148457 186.15234,253.260009 187.348944,255.231292 L194.854321,267.593297 C196.603952,270.476261 195.646164,274.234108 192.729872,275.926511 L98.5639932,330.586667 C95.2948883,332.484351 91.1065956,330.935537 89.8580442,327.367819" id="Fill-160" fill="#EB495F"></path>
                                <path d="M245.650411,256.334294 L237.435441,269.171802 C236.748215,270.245112 236.473324,271.533083 236.684362,272.788946 C237.321444,276.570244 240.106785,284.77899 252.039271,293.186525 C268.312646,304.653082 286.805347,313.529986 293.462604,315.009531 C299.010919,316.242664 330.7633,321.072379 341.187135,322.647529 C343.20372,322.952024 345.210565,322.04395 346.313735,320.328458 L348.250955,317.314531 C349.838971,314.844656 349.056147,311.549685 346.526937,310.057513 L252.639557,254.666424 C250.240938,253.251098 247.151847,253.988164 245.650411,256.334294" id="Fill-162" fill="#EB495F"></path>
                                <path d="M195.941077,266.961361 L208.413603,259.402373 C208.959055,259.071901 209.170815,258.385344 208.906746,257.805215 L206.000194,251.414061 C205.696804,250.747707 204.890892,250.479289 204.248759,250.832128 L190.725372,258.263401 C190.097669,258.608304 189.884106,259.407063 190.255677,260.018939 L194.213451,266.538531 C194.573839,267.132369 195.347284,267.321415 195.941077,266.961361" id="Fill-164" fill="#EB495F"></path>
                                <path d="M227.388553,259.627461 L237.787135,266.038098 C238.445141,266.443971 239.306969,266.246987 239.723634,265.595786 L244.070295,258.803448 C244.513656,258.110757 244.276283,257.187891 243.554425,256.795005 L232.583335,250.829567 C231.914867,250.465904 231.078652,250.696079 230.689043,251.350167 L226.914529,257.697307 C226.519148,258.362579 226.730187,259.221587 227.388553,259.627461" id="Fill-166" fill="#EB495F"></path>
                                <path d="M211.515284,223.910233 L211.515284,235.56259 C211.515284,236.319499 212.128557,236.932819 212.885408,236.932819 L222.288324,236.932819 C223.045174,236.932819 223.658447,236.319499 223.658447,235.56259 L223.658447,223.910233 C223.658447,223.153324 223.045174,222.540004 222.288324,222.540004 L212.885408,222.540004 C212.128557,222.540004 211.515284,223.153324 211.515284,223.910233" id="Fill-168" fill="#EB495F"></path>
                                <path d="M249.740905,421.628745 L249.740905,186.684634 C249.740905,181.052193 254.30654,176.486206 259.93891,176.486206 L302.42537,176.486206 C304.127743,176.486206 305.541156,177.800154 305.664533,179.497968 L308.52527,218.733127 C308.858602,223.303804 312.199856,227.090874 316.692982,227.991011 L428.963396,250.488308 C433.728165,251.442923 437.157442,255.627929 437.157442,260.48831 L437.157442,421.628745 C437.157442,427.261187 432.591446,431.827535 426.959797,431.827535 L259.93891,431.827535 C254.30654,431.827535 249.740905,427.261187 249.740905,421.628745" id="Fill-170" fill="#FFDA00"></path>
                                <path d="M370.788984,116.612361 L382.780633,116.612361 C384.988415,116.612361 386.843385,118.273015 387.08689,120.467618 L400.235821,238.972216 C400.559051,241.88729 397.954085,244.274547 395.078557,243.698387 L358.59676,236.387974 C356.408819,235.949631 354.911351,233.920624 355.137901,231.700406 L366.479119,120.5055 C366.704587,118.294301 368.566772,116.612361 370.788984,116.612361" id="Fill-172" fill="#EB495F"></path>
                                <path d="M464.395558,376.593708 L407.024967,376.593708 C406.736368,376.593708 406.502603,376.359925 406.502603,376.071304 L406.502603,367.326444 C406.502603,367.037822 406.736368,366.804039 407.024967,366.804039 L460.079561,366.804039 C462.751626,366.804039 464.917922,368.970502 464.917922,371.642773 L464.917922,376.071304 C464.917922,376.359925 464.684157,376.593708 464.395558,376.593708" id="Fill-174" fill="#EB495F"></path>
                                <path d="M287.391563,226.959912 L271.478937,226.959912 L271.478937,207.37372 C271.478937,202.979102 275.04097,199.416796 279.43489,199.416796 C283.82917,199.416796 287.391563,202.979102 287.391563,207.37372 L287.391563,226.959912 Z" id="Fill-176" fill="#EB495F"></path>
                                <path d="M324.112898,280.915363 L308.200271,280.915363 L308.200271,261.329171 C308.200271,256.934553 311.762665,253.372247 316.156584,253.372247 C320.550865,253.372247 324.112898,256.934553 324.112898,261.329171 L324.112898,280.915363 Z" id="Fill-178" fill="#EB495F"></path>
                                <path d="M395.433353,367.525664 L355.836852,367.525664 L355.836852,329.610947 C355.836852,318.676174 364.700809,309.811175 375.635102,309.811175 C386.569396,309.811175 395.433353,318.676174 395.433353,329.610947 L395.433353,367.525664 Z" id="Fill-180" fill="#EB495F"></path>
                                <path d="M287.391563,280.915363 L271.478937,280.915363 L271.478937,261.329171 C271.478937,256.934553 275.04097,253.372247 279.43489,253.372247 C283.82917,253.372247 287.391563,256.934553 287.391563,261.329171 L287.391563,280.915363 Z" id="Fill-182" fill="#EB495F"></path>
                                <polygon id="Fill-184" fill="#EB495F" points="401.840395 277.762141 414.386875 277.762141 414.386875 271.641208 401.840395 271.641208"></polygon>
                                <polygon id="Fill-186" fill="#EB495F" points="416.834915 277.762141 429.381395 277.762141 429.381395 271.641208 416.834915 271.641208"></polygon>
                                <polygon id="Fill-187" fill="#EB495F" points="395.566974 287.03626 408.113454 287.03626 408.113454 280.915327 395.566974 280.915327"></polygon>
                                <polygon id="Fill-188" fill="#EB495F" points="401.840395 296.31038 414.386875 296.31038 414.386875 290.189446 401.840395 290.189446"></polygon>
                                <polygon id="Fill-189" fill="#EB495F" points="268.637175 366.803931 281.183655 366.803931 281.183655 360.682998 268.637175 360.682998"></polygon>
                                <polygon id="Fill-190" fill="#EB495F" points="260.744354 376.5936 273.290834 376.5936 273.290834 370.472667 260.744354 370.472667"></polygon>
                                <polygon id="Fill-191" fill="#EB495F" points="276.640386 376.5936 289.186866 376.5936 289.186866 370.472667 276.640386 370.472667"></polygon>
                                <polygon id="Fill-192" fill="#EB495F" points="284.808458 386.383268 297.354577 386.383268 297.354577 380.262335 284.808458 380.262335"></polygon>
                                <path d="M216.693472,266.038098 C207.101885,266.038098 199.325946,258.261561 199.325946,248.668877 C199.325946,239.076192 207.101885,231.299656 216.693472,231.299656 C226.285419,231.299656 234.061358,239.076192 234.061358,248.668877 C234.061358,258.261561 226.285419,266.038098 216.693472,266.038098 Z" id="Fill-193" fill="#EB495F"></path>
                                <polygon id="Fill-194" fill="#FFDA00" points="364.277903 142.087976 388.252902 130.977505 387.884578 127.65764 364.681581 138.128816"></polygon>
                                <polygon id="Fill-195" fill="#FFDA00" points="363.108283 153.415058 389.418409 141.266633 389.050085 137.946768 363.511961 149.455897"></polygon>
                                <polygon id="Fill-196" fill="#FFDA00" points="361.976037 164.838358 390.538318 151.620953 390.169632 148.301088 362.380076 160.879198"></polygon>
                                <polygon id="Fill-197" fill="#FFDA00" points="360.802522 176.148916 391.689467 161.883094 391.321503 158.563229 361.2062 172.189755"></polygon>
                                <path d="M386.619324,115.23268 C386.619324,115.23268 382.598419,98.7358167 369.092708,98.3234492 C355.586997,97.9110817 352.287589,103.169398 349.194891,105.334418 C346.102192,107.499798 338.266729,109.252811 331.668275,110.799098 C325.07018,112.345747 303.729007,117.500882 297.542888,131.111173 C291.357491,144.720742 291.87264,152.556807 294.965699,158.949404 C298.058759,165.342002 309.652862,176.992916 325.506326,172.249789 C341.359428,167.507382 338.885053,153.897091 345.380334,148.94796 C351.875254,143.998829 353.524957,144.720742 358.988858,139.050058 C364.453479,133.379374 364.159469,125.72911 368.857139,120.939081 C373.863971,115.833734 378.315249,115.375187 378.315249,115.375187 L386.619324,115.23268 Z" id="Fill-198" fill="#0900C6"></path>
                                <path d="M431.356747,366.804111 L411.742118,366.804111 C410.840967,366.804111 410.11009,366.073539 410.11009,365.171959 L410.11009,350.118562 C410.11009,349.217342 410.840967,348.48677 411.742118,348.48677 L431.356747,348.48677 C432.258258,348.48677 432.988774,349.217342 432.988774,350.118562 L432.988774,365.171959 C432.988774,366.073539 432.258258,366.804111 431.356747,366.804111" id="Fill-199" fill="#0900C6"></path>
                                <path d="M424.011073,352.344877 L418.857417,352.344877 C418.285991,352.344877 417.822429,351.88164 417.822429,351.30981 C417.822429,350.73834 418.285991,350.274742 418.857417,350.274742 L424.011073,350.274742 C424.582499,350.274742 425.046061,350.73834 425.046061,351.30981 C425.046061,351.88164 424.582499,352.344877 424.011073,352.344877" id="Fill-200" fill="#FFFFFF"></path>
                                <polygon id="Fill-201" fill="#EB495F" points="167.767142 394.303394 180.313622 394.303394 180.313622 388.182461 167.767142 388.182461"></polygon>
                                <polygon id="Fill-202" fill="#EB495F" points="212.704168 340.547704 225.250648 340.547704 225.250648 334.426771 212.704168 334.426771"></polygon>
                                <polygon id="Fill-203" fill="#EB495F" points="212.704168 349.206339 225.250648 349.206339 225.250648 343.085406 212.704168 343.085406"></polygon>
                                <polygon id="Fill-204" fill="#EB495F" points="212.704168 357.864973 225.250648 357.864973 225.250648 351.74404 212.704168 351.74404"></polygon>
                                <polygon id="Fill-205" fill="#EB495F" points="227.290682 394.303394 239.837162 394.303394 239.837162 388.182461 227.290682 388.182461"></polygon>
                                <polygon id="Fill-206" fill="#EB495F" points="212.704168 366.884384 225.250648 366.884384 225.250648 360.763451 212.704168 360.763451"></polygon>
                                <polygon id="Fill-207" fill="#EB495F" points="212.704168 375.903795 225.250648 375.903795 225.250648 369.782862 212.704168 369.782862"></polygon>
                                <polygon id="Fill-208" fill="#EB495F" points="212.704168 384.923206 225.250648 384.923206 225.250648 378.802273 212.704168 378.802273"></polygon>
                                <polygon id="Fill-209" fill="#EB495F" points="197.709286 394.303394 210.255766 394.303394 210.255766 388.182461 197.709286 388.182461"></polygon>
                                <polygon id="Fill-210" fill="#EB495F" points="152.459131 394.303394 165.005611 394.303394 165.005611 388.182461 152.459131 388.182461"></polygon>
                                <path d="M201.256132,413.898461 L232.359887,413.898461 C234.083905,413.898461 235.448257,412.439481 235.332456,410.718938 L223.845135,239.71271 C223.740157,238.148022 222.44074,236.932567 220.872565,236.932567 L214.276636,236.932567 C212.718562,236.932567 211.424195,238.133231 211.305509,239.686373 L198.285366,410.692601 C198.153693,412.422524 199.521291,413.898461 201.256132,413.898461" id="Fill-211" fill="#EB495F"></path>
                                <path d="M635.776913,537.909373 C635.420133,503.585102 533.12911,445.157719 412.083123,416.759562 C391.332856,411.891606 127.779218,354.781778 55.4465738,402.989808 C-10.5650314,446.985052 0.735061599,538.772711 0.735061599,538.772711 C0.735061599,538.772711 607.875885,537.379753 635.776913,537.909373" id="Fill-212" fill="#00E07D"></path>
                                <path d="M216.371648,251.025901 C219.135344,251.025901 219.140033,246.730497 216.371648,246.730497 C213.607952,246.730497 213.603262,251.025901 216.371648,251.025901" id="Fill-213" fill="#FFFFFF"></path>
                                <path d="M184.152602,255.572947 C183.256863,255.189442 182.34489,254.97045 181.369065,254.935094 C180.585158,254.906593 180.586601,256.124214 181.369065,256.152715 C182.115815,256.179773 182.849578,256.329856 183.538247,256.62461 C183.842719,256.754851 184.187234,256.71264 184.370855,256.406341 C184.523452,256.151272 184.454549,255.702105 184.152602,255.572947" id="Fill-214" fill="#FFFFFF"></path>
                                <path d="M175.599971,255.853379 C174.3709,255.746589 173.188366,255.994081 172.083753,256.534525 C171.379933,256.879066 171.996452,257.929286 172.698108,257.585827 C173.615132,257.137382 174.586628,256.98297 175.599971,257.070999 C176.380271,257.138825 176.375942,255.920844 175.599971,255.853379" id="Fill-215" fill="#FFFFFF"></path>
                                <path d="M167.49723,257.179521 C166.625661,257.083193 165.754453,257.19756 164.936636,257.5136 C164.213335,257.793201 164.527907,258.971136 165.260588,258.687927 C165.991465,258.404717 166.718374,258.311276 167.49723,258.397141 C168.274644,258.483006 168.268872,257.264664 167.49723,257.179521" id="Fill-216" fill="#FFFFFF"></path>
                                <path d="M160.717679,258.761092 C159.703615,258.653942 156.953266,258.597661 157.250884,260.23306 C157.307161,260.542967 157.709396,260.758712 157.999799,260.658416 C158.743662,260.401182 159.487526,260.143588 160.23139,259.886354 C160.967318,259.631646 160.650941,258.454793 159.907799,258.712027" id="Fill-217" fill="#FFFFFF"></path>
                                <path d="M151.583774,262.299804 C150.448859,261.575365 148.651609,262.091636 148.580541,263.606176 C148.548434,264.294898 149.225199,264.946821 149.880319,264.474925 C150.225555,264.226711 150.219783,263.434085 150.790488,263.561439" id="Fill-218" fill="#FFFFFF"></path>
                                <path d="M214.986409,104.218428 C215.307836,106.446583 215.990372,108.553157 217.009487,110.558352 C217.364825,111.257537 218.415325,110.641692 218.060709,109.94395 C217.087409,108.028949 216.466921,106.019424 216.160285,103.894812 C216.048814,103.122028 214.875298,103.450696 214.986409,104.218428" id="Fill-219" fill="#FFFFFF"></path>
                                <path d="M218.770771,115.360215 C218.665072,116.01322 218.851218,116.486198 219.228922,117.016539 C219.693205,117.668101 220.015354,118.250395 220.020765,119.077655 C220.025816,119.862344 221.213401,119.860179 221.238292,119.077655 C221.262823,118.296935 221.452938,117.332579 221.263545,116.568816 C221.200053,116.312664 221.055393,116.098724 220.859506,115.925551 C220.735409,115.816597 220.185988,115.622499 220.147388,115.487569 C220.004772,114.985849 219.5459,114.943398 218.770771,115.360215 Z" id="Fill-221" fill="#FFFFFF"></path>
                                <path d="M223.280527,127.028915 L224.454403,127.028915 C224.279801,125.779907 224.254548,124.406792 223.502748,123.128561 C223.105564,122.453548 222.052899,123.065425 222.451526,123.742963 C223.038104,124.74051 223.681679,125.849898 223.280527,127.028915 Z" id="Fill-222" fill="#FFFFFF"></path>
                                <path d="M225.088816,136.037322 C225.282899,136.470976 225.925031,136.395934 226.140038,136.037322 C226.454971,135.512754 226.435852,134.934068 226.182967,134.384245 C226.040471,134.073977 225.819332,133.81025 225.669621,133.505393 C225.478785,133.116476 225.82424,133.168464 225.751511,132.673443 C225.639141,131.908608 224.689106,131.575961 224.577274,132.349827 C224.391128,133.640685 224.555269,134.84676 225.088816,136.037322 Z" id="Fill-223" fill="#FFFFFF"></path>
                                <path d="M226.867668,143.292284 C226.953887,144.075891 227.994286,144.073004 228.085195,143.292284 C228.240677,141.952 228.737789,140.019681 227.084478,139.435223 C226.344221,139.174021 225.780732,139.841457 226.515577,140.101217 C226.963867,140.259718 227.081231,141.323407 226.867668,143.292284 Z" id="Fill-224" fill="#FFFFFF"></path>
                            </g>
                        </g>
                    </g>
                </g>
            </g>
        </g>
    </g>
</svg>