<?xml version="1.0" encoding="UTF-8"?>
<svg width="165px" height="38px" viewBox="0 0 165 38" version="1.1" xmlns="http://www.w3.org/2000/svg" xmlns:xlink="http://www.w3.org/1999/xlink">
    <!-- Generator: Sketch 47 (45396) - http://www.bohemiancoding.com/sketch -->
    <title>Group 21</title>
    <desc>Created with Sketch.</desc>
    <defs>
        <polygon id="path-1" points="164.268824 -0.000108571429 164.268824 37.6043657 0 37.6043657 0 -0.000108571429 164.268824 -0.000108571429"></polygon>
    </defs>
    <g id="Page-1" stroke="none" stroke-width="1" fill="none" fill-rule="evenodd">
        <g id="Lalaland_1-Copy" transform="translate(-148.000000, -69.000000)">
            <g id="Group-21" transform="translate(148.000000, 69.000000)">
                <g id="Page-1">
                    <mask id="mask-2" fill="white">
                        <use xlink:href="#path-1"></use>
                    </mask>
                    <g id="Clip-2"></g>
                    <path d="M18.822402,36.9630343 L-0.000539215686,-0.000108571429 L5.04328431,0.03572 C8.24406863,6.52937714 12.4672059,15.0478914 15.490049,20.98132 C17.6177941,25.16132 19.0898529,28.4456057 19.0898529,28.4456057 C19.0898529,28.4456057 20.6492647,25.1026914 22.8826961,20.8608057 C25.9821078,14.9784057 30.2710294,6.62166286 33.530049,0.235491429 L38.5706373,0.270234286 L19.2343627,36.9749771 L18.822402,36.9630343 Z M58.0309314,3.89434857 C50.1486765,3.83897714 43.7136765,10.3934343 43.6565196,18.53412 C43.6004412,26.67372 49.9448529,33.3182914 57.8271078,33.3736629 C65.7104412,33.4290343 72.1443627,26.8734914 72.2015196,18.7338914 C72.257598,10.5932057 65.9142647,3.95080571 58.0309314,3.89434857 L58.0309314,3.89434857 Z M57.8001471,37.25292 C47.5744608,37.1812629 39.3427941,28.78652 39.4139706,18.5048057 C39.4851471,8.22200571 47.8322059,-0.0565657143 58.0578922,0.0150914286 C68.2846569,0.0867485714 76.5163235,8.48149143 76.4451471,18.7642914 C76.3739706,29.0470914 68.0269118,37.3245771 57.8001471,37.25292 L57.8001471,37.25292 Z M101.079755,37.1682343 L82.9707353,37.0412057 L83.2230882,0.579662857 L87.462402,0.608977143 L87.2391667,32.8047486 L101.109951,32.9013771 L101.079755,37.1682343 Z M115.172696,5.07126286 L101.30299,4.97463429 L101.332108,0.706691429 L119.440049,0.83372 L119.187696,37.2952629 L114.950539,37.2648629 L115.172696,5.07126286 Z M130.00652,5.17549143 C128.836422,5.16680571 127.894951,4.20486286 127.9025,3.02686286 C127.911127,1.84777714 128.865539,0.899948571 130.035637,0.908634286 C131.206814,0.916234286 132.148284,1.87817714 132.139657,3.05726286 C132.132108,4.23417714 131.177696,5.18309143 130.00652,5.17549143 L130.00652,5.17549143 Z M159.225539,37.5688629 C156.024755,31.07412 151.801618,22.5523486 148.778775,16.6178343 C146.651029,12.4367486 145.178971,9.15246286 145.178971,9.15246286 C145.178971,9.15246286 143.619559,12.4953771 141.386127,16.7394343 C138.286716,22.62292 133.997794,30.98292 130.738775,37.3690914 L125.698186,37.3332629 L145.034461,0.62092 L145.4475,0.631777143 L164.269363,37.6046914 L159.225539,37.5688629 Z" id="Fill-1" fill="#C9C9C9" mask="url(#mask-2)"></path>
                </g>
            </g>
        </g>
    </g>
</svg>