<svg width="1192" height="638" viewBox="0 0 1192 638" xmlns="http://www.w3.org/2000/svg" xmlns:xlink="http://www.w3.org/1999/xlink"><title>Group 6</title><defs><path id="a" d="M0 0h1205v638H0z"/><path id="c" d="M475.182 324.937H.684V.46h474.498v324.477z"/></defs><g fill="none" fill-rule="evenodd"><mask id="b" fill="#fff"><use xlink:href="#a"/></mask><g mask="url(#b)"><g transform="translate(411.356 606.981)"><mask id="d" fill="#fff"><use xlink:href="#c"/></mask><path d="M.684 57.918c26.08 113.143 100.472 233.032 191.26 256.748 199.954 52.22 260.81-104.44 282.543-248.044C496.222-76.983.684 57.918.684 57.918" fill="#C62B19" mask="url(#d)"/></g><path d="M484.415-184.98c29.112-20.493 205.241-213.28 415.47-144.11 324.502 106.775 280.474 446.398 226.047 545.131-102.816 186.48-385.376 295.641-385.376 295.641L484.415-184.98z" fill="#EB495F"/><path d="M170.161-28.396c28.728-69.827 214.603-150.297 326.025-173.67C607.618-225.442 723.24-212.71 827.29-84.229c104.05 128.49 132.55 260.34 114.396 287.903-18.164 27.556-771.525-232.07-771.525-232.07" fill="#C62B19"/><path d="M350.296 483.012C296.351 476.006-63.959 347.167-27.4 46.832c17.44-143.253 273.405-342.46 559.043-188.993C709.57-46.567 589.012 124.1 583.77 203.374c-5.225 79.273-132.147 292.797-233.474 279.638" fill="#EB495F"/><path d="M780.413 298.569c-10.053-23.879-28.118-51.242-51.587-65.189-19.568-16.377-43.976-29.593-67.697-36.501-13.016-3.79-25.763-7.3-38.37-12.405l39.005 16.5c-22.392-9.618-44.732-18.26-67.202-27.346 12.973 5.497 114.01-140.987 60.268-185.643-25.477-21.169-31.69-63.716-183.2-78.517-15.415-1.498-92.6-3.493-147.35 30.186C224.912.79 235.556 112.89 239.753 143.494c12.295 89.425 75.612 177.664 92.686 202.396 35.07 50.788 79.966 95.147 134.411 124.992 28.787 15.777 59.017 28.496 91.462 33.548 36.85 5.733 68.252 12.292 105.05 1.342 21.654-6.438 42.525-15.994 60.641-29.184 9.576-5.61 18.595-12.143 26.606-20.175 22.54-22.598 35.443-51.668 39.64-82.969 3.536-26.43.504-50.283-9.836-74.875" fill="#FFDA00"/><path d="M877.748 381.776c-8.085-6.931-15.693-14.324-22.684-22.397-18.428-23.703-38.973-51.115-71.93-57.21-31.04-5.744-69.934-7.346-98.072 7.057-28.138 14.402-40.876 53.519-50.151 84.607-21.911 73.37 27.495 132.32 80.592 173.511 7.452 5.772 14.92 11.743 22.606 17.375a189.157 189.157 0 0 1-9.066 8.657c-24.855 17.54-50.71 33.285-73.828 53.484-29.388 25.683-54.851 64.25-61.278 103.255-3.613 21.881-5.42 40.206-.208 62.07 3.04 12.825 21.181 43.442 37.552 50.974 70.787 32.57 123.65 19.188 199.11-37.016 45.716-34.052 102.14-123 123.52-165.692 10.266-20.495 20.67-43.72 25.699-66.447 9.648-43.529 6.183-83.247-13.244-123.14-18.829-38.664-54.74-64.199-88.618-89.088z" fill="#FFF"/><path d="M894.68 9.214c-45.962-33.286-99.022-50.883-154.706-58.828-28.359-4.042-56.874-2.221-85.39-.853-29.514 1.428-55.684 6.21-83.548 18.511-52.547 23.19-84.694 79.291-82.514 135.68.99 25.48 7.611 47.311 20.974 69.02 15.587 25.35 40.575 50.56 70.02 59.263 36.188 10.689 57.604 68.138 95.103 62.493 13.007-1.96 86.138 2.694 100.074 30.553 16.612 33.208 41.316 87.406 70.657 109.969 43.294 33.277 79.257 39.06 133.762 15.589 42.921-18.483 87.48-87.815 4.775-306.017C966.19 97.901 935.133 38.502 894.68 9.214z" fill="#00E07D"/><path d="M550.806 422.515c17.06-17.607 33.041-35.807 49.77-53.58-8.617 9.135-17.216 18.261-25.824 27.396 9.59-9.815 19.772-19.168 30.946-27.806 20.033-15.46 48.161-23.61 62.708-42.7 34.015-44.646 13.312-114.934-24.66-155.226-37.666-39.952-107.078-63.056-168.204-47.002-40.58 10.662-76.35 25.756-105.627 51.67-19.964 17.676-38.014 37.15-54.526 57.035-26.294 31.654-43.032 70.83-51.831 108.504-8.652 37.028-13.164 75.192-13.33 112.936-.19 42.508 11.217 84.266 18.556 126.154-1.54-9.466 287.413-162.93 307.385-184.289-8.451 8.97-16.903 17.939-25.363 26.908z" fill="#FFF"/><path d="M349.647 427.064c137.255-66.466 216.01-86.88 295.253-129.407 79.233-42.528 167.479-100.63 225.1-17.276 57.612 83.354 51.506 384.722 0 456.937-51.515 72.226-396.888 12.183-491.068 3.519-94.17-8.664-100.127-19.582-125.011-66.787-31.28-59.395-41.538-180.52 95.726-246.986z" fill="#0900C6"/><path d="M360.697 291.538a11.848 11.848 0 0 0-.382-.547c.12.175.24.35.35.536l.032.01zm38.623-1.809c.339-.252.688-.493 1.027-.745-.593.296-1.313.745-2.002 1.204.276-.098.52-.197.752-.295.085-.066.138-.099.223-.164" fill="#4F4646"/><path d="M103.109 371.929c.312 20.929 18.536 36.525 34.298 47.357 15.39 10.578 32.964 27.092 51.63 28.176 5.529.315 12.071-3.383 14.541-8.418 12.002-24.453-7.99-45.644-29.238-55.654-16.811-7.92-33.63-15.5-50.26-23.604-9.177-4.468-21.136.804-20.971 12.143M64.76 542.55c19.297 8.243 37.83 9.071 58.619 7.745 17.127-1.098 36.337-1.369 52.163-8.433 11.652-5.216 12.728-20.828 8.017-30.762-10.238-21.57-36.693-19.711-56.328-16.606-22.09 3.497-44.172 7.02-62.47 20.723-8.2 6.13-12.122 22.153 0 27.334m36.005 149.682c24.606-1.07 50.59-15.432 72.08-26.742 12.906-6.796 44.107-24.209 34.56-43.499-10.163-20.543-45.574-7.198-60.19-.789-21.87 9.601-48.654 25.787-59.442 48.137-4.73 9.776.816 23.428 12.992 22.893" fill="#0900C6"/><path d="M838.07 23.68c2.504 4.087 5.553 7.78 8.244 11.746 2.555 3.763 4.65 9.08 8.772 11.238 3.058 1.605 6.43-.386 6.618-3.922.315-5.526-4.37-10.474-7.818-14.229-3.603-3.93-7.691-7.15-12.563-9.194-2.368-.99-4.505 2.316-3.253 4.36m29.66 46.296c.196 4.029 2.009 7.799 3.933 11.285 2.086 3.779 4.181 7.463 7.217 10.57 3.745 3.84 11.637-.052 9.5-5.56-1.59-4.132-3.874-7.498-6.49-11.036-2.369-3.21-4.926-6.653-8.534-8.513-2.377-1.23-5.789.241-5.626 3.254" fill="#10131C"/><path d="M890.196 119.068c1.803 2.955 3.724 5.97 4.654 9.364.923 3.42.99 7.049 1.727 10.53.829 3.928 6.972 5.024 8.682 1.166 4.434-9.952-1.498-22.445-11.043-26.47-2.928-1.227-5.56 2.867-4.02 5.41M904.76 174.5c.288 5.346 1.277 9.967 3.412 14.884 1.645 3.809 6.195 10.544 11.288 7.582 3.833-2.227 2.118-7.354.376-10.316-2.809-4.778-6.414-9.067-9.477-13.661-1.548-2.306-5.775-1.642-5.6 1.511m18.078 56.485c-.427 5.3 1.227 11.43 2.558 16.538.984 3.74 3.499 9.455 8.494 8.174 4.63-1.186 4.22-7.048 3.325-10.52-1.367-5.326-3.15-11.828-6.319-16.357-2.497-3.576-7.71-2.164-8.058 2.165m11.969 61.897c.678 6.544.73 19.39 8.164 22.065.886.32 2.085-.035 2.71-.71 5.141-5.557-.443-16.568-2.788-22.446-1.555-3.887-8.615-3.93-8.086 1.09" fill="#2C2C2C"/><path d="M800.02-16.647c-.652 2.755-.426 4.434.93 6.908 1 1.793 2.225 3.463 3.563 5.011C806.825-2 810.831.66 814.525-.032c.93-.175 1.66-1.067 1.92-1.933 1.026-3.506-1.468-7.747-3.728-10.257-1.251-1.382-2.737-2.57-4.223-3.673-2.373-1.749-3.85-2.352-6.883-1.976-.713.096-1.408.455-1.59 1.224" fill="#10131C"/><path d="M909.75 73.28c4.337 3.402 7.515 10.25 9.78 15.217 1.95 4.294 3.335 11.02 7.646 13.477 1.324.752 2.856.463 3.954-.516 5.042-4.504 1.837-14.281-1.01-19.17-1.803-3.104-4.085-6.025-6.907-8.23-3.152-2.457-6.453-3.558-9.893-5.43-2.795-1.522-6.313 2.501-3.57 4.653m30.205 64.134c1.98 5.597 4.137 11.168 6.53 16.598 2.227 5.033 3.882 10.515 9.057 13.195 1.532.802 3.3.361 4.234-1.11 7.041-10.975-5.897-26.718-14.215-33.003-2.64-1.983-6.662 1.323-5.606 4.32m25.892 76.378c.034 10.923-1.522 30.547 11.252 34.95 1.147.392 2.898-.244 3.425-1.43 2.456-5.57.986-9.895-.9-15.51-2.083-6.18-4.684-12.701-5.865-19.109-.867-4.646-7.93-3.47-7.912 1.099" fill="#2C2C2C"/><path d="M947.533 368.687c1.4-3.407 2.834-6.719 4.494-10.005 1.53-3.047 3.267-6.497 3.733-9.886.285-2.071-1.21-4.16-3.543-3.518-9.161 2.508-13.465 13.703-14.416 22.108-.268 2.413 2.1 4.519 4.296 4.81 2.627.35 4.494-1.207 5.436-3.51" fill="#10131C"/><path d="M924.945 9.576c4.977 3.892 8.086 9.78 10.443 15.5 1.371 3.298 4.41 10.846 9.108 7.076 4.645-3.743 1.196-12.255-1.301-16.217-3.52-5.607-8.304-8.957-14.242-11.573-3.091-1.356-7.248 2.686-4.008 5.214m26.015 48.73c2.475 7.493 6.996 21.457 17.228 21.01 1.328-.051 2.717-1.142 2.614-2.595-.302-4.159-3.192-7.218-5.694-10.329-2.744-3.394-6.04-6.806-8.179-10.595-1.786-3.162-7.152-1.057-5.97 2.51m33.011 56.313c2.164 7.15 2.806 18.732 10.246 22.555.95.488 2.395.514 3.13-.41 6.757-8.386-1.761-19.603-7.834-25.429-2.317-2.238-6.55-.052-5.542 3.283m23.95 63.528c1.091 5.163 3.946 29.33 13.064 25.07 10.082-4.7-2.292-24.054-6.178-29.19-2.736-3.603-7.67.42-6.886 4.12" fill="#FFDA00"/><path d="M998.925 262.186c1.77 8.194-.858 20.171 6.587 26.065 1.25.99 2.61.965 3.878 0 9.411-7.186 1.618-21.386-2.574-29.27-2.341-4.378-8.847-1.215-7.891 3.205" fill="#2C2C2C"/><path d="M1015.55 338.254c-.536 7.81-5.685 17.67-.21 24.769.906 1.18 2.085 1.501 3.476.903 10.262-4.4 6.75-18.608 5.087-26.783-.986-4.869-8.044-3.368-8.352 1.11" fill="#10131C"/><path d="M976.923 32.737c1.547 6.474 4.874 12.94 8.072 18.736 1.978 3.554 6.285 11.131 11.443 8.09 5.14-3.042.705-10.584-1.359-14.052-3.361-5.666-7.333-11.792-12.13-16.328-2.639-2.503-6.877-.026-6.026 3.554m43.325 74.053c2.528 5.028 11.871 30.123 20.54 23.637 8.471-6.335-11.462-23.876-15.151-27.935-2.759-3.026-7.14.812-5.39 4.297m33.347 58.568c-1.815 9.669-.226 19.417 5.037 27.77 3.24 5.135 11.88 1.97 9.987-4.287-2.544-8.44-6.244-16.466-10.578-24.076-.998-1.732-4.046-1.555-4.446.593m.454 67.107c.943 3.028 1.474 6.387 1.689 9.563.231 3.333-.437 6.578-.343 9.885.154 5.357 8.393 8.717 10.828 2.993 3.875-9.109.617-19.36-6.027-26.08-2.538-2.556-7.287 0-6.147 3.64" fill="#FFDA00"/><path d="M1056.194 354.707c-1.395 7.347-3.236 16.17-1.797 23.56.393 1.983 2.745 2.371 4.328 1.699 9.951-4.234 11.104-18.136 6.759-26.432-1.895-3.613-8.512-2.949-9.29 1.173m-11.065 51.258c-1.529 3.481-2.986 7.006-4.965 10.268-1.909 3.121-4.374 6.541-4.303 10.338.044 2.183 1.74 3.683 3.87 3.832 9.983.71 15.408-13.96 15.134-21.825-.177-4.674-7.536-7.655-9.736-2.613" fill="#C62B19"/><path d="M1001.028 485.418c8.402-2.386 18.566-10.82 20.706-19.332.846-3.42-3.17-7.116-6.509-4.885-3.514 2.37-6.227 5.652-9.168 8.65-2.924 2.99-6.333 5.59-9.134 8.675-2.668 2.964-.14 8.107 4.105 6.892m-28.979 18.975c3.147-1.303 6.06-2.722 8.697-4.97 2.619-2.223 4.119-4.695 5.792-7.684.928-1.651-.59-3.454-2.298-3.079-3.139.687-5.835 1.312-8.575 3.106-2.723 1.784-4.978 4.024-7.041 6.559-1.986 2.445-.174 7.558 3.425 6.068" fill="#2C2C2C"/><path d="M800.409 310.212c0-12.852-5.373-18.337-16.765-4.049-7.122 8.931-4.69 116.55-5.301 138.31-.344 12.19 18.01 7.324 19.57 5.978 4.86-4.208 2.495-121.198 2.496-140.239" fill="#F8F6F6"/><path d="M824.956 313.486c0-12.68-6.187-18.092-19.305-3.995-8.2 8.812-5.399 114.997-6.104 136.466-.396 12.027 20.74 7.226 22.535 5.898 5.597-4.151 2.874-119.582 2.874-138.369m30.264-2.586c.001-12.852-6.187-18.337-19.305-4.049-8.2 8.931-5.4 116.551-6.104 138.31-.395 12.19 20.74 7.324 22.536 5.978 5.596-4.207 2.873-121.198 2.873-140.239" fill="#F8F6F6"/><path d="M880.611 312.798c0-12.68-6.187-18.092-19.305-3.995-8.2 8.812-5.4 114.997-6.104 136.466-.396 12.027 20.74 7.226 22.536 5.897 5.595-4.15 2.872-119.581 2.873-138.368" fill="#F8F6F6"/><path d="M906.002 313.952c0-12.452-6.188-17.766-19.306-3.924-8.2 8.654-5.4 112.926-6.104 134.008-.395 11.81 20.74 7.096 22.536 5.792 5.596-4.077 2.873-117.428 2.874-135.876" fill="#F8F6F6"/><path d="M931.322 310.212c0-12.851-6.187-18.337-19.305-4.05-8.2 8.932-5.4 116.552-6.104 138.31-.395 12.19 20.74 7.325 22.535 5.979 5.597-4.208 2.874-121.198 2.874-140.239" fill="#F8F6F6"/><path d="M954.724 314.007c0-12.508-6.187-17.847-19.305-3.94-8.2 8.693-5.4 113.442-6.104 134.62-.395 11.866 20.74 7.13 22.535 5.82 5.597-4.096 2.874-117.966 2.874-136.5m28.223-1.953c0-12.623-5.373-18.01-16.765-3.977-7.122 8.773-4.69 114.48-5.301 135.851-.343 11.973 18.011 7.194 19.57 5.871 4.86-4.132 2.495-119.043 2.496-137.745" fill="#F8F6F6"/><path d="M1005.593 317.06c0-12.11-5.373-17.278-16.766-3.816-7.121 8.416-4.688 109.817-5.3 130.32-.344 11.484 18.01 6.9 19.57 5.631 4.86-3.964 2.495-114.196 2.496-132.136m25.39 1.321c0-12.052-5.373-17.196-16.765-3.797-7.121 8.375-4.688 109.299-5.3 129.704-.344 11.431 18.01 6.868 19.57 5.606 4.86-3.946 2.495-113.657 2.495-131.513m26.077-6.326c0-12.623-5.373-18.01-16.765-3.977-7.122 8.773-4.689 114.479-5.301 135.851-.344 11.973 18.011 7.194 19.57 5.872 4.86-4.133 2.496-119.044 2.496-137.746m25.39-7.535c0-13.366-5.372-19.07-16.765-4.211-7.12 9.288-4.688 121.212-5.3 143.842-.343 12.678 18.01 7.616 19.57 6.217 4.86-4.376 2.495-126.046 2.496-145.848m25.391 3.795c0-13.023-5.374-18.581-16.765-4.103-7.122 9.05-4.69 118.105-5.302 140.154-.343 12.352 18.011 7.422 19.57 6.058 4.86-4.264 2.496-122.814 2.497-142.109m25.39-.744c0-12.966-5.373-18.5-16.765-4.085-7.122 9.01-4.689 117.587-5.301 139.54-.343 12.298 18.011 7.389 19.57 6.03 4.86-4.244 2.496-122.275 2.496-141.485" fill="#F8F6F6"/><path d="M778.266 294c3.528-3.463 375.823-6.175 383 0 4.649 4 4.781 59.799.398 167.4-.07 1.717.072 5.564 0 7.308-.06 1.46-.398 3.358-6.491 2.398-6.094-.96-328.885-7.414-335.6-7.464-6.715-.05-31.888 4.353-37.78 0-5.89-4.354-3.527-11.766-3.527-18.85 0-7.083-3.527-147.329 0-150.792z" fill="#FFF"/><path d="M1159.222 317.004c0-12.052-6.188-17.196-19.306-3.797-8.2 8.376-5.399 109.298-6.104 129.703-.395 11.433 20.74 6.868 22.536 5.606 5.596-3.945 2.873-113.656 2.874-131.512" fill="#F8F6F6"/><path d="M832.784 307.364c0-8.511-4.234-12.143-13.21-2.682-5.61 5.915-3.694 77.182-4.176 91.592-.27 8.072 14.19 4.85 15.42 3.959 3.828-2.787 1.965-80.26 1.966-92.87m27.449.001c0-8.511-4.233-12.143-13.209-2.682-5.61 5.915-3.694 77.182-4.176 91.592-.27 8.072 14.19 4.85 15.42 3.959 3.828-2.787 1.965-80.26 1.965-92.87m38.429-2.064c0-8.511-4.233-12.143-13.209-2.681-5.61 5.914-3.694 77.182-4.176 91.591-.27 8.073 14.19 4.85 15.419 3.959 3.829-2.787 1.966-80.26 1.966-92.87m29.45.001c0-8.511-4.234-12.143-13.21-2.681-5.61 5.914-3.694 77.182-4.176 91.591-.27 8.073 14.19 4.85 15.42 3.959 3.828-2.787 1.965-80.26 1.966-92.87m25.448.001c.001-8.511-4.232-12.143-13.208-2.681-5.61 5.914-3.695 77.182-4.177 91.591-.27 8.073 14.19 4.85 15.42 3.959 3.828-2.787 1.966-80.26 1.966-92.87m39.801 2.066c0-8.511-4.233-12.143-13.209-2.682-5.61 5.915-3.694 77.182-4.176 91.592-.27 8.072 14.19 4.85 15.42 3.959 3.828-2.787 1.965-80.26 1.965-92.87m28.823-2.064c0-8.511-4.234-12.143-13.21-2.681-5.61 5.914-3.694 77.182-4.176 91.591-.27 8.073 14.19 4.85 15.42 3.959 3.828-2.787 1.965-80.26 1.966-92.87m40.487 2.066c0-8.511-4.234-12.143-13.209-2.682-5.61 5.915-3.694 77.182-4.177 91.592-.27 8.072 14.19 4.85 15.42 3.959 3.829-2.787 1.965-80.26 1.966-92.87m26.077.001c0-8.511-4.234-12.143-13.209-2.682-5.61 5.915-3.694 77.182-4.177 91.592-.27 8.072 14.19 4.85 15.42 3.959 3.829-2.787 1.965-80.26 1.966-92.87m26.077-2.064c0-8.511-4.234-12.143-13.21-2.681-5.61 5.914-3.693 77.182-4.176 91.591-.27 8.073 14.19 4.85 15.42 3.959 3.828-2.787 1.965-80.26 1.966-92.87m32.939.001c0-8.511-4.233-12.143-13.209-2.682-5.61 5.915-3.694 77.183-4.177 91.592-.27 8.072 14.19 4.85 15.42 3.96 3.828-2.787 1.966-80.261 1.966-92.87m-360.959 2.065c.001-8.512-4.233-12.143-13.209-2.682-5.61 5.914-3.694 77.182-4.176 91.592-.27 8.072 14.19 4.85 15.419 3.959 3.829-2.787 1.965-80.26 1.966-92.87" fill="#2C2C2C"/><path d="M847.018 408.589c1.814-3.777 6.857-8.706 5.48-11.213-2.187-3.984-13.567 3.255-15.162 5.6a10.55 10.55 0 0 0-1.758 5.336c.6-.845 1.667-1.455 2.593-1.713 3.144-1.363 6.31.073 8.847 1.99zm26.626-9.564c1.323-3.206 4.02-6.145 3.779-9.759-.52-7.826-11.532 3.967-13.71 7.586.836-.383 1.785-.429 2.463-.579 2.677-.593 5.324.38 7.177 2.531l.29.22z" fill="#EB495F"/><path d="M946.279 444.077c-8.976-4.794-19.133 21.583-22.438 26.387a48.51 48.51 0 0 1-.567.81c-6.203-3.87-1.994-20.434-1.154-26.143 1.391-9.452 4.3-19.057 4.886-28.594.292-4.763 4.119-27.09-.464-27.76-7.803-1.137-8.94 8.72-10.014 12.208-1.655 5.373-2.71 10.903-4.328 16.282-2.146 7.136-9.039 9.86-11.648 1.235-2.862-9.461-.899-19.377.46-28.907.632-4.441 2.577-16.241.053-19.976-3.414-5.05-7.761 2.375-9.07 6.115-1.672 4.78-2.021 9.906-3.228 14.8-.89 3.612-3.897 27.015-8.972 26.721-3.76-.216-5.843-12.69-6.169-15.57-.166-1.482.133-2.79.645-4.01-1.899-2.17-4.789-3.494-7.532-2.895-.696.151-1.636.372-2.492.758-.129.211-.23.398-.295.55-1.567 3.677-7.364 38.854-14.99 29.29-2.807-3.522-2.883-11.035-2.495-15.418.056-.63.31-1.353.68-2.13-2.427-2.136-6-3.438-9.056-2.098-.9.253-1.626.981-2.208 1.811-.15 2.976.221 6.236.014 8.722-3.308 39.585-8.99 79.005-12.81 118.563-1.646 17.057-1.138 36.628-9.216 52.046a50.479 50.479 0 0 0-1.625 3.43c10.266 4.61 20.433 9.438 31.063 13.181 11.07 3.899 22.788 7.068 34.584 6.632 5.447-.2 10.69-1.15 15.788-3.324 5.06-2.156 9.655-5.657 13.396-9.816.416-.462.88-.718 1.35-.817 1.238-13.83 2.296-25.8 2.98-33.69 1.221-14.13 2.86-27.852 8.65-40.972 4.087-9.262 11.487-17.825 14.234-27.609 1.711-6.092 15.106-48.147 11.988-49.812" fill="#EB495F"/><path d="M914.413 568.048c-11.49 1.927-40.615-.639-46.581-1.17-10.003-.89-47.37-6.263-52.918-12.464.507.567-4.866 20.937-5.09 23.638-.637 7.655-1.667 18.421 5.108 23.03 6.038 4.106 15.793 4.971 22.601 6.996 7.49 2.228 15.16 2.978 22.937 3.828 10.79 1.18 21.029 1.062 31.82.91 7.379-.104 16.292.947 19.266-8.738.853-2.775 5.05-36.396 2.857-36.03" fill="#FFF"/><path d="M909.776 640.475c.92-11.497 1.517-19.42.883-25.398-4.603 1.558-9.37 2.68-14.124 3.46-11.382 1.869-23.032 2.09-34.525 1.151-11.52-.94-23.01-2.93-34.12-6.085-7.981-2.267-15.918-5.107-23.28-8.951-7.273 17.746-12.322 43.393-15.837 62.625h119.105c.574-9.02 1.19-17.974 1.898-26.802" fill="#FFF"/><path d="M1051.543 450.197a5.083 5.083 0 0 0 1.827-.53c6.122-3.068 2.557-17.366 2.74-22.746.23-6.81.456-13.64-.376-20.42-.463-3.767-8.854-20.022-3.22-22.523 2.462-1.086 3.017 1.426 4.555 2.715 5.383 4.508 7.896 10.82 10.67 17.08 1.389 3.132 1.58 13.349 4.612 15.098 9.57 5.52 8.215-23.9 7.233-27.428-.714-2.564-6.164-12.554-3.737-14.829 8.41-7.874 16.375 19.665 17.837 24.14 1.47 4.493 1.634 15.8 6.899 17.912 6.54 2.625 7.592-11.085 6.959-14.85-1.245-7.402-8.63-14.113-5.492-22.019.737-1.858 8.997 5.987 9.66 6.697 2.947 3.16 5.03 6.19 6.331 10.477 2.15 7.081-.196 16.27 3.817 22.855 4.169 6.842 6.345-.082 7.15-4.845.57-3.376.51-5.938-.27-9.09-.708-2.87-5.45-9.869-1.878-12.472 2.86-2.084 6.816 4.924 7.728 7.275 2.092 5.39 2.822 11.94 3.614 17.655 1.356 9.784.905 19.659 2.468 29.384 3.616 22.513 7.927 44.513 9.577 67.27 1.27 17.537 5.767 31 9.906 47.332 3.763 14.849-8.392 17.759-21.433 19.22-25.124 2.815-55.777 10.88-64.29-22.422-1.383-5.41-.822-9.093-3.452-14.61-5.9-12.372-14.9-22.664-19.715-35.751-4.07-11.061-7.573-22.321-11.374-33.477-4.713-13.834-10.451-26.197-16.902-39.08l-.01-.02c-2.319-4.644-2.253-9.742 3.407-8.78 3.586.61 7.595 5.326 10.155 7.74 3.266 3.079 9.04 13.59 15.004 13.042" fill="#EB495F"/><path d="M1068.275 560.56c11.026.57 38.043-5.278 43.576-6.482 9.279-2.016 43.681-11.556 48.113-18.26-.405.611 7.184 19.933 7.733 22.551 1.554 7.42 3.866 17.839-1.917 23.125-5.154 4.712-14.202 6.676-20.34 9.437-6.752 3.039-13.857 4.651-21.051 6.375-9.98 2.39-19.606 3.448-29.755 4.537-6.938.744-15.172 2.791-19.174-6.346-1.148-2.619-9.29-35.044-7.185-34.937m118.13 63.26c-2.741-7.46-7.137-26.547-12.827-31.771-7.478-6.866-26.129 7.276-33.727 9.461-9.424 2.71-19.087 6.608-28.901 7.456-6.704.58-12.274-.706-16.943.215-3.764.743-6.942 2.921-9.654 8.67-5.695 12.07-4.567 26.946-1.753 41.84h114.34c-2.937-12.139-6.24-24.181-10.535-35.872" fill="#FFF"/></g></g></svg>