<?xml version="1.0" encoding="UTF-8"?>
<svg width="102px" height="131px" viewBox="0 0 102 131" version="1.1" xmlns="http://www.w3.org/2000/svg" xmlns:xlink="http://www.w3.org/1999/xlink">
    <!-- Generator: Sketch 47 (45396) - http://www.bohemiancoding.com/sketch -->
    <title>Group 13</title>
    <desc>Created with Sketch.</desc>
    <defs>
        <polygon id="path-1" points="56.8647987 130.418301 0.998281694 130.418301 0.998281694 0.354126674 56.8647987 0.354126674"></polygon>
    </defs>
    <g id="Page-1" stroke="none" stroke-width="1" fill="none" fill-rule="evenodd">
        <g id="Lalaland_1-Copy" transform="translate(-148.000000, -3929.000000)">
            <g id="Group-13" transform="translate(148.000000, 3929.000000)">
                <g id="Page-1">
                    <path d="M16.3116308,71.980812 C12.8174769,60.3934058 6.82301538,14.9403787 49.5348615,14.0858502 C92.2467077,13.2313218 91.7837846,35.5095365 87.0264,58.5397363 C82.2637846,81.5699361 48.0650154,93.3335066 37.9905538,91.1380258 C27.9134769,88.9425449 19.8057846,83.5708474 16.3116308,71.980812" id="Fill-1" fill="#00E07D"></path>
                    <g id="Group-5" transform="translate(26.153846, 0.180536)">
                        <mask id="mask-2" fill="white">
                            <use xlink:href="#path-1"></use>
                        </mask>
                        <g id="Clip-4"></g>
                        <path d="M53.5515692,8.57989318 C51.2317231,6.58424052 47.2223385,4.43082876 44.3480308,3.52371391 C39.2035692,1.89616583 33.2875692,-0.0758229692 27.8684923,0.436894118 C21.8243385,1.01008553 18.3118769,5.82962614 15.0871077,10.9752022 C11.8414154,16.1523302 9.59218462,22.2102797 7.53126154,27.9421938 C6.66556923,30.3453908 0.710338462,43.8048717 1.24649231,48.0591089 C0.974492308,50.6884273 2.7268,53.2914525 4.85572308,54.6981378 C5.57495385,55.1766738 11.3209538,59.6938428 11.4386462,60.6982424 C11.5432615,61.5238484 10.2381846,63.7429931 10.1780308,64.3845468 C8.35510769,64.8183843 6.75710769,66.0962331 6.25233846,68.03667 C6.11633846,68.3232657 6.01172308,68.630896 5.9568,68.9569315 C5.30818462,72.6379772 4.69356923,76.319023 4.11033846,80.010586 C4.14172308,80.0053274 4.17310769,80.002698 4.20449231,79.9974394 C3.70495385,82.058825 4.34310769,84.1622797 6.38310769,85.2140071 C6.27849231,85.8634487 6.18172308,86.518149 6.0928,87.1833666 C5.84172308,89.1448381 5.47033846,91.1562667 5.23756923,93.1598073 C2.03633846,94.3009315 -0.199815385,98.20284 1.69372308,101.794489 C1.95264615,102.280913 3.87495385,105.53075 11.7368,108.646493 C12.3697231,108.914683 12.9791077,109.146063 13.5388,109.335374 C13.8160308,109.4274 14.0880308,109.490504 14.3574154,109.532573 C14.3364923,109.882272 14.3129538,110.231972 14.2763385,110.581671 C13.9363385,114.107587 12.8378769,122.489854 12.8378769,123.249727 C12.8404923,124.340894 12.8928,125.379475 13.1935692,126.44172 C13.9389538,129.076297 16.5046462,130.730138 19.1749538,130.369921 C21.9838769,129.98867 23.6838769,127.740603 23.9035692,124.985077 C24.1572615,121.808861 24.4057231,118.632644 24.6594154,115.456427 C24.9052615,112.353832 25.3524923,109.064554 24.6751077,105.980364 C23.9532615,102.693716 23.2628,101.386945 18.3354154,98.3816336 C18.2386462,98.3237886 15.2048,95.7286514 13.5048,94.8399417 C13.6329538,92.3973049 13.1831077,87.1544441 12.9503385,85.171938 C13.0837231,85.0877998 16.6118769,85.6031462 16.8289538,79.1087298 C16.8603385,78.1832097 17.6894154,74.7756131 16.6694154,71.0682741 C16.6380308,70.9552134 16.6981846,70.8368941 16.7138769,70.7185748 C16.9466462,70.4924534 17.1689538,70.2426682 17.3755692,69.9639604 C20.0772615,66.3460183 19.6274154,63.461656 23.5060308,64.1084683 C26.3228,64.5817457 33.5334154,65.8832583 36.1069538,64.4345038 C37.4381846,63.6851481 40.7937231,61.347684 43.7020308,56.1495216 C46.4324923,51.2668773 51.3389538,40.0212825 52.8218769,34.6390678 C54.3675692,29.0044385 56.4023385,23.0884721 56.8338769,17.23298 C57.0666462,14.0751686 55.9864923,10.6754599 53.5515692,8.57989318" id="Fill-3" fill="#FFDA00" mask="url(#mask-2)"></path>
                    </g>
                    <path d="M44.6046,55.8275944 C47.2984462,52.2096523 48.9566,47.9001994 50.8213692,43.8194973 C52.6573692,39.7940108 54.4384462,35.7474898 56.2142923,31.6983395 C57.9953692,27.6465599 59.7738308,23.5974095 61.5522923,19.5456299 C62.3761385,17.6709259 63.2130615,15.8014805 64.1101385,13.9609576 C64.9915231,12.1467279 66.1344462,10.6427578 67.2041385,8.95736471 C67.6539846,8.23956078 66.6706,7.57434323 66.0847538,8.08968964 C64.7326,9.28077087 63.8904462,11.1581042 63.1398308,12.7698764 C62.2898308,14.5946233 61.5339846,16.4640687 60.6918308,18.2940743 C58.7616769,22.5036131 56.8315231,26.7157811 54.9013692,30.9253199 C53.0130615,35.0402032 51.1299846,39.1577158 49.3018308,43.2988923 C47.5102923,47.3559305 45.4206,51.4155981 44.5209077,55.7907839 C44.5104462,55.8459996 44.5732154,55.8696635 44.6046,55.8275944" id="Fill-6" fill="#154733"></path>
                    <path d="M52.4021077,57.2321763 C54.9050308,54.2189774 56.2807231,50.3828019 57.8525692,46.833222 C59.5264154,43.0496329 61.2159538,39.2791903 62.9264154,35.5166357 C66.3473385,27.9888971 69.8754923,20.5111156 73.3905692,13.0280754 C73.9371846,11.868546 72.2345692,10.8457412 71.6670308,12.0131585 C68.0002615,19.5408971 64.4878,27.1422566 61.0328769,34.7699092 C59.3224154,38.5350932 57.6381077,42.3081651 55.9694923,46.0917542 C54.4133385,49.6255582 52.5642615,53.2303537 52.0934923,57.1033397 C52.0725692,57.2584695 52.3053385,57.3478663 52.4021077,57.2321763" id="Fill-8" fill="#154733"></path>
                    <path d="M59.4207538,60.9116444 C59.8418308,60.1281076 60.3309077,59.5680627 60.6735231,58.7293102 C61.0527538,57.8116781 61.3901385,56.886158 61.7353692,55.9553793 C62.4546,54.0096837 63.3072154,52.1139451 64.1702923,50.2287238 C65.8362923,46.6028937 67.6722923,43.0559432 69.4612154,39.4932168 C71.3259846,35.7806192 73.1881385,32.0732803 75.0241385,28.3475361 C75.9656769,26.438651 76.9098308,24.5297658 77.8539846,22.6208807 C78.6281385,21.0590655 79.9619846,19.2816463 80.0142923,17.5147444 C80.0326,16.9652168 79.3107538,16.4577584 78.8295231,16.8311216 C77.4198308,17.924918 76.7816769,19.9442345 75.9630615,21.5113083 C74.9796769,23.3965296 73.9962923,25.2817509 73.0181385,27.1696015 C71.0069077,31.0399582 69.0401385,34.9339787 67.0838308,38.8332579 C65.2556769,42.4722345 63.3752154,46.092806 61.7118308,49.8106622 C60.9429077,51.5302364 60.2629077,53.2892504 59.6692154,55.0745576 C59.3553692,56.0211122 59.0755231,56.9492616 58.9133692,57.935256 C58.7250615,59.0395697 58.8819846,59.6732355 58.9395231,60.7801785 C58.9526,61.0247051 59.2926,61.1482831 59.4207538,60.9116444" id="Fill-10" fill="#154733"></path>
                    <path d="M35.0472,70.8228601 C34.9582769,71.2435511 34.8458154,71.6695007 34.8484308,72.1033382 C34.8536615,72.8395473 35.0707385,73.373299 35.6932,73.8018779 C35.4735077,73.5126528 35.2538154,73.2260571 35.0315077,72.9368321 C35.0655077,73.0288583 35.0995077,73.1182551 35.1308923,73.2102812 C35.5885846,74.480242 37.2493538,74.4828713 37.7070462,73.2102812 C37.7384308,73.1182551 37.7724308,73.0288583 37.8064308,72.9368321 C37.5867385,73.2260571 37.3644308,73.5126528 37.1447385,73.8018779 C37.7619692,73.3785576 37.9973538,72.8316594 37.9895077,72.1033382 C37.9842769,71.6695007 37.8796615,71.2488097 37.7933538,70.8228601 C37.5056615,69.4582439 35.3296615,69.4556146 35.0472,70.8228601" id="Fill-12" fill="#FFFFFF"></path>
                    <path d="M33.1547077,97.8735507 C34.5565538,99.1540288 36.2304,100.166316 37.7577846,101.294294 C39.0184,102.227702 40.6608615,104.120811 42.3608615,103.789517 C42.7584,103.710638 42.9545538,103.31624 42.9937846,102.953394 C43.1794769,101.123388 40.5039385,99.6010129 39.1962462,98.817476 C37.5224,97.8130764 35.5530154,96.9401427 33.5914769,96.8113061 C33.0605538,96.7771249 32.7676308,97.521222 33.1547077,97.8735507" id="Fill-14" fill="#FFFFFF"></path>
                    <path d="M38.6025538,53.2482331 C42.4707077,45.9045468 45.5516308,38.1559455 48.8130154,30.5282928 C50.4293231,26.7525916 52.0456308,22.9768904 53.6645538,19.2038185 C55.2416308,15.5201434 57.3653231,11.8075458 58.4690154,7.95296508 C58.7540923,6.96171204 57.3208615,6.34908086 56.8082462,7.25093707 C54.8754769,10.6401285 53.7377846,14.6445804 52.2470154,18.2493759 C50.6359385,22.1460258 49.0222462,26.0400463 47.4111692,29.9340669 C44.2360923,37.59853 40.8491692,45.2156654 38.2991692,53.1193965 C38.2390154,53.2981901 38.5162462,53.4165094 38.6025538,53.2482331" id="Fill-16" fill="#154733"></path>
                    <path d="M33.7368923,50.1272321 C35.6827385,46.7669632 36.8387385,42.9886327 38.2902769,39.3890958 C39.8882769,35.4293423 41.5647385,31.495882 43.2647385,27.5808269 C44.8732,23.8629707 46.5653538,20.1819249 48.3359692,16.5376896 C49.2199692,14.715572 50.1170462,12.898713 51.0245846,11.0897419 C51.9242769,9.30706405 52.9730462,7.555938 53.5562769,5.63653557 C53.7942769,4.85825733 52.6879692,4.13256545 52.1387385,4.80567096 C49.6044308,7.91615462 48.0012,12.0757363 46.2828923,15.6831612 C44.4939692,19.4325692 42.7887385,23.221417 41.1672,27.0470753 C39.5875077,30.7701901 38.1490462,34.5327447 36.8021231,38.3478857 C35.4552,42.1603974 33.9042769,46.0149782 33.4282769,50.0430939 C33.4073538,50.2166289 33.6610462,50.2613274 33.7368923,50.1272321" id="Fill-18" fill="#154733"></path>
                    <path d="M67.1162615,75.0095238 C68.7665692,73.9262446 70.5005692,72.9376209 71.8893385,71.5230476 C73.0322615,70.3582596 71.5938,68.6833838 70.2207231,69.3486013 C68.4474923,70.2110177 66.9567231,71.5703754 65.4110308,72.7851204 C64.1504154,73.7737442 65.7850308,75.8824575 67.1162615,75.0095238" id="Fill-20" fill="#FFA632"></path>
                    <path d="M73.5244769,82.8564616 C74.5601692,82.5987884 75.5121692,82.0308556 76.3543231,81.3866726 C77.3638615,80.6189117 78.3158615,79.7512366 78.4414,78.4260601 C78.5277077,77.5373505 77.6541692,76.9194607 76.8826308,76.8589864 C75.7606308,76.7722189 74.6595538,77.6951096 73.8906308,78.4234308 C73.1609385,79.1175709 72.4260154,79.9668407 72.0206308,80.8871021 C71.5603231,81.9283122 72.3161692,83.1562039 73.5244769,82.8564616" id="Fill-22" fill="#FFA632"></path>
                    <path d="M56.9102462,83.7409643 C58.2676308,82.6682024 59.5360923,81.6401389 60.2422462,80.0178495 C60.4279385,79.6024172 60.2317846,78.8872426 59.6433231,78.9661221 C58.8168615,79.0739242 58.0584,79.3079335 57.2973231,79.6471156 C56.4394769,80.0283668 55.7071692,80.6357393 54.9460923,81.1826375 C54.1614769,81.7453117 53.8607077,82.7523406 54.4910154,83.5779466 C55.1317846,84.4088112 56.1491692,84.3430782 56.9102462,83.7409643" id="Fill-24" fill="#FFA632"></path>
                    <path d="M74.8525692,60.8627391 C75.1978,60.2790304 75.6764154,59.7163563 76.1524154,59.2325617 C76.7199538,58.656741 77.5542615,58.0993255 77.7033385,57.2474263 C77.8288769,56.5217345 77.5176462,55.8722928 76.7905692,55.6303955 C75.6528769,55.254403 74.4602615,56.1536299 73.7488769,56.9660893 C73.0113385,57.8101005 72.5798,58.7119567 72.3051846,59.7820893 C71.9154923,61.3149819 74.0365692,62.2431313 74.8525692,60.8627391" id="Fill-26" fill="#FFA632"></path>
                    <path d="M82.4332615,65.565538 C83.5264923,64.4270431 87.5803385,60.454143 85.5063385,58.8423709 C83.3904923,57.2043055 80.8117231,62.4077266 80.1029538,63.7565669 C79.3366462,65.2158387 81.2223385,66.8249815 82.4332615,65.565538" id="Fill-28" fill="#FFA632"></path>
                    <path d="M16.6539846,65.9956945 C18.0479846,65.0097001 23.3493692,59.8141669 20.8987538,58.0078252 C19.6041385,57.0586413 18.2310615,59.0174835 17.6896769,59.921969 C16.7559846,61.4732669 15.7647538,63.1560306 15.2312154,64.8966394 C14.9932154,65.6670297 15.9530615,66.4900063 16.6539846,65.9956945" id="Fill-30" fill="#FFA632"></path>
                    <path d="M13.6541385,34.9034786 C14.3132154,34.1330883 15.0742923,33.3521808 15.9086,32.7737307 C16.8292154,32.1374357 17.7550615,31.6641584 18.5946,30.9253199 C19.5701385,30.0655328 18.7096769,28.6588474 17.6216769,28.564192 C14.9199846,28.3275533 12.3778308,30.7649315 11.3212154,33.0945076 C10.6804462,34.5117102 12.4641385,36.2917587 13.6541385,34.9034786" id="Fill-32" fill="#FFA632"></path>
                    <path d="M17.8594154,49.3479021 C18.6701846,48.5012616 19.6117231,47.7335007 20.5715692,47.0656538 C21.4764923,46.431988 22.4991077,45.7483653 22.5932615,44.5467668 C22.6141846,44.2812056 22.4311077,44.0051272 22.2114154,43.8762906 C19.8471077,42.4985277 17.0983385,46.2847462 16.0051077,47.909665 C15.2440308,49.0323839 16.9388,50.3102327 17.8594154,49.3479021" id="Fill-34" fill="#FFA632"></path>
                    <path d="M3.73398462,59.8383567 C4.30675385,59.6174939 4.86906154,59.5649076 5.43136923,59.2677946 C5.9806,58.9759402 6.49583077,58.6288702 6.9666,58.2213259 C7.86367692,57.4483063 8.38413846,56.4570532 8.53844615,55.2922652 C8.61167692,54.7611429 7.99183077,54.4429953 7.56290769,54.5429094 C7.30921538,54.6007544 7.04767692,54.6428235 6.81752308,54.7690308 C6.35198462,55.0214454 6.95352308,54.7900654 6.55598462,54.918902 C5.95967692,55.1108422 5.48106154,55.4237311 4.98675385,55.8181289 C4.60490769,56.1178711 4.23352308,56.4333894 3.85952308,56.7436489 C3.52475385,57.024986 3.04613846,57.611324 2.85783077,57.7533072 C2.40013846,58.0951186 2.15690769,58.6130943 2.39229231,59.1783978 C2.59367692,59.659563 3.20306154,60.0434435 3.73398462,59.8383567" id="Fill-36" fill="#FFA632"></path>
                    <path d="M25.1424769,24.9985733 C25.5478615,25.0590476 25.8172462,25.3982297 26.2487846,25.458704 C26.7064769,25.5218077 27.2530923,25.4849972 27.6950923,25.3745658 C28.8720154,25.0774528 29.5912462,24.4174939 30.3104769,23.4761979 C30.6243231,23.0712829 30.5144769,22.469169 30.3104769,22.0511074 C30.3470923,22.1589094 30.3837077,22.2640822 30.4203231,22.3718842 C30.3784769,21.8802017 29.9966308,21.3280448 29.4369385,21.3832605 C28.9687846,21.4305882 28.5555538,21.4463641 28.0403231,21.8065808 C27.6297077,22.0931765 27.2400154,22.3692549 26.8581692,22.700549 C26.5521692,22.9687395 26.2357077,23.2316713 25.9244769,23.4946032 C25.7257077,23.6628796 25.5661692,23.765423 25.4066308,23.9757684 C25.3150923,24.0914585 25.2967846,24.2623641 25.1424769,24.3228385 C24.8704769,24.4358992 24.7606308,24.9407283 25.1424769,24.9985733" id="Fill-38" fill="#FFA632"></path>
                    <path d="M20.6523846,14.4747264 C22.5119231,13.8042502 24.8500769,13.5071373 26.0348462,11.7586405 C26.6625385,10.8304911 25.8099231,9.75247059 24.8474615,9.68410831 C22.9225385,9.54738375 21.2225385,11.2354062 19.6951538,12.1924781 C18.5522308,12.910282 19.2740769,14.9742969 20.6523846,14.4747264" id="Fill-40" fill="#FFA632"></path>
                    <path d="M2.51835385,43.4243107 C2.5262,43.3585778 2.53666154,43.2928448 2.54450769,43.2244825 C2.36666154,43.4584919 2.18881538,43.6898719 2.01096923,43.9212519 C2.60989231,43.6293976 2.79296923,42.8616366 3.11727692,42.3121091 C3.45727692,41.7284004 4.05096923,41.2893042 4.21050769,40.5715003 C4.07712308,40.800251 3.94635385,41.0290017 3.81558462,41.2551231 C3.90450769,41.1525796 4.00650769,41.0579242 4.09543077,40.9527514 C4.16866154,40.8659839 4.56358462,40.2033957 4.44066154,40.3611548 C4.32558462,40.5083966 4.59496923,40.2480941 4.61850769,40.2296889 C4.72835385,40.1324041 4.82512308,40.0193434 4.93496923,39.9220586 C5.40050769,39.5145143 5.07881538,38.8703313 4.60804615,38.6757617 C3.73712308,38.3155451 2.7642,38.3786487 1.94558462,38.8230035 C2.20450769,38.752012 2.46343077,38.6810204 2.72496923,38.6100288 C1.38066154,38.752012 0.635276923,39.7511529 0.201123077,40.9632687 C-0.1258,41.8782715 -0.144107692,43.4137935 0.839276923,43.9212519 C0.661430769,43.6898719 0.483584615,43.4584919 0.305738462,43.2244825 C0.321430769,43.2928448 0.339738462,43.3585778 0.355430769,43.4243107 C0.611738462,44.4287104 2.36143077,44.5654349 2.51835385,43.4243107" id="Fill-42" fill="#FFA632"></path>
                    <path d="M87.0638,46.8610928 C87.9661077,46.3720396 88.7533385,45.7462618 89.5667231,45.1231134 C90.4350308,44.4526372 91.3190308,43.7269453 91.7793385,42.7120284 C92.3024154,41.5577576 91.4288769,40.0012011 90.0296462,40.4271507 C88.0079538,41.0450405 86.2399538,43.1353486 85.0342615,44.8181124 C84.1110308,46.1038491 85.8581077,47.5131638 87.0638,46.8610928" id="Fill-44" fill="#FFA632"></path>
                    <path d="M90.3047846,29.5549191 C91.3535538,28.9764691 92.7658615,28.3428034 93.2889385,27.1859033 C93.5870923,26.5259444 93.2470923,25.6424934 92.4206308,25.6661572 C91.0161692,25.7029677 89.8732462,26.8099107 88.8349385,27.6407754 C88.3720154,28.0167679 88.4007846,28.810822 88.7407846,29.2394009 C89.1226308,29.7205662 89.7634,29.8520321 90.3047846,29.5549191" id="Fill-46" fill="#FFA632"></path>
                    <path d="M96.2788462,54.4345815 C97.3563846,54.0953994 98.4574615,53.7825106 99.4539231,53.2303537 C100.434692,52.6860848 101.541,51.5370726 100.834846,50.3407328 C100.139154,49.1549102 98.6091538,49.5703425 97.6859231,50.1934909 C96.7339231,50.8376739 95.9545385,51.6790558 95.1594615,52.5020325 C94.3826923,53.3013453 95.1542308,54.7921688 96.2788462,54.4345815" id="Fill-48" fill="#FFA632"></path>
                    <path d="M17.3857692,86.3510887 C18.7876154,87.113591 20.6157692,86.6455724 21.9836154,86.0119066 C23.1762308,85.4597498 24.7166923,84.2187115 24.2773077,82.6831895 C23.9111538,81.4000822 22.2477692,81.9995668 21.471,82.4859907 C20.8171538,82.901423 20.2757692,83.3668123 19.5382308,83.6481494 C18.8268462,83.9189692 18.0657692,84.0109953 17.3857692,84.3528067 C16.6168462,84.7393165 16.6560769,85.9540616 17.3857692,86.3510887" id="Fill-50" fill="#FFA632"></path>
                    <path d="M5.20644615,78.4515645 C6.24213846,78.0308736 7.28044615,77.6154413 8.31613846,77.192121 C9.21844615,76.8240164 9.91936923,76.316558 10.2933692,75.38315 C10.3849077,75.1570286 10.2384462,74.7784067 10.0082923,74.6784926 C8.20890769,73.905473 6.17936923,75.2858652 4.52906154,75.9852639 C3.89352308,76.2560837 3.44890769,76.8266458 3.64244615,77.5575963 C3.79936923,78.1675981 4.57090769,78.7092377 5.20644615,78.4515645" id="Fill-52" fill="#FFA632"></path>
                    <path d="M54.8030308,96.9143754 C56.1918,97.0379533 60.9858,98.6917946 61.0982615,96.0913987 C61.1531846,94.8266965 59.5054923,94.1693669 58.4959538,94.0326424 C57.1281077,93.8485901 55.7759538,94.2245826 54.5048769,94.7004893 C53.3044154,95.1474734 53.5214923,96.7986853 54.8030308,96.9143754" id="Fill-54" fill="#FFA632"></path>
                    <path d="M70.7686462,96.0183036 C71.6604923,96.0682607 72.7511077,95.7632598 73.6037231,95.1821804 C74.5138769,94.5616613 75.6541846,93.0524325 74.9637231,91.9113083 C74.6211077,91.3486342 74.0378769,91.0646678 73.3892615,91.1514353 C72.9524923,91.2119096 72.6674154,91.4248844 72.3352615,91.6983335 C72.3457231,91.6904456 71.9377231,92.0401449 72.1129538,91.8981617 C71.3701846,92.5134222 70.7791077,93.0471739 70.1043385,93.5493737 C69.0686462,94.3223933 69.3929538,95.9394241 70.7686462,96.0183036" id="Fill-56" fill="#FFA632"></path>
                </g>
            </g>
        </g>
    </g>
</svg>