<?xml version="1.0" encoding="UTF-8"?>
<svg width="82px" height="122px" viewBox="0 0 82 122" version="1.1" xmlns="http://www.w3.org/2000/svg" xmlns:xlink="http://www.w3.org/1999/xlink">
    <!-- Generator: Sketch 47 (45396) - http://www.bohemiancoding.com/sketch -->
    <title>Group 15</title>
    <desc>Created with Sketch.</desc>
    <defs>
        <polygon id="path-1" points="0.920709054 0.478006531 49.7420872 0.478006531 49.7420872 130.886345 0.920709054 130.886345 0.920709054 0.478006531"></polygon>
        <polygon id="path-3" points="53.9700317 90.7794185 53.9700317 0.478006531 0.810165674 0.478006531 0.810165674 133.917332 53.9700317 133.917332 53.9700317 90.7794185 53.9710088 133.917912 0.810083227 133.917912 0.810083227 90.7794185"></polygon>
    </defs>
    <g id="Page-1" stroke="none" stroke-width="1" fill="none" fill-rule="evenodd">
        <g id="Lalaland_1-Copy" transform="translate(-538.000000, -4208.000000)">
            <g id="Group-15" transform="translate(581.000000, 4269.500000) rotate(28.000000) translate(-581.000000, -4269.500000) translate(554.000000, 4202.000000)">
                <g id="Page-1" transform="translate(-0.000000, 0.000000)">
                    <path d="M14.8303869,6.81502902 C15.4386539,8.09297413 16.5883455,8.44312662 17.9251961,8.49219258 C19.8079274,8.5591007 21.7820102,8.31377092 23.6558292,8.11527683 C25.4739461,7.92347355 27.2452732,7.69821621 29.0255127,7.29899776 C30.037063,7.06704961 31.0798065,7.01575339 32.1024972,6.85294363 C33.1652935,6.68344305 34.0944047,6.85294363 35.1460606,6.80833821 C36.1464705,6.76819334 36.1130492,5.37427416 35.1460606,5.27614225 C34.2993885,5.1891617 33.4749972,5.35197146 32.6216409,5.25606982 C31.8395833,5.16908926 31.0820346,5.07764816 30.2910646,5.06203627 C28.3637716,5.0218914 26.5434266,4.81893676 24.6027651,4.92598976 C21.4522537,5.10218114 17.9452489,5.18693143 15.0041774,6.38681705 C14.8214745,6.46041599 14.7412635,6.62991656 14.8303869,6.81502902" id="Fill-1" fill="#00E07D"></path>
                    <path d="M15.7029047,14.6058106 C18.5325719,15.9595849 21.7521539,15.5692875 24.8135419,15.491228 C28.0331239,15.4109383 31.3663382,15.2102139 34.5480427,14.6994819 C35.7623487,14.5054484 35.3791182,12.7167713 34.2717602,12.6520935 C32.5895565,12.5517313 30.914037,12.7323832 29.2273771,12.607488 C27.6476653,12.4937442 26.0813219,12.5718037 24.4971539,12.6030275 C21.5226612,12.6610145 18.4479047,12.3576977 15.7029047,13.653485 C15.341955,13.8229856 15.3441831,14.43631 15.7029047,14.6058106" id="Fill-3" fill="#00E07D"></path>
                    <path d="M15.5157456,21.7560584 C16.5919104,22.9113386 18.2652018,22.8511213 19.7401937,22.8845753 C21.7075922,22.9291808 23.7217805,22.8422002 25.6802667,22.6615483 C28.7862164,22.3783039 32.5917846,22.3136261 35.0114843,20.1301911 C35.2075557,19.9517694 35.1785906,19.5458601 34.9201328,19.4321163 C32.0013422,18.1407896 28.4631442,18.9369962 25.3683349,19.1756352 C23.5970078,19.3094514 21.8234526,19.4343466 20.0521255,19.5703931 C18.5125192,19.6863672 16.6498406,19.610538 15.5157456,20.8238052 C15.2684283,21.0892074 15.2662002,21.4884259 15.5157456,21.7560584" id="Fill-5" fill="#00E07D"></path>
                    <g id="Group-9" transform="translate(0.876623, 0.807066)">
                        <mask id="mask-2" fill="white">
                            <use xlink:href="#path-1"></use>
                        </mask>
                        <g id="Clip-8"></g>
                        <path d="M44.5638556,87.4237709 C41.0189733,82.0086737 33.7754709,76.7943009 27.1380074,75.9624099 C26.679022,64.1665082 26.5319684,52.3460736 26.7436365,40.5390206 C26.7681454,39.981453 26.7948824,39.4238853 26.8127071,38.8663176 C26.8461283,37.8470839 26.8550407,36.82562 26.8461283,35.804156 C27.0087785,29.501411 27.2739205,23.2031266 27.6482387,16.9137633 C28.4815423,13.6597984 29.3861446,10.4147545 30.1236405,7.14071717 C30.5224676,5.36765198 30.5558889,3.5477511 29.1722485,2.16944382 C28.0426097,1.04538739 26.2623702,0.666241377 24.7183077,0.5123527 C20.0883483,0.0529169393 18.497496,4.21237176 18.2991965,5.13347355 C17.6575082,8.12426654 18.9408848,11.3447774 19.4266072,14.2753531 C19.4711689,14.5585975 19.5112744,14.8440721 19.5558361,15.1273165 C19.5090464,17.4044228 19.4243791,19.6837595 19.3018345,21.9564053 C18.9587095,28.3372097 19.130272,34.5395925 19.025552,40.9315483 C18.9208321,47.3636489 18.5643386,53.947408 18.8740423,60.3705875 C18.9386567,61.6998289 18.7269887,72.9582353 18.7648662,77.2425853 C16.3941843,78.1792989 14.1014855,79.4728559 12.0338231,80.7284983 C8.52459019,82.8606371 5.74616892,85.6930809 4.17759749,89.5291464 C1.11843759,97.0161651 0.398766323,102.948685 1.25657882,108.292414 C2.44860399,115.696912 6.68642054,122.323047 12.7445821,126.676535 C16.0666559,129.062925 19.5313272,130.207053 23.5998093,130.699943 C28.0871714,131.244129 33.0602558,130.59066 37.077492,128.819825 C40.2569684,127.414755 43.0866356,125.215708 45.3035796,122.456863 C47.9951056,119.106996 49.510203,113.509017 49.6817655,109.33395 C50.0159782,101.275982 49.0489895,94.2729322 44.5638556,87.4237709" id="Fill-7" fill="#00E07D" mask="url(#mask-2)"></path>
                    </g>
                    <path d="M32.6965046,18.548037 C32.6697675,18.5681095 32.6474867,18.5881819 32.6207497,18.6060241 C30.9340898,19.9218838 32.4246783,22.6115902 34.2762164,22.6115902 C36.1366669,22.6115902 37.6116588,19.915193 35.9339112,18.6060241 C35.9071742,18.5881819 35.8848934,18.5681095 35.8581563,18.548037 C34.8087286,17.731758 33.7548447,17.7250671 32.6965046,18.548037" id="Fill-10" fill="#FFDA00"></path>
                    <path d="M33.7191953,11.9268094 C33.6924583,11.9468819 33.6701774,11.9669543 33.6434404,11.9847965 C31.9567805,13.3006562 33.447369,15.9881323 35.2989072,15.9881323 C37.1593576,15.9881323 38.6321214,13.2917351 36.956602,11.9847965 C36.9298649,11.9669543 36.9075841,11.9468819 36.8808471,11.9268094 C35.8336474,11.1105304 34.7775354,11.1016093 33.7191953,11.9268094" id="Fill-12" fill="#FFDA00"></path>
                    <path d="M13.7490975,11.9268094 C13.7245886,11.9468819 13.7000796,11.9669543 13.6733426,11.9847965 C11.9866827,13.3006562 13.4772712,15.9881323 15.3310374,15.9881323 C17.1892598,15.9881323 18.6642517,13.2917351 16.9865041,11.9847965 C16.9619952,11.9669543 16.9374863,11.9468819 16.9107493,11.9268094 C15.8635496,11.1105304 14.8074376,11.1016093 13.7490975,11.9268094" id="Fill-14" fill="#FFDA00"></path>
                    <path d="M13.7490975,4.97683993 C13.7245886,4.99691236 13.7000796,5.0169848 13.6733426,5.03482697 C11.9866827,6.35068667 13.4772712,9.03816284 15.3310374,9.03816284 C17.1892598,9.03816284 18.6642517,6.34176559 16.9865041,5.03482697 C16.9619952,5.0169848 16.9374863,4.99691236 16.9107493,4.97683993 C15.8635496,4.16056086 14.8074376,4.15163978 13.7490975,4.97683993" id="Fill-16" fill="#FFDA00"></path>
                    <path d="M33.6434404,4.58185899 C31.9567805,5.89771869 33.447369,8.58519487 35.2989072,8.58519487 C37.1593576,8.58519487 38.6321214,5.88879761 36.956602,4.58185899 C36.9298649,4.56401682 36.9075841,4.54394439 36.8808471,4.52387195 C35.8336474,3.70759288 34.7775354,3.6986718 33.7191953,4.52387195 C33.6924583,4.54394439 33.6701774,4.56401682 33.6434404,4.58185899 Z" id="Fill-18" fill="#FFDA00"></path>
                    <path d="M21.1579238,101.492696 C21.0777128,101.555143 20.9975017,101.617591 20.9172907,101.680039 C15.5230983,105.886329 20.2867428,114.484023 26.2134473,114.484023 C32.1579766,114.484023 36.8726032,105.861796 31.509604,101.680039 C31.4293929,101.617591 31.3491819,101.555143 31.2689709,101.492696 C27.9179319,98.8788186 24.5401559,98.8542856 21.1579238,101.492696" id="Fill-20" fill="#FFDA00"></path>
                    <path d="M14.7042773,19.0815178 C14.6797684,19.1015902 14.6552594,19.1216627 14.6285224,19.1395048 C12.9418625,20.4553645 14.432451,23.1428407 16.2862172,23.1428407 C18.1444396,23.1428407 19.6194315,20.4464434 17.9416839,19.1395048 C17.917175,19.1216627 17.8926661,19.1015902 17.8681572,19.0815178 C16.8187294,18.2652387 15.7626174,18.2563176 14.7042773,19.0815178" id="Fill-22" fill="#FFDA00"></path>
                    <path d="M21.4346519,42.0909974 C21.0180001,56.1394724 21.4836697,70.1589539 21.782233,84.2096592 C21.9114619,90.2960679 22.0384628,96.3824766 22.1654636,102.468885 C22.2924644,108.508458 22.0206381,114.719762 22.6534141,120.725881 C22.6823791,120.995744 23.0611535,121.004665 23.0789782,120.725881 C23.417647,115.344238 22.9497493,109.819857 22.836117,104.424833 C22.7180285,98.989663 22.59994,93.5567236 22.4840796,88.121554 C22.2590431,77.4720115 22.0317785,66.8202387 21.8045139,56.1684659 C21.5817054,45.7374899 22.1788321,35.2418361 22.4773954,24.8175509 C22.6734668,18.0776729 22.9363808,11.3355647 22.9608897,4.59568667 C22.9608897,4.43287691 22.7180285,4.43510718 22.7091162,4.59568667 C22.0117257,17.0762814 21.8045139,29.5992513 21.4346519,42.0909974 Z" id="Fill-24" fill="#154733"></path>
                    <path d="M23.8209303,49.8764263 C23.8721762,64.9664377 24.2776876,80.0609097 24.8859546,95.1375395 C25.2290796,103.7107 25.556608,112.28163 25.9821722,120.85033 C25.9999968,121.198252 26.5146843,121.200483 26.5258248,120.85033 C26.5414214,120.315065 26.5481056,119.7798 26.5547899,119.242305 C26.5570179,118.938988 26.1047168,118.945679 26.0846641,119.242305 C26.0467866,119.7798 26.0089092,120.315065 25.9821722,120.85033 L26.5258248,120.85033 C25.3583085,90.576636 23.8588077,60.3274747 24.5495139,30.0225567 C24.7455853,21.4493962 25.2558166,12.8985384 25.5610642,4.33206867 C25.5699766,4.10904161 25.2402201,4.11573242 25.2201673,4.33206867 C23.787509,19.4176196 23.7696843,34.7373489 23.8209303,49.8764263 Z" id="Fill-26" fill="#154733"></path>
                    <path d="M26.8101283,14.0709917 C26.6006884,17.9761956 26.4268978,21.8858601 26.2887566,25.7955246 C25.9768248,34.598403 25.8074903,43.4035117 25.798578,52.2086203 C25.7852095,68.3401682 26.7811632,84.3512814 27.9486795,100.427072 C28.4455423,107.267313 27.962048,114.118704 28.9089839,120.938872 C28.9669141,121.351472 29.5930058,121.175281 29.5373037,120.762681 C28.6572103,114.437633 29.1005991,108.092513 28.6705788,101.749623 C28.251699,95.5405494 27.6790813,89.3403969 27.2847103,83.1268628 C26.1439311,65.1062757 26.2130017,47.0299318 26.774479,28.987042 C26.9081641,24.620172 27.0752704,20.253302 27.2913946,15.8886623 C27.4718694,12.2577816 27.8595561,8.58452578 27.7927136,4.95141484 C27.7904855,4.83098023 27.5966421,4.79306562 27.5743613,4.92019105 C27.0529895,7.92436566 26.9727785,11.0266722 26.8101283,14.0709917 Z" id="Fill-28" fill="#154733"></path>
                    <path d="M26.531395,124.509535 C28.0487205,124.596516 29.9715573,125.080485 31.4042156,124.554141 C31.9322716,124.360107 32.2130102,123.490302 31.5802343,123.202597 C30.1096985,122.537976 28.1289315,122.825681 26.531395,122.914892 C24.7756645,123.013024 23.0890046,123.280656 21.3666953,123.597355 C20.9433593,123.673184 21.0569916,124.322193 21.464731,124.331114 C23.1491628,124.357877 24.8491912,124.413634 26.531395,124.509535 Z" id="Fill-30" fill="#00E07D"></path>
                    <g id="Group-34" transform="translate(-0.000000, 0.807066)">
                        <mask id="mask-4" fill="white">
                            <use xlink:href="#path-3"></use>
                        </mask>
                        <g id="Clip-33"></g>
                        <path d="M2.02112955,98.6427015 C-0.78625681,106.296991 1.66686413,115.10879 5.50139741,121.969103 C10.0288649,130.060525 18.9122375,132.779225 22.1652408,133.336792 C28.6489664,134.445237 36.7257724,134.148611 42.7170914,130.854501 C45.5200216,129.311154 48.1981791,126.619217 49.9360849,123.989728 C52.0082034,120.851737 53.2091409,117.401508 53.7728463,113.650193 C54.3276393,109.945713 53.607968,106.29253 52.9595955,102.652728 C52.3067667,98.992854 49.9026636,93.702652 47.378244,90.8256028 C46.8167667,90.1855151 48.7730248,96.3878979 49.0626758,97.7282906 C49.3879761,99.2248022 49.2609753,100.355549 49.5216612,101.865443 C49.9717343,104.463708 50.0252083,107.403205 49.4993804,109.992549 C48.3474607,115.644055 47.8038081,119.919484 41.2242748,123.989728 C37.1067748,126.534467 30.3579072,128.004215 25.761369,127.658523 C23.0475622,127.453338 20.2468601,127.051889 17.6422294,126.224459 C14.6788771,125.281055 12.3572132,123.119922 10.5123593,120.680006 C8.26645017,117.713746 6.45947371,114.314814 5.18055325,110.82444 C3.78131624,107.012907 2.6004315,102.795466 2.56255407,98.7163005 C2.56032598,98.3929112 2.12584952,98.3594572 2.02112955,98.6427015" id="Fill-32" fill="#181617" mask="url(#mask-4)"></path>
                    </g>
                </g>
            </g>
        </g>
    </g>
</svg>