<?xml version="1.0" encoding="UTF-8"?>
<svg width="95px" height="127px" viewBox="0 0 95 127" version="1.1" xmlns="http://www.w3.org/2000/svg" xmlns:xlink="http://www.w3.org/1999/xlink">
    <!-- Generator: Sketch 47 (45396) - http://www.bohemiancoding.com/sketch -->
    <title>Group 12</title>
    <desc>Created with Sketch.</desc>
    <defs>
        <polygon id="path-1" points="4.5028412 5.83171496 0.492580164 5.83171496 0.492580164 0.708630969 4.5028412 0.708630969"></polygon>
        <polygon id="path-3" points="0 0.656560878 0 27.3262154 27.6082249 27.3262154 27.6082249 0.656560878"></polygon>
        <polygon id="path-5" points="0.172391668 0.371164358 7.7061231 0.371164358 7.7061231 8.54145157 0.172391668 8.54145157 0.172391668 0.371164358"></polygon>
        <polygon id="path-7" points="4.67069998 3.948557 0.705535139 3.948557 0.705535139 0.043261862 4.67069998 0.043261862 4.67069998 3.948557"></polygon>
        <path d="M39.2535645,0.573180903 C40.9838047,1.74023049 42.3146216,3.49762551 43.2802915,5.30655688 C43.8451354,6.37185633 44.3804245,7.49969665 44.8223691,8.66339835 L0.774039286,8.66339835 C0.95431141,7.53616199 1.25615787,6.44263286 1.82052786,5.41711647 C3.1131716,3.07167361 5.57950413,1.41327967 8.17272194,0.817047564 C8.66862762,0.70404181 9.16746324,0.623670592 9.6675054,0.573180903 L12.3511851,0.573180903 C13.9759361,0.728072867 15.5808018,1.14773905 17.1062383,1.73706135 C18.6764436,2.34119057 20.1752759,3.0084967 21.6067004,3.71133985 C22.1102764,3.96009894 22.4830019,4.07460709 23.0500204,4.25229216 C23.3474078,4.34705753 23.3474078,4.37469742 23.8232276,4.3312633 C23.6249693,4.35100608 23.6685862,4.3312633 23.7597849,4.31546907 C23.8509837,4.29177773 23.9897645,4.2759835 23.9699387,4.29177773 C24.3545597,4.1101441 24.7907278,3.53760334 25.1951746,3.12695341 C25.6075518,2.70445781 26.0437199,2.30565355 26.5076442,1.9344892 C27.1459119,1.41747587 27.8113583,0.965987975 28.5160118,0.573180903 L39.2535645,0.573180903 L39.2535645,0.573180903 Z" id="path-9"></path>
        <path d="M36.6074773,5.24003783 C35.5247248,3.52813875 34.0919834,1.96837719 32.2779934,1.05213857 C30.9298374,0.369038212 29.4944477,0.053153652 28.0511277,0.053153652 C26.66332,0.053153652 25.267582,0.34534687 23.9432169,0.898144851 C22.6743642,1.42725149 21.5363619,2.10640329 20.4736977,2.96718872 C20.0097734,3.33835308 19.5736053,3.73715734 19.1612281,4.15965294 C18.8068798,4.51943604 18.4281819,5.00348743 18.0811346,5.24003783 L36.6074773,5.24003783 L36.6074773,5.24003783 Z M0.693100019,2.29752796 C1.1658132,2.11221417 1.65004086,1.96211684 2.13877544,1.84974709 C5.13644006,1.16664673 8.24116413,1.67601058 11.0722918,2.76976087 C12.6424971,3.37389009 14.1413294,4.04119622 15.5727539,4.74403937 C16.0326359,4.9712143 16.3833895,5.08642476 16.8726537,5.24003783 L0.693100019,5.24003783 L0.693100019,2.29752796 L0.693100019,2.29752796 Z" id="path-11"></path>
        <path d="M43.7868131,0.465773144 C44.8749527,2.68059138 45.764783,5.1156016 45.9369519,7.55358955 C45.9819035,8.19980861 45.9517208,8.82975526 45.8593211,9.44377529 L0.75198988,9.44377529 C0.700199578,9.16669542 0.655775088,8.88410908 0.619082911,8.5960086 C0.428754999,7.08765982 0.476336977,5.58720816 0.619082911,4.07096227 C0.738677792,2.82987779 0.94070749,1.61366893 1.40361808,0.465773144 L43.7868131,0.465773144 L43.7868131,0.465773144 Z" id="path-13"></path>
        <path d="M45.6719877,0.702493436 C45.8016028,1.32314165 45.8928365,1.94763958 45.9369519,2.57233302 C46.0932977,4.81994372 45.3407343,6.87070484 44.2227508,8.7391651 L2.3306572,8.7391651 C1.47833923,7.28551938 0.869144322,5.57819008 0.619082911,3.61475207 C0.496443298,2.64283309 0.472583697,1.67419299 0.509314198,0.702493441 L45.6719877,0.702493436 Z" id="path-15"></path>
        <path d="M45.7854377,0.937182605 C45.3492847,3.1335908 44.1367688,5.12229184 42.7608549,6.91969428 C42.1267438,7.74701743 41.4502493,8.53321684 40.7130665,9.24624314 L22.834713,9.24624314 C22.7415901,9.21968954 22.6481562,9.19433874 22.5543748,9.17037177 C22.4195592,9.13878332 21.5273971,9.02032661 21.8485755,9.03217228 C21.6146308,9.02032661 21.3846512,9.00453238 21.1427761,9.01242949 C21.1229503,9.01242949 20.5083498,9.0756064 20.5202453,9.06376073 C20.2704399,9.10719486 20.0206345,9.16642321 19.7747943,9.22565157 C19.7471781,9.23243967 19.719585,9.2393045 19.6920142,9.24624314 L6.74222735,9.24624314 C4.01790477,7.59510568 1.68846231,4.83297098 0.837710222,0.937182605 L45.7854377,0.937182605 L45.7854377,0.937182605 Z" id="path-17"></path>
        <path d="M20.0320755,5.070614 C19.8634334,5.08656993 19.476391,5.12462751 19.4858544,5.11520373 C19.2360491,5.15863786 18.9862437,5.21786621 18.7404034,5.27709457 C17.4874114,5.58508201 16.2820012,6.05101174 15.0448698,6.40243331 C12.2494286,7.18819616 9.4857087,7.18029904 6.84490891,5.91281224 C4.45520881,4.76753531 2.24364196,2.82216845 0.875345593,0.0628073425 L20.0320755,0.0628073425 L20.0320755,5.070614 L20.0320755,5.070614 Z" id="path-19"></path>
        <path d="M19.1565148,0.0700327398 C17.6268061,1.85293413 15.8381508,3.35277987 13.5767244,4.19518995 C13.1017181,4.37180336 12.6165145,4.50272114 12.1255172,4.59218326 L8.63168495,4.59218326 C7.74428917,4.44543096 6.87153152,4.19697763 6.03894606,3.87140827 C4.73044166,3.35809586 3.47744957,2.74606953 2.20463165,2.15773453 C2.01430374,2.07086628 1.82397583,1.98794658 1.63761308,1.90502689 C1.58606594,1.88923266 1.1617933,1.71154759 1.12214165,1.69180481 C0.883174268,1.60527154 0.643016655,1.52229401 0.401016712,1.44611906 L0.401016687,0.0700327398 L19.1565148,0.0700327398 L19.1565148,0.0700327398 Z" id="path-21"></path>
    </defs>
    <g id="Page-1" stroke="none" stroke-width="1" fill="none" fill-rule="evenodd">
        <g id="Lalaland_1-Copy" transform="translate(-928.000000, -4202.000000)">
            <g id="Group-12" transform="translate(928.000000, 4202.000000)">
                <g id="Page-1">
                    <g id="Group-115" transform="translate(0.000000, 0.479689)">
                        <path d="M38.5414023,122.972675 C39.3066791,121.720982 39.136177,119.979669 39.2035848,118.573982 C39.278923,117.10117 39.2987488,115.628359 39.3582263,114.155547 C39.4851115,111.020393 39.6080316,107.885238 39.7587079,104.750084 C39.9093842,101.678107 40.171085,98.610078 40.5279499,95.5499463 C40.6905216,94.1205687 40.8729192,92.7938536 41.0989336,91.3644759 C41.3170177,89.9627382 41.3804603,88.2451159 41.9316182,86.934195 C41.6818128,87.3606391 41.4320075,87.7910318 41.1822021,88.217476 C41.0870381,88.2767043 40.9918742,88.3359327 40.8967102,88.3912125 C42.0862597,87.593604 42.6849996,86.1563292 42.0822945,84.7940771 C41.4994153,83.4713105 40.0957469,82.7605702 38.6643224,83.1238375 C36.2772932,83.7240181 36.1067911,86.0181297 35.817334,88.0160996 C35.5595983,89.8521786 35.3216884,91.6922062 35.1353257,93.5322337 C34.7903563,96.8332274 34.5960633,100.142118 34.5365858,103.462855 C34.4810735,106.763848 34.5841678,110.139864 35.0084404,113.417167 C35.2344548,115.170326 35.4485737,116.935331 35.817334,118.664799 C36.1305821,120.125765 36.3129796,122.00133 37.4113303,123.118771 C37.740439,123.454399 38.2995272,123.363582 38.5414023,122.972675" id="Fill-1" fill="#FFDC9C"></path>
                        <path d="M54.8354542,122.65837 C55.5452187,121.240838 55.0138866,119.321839 54.7640812,117.829284 C54.4865197,116.159045 54.1772368,114.488805 53.8838146,112.814617 C53.3167961,109.60444 52.6823697,106.394263 51.9646748,103.215675 C51.270771,100.120006 50.5808323,97.020389 49.8115903,93.9444631 C49.4467952,92.4637542 49.0423484,90.9909424 48.5744589,89.5378735 C47.951928,87.6188748 47.4007701,85.6801333 45.3507799,84.8825247 C44.1770911,84.4244921 43.1064966,85.4037343 42.7020498,86.3790279 C42.0517627,87.9623992 43.0985662,89.7747869 43.6061073,91.2673414 C44.0938226,92.7164618 44.5141301,94.1813765 44.9066814,95.6581368 C45.7274705,98.7261656 46.4332699,101.829731 47.2461287,104.89776 C48.0788133,108.04476 48.9630451,111.183863 49.9146846,114.295326 C50.3905044,115.851057 50.8464984,117.414686 51.3461091,118.96252 C51.8021031,120.368207 52.1986196,122.101623 53.4317858,123.025585 C53.8560585,123.34147 54.6054746,123.112454 54.8354542,122.65837" id="Fill-3" fill="#FFDC9C"></path>
                        <g id="Group-7" transform="translate(51.547143, 120.522109)">
                            <mask id="mask-2" fill="white">
                                <use xlink:href="#path-1"></use>
                            </mask>
                            <g id="Clip-6"></g>
                            <path d="M0.930227673,3.35675943 C0.946088332,3.47521614 0.961948991,3.58972429 0.977809651,3.708181 C0.938158002,3.58577573 0.922297343,3.46731902 0.930227673,3.35675943 M4.05477757,1.82866787 C3.90410131,1.57596022 3.69791273,1.37458381 3.44414218,1.22059009 C3.487759,1.24428143 3.52741065,1.26797277 3.57102746,1.29166412 C3.44017702,1.16531029 3.29346592,1.05869925 3.13485933,0.971830999 C2.75023834,0.78624882 2.66300471,0.754660364 2.85729779,0.881014188 C2.41319932,0.679637781 1.9651357,0.624357983 1.52103723,0.881014188 C1.42983844,0.932345429 1.33863965,1.00736801 1.25537119,1.09028771 L1.25537119,1.08633915 C1.25140603,1.09028771 1.2434757,1.09818482 1.23951053,1.10608194 C1.09279943,1.2561271 0.973844486,1.44565784 0.910401848,1.64703425 C0.517850529,2.37751729 0.517850529,3.42783345 0.49405954,4.17805929 C0.438547232,5.53636289 1.95720537,6.18392624 3.0476257,5.63902538 C3.89220581,5.21652978 4.5028412,4.17411073 4.5028412,3.2304056 C4.5028412,2.74473309 4.31647845,2.22352357 4.05477757,1.82866787" id="Fill-5" fill="#000000" mask="url(#mask-2)"></path>
                        </g>
                        <path d="M55.335065,52.1320084 C55.5809052,50.2998779 54.5539275,48.5032845 53.6340092,46.9949357 C52.7101258,45.4786898 51.655392,44.0177238 50.6125536,42.5843976 C49.537994,41.1194829 48.3762007,39.7058995 47.0954524,38.4147214 C46.4768867,37.7908494 45.8265997,37.2025144 45.136661,36.6497164 C44.3951752,36.0534843 43.5902467,35.2993099 42.6148161,35.1532133 C41.841609,35.0347566 41.1080535,35.1690075 40.6084427,35.8363136 C40.1683094,36.4246486 40.037459,37.3012283 40.4577665,37.9487916 C41.0208199,38.8095771 41.8574697,39.2478669 42.6544678,39.8559447 C43.213556,40.2863374 43.7488533,40.7562157 44.2643247,41.2339911 C45.4380135,42.3277414 46.4927474,43.5281027 47.5316205,44.7403097 C48.5823892,45.9604138 49.5736804,47.223952 50.5808323,48.4756446 C51.6514268,49.8023598 52.4563553,51.2001489 53.2811096,52.6848064 C53.867954,53.7351225 55.2002494,53.1191476 55.335065,52.1320084" id="Fill-8" fill="#FFDC9C"></path>
                        <path d="M49.8869285,89.6026298 C49.8076252,89.0340376 50.1843158,79.1744907 48.4911904,74.1321835 C48.3880962,73.8202474 46.5244687,62.2786153 46.3420711,60.6755012 C45.9653804,57.3468676 45.6719582,54.0024399 45.3864664,50.6619606 C45.0851138,47.0766709 44.8709949,43.5348152 45.810739,40.1864389 C46.2588026,38.5872733 45.6005853,36.5498179 44.1810563,35.96938 C41.7860967,33.268567 37.4799277,32.8421229 33.9350703,33.2369786 C29.2561758,33.750291 25.6121893,36.4274126 22.0831926,39.329602 C20.9927722,40.229873 22.3885103,41.8645756 23.5542687,41.2288579 C23.9032032,41.0393272 24.2561029,40.8497965 24.6090026,40.6602657 C24.787435,41.264395 23.9666459,41.9119583 24.5098735,42.1607174 C26.5360727,43.100474 28.0468005,43.6967061 29.3315139,45.319563 C29.7201001,46.6660209 31.4647726,48.5573797 31.9128362,49.8880435 C32.4322728,52.9560722 32.7296602,56.0398953 32.8287893,59.2342779 C33.0429082,65.9152363 31.7026825,72.611989 32.293492,79.2771532 C32.6146704,82.9058771 35.0294558,90.0448682 34.9977345,90.2975758 C34.4108901,94.984513 36.6115566,94.6054515 38.61793,93.9026084 C40.1286578,93.3774503 46.532399,93.5156498 47.8646944,93.148434 C49.5340288,92.6943499 50.1050125,91.1544127 49.8869285,89.6026298" id="Fill-10" fill="#FFFFFF"></path>
                        <path d="M28.9496685,23.699634 C29.0051808,25.8752889 29.3342895,27.9640756 29.8775171,30.1002449 C30.3652324,32.0310893 30.5119435,34.9688157 32.7919133,36.1178458 C33.8902639,36.6706437 35.7618217,36.1770741 35.9918013,35.0833238 C36.2297112,33.950088 35.7697521,33.0458684 35.3890962,31.9679124 C35.0361966,30.9531332 34.6238194,29.9580968 34.2193726,28.9591119 C33.4223745,26.9492964 32.4350484,25.0737318 31.197917,23.2139615 C30.6388288,22.3729188 28.9298427,22.7677745 28.9496685,23.699634" id="Fill-12" fill="#FFDC9C"></path>
                        <path d="M13.5731558,122.787487 C14.516865,122.325506 15.2107689,121.279139 15.7857178,120.422302 C16.463761,119.407523 16.9673369,118.297978 17.4312612,117.172639 C18.3710052,114.866682 18.7001139,112.38304 18.9776755,109.923089 C19.5248682,105.054518 19.9967228,100.17805 19.9808622,95.2739422 C19.976897,94.0538381 19.9412105,92.8297854 19.8738027,91.6096813 C19.7865691,90.1566123 19.7826039,88.4784756 18.6961488,87.3649825 C17.716753,86.3620491 16.1703388,86.4647115 15.4050619,87.6650729 C14.5842728,88.9483539 14.9133815,90.5554166 15.0045803,91.9768971 C15.3217935,96.8652107 15.0323364,101.773267 14.8459737,106.661581 C14.7428794,109.354496 14.6239245,112.039515 14.0648362,114.685048 C13.8150308,115.889358 13.505748,117.066028 13.144918,118.242698 C12.784088,119.419368 12.1139751,120.710546 12.1060448,121.950393 C12.1020796,122.728259 12.9268339,123.103372 13.5731558,122.787487" id="Fill-14" fill="#FFDA00"></path>
                        <path d="M23.9622842,122.409611 C26.0638216,119.961505 26.8409939,116.293296 27.3961169,113.177884 C28.022613,109.68736 28.3874082,106.169196 28.4667115,102.623391 C28.5420496,99.1012785 28.2684532,95.6107541 27.7886683,92.1202297 C27.5586887,90.4341959 27.2731968,88.7600077 26.9242623,87.0937167 C26.5277458,85.2142035 26.3056966,82.6910756 24.5332679,81.6249652 C23.4507779,80.9734533 21.8052345,81.3446177 21.2104598,82.4936478 C20.6077547,83.6426778 20.7663613,84.5942801 21.071679,85.7827957 C21.2739024,86.5764557 21.480091,87.3701157 21.6704189,88.1716727 C22.0471096,89.7668898 22.3682879,91.377901 22.6299888,92.9928608 C23.1494254,96.1714492 23.4031959,99.4053174 23.5181857,102.623391 C23.6331755,105.892797 23.5380116,109.181945 23.2525197,112.443453 C23.1097737,114.058412 22.970993,115.681269 22.7965257,117.296229 C22.6220585,118.926983 22.4872429,120.486663 22.7766999,122.097675 C22.8678987,122.607038 23.6292103,122.792621 23.9622842,122.409611" id="Fill-16" fill="#FFDA00"></path>
                        <path d="M18.9709347,121.731248 C18.5664879,121.636483 18.0787726,121.241627 17.6901864,121.079737 C17.1667847,120.858617 16.6314874,120.661189 16.0842947,120.526939 C15.081108,120.278179 13.974827,120.183414 12.9637099,120.46771 C11.9605232,120.748058 11.1040476,121.403518 10.7352873,122.390657 C10.3704921,123.377797 10.8661377,124.321502 10.5965065,125.281001 C10.3546315,126.133889 11.4172957,126.674842 12.0318962,126.114147 C12.5671935,125.632423 12.7654517,125.016448 12.9557796,124.349142 C13.0945604,123.887161 13.0866301,123.421231 13.6258925,123.34226 C14.6528702,123.192215 15.6917434,123.847675 16.4134034,124.574209 C16.9645613,125.948307 18.8361191,126.362906 19.9146439,125.288898 C21.0209249,124.191199 20.5530355,122.098464 18.9709347,121.731248" id="Fill-18" fill="#00E07D"></path>
                        <path d="M29.1590292,120.747663 C29.9560274,120.593669 29.6546748,120.720023 29.2066112,120.589721 C28.93698,120.510749 28.6673488,120.42783 28.3977176,120.356756 C27.8465597,120.214608 27.2914366,120.092202 26.7323484,119.997437 C25.6538235,119.807906 24.4999605,119.563096 23.453157,119.965849 C22.323085,120.40019 21.9741505,121.446557 22.1089661,122.563999 C22.1724088,123.1089 22.346876,123.649852 22.6323679,124.119731 C22.9297553,124.597506 23.3183414,124.747551 23.7584747,125.047641 C24.0281059,125.233224 24.4444482,125.043693 24.5158212,124.739654 C24.6228807,124.309261 24.8449299,123.965737 24.9083725,123.515601 C24.9163029,123.460322 24.920268,123.38135 24.9242332,123.306328 C25.4119485,123.484013 25.8917334,123.681441 26.3516925,123.890714 C27.3231579,124.336901 28.167738,125.035796 29.1590292,125.399063 C30.6618267,125.947912 32.2241017,124.538278 32.2241017,123.073363 C32.2241017,121.434712 30.6895829,120.45547 29.1590292,120.747663" id="Fill-20" fill="#00E07D"></path>
                        <path d="M64.5279031,124.248848 C64.9402803,122.760242 65.6778009,121.516447 65.7769301,119.944921 C65.8760592,118.401035 65.7452087,116.813716 65.5271247,115.285624 C65.0909565,112.197852 64.044153,109.394377 62.9894192,106.480342 C61.9703718,103.661072 61.9148595,100.660169 61.7602181,97.7026996 C61.6769496,96.1153797 61.5976463,94.5280598 61.5143779,92.9407399 C61.4192139,91.0809695 61.4985172,89.0119257 60.7054842,87.3100976 C59.6547155,85.051523 56.1455447,85.7938517 55.5507699,87.9813523 C55.118567,89.588415 55.5864564,91.4916195 55.7847147,93.1223735 C55.9790077,94.713642 56.1733008,96.2970133 56.3636287,97.8882818 C56.75618,101.12215 57.0575326,104.277047 58.366037,107.293745 C59.5159348,109.939278 60.6816932,112.541377 61.3914577,115.348801 C61.7602181,116.793973 62.0496751,118.254939 62.2598288,119.727751 C62.3549928,120.395057 62.4263658,121.074209 62.6365195,121.717823 C62.914081,122.554917 63.2471549,123.182738 63.3383537,124.086958 C63.4017963,124.734521 64.3375752,124.947743 64.5279031,124.248848" id="Fill-22" fill="#000000"></path>
                        <path d="M86.1812718,118.694413 C87.0099913,116.15944 85.8680238,113.616569 84.5159026,111.464605 C83.0646523,109.158648 81.0582789,107.302826 79.0598358,105.474644 C78.1200917,104.60991 77.1446612,103.780713 76.2207777,102.892288 C75.744958,102.434255 75.2810337,101.960429 74.8448655,101.466859 C74.3452548,100.906164 74.2104392,100.75217 73.869435,100.254652 C72.2675084,97.9486947 71.6885943,95.4571553 71.030377,92.6497312 C70.6259302,90.9360575 70.2928563,89.202641 70.0509812,87.4573788 C70.0589116,87.5363499 70.0827026,87.7456234 70.0390858,87.3823562 C70.0073644,87.1414942 69.9756431,86.9006322 69.947887,86.6597703 C69.8963398,86.1780463 69.8447927,85.6963223 69.8011759,85.2145984 C69.7060119,84.1445394 69.6425693,83.0863262 69.4799975,82.0281129 C69.250018,80.511867 67.4379376,79.6273902 66.0699557,79.8090239 C64.5195763,80.0182974 63.4212256,81.2976298 63.3696785,82.8533613 C63.3181313,84.567035 63.6432749,86.3359886 63.8772196,88.0299195 C64.0873733,89.5303712 64.345109,91.0268743 64.6662874,92.5075832 C65.3324351,95.5795605 66.2008062,98.7028691 67.8146283,101.427373 C69.226227,103.804405 71.22467,105.747095 73.3618939,107.472614 C75.4118841,109.12706 77.6165158,110.516952 79.5515162,112.270111 C80.5705636,113.186176 81.6252974,114.137778 82.4302259,115.25522 C83.2589453,116.400302 83.9369885,117.687531 84.6784744,118.887893 C85.0630954,119.503867 85.9631878,119.361719 86.1812718,118.694413" id="Fill-24" fill="#000000"></path>
                        <path d="M58.3168689,126.047811 C59.7324328,125.85828 61.1638573,125.803 62.5476998,125.435785 C63.7491448,125.1199 65.1369525,124.772427 65.751553,123.591808 C66.2035818,122.719177 65.9815326,121.609633 65.0933356,121.09632 C64.3121982,120.642236 62.9878331,120.843613 62.5833863,121.751781 C62.5159785,121.909723 62.43271,122.103202 62.3296157,122.249299 C62.2106608,122.41119 62.4723617,122.162431 62.1630788,122.375653 C61.7031197,122.699435 61.2035089,122.971885 60.7276891,123.275924 C59.7720844,123.88795 58.9037133,124.503925 57.860875,124.965906 C57.1828318,125.265997 57.7220942,126.130731 58.3168689,126.047811" id="Fill-26" fill="#FFDA00"></path>
                        <path d="M82.7272167,122.5486 C83.2744095,122.60388 84.1189896,122.16559 84.5591229,121.873396 C85.3680165,121.328496 85.8874531,120.657241 86.2324225,119.749073 C86.8430579,118.145959 86.8787443,115.587294 85.5781703,114.304013 C84.9397787,113.672244 83.9643482,114.015768 83.6867866,114.801531 C83.1158029,116.400696 84.1705367,118.063039 83.0761512,119.595079 C82.6637741,120.16762 82.1403723,120.586167 81.9936612,121.31665 C81.8866018,121.877345 82.0967555,122.481474 82.7272167,122.5486" id="Fill-28" fill="#FFDA00"></path>
                        <path d="M29.3913879,80.6220317 C28.5904246,77.4868775 27.8410084,74.7268361 28.2970024,71.4890194 C28.7966132,67.8760897 30.1289086,64.4211024 30.3232016,60.7568415 C30.5095644,57.3334425 29.6213675,53.9534777 27.373119,51.3158417 C25.3588152,48.950656 21.5800132,47.2369823 18.570453,48.6861027 C15.3824605,50.2260399 15.5489974,54.6879093 15.9098274,57.6651213 C16.2706574,60.6502304 17.1588543,63.6708765 17.4165901,66.5928087 C17.6545,69.2383419 17.246088,71.5956304 15.5529626,73.640983 C13.4474601,76.1956993 10.8859636,78.320023 9.60125016,81.4472802 C8.90734631,83.133314 8.76460037,85.0641584 8.90734631,86.8686489 C9.00647543,88.0848045 9.41488741,94.9671393 11.9169064,94.9631908 C17.4403811,94.9552937 23.043159,94.1932222 28.4278528,92.9928608 C29.272433,92.8072787 30.1804557,91.9741331 30.3271668,91.101502 C30.933837,87.5201608 30.2795848,84.1007105 29.3913879,80.6220317" id="Fill-30" fill="#000000"></path>
                        <path d="M19.6101193,44.5239288 C19.3999655,46.0915059 19.6140844,47.7420027 19.6339102,49.3214255 C19.6537361,50.8139801 19.5823631,52.5829336 20.7639822,53.6806325 C21.0375786,53.9333401 21.4459906,53.996517 21.7750993,53.8109348 C23.3690955,52.9027667 23.5078763,50.7744945 23.3770259,49.1437405 C23.2342799,47.3747869 22.9091364,45.3926113 21.8702632,43.915851 C21.1406729,42.8734319 19.7647607,43.3393617 19.6101193,44.5239288" id="Fill-32" fill="#FFDA00"></path>
                        <path d="M25.7434362,37.4694368 C25.4262231,33.5959024 22.6149212,30.0382525 18.9431785,28.7312802 C16.9605961,28.0244885 14.648905,28.2811447 13.1381772,29.8329276 C12.4878902,30.5002337 12.0556872,31.3491735 11.7939863,32.2612901 C11.3340272,32.6561458 11.1318038,33.3708347 11.0762915,33.9512725 C10.8978591,35.8268371 11.2864452,37.8129613 11.762265,39.6292975 C12.6385664,43.0171594 15.1604113,46.1246738 19.0105863,45.7732522 C23.2255566,45.3823451 26.0804753,41.6075246 25.7434362,37.4694368" id="Fill-34" fill="#FFDA00"></path>
                        <g id="Group-38" transform="translate(0.000000, 20.775485)">
                            <mask id="mask-4" fill="white">
                                <use xlink:href="#path-3"></use>
                            </mask>
                            <g id="Clip-37"></g>
                            <path d="M25.4686503,9.15339298 C25.4765806,9.15734153 25.484511,9.17313576 25.4884761,9.1968271 C25.4805458,9.18103288 25.4765806,9.16523865 25.4686503,9.15339298 L25.4686503,9.15339298 Z M2.60154465,11.3803791 C2.59361433,11.372482 2.58964916,11.3685335 2.585684,11.3606363 C2.58964916,11.3645849 2.59361433,11.372482 2.59757949,11.3764306 L2.60154465,11.3803791 Z M26.7216424,7.10014334 C26.0991115,6.52760257 25.1950539,6.28279204 24.3266828,6.36176318 C24.1997976,6.12484976 24.0610168,5.89583345 23.9143057,5.66681714 C23.0736907,4.34405055 21.85242,2.92651858 20.2346327,2.46453741 C19.1402472,2.15260141 18.1648167,2.38951483 17.4788432,2.95810704 C17.4114354,2.72514218 17.3123062,2.50007443 17.1973164,2.29474946 C15.7658919,-0.188892892 11.7690058,0.292831062 10.7182371,2.78831909 C10.2939645,2.37766916 9.75470204,2.07757883 9.15596214,1.93937933 C7.62540851,1.59585487 6.06709873,2.37766916 5.26217027,3.61751606 C4.62377873,4.60465531 4.40965982,5.93137046 4.86168862,7.02906931 C3.45802026,6.33412328 1.38027388,6.94220106 1.03926971,8.56505798 C0.924279925,9.10995885 0.892558607,9.66275683 1.07099102,10.1997606 C1.22563245,10.6577932 1.49526366,11.1197744 1.8521285,11.4751445 C1.38027388,11.613344 1.00358322,11.92528 0.698265529,12.3319814 C0.206585088,12.9874418 0.202619924,13.9785296 0.484146628,14.7090127 C0.670509375,15.1828395 0.924279925,15.5816438 1.24545828,15.9330654 C1.16615498,15.980448 1.09081685,16.0278307 1.01547872,16.079162 C0.583275749,16.3989951 0.202619924,16.8570277 0.0796998134,17.3782372 C-0.0273596374,17.816527 -0.0273596374,18.2666625 0.0796998134,18.7049524 C0.234341242,19.3564643 0.741882342,19.822394 1.2771796,20.1975069 C1.78868586,20.5489285 2.4389729,20.7424078 3.10512059,20.7739962 C3.10115543,20.8687616 3.10115543,20.963527 3.10115543,21.0543438 C3.02581729,21.7927239 3.19631938,22.5350527 3.59680103,23.2339472 C4.18364543,24.2566235 5.67058224,24.8607527 6.8482362,24.4935369 C7.08218093,24.4224629 7.31216049,24.323749 7.52627939,24.2092408 C7.49852324,24.3434918 7.48266258,24.4777427 7.48266258,24.6198908 C7.48266258,25.2200714 7.70867698,25.7847151 8.08536764,26.2545934 C8.39465049,26.6336548 8.75151533,26.8982081 9.21543962,27.0877389 C9.75470204,27.300961 10.4882575,27.4273148 11.0552761,27.2219898 C11.6103992,27.0206134 12.1020796,26.8271341 12.5223871,26.4046385 C12.6492724,26.2822333 12.7523667,26.159828 12.8435654,26.0255771 C12.9783811,26.1282395 13.1092315,26.2230049 13.2480123,26.301976 C13.6207378,26.5151981 14.1282789,26.6415519 14.5604818,26.6415519 C15.1393959,26.6415519 15.6786583,26.4401755 16.1346523,26.1084967 C16.3130847,25.9702973 16.4716913,25.8242006 16.6065069,25.6623098 C16.681845,25.7649723 16.7730438,25.8636862 16.8682078,25.9584516 C17.0545705,26.0966511 17.2448984,26.2348506 17.4312612,26.3730501 C17.859499,26.6099635 18.3273884,26.7323688 18.8269992,26.7363173 C19.207655,26.748163 19.5645199,26.6731404 19.8936285,26.507301 C20.2385979,26.40069 20.5359852,26.2190563 20.7818255,25.9584516 C21.0554218,25.7215382 21.2497149,25.4372421 21.3567744,25.1095118 C21.5312416,24.7936273 21.6105449,24.4540514 21.5946843,24.0907841 C21.5629629,23.8578193 21.5312416,23.6248544 21.4955551,23.387941 C21.3647047,22.941754 21.1267948,22.5508469 20.7818255,22.2231167 C20.5954627,22.0849172 20.4130651,21.9467177 20.2267024,21.8085182 C19.7905343,21.5716048 19.32661,21.4491995 18.8269992,21.4491995 C18.4463434,21.4334053 18.0894785,21.5084278 17.7603699,21.6742672 C17.4193657,21.7808783 17.1219783,21.9664605 16.8682078,22.2231167 C16.777009,22.3060364 16.6937405,22.3968532 16.6184024,22.4916185 C16.6025417,22.452133 16.5787507,22.4126474 16.5589249,22.3731618 C16.7928696,21.6071418 16.6897753,20.8095332 16.1425826,20.1303814 C15.9284637,19.8658281 15.6865886,19.6644517 15.4010968,19.510458 C15.2742115,19.3525157 15.1354307,19.2261619 14.9768241,19.1077052 C15.0283713,18.7641807 15.0164758,18.4127591 14.9054512,18.0850289 C14.7547749,17.6427905 14.5128998,17.2439863 14.1837912,16.9004618 C14.1282789,16.845182 14.0608711,16.7859537 13.9934633,16.7306739 C13.9300206,16.6556513 13.8626128,16.5806287 13.7833095,16.5135032 C13.6326333,16.3832008 13.4740267,16.2765898 13.3074897,16.185773 C13.4026537,15.5934894 13.3352459,14.9972573 13.0854405,14.4799964 C13.1013012,14.3694368 13.1092315,14.2588772 13.1131967,14.1483176 C13.5890164,13.208561 13.4224795,12.1069136 12.5580736,11.3093051 C12.7880531,11.1513628 12.9823462,10.953935 13.144918,10.6933302 C13.434375,10.2155548 13.5255738,9.58773425 13.3669672,9.03888482 C13.4145492,8.92042811 13.458166,8.79802285 13.4898873,8.67561758 C13.529539,8.51372674 13.55333,8.34788735 13.5850513,8.18599651 C13.6009119,8.18994507 13.6128074,8.18994507 13.6286681,8.19389362 C13.6564242,8.56110943 13.8269263,8.91647956 14.0608711,9.20472422 C14.1639653,9.33107804 14.2472338,9.44163764 14.3741191,9.54430012 C14.6834019,9.79305921 14.9807893,9.99838418 15.3812709,10.089201 C15.8015784,10.1879149 16.1901646,10.1523779 16.6104721,10.0734068 C17.2766197,9.94705293 17.8238125,9.35082083 17.9982797,8.75064016 C18.0498269,8.56900654 18.0696527,8.37552725 18.0617224,8.1780994 C18.24412,8.31629889 18.438413,8.4347556 18.6406365,8.5453152 C19.2869583,9.39820351 20.5994279,9.78911065 21.5788236,9.23631267 C21.5471023,10.2352976 22.0149917,11.2342825 22.9309448,11.8700002 C23.0935166,11.9845083 23.2640187,12.0595309 23.4424511,12.1029651 C23.4146949,12.4464895 23.6010577,12.8334481 23.993609,12.8887279 C24.7271645,12.9913904 25.1514371,12.9913904 25.8096545,12.5886376 C26.4004641,12.2253703 26.8723187,11.6646752 27.1816015,11.0644946 C27.8080976,9.85228757 27.8160279,8.10307681 26.7216424,7.10014334 L26.7216424,7.10014334 Z" id="Fill-36" fill="#000000" mask="url(#mask-4)"></path>
                        </g>
                        <path d="M52.2410468,21.2009871 C49.67162,19.8505806 46.8960046,21.0983246 45.8095495,23.6056583 C45.3337297,24.1781991 44.9847952,24.8810422 44.7468853,25.6115253 C44.1005634,27.6331865 43.7992109,29.9825779 43.9855736,32.102953 C44.2036577,34.5826468 45.7857585,36.6082565 48.4463841,36.6279993 C50.8056572,36.6437936 52.5979117,35.0130395 53.7874611,33.1414235 C56.0119186,29.6469505 56.5392855,23.4516646 52.2410468,21.2009871" id="Fill-39" fill="#000000"></path>
                        <path d="M47.9198102,32.543612 C48.7723206,33.755819 49.4900155,35.0312029 50.0966857,36.3816094 C50.6557739,37.6293534 51.1236634,39.4377925 52.4519936,40.0893044 C53.0467683,40.3775491 53.9191046,40.2906808 54.2442481,39.6194261 C55.0253856,38.0005177 54.0658157,36.1644387 53.1815839,34.7745467 C52.2973522,33.3767575 51.1990015,32.0895279 50.0253127,30.9247036 C48.9824744,29.8901817 47.0236829,31.2682281 47.9198102,32.543612" id="Fill-41" fill="#000000"></path>
                        <path d="M73.3218457,83.248217 C73.5518253,81.5621832 73.9681676,79.3391456 74.0157496,77.4161983 C74.1029832,73.5663552 72.631907,70.0797794 70.7206976,66.8103742 C69.8562917,65.3375624 68.9284431,63.8963391 68.1036888,62.399836 C67.1599796,60.6901108 66.6365778,59.5055437 66.0655941,57.7800243 C65.7801022,56.9231875 65.534262,56.0505564 65.3280734,55.1700282 C65.2408398,54.7870181 65.1615365,54.396111 65.0901635,54.0091524 C65.0465467,53.7880332 65.0068951,53.5629655 64.9751737,53.3418463 C64.9632782,53.2786694 64.9117311,52.9390935 64.8998356,52.8640709 C64.6738212,50.9885063 64.788811,49.1524273 64.7848458,47.2689656 C64.7808807,45.9304048 64.3922945,44.6471237 63.4406549,43.6678816 C62.6753781,42.8860673 62.1400809,41.5119695 61.180511,41.026297 C59.0987994,39.9601866 57.7982254,39.5969193 55.7284093,38.4992205 C54.2612983,37.7174062 51.1882956,38.7045455 50.6331725,40.2365856 C50.2168302,40.6551326 49.8242789,41.0855253 49.5308567,41.614632 C49.1462357,42.2977323 48.7893708,42.9966269 48.456297,43.7073672 C47.7148112,45.28679 47.1319319,46.8346243 46.7393806,48.5364524 C46.3547596,50.2106406 45.930487,52.0309253 46.5252617,53.7051135 C46.8464401,54.5935388 49.780662,56.6744284 50.526113,57.1995865 C50.5062872,57.4246542 55.2287985,68.9346979 55.0107145,71.6276137 C54.9155505,72.7924381 54.3406016,74.450832 53.916329,75.7933414 C53.3731014,77.5267579 52.9567591,79.2443802 52.8140132,81.064665 C52.5523123,84.4327841 52.5879988,88.30237 54.0749356,91.3190675 C54.7212574,92.6220913 73.5319995,89.9489182 73.3456367,88.5313863 C73.1156572,86.7821755 73.111692,84.7921028 73.3218457,83.248217" id="Fill-43" fill="#FFDA00"></path>
                        <path d="M60.5627383,73.3922239 C63.3502492,74.5530996 66.7047786,72.4406216 68.7032217,70.6361311 C70.971296,68.58683 72.5970136,65.8030973 73.3028129,62.837731 C74.7699239,56.6305994 72.5137451,49.8825155 67.45816,45.937907 C66.0822478,44.8638995 64.6032413,43.9557314 63.1361303,43.0001806 C61.6293676,42.0169899 60.075023,40.8166286 58.270873,40.6310464 C57.3033728,40.5283839 56.3556984,41.5629059 56.4072455,42.4868682 C56.4548275,43.3516022 56.8434137,43.8214805 57.1368359,44.4848381 C57.4540491,45.1995269 57.9615902,45.7128393 58.5563649,46.2103575 C59.6586807,47.1264227 60.9196031,47.8490086 62.1289784,48.6189772 C64.1313867,49.8943611 65.7769301,51.2408191 66.9902705,53.211149 C69.4090211,57.1478604 69.3455784,61.901923 66.9387234,66.0044737 C66.256715,67.1771951 65.4835079,68.1959229 64.5596245,69.1870107 C63.7150443,70.0912302 62.5929027,71.3745112 61.205095,71.0625752 C59.64282,70.7072051 59.1551048,72.8078374 60.5627383,73.3922239" id="Fill-45" fill="#000000"></path>
                        <path d="M94.5529244,23.3470278 C94.3546661,20.5396038 93.2047683,17.7361283 91.8962639,15.2722288 C90.7622268,13.1439566 89.1246137,11.0907069 86.9279124,9.98116239 C84.2791823,8.64655013 81.2973783,8.70577848 78.5931359,9.83111723 C77.3242831,10.3562753 76.1862808,11.0354271 75.1236166,11.8962125 C74.6596923,12.2673769 74.2235242,12.6661812 73.8111471,13.0886768 C73.4067003,13.4993267 72.9744973,14.075816 72.5859111,14.2574496 C72.6334931,14.2179641 72.0387184,14.3324722 72.4392,14.2969352 C71.9673454,14.3364208 71.9673454,14.3087809 71.6659929,14.2140155 C71.0989743,14.0363304 70.7262488,13.9218223 70.2226729,13.6730632 C68.7912484,12.9741686 67.2924161,12.3068625 65.7222108,11.6987847 C62.8910831,10.6050344 59.7823939,10.0956705 56.7886944,10.7827195 C54.1954766,11.3789516 51.7251789,13.033397 50.4365003,15.3788398 C49.6712235,16.7726804 49.3857316,18.3047206 49.2350554,19.8683491 C49.0923094,21.3806465 49.0407623,22.8810981 49.2350554,24.3894469 C49.8893076,29.5265196 53.001962,32.9143815 56.4952722,34.5846211 C59.136072,35.8521079 61.903757,35.860005 64.6952331,35.0742421 C65.9323645,34.7267691 67.1377746,34.2608394 68.3868016,33.9489034 C68.6366069,33.889675 68.8824472,33.8343952 69.1362177,33.7870126 C69.1243222,33.8028068 69.7389228,33.7356813 69.7587486,33.7356813 C70.0006237,33.7317328 70.2306032,33.7435784 70.4645479,33.7554241 C70.1473348,33.7435784 71.0355317,33.8620351 71.1703473,33.8936236 C71.6184109,34.0081318 72.0585442,34.1542284 72.4947123,34.3121706 C72.534364,34.3319134 72.9626018,34.5095985 73.0101838,34.5253927 C73.1965465,34.6083124 73.3868744,34.6951807 73.5772023,34.7820489 C74.8460551,35.3664354 76.1030124,35.9784617 77.4115168,36.4917741 C79.7945808,37.4236336 82.5067536,37.7237239 84.9492951,36.8155558 C87.6416421,35.8126223 89.6638761,33.8778294 91.3768273,31.6429461 C93.220629,29.2343263 94.7749736,26.4821821 94.5529244,23.3470278" id="Fill-47" fill="#FFFFFF"></path>
                        <path d="M24.7795047,19.5583874 C24.7795047,19.597873 24.7795047,19.6413071 24.7755395,19.6807927 L25.4020355,18.5909909 C25.5368512,18.5594025 25.6795971,18.5238655 25.8144127,18.4883285 C26.135591,18.6186308 26.4528042,18.7489332 26.7700174,18.8831842 C26.9960318,19.1319432 26.904833,19.187223 26.8731117,18.8279044 C26.8493207,18.5672996 26.7779477,18.3106434 26.7224354,18.0539872 C26.6470973,17.6512344 26.6074457,17.2563787 26.5995153,16.8457287 C26.5836547,16.0639145 26.639167,15.1794377 26.7858781,14.4568518 C26.8413904,14.196247 26.9008679,13.9080023 27.0118925,13.6671404 C26.8929375,13.9237966 27.0317183,13.6631918 27.0991261,13.5763235 C27.2101507,13.4302269 27.3647921,13.2288505 27.4678864,13.1498794 C27.3330708,13.260439 28.3640137,12.6563098 27.9159501,12.8418919 C28.0785218,12.7747665 28.2529891,12.7352809 28.419526,12.6800011 C28.8794851,12.5181103 28.324362,12.6444641 28.6019236,12.6286699 C28.780356,12.6168242 28.9548232,12.6207727 29.1372208,12.6247213 C29.5773541,12.6326184 28.7843212,12.5299559 29.2085938,12.6326184 C29.4346082,12.6839497 29.6526923,12.7392295 29.8707763,12.8182006 C29.5892496,12.7155381 29.7954382,12.7747665 29.9500796,12.8695318 C30.0016268,12.9011203 30.6043318,13.2643875 30.3505613,13.090651 C30.1483379,12.948503 30.5527847,13.2643875 30.5964015,13.3038731 C30.7312171,13.4302269 30.8581024,13.5605293 30.9810225,13.6987288 C31.1753156,13.9119509 30.8620675,13.438124 31.1039426,13.8803624 C31.1951414,14.0462018 31.3022008,14.2120412 31.3854693,14.3857777 C31.211002,14.0304076 31.4211558,14.5160801 31.4647726,14.6621767 C31.5202849,14.855656 31.5678669,15.0530839 31.6114837,15.2505117 C31.7066476,15.7401328 31.5995882,14.8477589 31.6114837,15.3452771 C31.619414,15.6019333 31.6233792,15.8546409 31.619414,16.1073486 C31.6114837,16.3403134 31.5599366,16.5179985 31.6273444,16.1863197 C31.4925287,16.8694201 31.3259918,17.5130349 31.2665144,18.2119295 C32.3053875,17.173459 33.3482259,16.138937 34.3910642,15.1044151 L34.2284925,15.1162608 C32.9001623,15.2149747 31.8256026,15.9494063 31.4251209,17.2405844 L31.377539,17.3866811 C30.3307354,20.7311088 35.4140768,22.9067637 37.0873763,19.7834552 C38.8122231,16.5614326 37.6504298,11.8902897 35.0373861,9.4658757 C32.4679593,7.08489583 28.7407043,6.37020701 25.5883983,8.02070384 C22.4202316,9.67909778 21.0046677,13.4815582 22.2061127,16.8101917 C22.7017583,18.1961352 23.4075576,19.8031979 24.6208981,20.7232117 C25.2117076,21.1693987 25.9611238,21.3589294 26.6193412,20.9245881 C27.2775585,20.4823497 27.5075381,19.6176158 27.0674048,18.9424125 C26.4012571,17.9315819 24.8191563,18.3185405 24.7795047,19.5583874" id="Fill-49" fill="#FFDA00"></path>
                        <g id="Group-53" transform="translate(23.790989, 0.000000)">
                            <mask id="mask-6" fill="white">
                                <use xlink:href="#path-5"></use>
                            </mask>
                            <g id="Clip-52"></g>
                            <path d="M7.21897912,2.8192697 C6.83435813,1.36620072 5.43465494,0.3948557 3.96357878,0.371164358 C2.58766658,0.351421573 1.37036097,1.27538391 0.735934595,2.44020823 C0.0420307474,3.71559214 -0.0372725495,5.25552937 0.644735804,6.55065607 C1.5924102,8.35909518 5.29587417,9.37387433 6.68368186,7.66414914 C7.0286512,7.24165354 7.28638692,6.83890073 7.40534186,6.32558832 C8.04769857,5.44111155 7.50447099,3.8932772 7.21897912,2.8192697" id="Fill-51" fill="#FFDA00" mask="url(#mask-6)"></path>
                        </g>
                        <path d="M37.4957883,20.736242 C37.3054604,17.4234026 35.1999579,13.8223186 32.1586764,12.321867 C30.3902129,11.4452873 28.0269747,11.0780715 26.4805604,12.6101116 C25.1363695,13.9407754 24.9698326,16.0453562 25.124474,17.8458982 C25.1324043,17.9722521 25.1522302,18.0986059 25.1641257,18.2210111 C25.0094842,19.4411153 25.1998121,20.8270588 25.3544536,21.8734264 C25.6002938,23.5120775 26.0126709,25.138883 27.1467081,26.4063698 C28.2173026,27.6067311 29.9778358,28.2385003 31.5678669,28.1200436 C35.2316792,27.8436446 37.6980117,24.2307149 37.4957883,20.736242" id="Fill-54" fill="#FFDC9C"></path>
                        <path d="M44.5585399,28.0086942 C44.3087346,28.7668172 42.0208344,30.5357707 42.0208344,31.041186 C42.0208344,31.5466013 45.450702,31.041186 45.7005074,31.4202475 C45.9582431,31.799309 44.5585399,28.0086942 44.5585399,28.0086942" id="Fill-56" fill="#000000"></path>
                        <path d="M33.2879554,37.3312373 C33.5536214,38.2867881 34.4299229,40.2729123 34.9176381,41.1376463 C35.4370747,42.0537115 36.0318495,42.46831 36.2737245,42.5986124 C36.7297185,42.8552686 38.018397,42.6262523 38.521973,42.5433326 C39.2119117,42.4288244 39.1326084,42.9381883 39.6123933,43.5778545 C39.652045,43.6291857 39.6916966,43.6726199 39.7353134,43.7121054 C39.5608462,44.4307428 39.7075573,45.0309235 39.7115224,45.1967629 C39.7511741,46.345793 40.3816353,46.2549762 40.4054263,46.2668218 C40.3618095,46.6182434 40.2825062,47.5461543 40.3062972,47.976547 C40.0009795,48.1344893 39.4577519,48.5925219 39.4418912,48.6043676 C38.5655898,49.1334742 38.4387045,49.3664391 38.3118192,49.946877 C38.1928643,50.4917778 38.2682024,51.0722157 38.3157844,51.6210651 C38.3594012,52.1857088 38.4069832,52.7464039 38.4466349,53.307099 C38.4862865,53.7927715 45.6672,125.190579 46.170776,125.257705 C46.6465958,125.320882 47.134311,125.155042 47.2651615,124.689112 C47.3206738,124.499582 40.4212869,53.1925908 40.4212869,52.9991115 C40.4212869,52.8648606 40.230959,51.3841517 40.1675164,50.7602797 C40.2032029,50.5668004 40.2507849,50.5549547 40.2983668,50.5391605 C40.4014611,50.507572 40.5085206,50.4641379 40.6195452,50.4167552 C42.0271787,49.8679058 42.3681829,49.2914165 42.4117997,49.2045482 C42.7488387,48.5688306 42.3523222,47.8817816 41.7813385,47.6804052 C41.7416868,47.3250351 41.674279,46.969665 41.6266971,46.622192 C41.6108364,46.5037352 41.5949757,46.3892271 41.5751499,46.2747189 C41.9399451,46.0891368 42.0549349,45.7179724 41.9637361,45.3547052 C41.8804676,44.7031933 41.769443,44.0516813 41.6544532,43.4001694 C41.6425577,43.3409411 41.6227319,43.2896098 41.5989409,43.2382786 C41.5117073,42.8947541 41.2262154,42.6696864 40.9010719,42.5907153 C40.8891764,42.4801557 40.6552317,42.0853 40.6750575,41.9392034 C40.6948833,41.7615183 41.721861,40.9639098 41.8487463,40.8770415 C42.2294021,40.632231 42.5426501,40.1702498 42.4950682,39.7043201 C42.586267,38.9540943 41.5275679,36.5731144 41.3729265,36.1466702 C41.0041662,35.1358396 40.5997194,34.0657807 40.0247705,33.1497155 C39.4458564,32.2375988 38.8193603,31.3847105 37.7448007,31.2859966 C36.7773005,31.1951797 35.7186014,31.5426528 34.7986832,31.8308974 C34.2871769,31.9927883 33.5694821,32.3718497 33.1571049,32.7232713 C32.7209368,33.0983842 32.5306089,33.6946163 32.5702606,34.2553114 C32.6495638,35.2898334 33.0103939,36.336201 33.2879554,37.3312373 Z" id="Fill-58" fill="#00E07D"></path>
                        <path d="M39.424048,41.048014 C38.9402979,40.4083478 38.6468757,39.6462763 38.3138018,38.9236904 C37.9846931,38.2129501 37.66748,37.4982613 37.3502668,36.7796239 C37.0290884,36.0649351 36.7118752,35.3502463 36.394662,34.6316089 C36.2479509,34.3038787 36.1012398,33.9721999 35.9386681,33.6444697 C35.7840267,33.3246365 35.5778381,33.0600832 35.3875102,32.7599929 C35.3082069,32.6336391 35.4866393,32.5151824 35.5857684,32.6059992 C35.8316086,32.8192212 35.9822849,33.1509 36.1131353,33.4351961 C36.2638116,33.7550293 36.3986272,34.086708 36.5493035,34.4104897 L37.5842115,36.645373 C37.9212505,37.3719075 38.2582895,38.098442 38.583433,38.8328736 C38.9046114,39.5515109 39.2773369,40.2661997 39.4359435,41.0401169 C39.4399086,41.048014 39.4280132,41.0519626 39.424048,41.048014" id="Fill-60" fill="#154733"></path>
                        <path d="M38.0302925,41.2963783 C37.5861941,40.7633231 37.3363887,40.0841713 37.0588272,39.4563507 C36.7614398,38.7890446 36.4600873,38.1217384 36.1508044,37.4544323 C35.540169,36.1237686 34.913673,34.801002 34.2871769,33.482184 C34.1840826,33.2729104 34.4894003,33.0952254 34.5924946,33.3005503 C35.2467468,34.6312141 35.8732429,35.9737234 36.4878434,37.3241299 C36.7931611,37.9914361 37.0984788,38.6587422 37.3958662,39.3260483 C37.6694625,39.9499203 38.0025364,40.585638 38.0858049,41.2726869 C38.08977,41.3003268 38.0501184,41.3161211 38.0302925,41.2963783" id="Fill-62" fill="#154733"></path>
                        <path d="M36.779283,41.9463108 C36.6999797,41.8081113 36.6167113,41.7093973 36.5532686,41.5593522 C36.4858608,41.3974613 36.4263834,41.2355705 36.3669059,41.0697311 C36.2360555,40.7262066 36.081414,40.3905793 35.9307378,40.0549519 C35.6333504,39.4152857 35.3042417,38.7874652 34.9870285,38.1596446 C34.6539547,37.5041841 34.3208808,36.8447751 33.9917721,36.1893146 C33.8252352,35.8536873 33.6547331,35.5141114 33.4881962,35.1745355 C33.3494154,34.8981365 33.1115056,34.5862005 33.0996101,34.2742645 C33.0956449,34.1755506 33.2264953,34.0847338 33.313729,34.1518592 C33.5635343,34.3453385 33.6785241,34.7046572 33.8252352,34.9810562 C33.9997025,35.312735 34.1781349,35.6444138 34.3526022,35.9800411 C34.7134322,36.6631415 35.0584015,37.354139 35.407336,38.0411879 C35.7364447,38.6848027 36.0695185,39.3244689 36.3669059,39.9838779 C36.5096518,40.2879168 36.6286068,40.5998528 36.7317011,40.9157374 C36.7911785,41.0815768 36.8387605,41.2474162 36.8665167,41.4211527 C36.9022031,41.614632 36.8704818,41.7251916 36.8625515,41.9226194 C36.8625515,41.9660535 36.7991089,41.9897449 36.779283,41.9463108" id="Fill-64" fill="#154733"></path>
                        <path d="M41.1278793,43.6986804 C41.14374,43.7737029 41.1635658,43.8487255 41.1635658,43.9237481 C41.1635658,44.0540505 41.1239142,44.1488159 41.0128895,44.2238384 C41.0525412,44.1764557 41.0921928,44.121176 41.1318445,44.0737933 C41.1239142,44.0895875 41.119949,44.1053817 41.1120187,44.121176 C41.0327154,44.3462437 40.735328,44.3462437 40.6560247,44.121176 C40.6480944,44.1053817 40.6441292,44.0895875 40.6361989,44.0737933 C40.6758505,44.121176 40.7155022,44.1764557 40.7511887,44.2238384 C40.6441292,44.1488159 40.6005124,44.0540505 40.6005124,43.9237481 C40.6044776,43.8487255 40.6243034,43.7737029 40.640164,43.6986804 C40.6917112,43.4578184 41.0763322,43.4538698 41.1278793,43.6986804" id="Fill-66" fill="#FFFFFF"></path>
                        <path d="M41.4649183,48.4803829 C41.2190781,48.7093992 40.9177256,48.8870843 40.6441292,49.0845121 C40.4181148,49.2503515 40.1246926,49.5859788 39.8233401,49.5267505 C39.7519671,49.5149048 39.7202458,49.4438308 39.7123155,49.3806539 C39.676629,49.0568722 40.1564139,48.7883703 40.3903587,48.6462223 C40.687746,48.4724858 41.0406457,48.3145435 41.385615,48.2948007 C41.4847442,48.2869036 41.5362913,48.417206 41.4649183,48.4803829" id="Fill-68" fill="#FFFFFF"></path>
                        <path d="M40.4930564,40.5907711 C39.8031177,39.2916959 39.255925,37.9215466 38.6730458,36.5750887 C38.3835887,35.903834 38.0980969,35.2404764 37.8046747,34.5731703 C37.523148,33.9216584 37.1424921,33.2661979 36.9442339,32.5830975 C36.8966519,32.409361 37.1504225,32.2988014 37.2455864,32.4567437 C37.5905558,33.0569244 37.7927792,33.7637161 38.0584452,34.4033823 C38.3479022,35.0904312 38.6333941,35.7814287 38.9228512,36.4684776 C39.4898697,37.8228327 40.0925748,39.1732392 40.5485687,40.5670798 C40.5604642,40.5986682 40.5089171,40.6223596 40.4930564,40.5907711" id="Fill-70" fill="#154733"></path>
                        <path d="M41.360238,40.0395526 C41.0152686,39.447269 40.8090801,38.7760143 40.5513444,38.1402967 C40.2658525,37.4414021 39.9645,36.746456 39.6631474,36.05151 C39.3736904,35.3960495 39.0723379,34.7445376 38.7590898,34.1009228 C38.6004832,33.7810897 38.4418767,33.4573081 38.2793049,33.1374749 C38.1167331,32.8215904 37.9303704,32.5136029 37.8233109,32.174027 C37.7836593,32.0358275 37.9779524,31.9055252 38.0770815,32.0279304 C38.5291103,32.5767798 38.8146022,33.3112114 39.123885,33.9508777 C39.4450634,34.6102867 39.7464159,35.2815414 40.0358729,35.9567446 C40.3173996,36.6161537 40.5751353,37.2834598 40.8130452,37.958663 C41.0549203,38.6299177 41.3324818,39.3130181 41.4197155,40.0237583 C41.4236806,40.0553468 41.3760986,40.0632439 41.360238,40.0395526" id="Fill-72" fill="#154733"></path>
                        <path d="M17.2750337,50.3756902 C14.035494,49.9334519 13.0640286,55.7536249 12.9212827,58.2017302 C12.7349199,61.4671869 13.6231169,64.9261228 15.4946747,67.6269358 C19.4281182,73.3128579 27.1562245,75.3345191 33.1436234,71.5794413 C36.0818105,69.7315167 38.2229996,66.8569672 39.7416577,63.7849898 C40.542621,62.1581843 42.3348755,59.327069 40.7131231,57.7121092 C40.0073237,57.009266 38.8574259,56.8592208 37.9969852,57.3646361 C36.9937985,57.9490226 36.7083066,59.0822584 36.2840339,60.0733462 C35.0667283,62.9005131 33.4172198,65.6684515 30.9191659,67.500582 C28.5955793,69.2103071 25.8516852,69.648597 23.1157215,68.7206861 C19.9237638,67.6387815 17.7587838,64.799769 16.9260992,61.6290777 C16.5018265,60.022015 16.4106277,58.3399297 16.6445725,56.69733 C16.7397364,56.0221268 16.9300643,55.2955923 17.2234865,54.6756688 C17.5605255,53.9728257 18.0680666,53.4476676 18.2702901,52.6737504 C18.3773495,52.2512548 17.2750337,50.3756902 17.2750337,50.3756902" id="Fill-74" fill="#FFDA00"></path>
                        <path d="M38.1774002,56.4276436 C38.2725641,57.6201078 38.5659863,58.7375494 39.0695623,59.8747338 C39.5057304,60.8579245 41.0561098,61.1264264 41.8967248,60.5657313 C42.8087127,59.9616021 43.2171247,58.7178066 42.5945938,57.7464616 C42.047401,56.8935733 41.2860894,56.0643763 40.4890913,55.4405043 C40.0529231,55.0969799 39.5414169,54.9429861 39.0021544,55.1838481 C38.5421953,55.3931216 38.1298182,55.8906398 38.1774002,56.4276436" id="Fill-76" fill="#FFDC9C"></path>
                        <path d="M46.1307278,28.5042381 C45.8888528,28.9504251 46.2655434,29.4913774 46.7532587,29.5190173 C47.2726953,29.5466572 47.7723061,29.0214991 47.7009331,28.5081867 C47.6890376,28.4134213 47.5383613,28.3581415 47.4630232,28.4134213 C47.2687301,28.5555694 47.1378797,28.7766886 46.9277259,28.8990938 C46.7334329,29.0057049 46.328986,28.9188366 46.4320803,28.630592 C46.495523,28.4529069 46.2179614,28.3423473 46.1307278,28.5042381" id="Fill-78" fill="#FFFFFF"></path>
                        <path d="M44.4193627,34.070519 C44.8713915,34.5009117 45.8190658,34.0112906 46.16007,33.6480234 C46.497109,33.2887047 45.9974983,32.8227749 45.6287379,33.1149682 C45.4344449,33.2729104 45.2361866,33.4269042 45.0062071,33.5374638 C44.8158791,33.6322291 44.5621086,33.6835604 44.4193627,33.8572969 C44.3678155,33.9165252 44.35592,34.007342 44.4193627,34.070519" id="Fill-80" fill="#EB495F"></path>
                        <path d="M45.5771908,35.9887279 C45.8428568,35.9689852 46.0530106,35.8426313 46.2354082,35.649152 C46.3940148,35.4793641 46.5248652,35.2069137 46.473318,34.9700002 C46.4534922,34.8910291 46.3543631,34.8357493 46.2750598,34.8594406 C46.1878262,34.8870805 46.1442094,34.9384118 46.0807667,34.9818459 C46.0252544,35.0173829 45.9697421,35.0410743 45.9142298,35.088457 C45.870613,35.123994 45.8309613,35.1674281 45.7952749,35.2069137 C45.6525289,35.3609074 45.5058178,35.4991069 45.4027235,35.6807405 C45.3313506,35.8070943 45.4185842,36.0005736 45.5771908,35.9887279" id="Fill-82" fill="#EB495F"></path>
                        <path d="M29.7204966,24.2374275 C29.803765,24.3361414 30.6721361,23.8623145 30.7673001,23.822829 C30.9417674,23.7399093 31.1519211,23.6017098 31.3541445,23.6293497 C31.5048208,23.653041 31.6158454,23.7833434 31.7704868,23.8188804 C31.8973721,23.8504689 32.0599438,23.7793948 32.0877,23.6411953 C32.1511426,23.2976709 31.9211631,23.0844488 31.5960196,23.0054777 C31.1876076,22.9028152 30.7990214,23.100243 30.4580172,23.2976709 C30.1764905,23.4595617 29.6372281,23.6648867 29.4865519,23.9847198 C29.4151789,24.1426621 29.4469002,24.347987 29.6372281,24.3756269 C29.7244617,24.3874726 29.7760089,24.3045529 29.7204966,24.2374275" id="Fill-84" fill="#EB495F"></path>
                        <path d="M30.200678,26.0249392 C30.6487417,26.1749844 31.2038647,26.2263156 31.6598587,26.0644248 C32.0206887,25.938071 31.9651764,25.4089643 31.5686599,25.3931701 C31.112666,25.3734273 30.6209855,25.5037297 30.200678,25.6458777 C30.0143153,25.7051061 30.0103501,25.9617623 30.200678,26.0249392" id="Fill-86" fill="#EB495F"></path>
                        <path d="M28.2256294,19.6950075 C27.686367,19.1027239 27.059871,18.8500163 26.2470122,18.9882158 C25.929799,19.039547 25.5967251,19.1580037 25.4539792,19.4699397 C25.2953726,19.8213613 25.4896657,20.2122684 25.8663563,20.2912396 C26.219256,20.3583651 26.5919815,19.9872007 26.3659671,19.6436762 C26.362002,19.6239334 26.3580368,19.6081392 26.3501065,19.5883964 C26.3342458,19.7108017 26.3223503,19.8371555 26.3025245,19.9635094 C26.4016536,19.7818757 26.9964283,19.7700301 27.1550349,19.7660815 C27.4682829,19.7621329 27.8251478,19.7660815 28.1225351,19.8726925 C28.2295946,19.9121781 28.2930372,19.7660815 28.2256294,19.6950075" id="Fill-88" fill="#330800"></path>
                        <path d="M33.0115834,18.7118168 C33.3922392,18.8500163 33.8958152,18.5143889 34.2566452,18.3959322 C34.4549034,18.3327553 34.6650571,18.2537842 34.8752109,18.2498356 C34.9426187,18.2458871 35.0020962,18.2577327 35.069504,18.2656298 C35.1289814,18.273527 35.3193093,18.3643438 35.2320757,18.3011669 C35.5691147,18.5380803 35.9021886,18.0958419 35.7475471,17.7878544 C35.4818811,17.239005 34.902967,17.239005 34.3795653,17.4403814 C33.9354668,17.6101694 32.9283149,18.0484592 32.9441756,18.6288971 C32.9441756,18.6683827 32.9719318,18.6999711 33.0115834,18.7118168" id="Fill-90" fill="#330800"></path>
                        <path d="M30.7966423,20.7788864 C30.8918063,20.684121 30.8957714,20.5498701 30.7966423,20.4551047 C30.6538964,20.3169052 30.4001258,20.4156191 30.4001258,20.6169955 C30.4001258,20.8183719 30.6538964,20.9170859 30.7966423,20.7788864" id="Fill-92" fill="#330800"></path>
                        <path d="M31.5868997,20.6284464 C31.8446354,20.6284464 31.8446354,20.2256935 31.5868997,20.2256935 C31.3251988,20.2256935 31.3251988,20.6284464 31.5868997,20.6284464" id="Fill-94" fill="#330800"></path>
                        <path d="M16.7135663,37.4500889 C16.7492528,37.7027965 16.8840684,37.9831441 17.0704312,38.1687263 C17.2607591,38.3543084 17.6334846,38.3345657 17.7603699,38.0779095 C17.8436383,37.9120701 17.8793248,37.7501792 17.8912203,37.564597 C17.8674293,37.6435682 17.8476035,37.7264879 17.8238125,37.805459 C17.9784539,37.5330086 17.907081,37.2250211 17.788126,36.9565193 C17.6969272,36.76304 17.4352263,36.6722232 17.2409333,36.6998631 C17.0307795,36.7235544 16.8364864,36.8775481 16.7889045,37.0868217 C16.777009,37.1302558 16.7254618,37.4461403 16.753218,37.2684553" id="Fill-96" fill="#330800"></path>
                        <path d="M22.2390235,34.4523444 C22.2667797,34.6734636 22.346083,34.8590458 22.5324457,34.9893482 C22.7743208,35.1630847 23.1787676,35.1986217 23.3492697,34.910377 C23.4920156,34.6695151 23.4801201,34.3733733 23.3572,34.1325113 C23.3135832,34.0377459 23.2422103,33.9469291 23.162907,33.8758551 C23.0122307,33.7376556 22.8536241,33.6823758 22.6514007,33.6586845 C22.5364109,33.6428902 22.3619437,33.7258099 22.2866055,33.8087296 C22.1835112,33.9153407 22.1478248,34.0337974 22.1319641,34.179894" id="Fill-98" fill="#330800"></path>
                        <path d="M22.5181712,40.1919669 C23.116911,39.9353107 23.5332534,39.1969305 24.0804461,38.8218176 C24.3500773,38.640184 24.6514298,38.4427561 24.9765734,38.3795792 C25.2699956,38.3242994 25.5118706,38.4269619 25.8052928,38.4585504 C26.1383667,38.4901388 26.4317889,38.0834374 26.3247294,37.7793985 C25.5832436,35.7379946 21.7608247,38.4546018 22.2485399,40.0814073 C22.2802613,40.2038125 22.4071465,40.2393496 22.5181712,40.1919669" id="Fill-100" fill="#EB495F"></path>
                        <path d="M23.1454602,41.3832465 C24.0970998,41.8926104 25.8060858,41.9399931 26.3929302,40.8422942 C26.4801639,40.6804034 26.50792,40.4513871 26.3929302,40.2934448 C26.0876125,39.8591035 25.6474792,40.0802227 25.2549279,40.273702 C24.6205016,40.585638 23.9067719,40.5343068 23.2326939,40.7001462 C22.9273762,40.7751687 22.8639335,41.2292528 23.1454602,41.3832465" id="Fill-102" fill="#EB495F"></path>
                        <path d="M22.2778822,37.3055717 C22.4404539,37.1910636 22.4404539,37.0252242 22.2778822,36.910716 C22.1311711,36.8080535 21.9329128,36.946253 21.9329128,37.1081439 C21.9329128,37.2700347 22.1311711,37.4082342 22.2778822,37.3055717" id="Fill-104" fill="#330800"></path>
                        <path d="M23.0173854,36.8755739 C23.0649674,36.8795224 23.1006539,36.8755739 23.1442707,36.8637282 C23.3742502,36.8084484 23.3742502,36.4609754 23.1442707,36.401747 C23.1006539,36.3938499 23.0649674,36.3859528 23.0173854,36.3899013 C22.8905001,36.4056956 22.7755104,36.4925638 22.7755104,36.6307633 C22.7755104,36.7768599 22.8905001,36.8597796 23.0173854,36.8755739" id="Fill-106" fill="#330800"></path>
                        <g id="Group-110" transform="translate(34.824491, 122.405267)">
                            <mask id="mask-8" fill="white">
                                <use xlink:href="#path-7"></use>
                            </mask>
                            <g id="Clip-109"></g>
                            <path d="M3.44172861,3.12014974 C3.52499707,3.02538438 3.61619586,2.92272189 3.71135982,2.8398022 C3.6003352,2.92667045 3.49327575,3.00959015 3.38225113,3.09250984 C3.40604212,3.07276706 3.43379828,3.05302427 3.46551959,3.03723005 C3.81841927,2.80426518 4.09201564,2.48443207 4.20700542,2.07378214 C4.31803004,1.68682355 4.26648289,1.17351114 4.04443366,0.829986682 C3.82238443,0.486462223 3.49327575,0.182423334 3.07693344,0.0876579655 C2.63283498,-0.0110559596 2.24028366,0.0600180664 1.83187168,0.249548803 C1.30450475,0.494359337 0.89212761,1.00767175 0.753346841,1.56441828 C0.586809917,2.22777586 0.860406292,3.03723005 1.49483267,3.36890883 C1.74463805,3.50315977 2.02219959,3.57818236 2.30769146,3.59002803 C2.67645179,3.60582226 3.19588839,3.40444585 3.44172861,3.12014974" id="Fill-108" fill="#000000" mask="url(#mask-8)"></path>
                        </g>
                        <path d="M66.0497334,125.831825 C66.0735244,125.030268 66.8229405,121.638457 65.1615365,121.903011 C64.4081552,122.025416 64.2297227,123.028349 64.2654092,123.644324 C64.2892002,124.09446 64.3883293,124.548544 64.5429708,124.971039 C64.7055425,125.413278 64.9751737,125.677831 65.2329094,126.052944 C65.4747845,126.400417 66.0338727,126.28196 66.0497334,125.831825" id="Fill-111" fill="#FFDA00"></path>
                        <path d="M88.4311064,117.958007 C88.4112805,117.180142 88.0028686,116.485196 87.5270488,115.888963 C87.0432987,115.272989 86.5397227,114.61358 85.8220279,114.254261 C85.151915,113.922582 84.0575295,114.495123 84.3985337,115.344063 C84.7038514,116.110083 85.2272532,116.694469 85.7863414,117.29465 C86.2938825,117.839551 86.8648663,118.3884 87.6063521,118.585828 C88.0068337,118.692439 88.4430019,118.384451 88.4311064,117.958007" id="Fill-113" fill="#FFDA00"></path>
                    </g>
                    <g id="Group-137" transform="translate(48.616369, 9.409502)">
                        <g id="Group-118" transform="translate(-0.000000, 1.032700)">
                            <mask id="mask-10" fill="white">
                                <use xlink:href="#path-9"></use>
                            </mask>
                            <g id="Clip-117"></g>
                            <path d="M-0.994739181,7.55210124 C0.198775438,6.43465961 1.7372594,5.74366214 3.2479872,5.13558436 C4.7032027,4.55119792 6.22186084,4.16818789 7.79603128,4.09316531 C9.38606238,4.01814273 10.9523025,4.23926192 12.4590651,4.76442 C14.2077028,5.37249778 15.7461868,6.40307116 17.4155212,7.18093689 C20.849354,8.77220536 24.3823158,9.11572982 28.0381978,8.04961943 C31.4442744,7.06248018 34.247646,4.75652289 37.6021754,3.70225817 C39.2953008,3.17315153 41.0122172,3.13366596 42.7053426,3.6904125 C43.5182014,3.95496581 44.2438265,4.3695643 44.9496259,4.8473397 C45.7347285,5.38434345 46.3413987,5.94503854 47.3207945,6.03980391 C47.7688581,6.0871866 48.0900364,5.64099965 48.1138274,5.25009251 C48.224852,3.52852166 46.1867573,2.28867476 44.8267058,1.64505997 C43.2604657,0.910628365 41.5237235,0.503926994 39.7869812,0.582898134 C35.9883533,0.748737528 32.9312112,3.0467977 29.6242638,4.62227195 C27.9033822,5.43962325 26.0080334,5.99242123 24.096824,6.0871866 C22.0626944,6.18590052 20.2109624,5.76735348 18.3314743,5.01712765 C14.9888403,3.68646394 11.7691265,2.10309258 8.07359282,2.340006 C6.24961699,2.45846271 4.44150182,2.90859821 2.79199325,3.69830961 C1.10283302,4.5077638 -0.122402915,5.82658183 -1.31195237,7.23621668 C-1.49434995,7.45338732 -1.20885808,7.74952909 -0.994739181,7.55210124" id="Fill-116" fill="#00E07D" mask="url(#mask-10)"></path>
                        </g>
                        <g id="Group-121" transform="translate(6.033947, 0.000000)">
                            <mask id="mask-12" fill="white">
                                <use xlink:href="#path-11"></use>
                            </mask>
                            <g id="Clip-120"></g>
                            <path d="M1.04121781,0.893801438 C2.92070595,0.439717383 4.72089078,-0.109132041 6.49728464,0.929338451 C7.7304509,1.65192438 8.79708025,2.57193816 10.1690273,3.06155923 C10.9382693,3.33795822 11.7630235,3.39323802 12.5164049,3.72886537 C13.3015075,4.07633838 14.0152372,4.53042244 14.8360263,4.80287287 C16.3626148,5.30433961 18.0081582,5.33197951 19.590259,5.09901465 C21.2120114,4.86210123 22.7623908,4.28166335 24.2255367,3.55512886 C25.8195329,2.7614689 27.2787136,1.70325562 28.971839,1.12281774 C30.5777307,0.566071207 32.2827516,0.29756933 33.952086,-0.00252100178 C35.7720967,-0.330251233 37.65555,-0.472399285 39.4002225,-1.09232273 C39.7848435,-1.23052223 39.8324255,-1.6925034 39.507282,-1.92151971 C37.9727632,-3.00737288 36.093275,-2.83758493 34.312916,-2.62436285 C32.4929054,-2.40719222 30.6649644,-2.19397014 28.900466,-1.67276061 C25.4745636,-0.669827135 22.7385998,1.74668975 19.1977076,2.48506991 C17.5006171,2.84044004 15.8748995,2.67460065 14.3126245,1.9441176 C13.5156264,1.5769018 12.8018967,1.29655425 11.9255953,1.18599466 C11.1127365,1.08333217 10.4148675,0.95697835 9.67734684,0.581865435 C8.34505145,-0.0893892558 7.09205936,-0.962020354 5.57736639,-1.1594482 C3.80097254,-1.39241307 2.2149066,-0.654032907 0.819168577,0.372591914 C0.573328357,0.558174093 0.708143962,0.976721135 1.04121781,0.893801438" id="Fill-119" fill="#00E07D" mask="url(#mask-12)"></path>
                        </g>
                        <g id="Group-124" transform="translate(-0.000000, 6.864414)">
                            <mask id="mask-14" fill="white">
                                <use xlink:href="#path-13"></use>
                            </mask>
                            <g id="Clip-123"></g>
                            <path d="M-0.131126277,4.27510267 C2.61673296,2.36005252 6.02280956,1.97704249 9.26234924,2.6561943 C10.9078927,2.99971876 12.4741328,3.63938499 13.8778011,4.55939877 C15.4202502,5.56233225 16.8080579,6.61659697 18.5963473,7.16939495 C22.5297908,8.39344762 26.9231935,8.16048276 30.8923235,7.28785166 C33.0493731,6.81402482 35.1786667,6.23358694 37.3198557,5.69263463 C39.1874483,5.21880779 41.2136476,4.44883918 43.1565783,4.8318492 C45.4643043,5.2819847 47.7522044,6.40732345 49.9171844,7.29180022 C51.0551867,7.75772994 52.193189,8.22365967 53.3430868,8.65800094 C53.8506279,8.84753168 54.3779948,9.06075375 54.9013966,9.20685036 C55.583405,9.3963811 56.2495527,9.28187295 56.9236307,9.424021 C57.7364895,9.59380895 58.0735285,8.62641248 57.4589279,8.1565342 C56.9950036,7.80511263 56.7134769,7.29574877 56.233692,6.95222432 C55.7935587,6.64028831 55.2820524,6.40337489 54.8022675,6.15856436 C53.7633943,5.62945772 52.6690088,5.17142511 51.5944491,4.72128961 C49.5206679,3.86050418 47.3953396,3.04315288 45.2541505,2.37189819 C43.1446828,1.70854062 41.1660656,1.77961464 39.0407372,2.32451551 C36.8400707,2.8852106 34.6552649,3.50513405 32.4664939,4.09346904 C28.2713495,5.21880779 23.8541559,6.0440562 19.5479868,4.95030591 C17.6328122,4.4646334 16.2172484,3.21688939 14.5439488,2.24949292 C13.0451165,1.37686183 11.4075034,0.824063847 9.69058704,0.583201869 C6.02677473,0.073838016 2.16866933,1.22681666 -0.388861992,3.93947532 C-0.547468586,4.10926327 -0.341280014,4.42119928 -0.131126277,4.27510267" id="Fill-122" fill="#00E07D" mask="url(#mask-14)"></path>
                        </g>
                        <g id="Group-127" transform="translate(-0.000000, 11.845671)">
                            <mask id="mask-16" fill="white">
                                <use xlink:href="#path-15"></use>
                            </mask>
                            <g id="Clip-126"></g>
                            <path d="M-1.98999556,4.39538179 C0.968017418,2.10916728 4.87766995,1.69851736 8.4027015,2.73698785 C10.242538,3.27794016 11.9356634,4.16241692 13.5058687,5.2482701 C15.0007358,6.27884348 16.448021,7.32521108 18.1609722,7.98067155 C21.8684013,9.39820351 26.1071625,8.55321231 29.8344175,7.67663266 C31.7694179,7.2225486 33.6845926,6.70528763 35.6076975,6.22751224 C37.5426979,5.74973684 39.5054545,5.12586483 41.488037,4.89684853 C43.6173305,4.64808944 45.7030072,5.11796772 47.6657638,5.92742191 C49.6245552,6.73292753 51.3930188,8.05569413 53.5302426,8.30840178 C54.0655399,8.37157869 54.4620563,7.63714709 54.1607038,7.21070293 C53.0187363,5.6154859 51.1868302,4.70731779 49.4223318,3.9255035 C47.5904257,3.11999788 45.699042,2.5119201 43.6926686,2.35397782 C41.6109571,2.18418987 39.5490714,2.65011959 37.5664889,3.24240314 C35.5006381,3.85442948 33.4466827,4.47830149 31.3808318,5.08243071 C27.4513534,6.22356368 22.8755532,7.5897644 18.8429805,6.10905553 C17.0229699,5.44174939 15.4289736,4.19400538 13.7636044,3.22660892 C12.0823745,2.25131534 10.2742593,1.43396404 8.36701502,1.01936555 C4.53666578,0.19016858 0.254287745,0.920651626 -2.37065138,4.01632032 C-2.59666578,4.28482219 -2.25962677,4.60465531 -1.98999556,4.39538179" id="Fill-125" fill="#00E07D" mask="url(#mask-16)"></path>
                        </g>
                        <g id="Group-130" transform="translate(-0.000000, 15.794228)">
                            <mask id="mask-18" fill="white">
                                <use xlink:href="#path-17"></use>
                            </mask>
                            <g id="Clip-129"></g>
                            <path d="M-1.64145757,3.88246423 C-0.198137563,2.92296488 1.5425698,2.96245045 3.20793904,2.96245045 C4.84951728,2.95850189 6.75279641,2.81635384 8.28335004,3.49550565 C9.90510246,4.21414302 11.2810147,5.47373271 12.8155335,6.35820947 C14.3460871,7.23873769 15.9995608,7.96527217 17.6926862,8.48253314 C21.2613346,9.56838632 24.8379133,9.50126085 28.3470842,8.24956828 C30.1988161,7.59015926 31.9871055,6.92680168 33.9419318,6.61881424 C35.9998523,6.29898112 38.1291458,6.05811914 40.2148225,6.02258213 C42.4591058,5.98704512 44.5408174,6.49640897 46.6740761,7.15581799 C48.6804495,7.77969 50.6035544,8.47858458 52.7169873,8.04029476 C53.2760755,7.92183805 53.3553788,7.10053819 52.8755939,6.83993343 C51.1745382,5.91202253 49.342632,5.38291589 47.5027955,4.7945809 C45.6034816,4.18650312 43.6922721,3.65739648 41.693829,3.51524843 C39.5962568,3.36520327 37.4947195,3.62975659 35.4169731,3.86667001 C33.3114705,4.10753198 31.2932016,4.45895356 29.2947586,5.17759093 C27.4509569,5.83699995 25.6388766,6.57538011 23.6642245,6.69778538 C21.8600745,6.81229353 20.0876458,6.57932867 18.3588339,6.08181048 C16.5388232,5.55270385 14.8139765,4.76299245 13.1723983,3.82718444 C11.6220188,2.93875911 10.1747337,1.73444922 8.41420048,1.26062238 C6.65366729,0.7907441 4.46886146,0.889458025 2.68057211,1.19744547 C0.900213099,1.50543292 -0.65413152,2.25960731 -1.82385515,3.64555081 C-1.92694944,3.76795608 -1.796099,3.98512672 -1.64145757,3.88246423" id="Fill-128" fill="#00E07D" mask="url(#mask-18)"></path>
                        </g>
                        <g id="Group-133" transform="translate(1.034391, 19.742785)">
                            <mask id="mask-20" fill="white">
                                <use xlink:href="#path-19"></use>
                            </mask>
                            <g id="Clip-132"></g>
                            <path d="M-0.6000846,1.46476278 C-0.413721852,1.09359842 1.70367618,1.49240268 2.0169242,1.54768248 C2.98045926,1.71352187 3.94399431,1.91489828 4.8361564,2.32554821 C6.69185355,3.17448796 8.00432311,4.73811654 9.61418004,5.93058075 C11.0575,7.0006397 12.7268344,7.91670492 14.495298,8.31550918 C16.2835873,8.72221055 18.3534034,8.90384417 19.8324098,7.62451171 C20.149623,7.35206127 20.0782501,6.73213782 19.6936291,6.5505042 C18.0005037,5.74105001 15.9822348,5.84766105 14.1741196,5.40147411 C11.9972441,4.86447036 10.4587602,3.71149172 8.72598312,2.36108522 C7.12802168,1.12123832 5.3436975,0.343372592 3.3254286,0.118304843 C2.08829717,-0.0198946526 -0.227359104,-0.00410042458 -0.683353061,1.43317432 C-0.695248556,1.47660845 -0.623875589,1.51214546 -0.6000846,1.46476278" id="Fill-131" fill="#00E07D" mask="url(#mask-20)"></path>
                        </g>
                        <g id="Group-136" transform="translate(22.756598, 23.691342)">
                            <mask id="mask-22" fill="white">
                                <use xlink:href="#path-21"></use>
                            </mask>
                            <g id="Clip-135"></g>
                            <path d="M0.616583133,3.84574265 C1.85767973,4.76970499 3.24152226,4.65124828 4.6808771,4.38274641 C6.46916644,4.04711906 8.26142095,3.79441141 10.0616058,3.55749799 C11.8419648,3.32848169 13.6342193,3.15474518 15.4264738,3.07182548 C16.2988101,3.02839135 17.282171,2.92178031 18.1188208,3.22976776 C18.773073,3.46668118 19.1894153,4.01947916 19.7524687,4.40248919 C20.5732578,4.95133861 21.901588,4.23270124 21.8103892,3.2258192 C21.6398871,1.32261473 19.7921203,0.371012491 18.051413,0.149893299 C16.1322732,-0.0949172356 14.0862481,0.276247123 12.1869342,0.548697556 C10.283655,0.817199432 8.42002755,1.23969503 6.58812139,1.8122358 C5.64837732,2.10837757 4.72052875,2.45190203 3.78474984,2.77173515 C2.95603039,3.0520827 1.9290527,3.4745783 1.11222874,3.00075145 C0.553140496,2.67696978 0.124902693,3.47852685 0.616583133,3.84574265" id="Fill-134" fill="#00E07D" mask="url(#mask-22)"></path>
                        </g>
                    </g>
                </g>
            </g>
        </g>
    </g>
</svg>