<?xml version="1.0" encoding="UTF-8"?>
<svg width="87px" height="135px" viewBox="0 0 87 135" version="1.1" xmlns="http://www.w3.org/2000/svg" xmlns:xlink="http://www.w3.org/1999/xlink">
    <!-- Generator: Sketch 47 (45396) - http://www.bohemiancoding.com/sketch -->
    <title>Group 11</title>
    <desc>Created with Sketch.</desc>
    <defs></defs>
    <g id="Page-1" stroke="none" stroke-width="1" fill="none" fill-rule="evenodd">
        <g id="Lalaland_1-Copy" transform="translate(-538.000000, -3955.000000)">
            <g id="Group-11" transform="translate(538.000000, 3955.000000)">
                <g id="Page-1">
                    <path d="M28.5242432,61.4557565 C26.270473,64.7192348 28.4325405,70.6604087 31.3094189,72.2041043 C35.3643243,74.3793652 40.1998784,76.109713 44.7438649,76.3961478 C49.2913784,76.6814087 58.2417973,76.9079739 62.5435946,75.3889304 C67.6166351,73.5975391 70.3912297,64.311887 67.3521081,58.4024087 C65.6661892,55.1248435 60.9387973,55.5263217 59.1529459,58.4024087 C58.8190541,58.8942783 58.5662838,59.4284087 58.3946351,60.0059739 C58.2100541,60.5741478 58.2194595,60.6997565 58.4228514,60.3828 C58.3523108,60.6891913 57.7891622,61.125887 57.9784459,60.9850174 C56.7863108,61.8760174 55.8763378,62.0509304 54.3115135,62.5263652 C51.4111216,63.4079739 48.3496622,63.9773217 45.3246486,64.1733652 C42.1832432,64.3776261 39.1147297,64.1275826 36.0262297,63.582887 C34.9257973,63.3880174 33.7995,63.1403217 32.7966486,62.6296696 C32.3698784,62.4113217 31.9877838,62.1389739 31.6186216,61.8408 C31.4234595,61.6024957 31.1942027,61.3994087 30.9332027,61.2350609 C30.3206757,60.9744522 30.2642432,60.9521478 30.7627297,61.1681478 C30.0961216,60.4532348 29.0239054,60.7326261 28.5242432,61.4557565" id="Fill-1" fill="#00E07D"></path>
                    <path d="M53.3603919,89.0232261 C52.6702703,85.5942261 51.7438378,82.2004435 50.9243919,78.7996174 C50.4317838,76.753487 52.9935811,75.079487 51.0396081,73.8809217 C50.2871757,73.4184 47.4784865,72.7387043 46.5885,72.7387043 C46.0582703,72.7586609 36.3460135,70.9320522 34.5519324,70.3885304 C31.1824459,69.3707478 27.843527,68.2625739 24.5163649,67.113313 C21.9334054,66.2211391 19.5315,68.1569217 18.6744324,70.4260957 C17.7809189,72.7903565 17.4917027,75.3389217 17.7291892,77.8440522 C17.8302973,80.4630522 17.7844459,85.4568783 19.2505135,87.5288348 C19.3245811,87.6556174 19.3939459,87.7859217 19.4715405,87.9127043 C19.9723784,88.7297478 23.1831486,88.0559217 23.8039054,88.3670087 C27.2886081,90.118487 31.4246351,90.819313 35.1668108,91.8335739 C39.2393514,92.9370522 43.3330541,93.9395739 47.4314595,94.9420957 C51.1654054,95.8554 54.0846081,92.6236174 53.3603919,89.0232261" id="Fill-3" fill="#FDC004"></path>
                    <path d="M77.3422946,87.3196435 C77.1847541,84.5222087 76.8614432,81.7353391 76.3441459,78.9801652 C75.876227,76.4902957 76.3265108,74.1800348 75.0273892,71.962513 C73.9963216,70.2039913 73.3849703,68.7307304 71.4098351,68.4654261 C69.8167946,68.2517739 66.2650784,68.5229478 64.7319973,68.9173826 C62.2066459,69.5677304 59.6624838,70.1722957 57.1477135,70.8684261 C54.5659297,71.585687 51.6808216,71.8181217 49.7703486,73.3852957 C48.4406595,74.4770348 49.5058216,83.1839478 49.6962811,83.4011217 C49.9290649,83.7591652 52.2275108,93.4345565 52.4120919,94.0003826 C52.5237811,94.5943826 52.6495784,95.1813391 52.8047676,95.7577304 C52.8282811,95.7518609 52.8529703,95.7448174 52.8764838,95.7389478 C53.3902541,97.3847739 54.7023081,98.6514261 56.6104297,98.6514261 C57.4780784,98.6514261 58.2881189,98.3509043 58.947673,97.856687 C59.5696054,97.7627739 60.2021189,97.5796435 60.8299297,97.2932087 C64.5897405,95.5828174 68.8374568,94.0849043 73.1827541,92.7736435 C75.4612135,92.0880783 77.4833757,89.8212522 77.3422946,87.3196435" id="Fill-5" fill="#000000"></path>
                    <path d="M60.7232959,126.316683 C58.7164176,117.36677 58.2814176,107.630335 58.3002284,98.1674217 C58.3061068,95.8900304 56.5907959,93.2992043 54.2347419,92.8355087 C39.6939851,89.968813 25.36485,86.2686391 11.0169041,82.5778565 C6.73274189,81.4767261 4.73997162,83.1014217 3.26685,91.2342913 C3.25862027,91.2812478 1.70202568,100.613857 1.30347162,103.511074 C0.881404054,106.580857 0.476971622,109.652987 0.0854716216,112.725117 C-0.330717568,115.987422 0.749728378,119.081857 3.84175541,120.604422 C6.26717432,121.798291 9.64489054,121.717291 11.8857284,122.056552 C14.9601203,122.522596 17.0692824,122.732726 20.2518365,123.299726 C25.6046878,124.250596 30.9246203,125.42803 36.1422689,126.962335 C42.3851068,128.798335 47.9895527,131.170813 53.5587284,133.470509 C55.4127689,134.237074 60.1201743,134.4789 61.4510392,133.151204 C62.9735392,131.629813 61.1841608,128.37103 60.7232959,126.316683" id="Fill-7" fill="#00E07D"></path>
                    <path d="M86.2173527,118.757387 C84.6525284,114.719126 83.1652986,110.687909 82.0354743,106.501735 C81.4887851,104.469691 81.0044068,102.422387 80.5893932,100.359822 C80.3707176,99.2739522 80.169677,98.1857348 79.988623,97.0939957 C79.9169068,96.6573 78.81765,90.3193435 78.0757986,89.4741261 C76.900123,88.1323435 74.0596905,88.5537783 72.3702446,89.1571696 C67.9649878,90.7290391 60.3419068,92.2116913 55.8555284,93.538213 C55.6650689,93.593387 55.1089743,94.2003 55.1077986,96.0527348 C55.1030959,103.473039 55.8402446,115.381213 56.2458527,118.312474 C56.41515,119.540387 56.5585824,132.64243 58.6865554,134.0523 C60.1079473,134.994952 64.1534473,133.586257 66.2555554,131.9193 C66.9198122,131.392213 73.3237176,128.799039 74.4664743,128.209735 C75.0061095,127.930343 83.5109473,124.908691 85.1733527,123.835735 C86.9756635,122.672387 86.8722041,120.4443 86.2173527,118.757387" id="Fill-9" fill="#FFDA00"></path>
                    <path d="M76.4260905,46.2992478 C73.6503203,41.6611174 66.7302932,35.428813 62.7036041,31.783813 C60.6238338,29.8985087 46.5086716,21.8994652 44.3183878,20.1432913 C34.5003203,12.262813 37.3548608,12.7664217 36.9069284,6.43198696 C36.643577,2.70833478 36.3473068,-1.00005652 33.548023,0.24663913 C31.8668068,0.995595652 21.45855,8.29498696 10.710523,25.060813 C8.67307703,28.2421174 2.87464459,46.5222913 5.33768514,47.1937696 C7.23287432,47.7091174 8.24865811,43.8492913 16.5324689,41.585987 C19.976023,40.6468565 24.6469824,40.2054652 28.1951716,40.0399435 C37.6993338,39.5950304 40.9112797,40.0399435 47.2799149,41.369987 C59.3811446,43.8939 71.784523,52.2639 74.6661041,64.7167696 C75.3127257,67.5095087 75.1869284,70.4982913 74.3216311,73.4753348 C73.9042662,74.9063348 73.4622122,76.3549435 72.9072932,77.7354652 C72.6274824,78.4304217 71.5199959,81.5823783 70.9791851,82.2714652 C69.6541986,83.9630739 71.2472392,86.0185957 73.2259014,85.1792478 C74.8283473,84.4995522 76.1639149,84.2260304 77.5982392,83.1260739 C79.0078743,82.0449 80.2364554,80.5892478 81.1546581,79.0713783 C83.058077,75.9276391 83.7869959,71.9668565 83.877523,68.3406391 C84.0703338,60.6691174 83.1051041,57.4584652 76.4260905,46.2992478" id="Fill-11" fill="#FFDA00"></path>
                    <path d="M66.7807297,59.245513 C66.4292027,56.6511652 63.8791622,55.4502522 61.6688919,54.6907304 C59.8642297,54.0709043 57.9361216,53.8666435 56.0550405,53.6060348 C53.9070811,53.3090348 51.768527,52.9439478 49.6170405,52.6774696 C45.6256216,52.1856 41.6400811,52.1116435 37.6592432,52.7549478 C33.8359459,53.3736 27.2074865,56.626513 28.4266622,61.7248174 C28.8922297,63.673513 36.6552162,66.6399913 39.2205405,66.7679478 C43.5270405,66.9827739 47.8617568,66.860687 52.1717838,66.8184261 C55.9398243,66.7820348 59.9641622,66.6388174 63.3218919,64.7112522 C65.3029054,63.5725565 67.1134459,61.7083826 66.7807297,59.245513" id="Fill-13" fill="#000000"></path>
                    <path d="M53.960927,56.6592652 C51.3274135,55.7952652 48.3776432,55.7224826 45.8370081,56.9163522 C44.0323459,57.7627435 44.6613324,60.8935696 46.5259541,61.0978304 C48.6504,62.3433522 51.8341297,61.9864826 53.960927,61.1248304 C56.0348189,60.2843087 56.2770081,57.417613 53.960927,56.6592652" id="Fill-15" fill="#FFFFFF"></path>
                    <path d="M51.4774297,58.1724391 C50.5756865,57.876613 49.5657811,57.8519609 48.6957811,58.2604826 C48.0773757,58.5504391 48.2937,59.6222217 48.9320919,59.6926565 C49.6598351,60.118787 50.7496865,59.9967 51.4774297,59.7008739 C52.1875378,59.4132652 52.2710108,58.4330478 51.4774297,58.1724391" id="Fill-17" fill="#330800"></path>
                    <path d="M65.0310892,52.2535696 C64.4820486,51.5914826 63.1006297,51.3050478 62.3117514,51.0162652 C61.268927,50.6347435 60.2061162,50.2919609 59.1433054,49.9644391 C54.7662649,48.615613 50.1975892,48.0087 45.6183324,48.264613 C44.9070486,48.3033522 44.3556568,48.8198739 44.3321432,49.5477 C44.2569,51.8356565 43.9911973,54.069613 44.7013054,56.2695261 C44.8329811,56.6803957 45.5054676,56.8647 45.7159135,56.4010043 C46.5294811,54.6119609 46.6764405,52.7407435 46.8104676,50.8190478 C52.2303324,50.803787 58.0134811,51.4799609 62.921927,53.8313087 C62.9995216,54.4323522 63.0865216,55.0380913 63.2276027,55.6238739 C63.4404,56.5054826 63.9047919,56.9621348 64.2457378,57.7568739 C64.3327378,57.9599609 64.5984405,57.8578304 64.6631027,57.7028739 C65.0839946,56.6803957 65.5084135,56.2460478 65.5189946,55.0240043 C65.524873,54.3055696 65.5284,52.854613 65.0310892,52.2535696" id="Fill-19" fill="#000000"></path>
                    <path d="M17.7892662,35.9953435 C24.8879959,36.1174304 31.8785635,35.0444739 38.949077,36.3158217 C42.0269959,36.8687348 45.0955095,37.6787348 48.0711446,38.6389957 C51.0808743,39.6098217 53.5156986,41.240387 56.2738338,42.6866478 C56.5971446,42.8556913 57.0156851,42.5011696 56.7993608,42.1630826 C55.25805,39.7636043 52.1883608,38.5521261 49.60305,37.6576043 C46.3617122,36.5376913 42.9663608,35.6619522 39.5898203,35.0620826 C32.4969689,33.8036478 24.7751311,34.1593435 17.7504689,35.7100826 C17.58705,35.7464739 17.6281986,35.9918217 17.7892662,35.9953435" id="Fill-21" fill="#154733"></path>
                    <path d="M23.3737257,25.1974565 C24.9644149,25.1798478 26.8266851,25.9886739 28.3574149,26.3960217 C30.1079959,26.8608913 31.851523,27.3492391 33.5879959,27.8575435 C36.9680635,28.8471522 40.3128608,29.969413 43.5788878,31.292413 C46.6238878,32.5285435 49.5842392,34.0111957 52.4317257,35.6523261 C53.8742797,36.4846304 55.2815635,37.3768043 56.65005,38.3253261 C57.9973743,39.2609348 59.2576986,40.419587 60.7143608,41.1826304 C61.003577,41.3340652 61.4503338,40.9959783 61.2116716,40.6860652 C59.3141311,38.232587 56.0963068,36.4811087 53.4569149,34.9432826 C50.4542392,33.1941522 47.2963743,31.7748913 44.0714959,30.4871087 C40.5432932,29.079587 36.9186851,27.9221087 33.2552797,26.9125435 C31.4188743,26.405413 29.5660095,25.9558043 27.7096176,25.5273261 C26.3658203,25.217413 24.7081176,24.516587 23.3384554,24.9356739 C23.19855,24.9791087 23.2197122,25.1998043 23.3737257,25.1974565" id="Fill-23" fill="#154733"></path>
                    <path d="M31.0087986,18.0347087 C36.3910419,21.1549696 41.7239068,24.3374478 47.1755149,27.3497087 C49.5974068,28.6867957 51.9910824,30.0555783 54.2860014,31.6016217 C56.7878392,33.2873609 59.1062716,35.3452304 61.7962176,36.7292739 C62.1524473,36.9124043 62.5027986,36.4733609 62.2253392,36.1716652 C60.2772446,34.0562739 57.7801095,32.4127957 55.418177,30.7916217 C53.0527176,29.1657522 50.5908527,27.7253609 48.06315,26.3694913 C42.4857446,23.377187 36.8189878,20.6032304 31.1804473,17.7435783 C30.9864608,17.6449696 30.8195149,17.9243609 31.0087986,18.0347087" id="Fill-25" fill="#154733"></path>
                    <path d="M8.09229324,91.140613 C8.81886081,90.4104391 9.91811757,89.0721783 9.41492838,87.9616565 C9.34673919,87.8137435 9.14217162,87.847787 9.0657527,87.9616565 C8.80945541,88.3478739 8.76595541,88.8608739 8.62487432,89.2975696 C8.45087432,89.8387435 8.15577973,90.3963522 7.76780676,90.816613 C7.56676622,91.0314391 7.8818473,91.3519174 8.09229324,91.140613" id="Fill-27" fill="#FFFFFF"></path>
                    <path d="M10.4057878,95.5656783 C11.0453554,95.1724174 11.4462608,94.5678522 11.5309095,93.8235913 C11.5920446,93.2859391 10.7208689,93.1838087 10.5938959,93.6968087 C10.4645716,94.2227217 10.3234905,94.7357217 10.0460311,95.2064609 C9.91553108,95.4306783 10.1800581,95.7042 10.4057878,95.5656783" id="Fill-29" fill="#FFFFFF"></path>
                    <path d="M13.1544,89.6239174 C13.4001162,89.2083522 13.8116027,88.7188304 13.7246027,88.2081783 C13.6999135,88.0614391 13.5188595,88.0215261 13.4048189,88.0790478 C12.9592378,88.305613 12.8087514,88.9747435 12.6312243,89.4043957 C12.5030757,89.7084391 12.9933324,89.8939174 13.1544,89.6239174" id="Fill-31" fill="#FFFFFF"></path>
                    <path d="M5.19331216,99.0347087 C5.33909595,98.5792304 5.45901486,98.1202304 5.61890676,97.6682739 C5.76116351,97.2714913 5.9598527,96.9122739 5.85051486,96.4861435 C5.80819054,96.3276652 5.62478514,96.2654478 5.48840676,96.3394043 C4.72656892,96.7537957 4.68306892,98.2282304 4.77359595,98.9783609 C4.80063649,99.2084478 5.11571757,99.2788826 5.19331216,99.0347087" id="Fill-33" fill="#FFFFFF"></path>
                    <path d="M9.91776486,102.75707 C10.1681838,102.222939 10.3751027,101.640678 10.4938459,101.063113 C10.6067108,100.518417 9.78961622,100.283635 9.65206216,100.830678 C9.50980541,101.40707 9.43573784,102.031591 9.42985946,102.624417 C9.42633243,102.870939 9.8049,102.998896 9.91776486,102.75707" id="Fill-35" fill="#FFFFFF"></path>
                    <path d="M14.1795892,103.096448 C14.3818054,102.567013 14.629873,102.025839 14.7333324,101.464709 C14.8403189,100.881274 14.0020622,100.630057 13.8292378,101.217013 C13.6611162,101.79223 13.636427,102.421448 13.5764676,103.015448 C13.5400216,103.382883 14.0655486,103.394622 14.1795892,103.096448" id="Fill-37" fill="#FFFFFF"></path>
                    <path d="M17.2302324,94.5328696 C17.2854892,93.852 17.7522324,93.2321739 18.1260973,92.6863043 C18.4458811,92.2155652 17.7052054,91.638 17.3313405,92.0735217 C16.7082324,92.799 16.6282865,93.6172174 16.6494486,94.5328696 C16.6576784,94.9108696 17.2008405,94.9014783 17.2302324,94.5328696" id="Fill-39" fill="#FFFFFF"></path>
                    <path d="M4.68577297,108.680517 C4.62581351,107.901039 4.89739459,107.177909 4.90562432,106.412517 C4.9068,106.266952 4.82567838,106.129604 4.70223243,106.057996 C4.58701622,105.989909 4.51177297,105.996952 4.38362432,106.014561 C4.23901622,106.036865 4.14025946,106.177735 4.09558378,106.303343 C3.82752973,107.059343 4.05208378,107.984387 4.1720027,108.750952 C4.21667838,109.040909 4.70928649,108.97517 4.68577297,108.680517" id="Fill-41" fill="#FFFFFF"></path>
                    <path d="M10.2174446,109.07953 C10.3714581,108.749661 10.5842554,108.445617 10.708877,108.101661 C10.7911743,107.869226 10.8675932,107.397313 10.5666203,107.274052 C10.2856338,107.156661 10.0258095,107.501791 9.92235,107.711922 C9.75187703,108.058226 9.69897162,108.445617 9.57552568,108.810704 C9.45207973,109.181661 10.049323,109.443443 10.2174446,109.07953" id="Fill-43" fill="#FFFFFF"></path>
                    <path d="M15.9558,110.564061 C16.0322189,110.188409 16.1274486,109.84093 16.0580838,109.458235 C16.0357459,109.340843 15.8852595,109.350235 15.8300027,109.426539 C15.6101514,109.727061 15.5478405,110.073365 15.4584892,110.426713 C15.3761919,110.749539 15.8899622,110.886887 15.9558,110.564061" id="Fill-45" fill="#FFFFFF"></path>
                    <path d="M20.6217041,101.533852 C20.7721905,101.195765 21.0249608,100.781374 20.9943932,100.399852 C20.9826365,100.241374 20.8051095,100.161548 20.6851905,100.271896 C20.4018527,100.530157 20.3007446,100.998548 20.1784743,101.3472 C20.0902986,101.603113 20.5088392,101.78507 20.6217041,101.533852" id="Fill-47" fill="#FFFFFF"></path>
                    <path d="M23.4816527,93.6719217 C23.7297203,93.1272261 24.0941797,92.5191391 24.0471527,91.9016609 C24.0342203,91.7161826 23.8178959,91.6105304 23.6756392,91.7478783 C23.2277068,92.1763565 23.0913284,92.8619217 22.914977,93.4336174 C22.8126932,93.7611391 23.3346932,93.9959217 23.4816527,93.6719217" id="Fill-49" fill="#FFFFFF"></path>
                    <path d="M20.8180419,87.5833043 C20.8909338,87.411913 20.9896905,87.2546087 20.9685284,87.0644348 C20.9555959,86.9576087 20.8521365,86.8777826 20.748677,86.9376522 C20.5829068,87.035087 20.5147176,87.1888696 20.4206635,87.3520435 C20.2678257,87.6138261 20.7040014,87.8497826 20.8180419,87.5833043" id="Fill-51" fill="#FFFFFF"></path>
                    <path d="M8.33342432,85.3249304 C9.0306,85.0971913 9.73012703,84.3200609 9.36096486,83.5523217 C9.30805946,83.4431478 9.1611,83.4912783 9.12582973,83.5840174 C8.93772162,84.0794087 8.73668108,84.6264522 8.1993973,84.8365826 C7.90077568,84.9516261 8.01716757,85.4294087 8.33342432,85.3249304" id="Fill-53" fill="#FFFFFF"></path>
                    <path d="M45.2133122,55.9621957 C45.2932581,55.5971087 45.3649743,55.2355435 45.4120014,54.863413 C45.4543257,54.5358913 45.5330959,54.1696304 45.413177,53.8538478 C45.3637986,53.7223696 45.1909743,53.6871522 45.1110284,53.8139348 C44.9405554,54.0862826 44.9405554,54.4372826 44.9170419,54.7530652 C44.8888257,55.1428043 44.88765,55.5290217 44.8958797,55.9199348 C44.9005824,56.0948478 45.1733392,56.1453261 45.2133122,55.9621957" id="Fill-55" fill="#FFFFFF"></path>
                    <path d="M29.4221068,3.16134783 C28.0289311,4.30708696 26.3594716,5.79913043 24.4936743,7.66917391 C23.6354311,10.0557391 22.7536743,12.4434783 21.6485392,14.7079565 C19.967323,18.1522174 17.6700527,21.317087 15.6114446,24.5418261 C13.7621068,27.4378696 11.9080662,30.3303913 9.88237703,33.1078696 C8.82191757,34.5623478 7.70620135,35.9557826 6.54816081,37.3316087 C6.40707973,37.5006522 6.26717432,37.6732174 6.12726892,37.8446087 C5.69579595,39.4587391 5.33251216,41.0188696 5.08562027,42.3864783 C5.76751216,42.0460435 6.40120135,41.5213043 6.95376892,41.0822609 C8.47509324,39.8731304 9.76951216,38.4538696 11.0263095,36.9782609 C13.5751743,33.978913 15.8207149,30.7330435 18.0321608,27.4813043 C20.3788095,24.0335217 22.9699986,20.6268261 24.9239716,16.9372174 C26.8944041,13.2182609 28.3393095,9.17647826 29.9734986,5.30256522 C30.3649986,4.374 30.0393365,3.61917391 29.4221068,3.16134783" id="Fill-57" fill="#FFFFFF"></path>
                </g>
            </g>
        </g>
    </g>
</svg>