<?xml version="1.0" encoding="UTF-8"?>
<svg width="105px" height="121px" viewBox="0 0 105 121" version="1.1" xmlns="http://www.w3.org/2000/svg" xmlns:xlink="http://www.w3.org/1999/xlink">
    <!-- Generator: Sketch 47 (45396) - http://www.bohemiancoding.com/sketch -->
    <title>Group 14</title>
    <desc>Created with Sketch.</desc>
    <defs>
        <polygon id="path-1" points="0 87.1608712 0 0.828169191 55.4642629 0.828169191 55.4642629 87.1608712"></polygon>
        <polygon id="path-3" points="0.453476643 0.957642857 64.1031544 0.957642857 64.1031544 117.99043 0.453476643 117.99043"></polygon>
        <polygon id="path-5" points="15.2259148 3.85714286 0.16157179 3.85714286 0.16157179 0.905946101 15.2259148 0.905946101"></polygon>
    </defs>
    <g id="Page-1" stroke="none" stroke-width="1" fill="none" fill-rule="evenodd">
        <g id="Lalaland_1-Copy" transform="translate(-148.000000, -4192.000000)">
            <g id="Group-14" transform="translate(148.000000, 4191.000000)">
                <g id="Page-1">
                    <path d="M10.0004857,101.623 C9.94484286,100.706357 9.89798571,99.7897143 9.85405714,98.8730714 C9.81598571,98.0267143 9.78084286,97.1803571 9.74862857,96.334 C11.5204143,96.1436429 13.4298429,96.2080714 15.1928429,96.3867143 C16.0919143,96.4804286 17.0085571,96.6356429 17.8988429,96.8757857 C17.9339857,98.3342143 17.9808429,99.7897143 18.0306286,101.245214 C15.4124857,101.772357 12.6830571,101.713786 10.0004857,101.623 M6.39834286,101.388714 C6.33098571,100.3725 6.26362857,99.3592143 6.19041429,98.3400714 C6.16991429,98.056 6.15234286,97.7719286 6.13184286,97.4849286 C6.69412857,97.2301429 7.25641429,96.9812143 7.8392,96.7791429 C7.86555714,97.5581429 7.9007,98.3371429 7.93877143,99.1190714 C7.97977143,99.9332143 8.02077143,100.747357 8.06762857,101.5615 C7.5727,101.546857 6.97234286,101.508786 6.39834286,101.388714 M6.2607,85.0414286 C6.70877143,84.9096429 7.19784286,84.8569286 7.66055714,84.7427143 C7.66055714,84.8832857 7.66055714,85.0267857 7.65762857,85.1615 C7.6547,85.5978571 7.6547,86.0312857 7.6547,86.4647143 C7.2447,86.4237143 6.83177143,86.3768571 6.42177143,86.3095 C6.12891429,86.2626429 5.83312857,86.2099286 5.5432,86.1513571 C5.53441429,85.8965714 5.52855714,85.6447143 5.51977143,85.3928571 C5.73648571,85.2522857 5.9737,85.1263571 6.2607,85.0414286 M7.68984286,91.3027143 C7.70448571,92.1959286 7.72498571,93.0891429 7.74548571,93.9852857 C7.09827143,94.2810714 6.50962857,94.6793571 5.97955714,95.1537857 C5.88877143,93.7217143 5.80677143,92.2867143 5.73648571,90.8546429 C6.38077143,91.0274286 7.03091429,91.1767857 7.68984286,91.3027143 M17.0905571,92.0436429 C17.3394857,92.0436429 17.5854857,92.0436429 17.8344143,92.0436429 C17.8344143,92.6410714 17.8402714,93.2414286 17.8490571,93.8417857 C17.4127,93.7480714 17.0085571,93.6719286 16.6512714,93.6192143 C14.3816286,93.2853571 11.9509143,93.1067143 9.6637,93.4464286 C9.64612857,92.8343571 9.63148571,92.2222857 9.61977143,91.6102143 C12.1002714,91.9352857 14.6247,92.0202143 17.0905571,92.0436429 M20.1216286,94.4948571 C20.1011286,93.7539286 20.0835571,93.0159286 20.0659857,92.2779286 C20.0630571,92.1637143 20.0630571,92.0495 20.0601286,91.9352857 C20.5140571,91.8972143 20.9650571,91.8445 21.4131286,91.7742143 C21.4219143,92.8665714 21.4424143,93.956 21.4687714,95.0454286 C21.0324143,94.8404286 20.5755571,94.6588571 20.1216286,94.4948571 M20.2094857,97.7572857 C20.3237,97.8158571 20.4408429,97.8685714 20.5521286,97.9300714 C20.8039857,98.0735714 21.2608429,98.3312857 21.5859143,98.6534286 C21.6064143,99.0956429 21.6239857,99.5378571 21.6444857,99.9800714 C21.2842714,100.281714 20.7102714,100.480857 20.3090571,100.6185 C20.2709857,99.6637857 20.2387714,98.7090714 20.2094857,97.7572857 M24.4559143,82.3910714 C22.7632,81.2137857 20.3119857,79.8637143 18.2034143,80.4845714 C17.0524857,80.8184286 16.1094857,82.435 16.9587714,83.5361429 C17.2984857,83.9754286 17.6821286,84.3239286 18.0921286,84.6314286 C17.8724857,85.2786429 17.8490571,85.9844286 17.8519857,86.6872857 C17.7377714,86.6902143 17.6264857,86.6960714 17.5093429,86.6960714 C14.9849143,86.7517143 12.4253429,86.7517143 9.90384286,86.6257857 C9.79841429,86.6199286 9.69005714,86.6140714 9.5817,86.6082143 C9.5817,86.207 9.5817,85.8087143 9.58462857,85.4075 C9.59341429,84.034 9.72227143,82.5082143 9.0692,81.2606429 C8.90812857,80.9560714 8.45127143,80.9765714 8.28434286,81.2606429 C8.1057,81.5710714 7.97977143,81.9078571 7.88605714,82.2592857 C7.20955714,81.9635 6.3632,81.9254286 5.67498571,82.0015714 C5.57834286,82.0132857 5.48462857,82.0308571 5.38798571,82.0425714 C5.30305714,81.2313571 5.12148571,80.4435714 4.69098571,79.6762857 C4.50355714,79.3453571 3.97055714,79.3307143 3.78898571,79.6762857 C3.25891429,80.6778571 3.1447,81.6911429 3.13884286,82.7600714 C2.56777143,83.0558571 2.03184286,83.4277857 1.55155714,83.8875714 C0.3157,85.0795 -0.343228571,86.8102857 0.763771429,88.3243571 C1.39634286,89.1882857 2.40084286,89.7417857 3.4522,90.1488571 C3.57227143,92.2369286 3.71284286,94.3279286 3.87098571,96.416 C3.75677143,96.5272857 3.64255714,96.6473571 3.5342,96.7762143 C2.52677143,97.9886429 2.05234286,99.7194286 2.79912857,101.189571 C3.17105714,101.927571 3.76262857,102.469357 4.45084286,102.870571 C4.63534286,104.624786 4.83448571,106.381929 5.0307,108.136143 C5.19762857,109.6795 5.3792,111.214071 5.6047,112.751571 C5.72184286,113.554 5.8302,114.362286 5.95905714,115.164714 C6.11427143,116.113571 6.50377143,116.804714 6.74977143,117.709643 C6.78784286,117.853143 6.99284286,117.815071 7.00162857,117.6745 C7.05727143,116.804714 7.31205714,116.119429 7.28862857,115.229143 C7.26812857,114.415 7.20955714,113.597929 7.16855714,112.786714 C7.08948571,111.149643 6.96941429,109.521357 6.84348571,107.893071 C6.73512857,106.478571 6.64141429,105.067 6.54477143,103.6525 C6.6707,103.681786 6.7937,103.708143 6.91962857,103.731571 C7.35012857,103.813571 7.78062857,103.883857 8.21405714,103.954143 C8.30777143,105.356929 8.41027143,106.756786 8.53327143,108.159571 C8.79977143,111.269714 9.05748571,114.300786 9.97412857,117.293786 C10.1264143,117.791643 10.8322,117.680357 10.8644143,117.173714 C11.0489143,114.136786 10.7033429,111.184786 10.4573429,108.159571 C10.3519143,106.844643 10.2552714,105.529714 10.1674143,104.217714 C11.2480571,104.334857 12.3345571,104.411 13.4298429,104.434429 C14.9907714,104.469571 16.5751286,104.402214 18.1272714,104.162071 C18.2971286,109.234357 18.8037714,115.065143 19.4861286,119.367214 C19.5183429,119.569286 20.4994143,119.446286 20.5169857,119.200286 C20.8684143,114.262714 20.7366286,108.841929 20.4467,103.658357 C20.9006286,103.526571 21.3633429,103.377214 21.8172714,103.195643 C21.9344143,104.993786 22.0837714,106.789 22.2536286,108.584214 C22.3678429,109.820071 22.5289143,111.050071 22.7192714,112.277143 C22.9301286,113.641857 23.4397,114.918714 23.7559857,116.26 C23.8497,116.646571 24.4324857,116.552857 24.4412714,116.166286 C24.4852,113.864429 24.7048429,111.635786 24.5877,109.319286 C24.4734857,107.032071 24.3709857,104.744857 24.2802,102.457643 C24.2655571,102.144286 24.2597,101.830929 24.2479857,101.517571 C24.4559143,101.254 24.6316286,100.955286 24.7634143,100.627286 C25.3579143,99.1307857 24.9918429,97.9037143 24.1279143,96.9167857 C24.0927714,95.0015 24.0810571,93.0862143 24.0898429,91.1738571 C25.6332,90.6877143 27.1941286,89.8647857 27.5953429,88.3243571 C28.2601286,85.7501429 26.3946286,83.7440714 24.4559143,82.3910714" id="Fill-1" fill="#FFDA00"></path>
                    <path d="M23.6051643,14.4810143 C22.1760214,14.4780857 20.7732357,14.4370857 19.3792357,14.4985857 C17.6513786,13.0167286 15.3993071,12.1205857 12.9275929,12.0766571 C10.3738786,12.0327286 7.20223571,13.0840857 5.96345,15.5001571 C4.94137857,17.4886571 5.79945,22.5463 10.6081643,26.2948714 C10.6023071,26.9098714 10.5935214,27.5219429 10.5525214,28.1252286 C10.5261643,28.5147286 10.4851643,28.8954429 10.4295214,29.2790857 C10.0985929,30.7521571 9.70616429,32.2105857 9.28152143,33.6163 C8.79245,35.2475143 10.8805214,35.9884429 11.8293786,34.9400143 C12.1427357,35.1801571 12.5380929,35.3236571 12.9275929,35.3529429 C13.3932357,35.4818 13.9028071,35.4466571 14.32745,35.2328714 C15.1240214,35.3763714 16.54145,36.9958714 16.6995929,36.1729429 C16.9660929,34.7730857 16.0640929,31.4169429 15.78295,30.0522286 C15.76245,29.9555857 15.7448786,29.8560143 15.7273071,29.7593714 C15.7126643,29.3259429 15.6833786,28.8925143 15.6365214,28.4620143 C16.9426643,28.6640857 18.26345,28.5820857 19.4641643,28.0344429 C21.9300214,26.9186571 22.8905929,24.1248 22.7822357,21.5652286 C22.7412357,20.5812286 22.5596643,19.6411571 22.26095,18.7625857 C22.7851643,18.3438 23.34745,17.9748 24.0385929,17.6936571 C25.6580929,17.0435143 25.5848786,14.4868714 23.6051643,14.4810143" id="Fill-3" fill="#FFDA00"></path>
                    <path d="M44.4428286,65.8338071 C44.4194,65.4413786 41.3239,63.4645929 41.0427571,63.1336643 C40.4658286,62.4513071 39.8010429,61.7718786 39.3910429,60.9606643 C38.7086857,59.6076643 38.8961143,57.6250214 40.6005429,57.1125214 C41.3795429,56.8782357 41.7954,57.75095 41.4820429,58.3923071 C41.3063286,58.7583786 41.4293286,59.1303071 41.6811857,59.4817357 C41.5289,58.3571643 41.7719714,57.7685214 43.0195429,57.2882357 C43.4207571,57.1330214 43.6755429,57.6513786 43.4939714,57.97645 C42.9082571,59.0278071 44.3608286,59.4026643 44.9816857,59.9180929 C45.6845429,60.5038071 46.3229714,61.0895214 46.7769,61.9065929 C47.6437571,63.4675214 47.7696857,65.5350929 47.2103286,67.2951643 C46.4957571,69.5648071 44.6273286,69.1782357 44.4428286,65.8338071" id="Fill-5" fill="#FFDA00"></path>
                    <g id="Group-9" transform="translate(0.000000, 33.185507)">
                        <mask id="mask-2" fill="white">
                            <use xlink:href="#path-1"></use>
                        </mask>
                        <g id="Clip-8"></g>
                        <path d="M54.1607071,80.4165214 C53.8942071,80.3110929 48.5759214,78.1146643 48.1014929,78.1410214 C48.0341357,77.8510929 47.9287071,77.5113786 47.8935643,77.4088786 C47.8701357,77.3298071 47.8349929,77.2595214 47.79985,77.1863071 C48.0282786,77.0662357 48.2449929,76.91395 48.43535,76.7235929 C49.2846357,75.8743071 49.2084929,74.76145 49.1294214,73.6632357 C48.98885,71.7215929 48.8541357,69.7770214 48.7135643,67.8353786 C48.4324214,63.9228071 48.1132071,59.8843071 46.8949214,56.1357357 C45.9519214,53.2481643 45.7410643,51.9068786 43.2869214,48.8113786 C42.8154214,48.2080929 40.8649929,46.6823071 40.2294929,46.2371643 C36.5512071,43.6512357 35.2889929,42.5120214 31.62535,41.3786643 C29.8945643,40.8456643 27.44335,39.9875929 25.6715643,39.6508071 C24.1135643,39.3550214 21.7765643,38.3915214 20.2917786,37.9112357 C19.9432786,37.79995 18.2622786,27.52945 17.3485643,22.1233071 C17.1992071,21.2476643 18.5024214,26.0065929 19.3312071,28.3758071 C20.0077071,30.3057357 21.96985,33.45395 22.1484929,33.63845 C23.4517071,34.9680214 26.6819214,34.7776643 28.3102071,34.2885929 C30.2694214,33.69995 31.97385,32.5841643 33.7602786,31.6353071 C35.3797786,30.7743071 37.0197786,29.9982357 38.75935,29.4125214 C40.6834214,28.7653071 44.4642071,29.0991643 44.9796357,26.7328786 C45.2402786,25.5438786 43.7877071,23.88045 42.7509929,23.3620929 C41.6176357,22.79395 40.3261357,22.9960214 39.1400643,23.2947357 C37.1310643,23.79845 35.5144929,24.8498071 33.6665643,25.7752357 C31.8596357,26.6801643 29.8945643,27.7022357 28.2194214,28.8180214 C28.1491357,28.8648786 28.0817786,28.9088071 28.0114929,28.9527357 C27.5487786,25.2070929 26.76685,21.4995214 25.70085,17.8798071 C24.4415643,13.6011643 22.8454929,9.15852143 20.5260643,5.32795 C18.3296357,1.69652143 14.8680643,0.785735714 10.24385,0.829664286 C7.76335,0.856021429 5.22720714,2.43159286 3.75413571,4.22387857 C1.38492143,7.10852143 0.283778571,10.3065214 0.0612071429,14.0228786 C-0.155507143,17.7158071 0.245707143,21.4878071 0.515135714,25.1690214 C0.802135714,29.0991643 1.19163571,33.0146643 1.59577857,36.9330929 C2.01163571,40.9920929 2.24006429,45.1272357 2.90777857,49.1540214 C3.53156429,52.8908786 6.58606429,54.8735214 10.1237786,55.5353786 C13.74935,56.2118786 17.4422786,55.8048071 21.1000643,56.1123071 C23.7972786,56.3407357 27.6424929,56.5633071 29.43185,58.9032357 C31.6224214,61.7732357 31.2212071,65.8263786 31.4349929,69.2118071 C31.6809929,73.0863071 32.5449214,77.0457357 35.39735,79.8630214 C35.5672071,80.0563071 35.7634214,80.2203071 35.9772071,80.3491643 C36.0211357,81.7402357 35.93035,83.1108071 35.6374929,84.47845 C35.35635,85.7728786 36.2027071,86.7568786 37.46785,86.8828071 C39.3509214,87.0673071 41.1754214,86.3937357 43.0467786,86.52845 C45.01185,86.67195 46.7016357,87.4597357 48.7106357,87.0380214 C50.3184214,86.6983071 50.66985,85.3628786 49.82935,84.29395 C49.7707786,84.2207357 49.7122071,84.1475214 49.6565643,84.0743071 C49.0854929,83.3450929 46.13935,82.9907357 45.5067786,82.8648071 C45.0264929,82.6217357 44.5374214,82.3815929 44.0307786,82.1268071 C42.8534929,81.5381643 41.5824929,80.89095 40.5516357,80.00945 C41.6117786,79.7048786 42.4522786,78.8292357 42.3790643,77.4293786 C42.1242786,72.7231643 41.8665643,67.99645 41.4536357,63.2990214 C41.0641357,58.8768786 39.8604929,54.8178786 36.5336357,51.7018786 C33.6372786,48.9900214 30.0322071,47.4027357 26.3919929,45.9472357 C24.8457071,45.3322357 24.3156357,44.7230929 22.7254214,43.9938786 C22.1104214,43.7127357 21.8556357,43.0830929 22.1250643,42.9483786 C22.6902786,42.6613786 23.8822071,43.4228071 24.4269214,43.7508071 C26.4944929,45.0013071 28.2545643,45.7920214 30.1815643,46.6003071 C33.2302071,47.8742357 36.6214929,49.0398071 39.0024214,51.4236643 C39.0199929,51.4383071 39.0346357,51.4588071 39.0522071,51.4763786 C39.8224214,52.5218786 40.46085,53.6640214 40.9206357,54.8793786 C42.2384929,58.3555929 42.4112786,62.0983071 42.7685643,65.7590214 C42.9530643,67.6303786 43.0174929,69.2205929 43.0174929,71.1036643 C43.0174929,72.8373786 43.4216357,74.2343071 43.76135,75.8713786 C44.1947786,77.9770214 43.78185,78.8555929 43.7994214,79.6638786 C43.82285,80.8587357 44.5725643,81.8222357 45.7410643,82.0653071 C46.7924214,82.2820214 49.00935,81.81345 50.0402071,82.22345 C51.1969929,82.6861643 51.9437786,83.7697357 53.1444929,84.0977357 C55.56935,84.7625214 56.38935,81.30095 54.1607071,80.4165214" id="Fill-7" fill="#00E07D" mask="url(#mask-2)"></path>
                    </g>
                    <g id="Group-12" transform="translate(40.071429, 0.971221)">
                        <mask id="mask-4" fill="white">
                            <use xlink:href="#path-3"></use>
                        </mask>
                        <g id="Clip-11"></g>
                        <path d="M63.6292857,44.8118286 C62.7155714,44.0181857 61.6085714,43.6755429 60.5572143,43.1044714 C59.6669286,42.6241857 58.7912857,42.0824 58.0005714,41.4556857 C56.3078571,40.1144 54.8582143,38.4773286 53.7482857,36.6294 C52.4831429,34.5237571 51.7685714,32.1984714 50.9837143,29.8878286 C50.1256429,27.3634 49.0596429,24.8829 47.8677143,22.4931857 C43.51,13.7689714 36.4492143,5.58361429 26.9928571,2.35632857 C24.2341429,1.41332857 21.2704286,0.962328571 18.3535714,0.956471429 C16.8043571,0.953542857 15.2961429,1.13218571 13.7820714,1.48361429 C12.3441429,1.81454286 10.7246429,2.1484 9.71135714,3.29932857 C9.1725,3.9114 9.36285714,4.90711429 10.2004286,5.1414 C10.2824286,5.16482857 10.3673571,5.18532857 10.4552143,5.2029 C10.9501429,7.04497143 24.1550714,36.2311143 25.9415,40.3340429 C26.8054286,42.3225429 27.7132857,44.2964 28.6533571,46.2526857 C28.9052143,46.7769 29.1541429,47.3128286 29.4030714,47.8458286 C27.2271429,47.5734714 25.0687857,47.0141143 22.8577143,47.1166143 C19.5132857,47.2689 15.9843571,47.9219714 12.8478571,49.0787571 C11.489,49.5795429 11.5505,51.2664 12.8478571,51.7876857 C12.883,51.8023286 12.9210714,51.8111143 12.9562143,51.8257571 C12.9269286,51.9136143 12.883,52.0073286 12.8800714,52.1069 C12.7570714,58.3740429 12.8566429,59.3082571 12.9181429,61.9293286 C12.6311429,63.2032571 12.8068571,67.5375429 13.0265,67.6810429 C11.9136429,67.7630429 10.8007857,67.8479714 9.68792857,67.9358286 C7.58228571,68.1056857 5.37121429,68.2052571 3.26264286,68.5859714 C3.18357143,68.4688286 3.10742857,68.3487571 3.02542857,68.2228286 C2.46607143,67.3794 1.33271429,67.5902571 0.987142857,68.4893286 C0.697214286,69.2449 0.483428571,69.8306143 0.454142857,70.6476857 C0.430714286,71.3769 1.02814286,72.2613286 1.78371429,72.3931143 C4.36671429,72.8470429 7.07271429,72.7562571 9.68792857,72.7562571 C11.3689286,72.7562571 13.0528571,72.7445429 14.7397143,72.7240429 C14.6723571,74.0214 14.2711429,76.3789 14.277,77.6821143 C14.2857857,79.8492571 14.1745,81.5917571 14.4,83.7501143 C14.6108571,85.7239714 15.3078571,87.2790429 16.2772143,89.0449714 C16.5964286,89.6277571 17.0269286,90.0934 17.5130714,90.4301857 C17.4632857,91.0510429 17.4808571,91.6865429 17.475,92.3044714 C17.4603571,94.0938286 17.4427857,95.8831857 17.4310714,97.6754714 C17.4164286,99.4091857 17.4427857,101.134114 17.7356429,102.847329 C17.967,104.206186 18.4092143,106.118543 19.6099286,106.976614 C19.2292143,107.3749 19.1618571,109.758757 19.1032857,110.353257 C18.8250714,113.111971 19.1120714,115.481186 20.8604286,117.598543 C21.4754286,118.339471 22.9514286,117.967543 23.1066429,117.004043 C23.4229286,115.065329 23.4258571,113.132471 23.1417857,111.1879 C22.9309286,109.744114 22.6146429,108.312043 21.6130714,107.284114 C21.6218571,107.278257 21.6335714,107.2724 21.6423571,107.263614 C22.4447857,106.932686 23.0275714,106.092186 23.0656429,105.096471 C23.1066429,104.0334 23.3819286,98.3578286 23.4346429,96.5948286 C23.5078571,94.2900429 23.3819286,91.5986857 22.354,89.4315429 C22.3481429,89.3846857 22.3422857,89.3378286 22.3364286,89.2880429 C24.5504286,86.5586143 24.5416429,82.5171857 24.0847857,79.2108286 C23.7948571,77.1198286 23.3760714,75.0464 22.7845,73.0198286 C22.7405714,72.8734 22.6966429,72.7211143 22.6556429,72.5688286 C25.9180714,72.4780429 29.1805,72.3667571 32.4429286,72.2642571 C37.4625,72.1031857 57.3240714,71.5379714 58.6038571,71.6199714 C60.1735714,71.7224714 61.4621429,71.8396143 62.7038571,70.6769714 C63.4447857,69.9829 64.8358571,45.8602571 63.6292857,44.8118286" id="Fill-10" fill="#000000" mask="url(#mask-4)"></path>
                    </g>
                    <path d="M9.87748571,31.52325 C8.94327143,32.0269643 7.0192,34.0564643 6.86984286,34.9203929 C6.72048571,35.7813929 12.4048429,33.3653214 16.6981286,36.1708929 C20.9914143,38.9793929 21.8026286,41.2929643 22.1072,40.7716786 C22.4117714,40.2474643 20.8684143,35.0990357 16.9880571,32.9523929 C14.5661286,31.6111071 11.5994857,30.5890357 9.87748571,31.52325" id="Fill-13" fill="#00E07D"></path>
                    <path d="M39.3807929,62.4319786 C38.9385786,62.0454071 40.3647929,61.0789786 41.43665,59.76405 C42.5114357,58.45205 43.3900071,56.7329786 44.16315,57.5441929 C45.4019357,58.8356929 46.6319357,59.5356214 46.1340786,60.4434786 C45.63915,61.3542643 42.9272929,63.4042643 41.88765,63.78205 C40.8509357,64.1627643 39.9225786,62.90055 39.3807929,62.4319786" id="Fill-15" fill="#00E07D"></path>
                    <g id="Group-19" transform="translate(35.142857, 117.185507)">
                        <mask id="mask-6" fill="white">
                            <use xlink:href="#path-5"></use>
                        </mask>
                        <g id="Clip-18"></g>
                        <path d="M0.3854,0.985092857 C-1.18138571,3.19616429 5.9614,3.49195 6.79897143,3.57102143 C8.33061429,3.71452143 15.2654714,4.73952143 15.1541857,1.77580714 C15.1424714,1.41266429 15.3884714,0.82695 15.0311857,0.914807143 C14.5743286,1.02609286 14.9784714,1.13737857 13.9095429,1.77580714 C13.3736143,2.09795 12.1641143,2.25023571 11.5549714,2.24437857 C10.5241143,2.23266429 9.48447143,2.09795 8.45947143,2.03352143 C7.26168571,1.96030714 6.06097143,1.88416429 4.86025714,1.82559286 C3.97875714,1.77873571 0.953542857,2.12430714 0.663614286,1.02023571 C0.625542857,0.885521429 0.455685714,0.882592857 0.3854,0.985092857" id="Fill-17" fill="#000000" mask="url(#mask-6)"></path>
                    </g>
                    <path d="M45.4780786,115.179064 C46.8545071,115.969779 48.6965786,115.94635 50.2165071,116.368064 C51.0013643,116.587707 51.6954357,117.035779 52.4802929,117.249564 C53.2300071,117.457493 53.8127929,117.759136 54.5449357,117.475064 C54.86415,117.349136 54.8319357,116.915707 54.5039357,116.795636 C52.97815,116.242136 51.6105071,115.630064 50.3687929,115.35185 C48.8225071,115.00335 47.8385071,114.92135 46.2482929,114.96235 C46.1047929,114.968207 45.4780786,115.179064 45.4780786,115.179064" id="Fill-20" fill="#000000"></path>
                    <path d="M35.7399929,61.6471214 C35.7429214,61.6646929 35.74585,61.6822643 35.7517071,61.6969071 C35.82785,61.8901929 35.8249214,61.8638357 35.7487786,61.6149071 C35.7312071,61.7408357 35.8044214,61.8901929 35.8805643,61.9839071 C35.9654929,62.0951929 36.0621357,62.1508357 36.1939214,62.2006214 C36.2876357,62.2386929 36.3959929,62.2416214 36.4955643,62.2269786 C36.5775643,62.22405 36.6537071,62.1976929 36.7239929,62.1537643 C36.6214929,62.1947643 36.5980643,62.2064786 36.6566357,62.1889071 C36.9202071,62.1127643 37.0666357,61.8872643 37.0871357,61.6266214 C37.0871357,61.6178357 37.0871357,61.60905 37.0900643,61.6002643 L37.0197786,61.85505 C37.0461357,61.8052643 37.0695643,61.7496214 37.0900643,61.6969071 C37.20135,61.3952643 36.91435,61.1199786 36.6390643,61.1024071 C36.6214929,61.1024071 36.6039214,61.0994786 36.58635,61.0994786 C36.7327786,61.1814786 36.8762786,61.2664071 37.0197786,61.3454786 C36.95535,61.26055 36.8997071,61.1726929 36.7972071,61.1199786 C36.7532786,61.0994786 36.7034929,61.0819071 36.6566357,61.0614071 C36.4692071,61.0379786 36.4516357,61.03505 36.6009929,61.05555 C36.68885,61.1053357 36.7767071,61.15805 36.8645643,61.2078357 C36.7591357,61.1229071 36.6537071,61.0438357 36.5189929,61.0262643 C36.2495643,60.9881929 35.9772071,61.0496929 35.8307786,61.3074071 L35.82785,61.3103357 C35.9420643,61.2224786 36.0592071,61.1346214 36.1734214,61.0438357 C36.1646357,61.0496929 36.1499929,61.05555 36.1382786,61.0614071 L36.4194214,61.0614071 C36.3959929,61.05555 36.3725643,61.0496929 36.3491357,61.0379786 C36.1909929,60.97355 35.9801357,61.0526214 35.86885,61.1668357 C35.7341357,61.2986214 35.7077786,61.4684786 35.7399929,61.6471214" id="Fill-22" fill="#330800"></path>
                    <path d="M21.3000857,72.6521071 C22.0439429,72.6081786 22.8873714,72.5203214 23.6663714,72.2860357 C22.4656571,71.88775 21.2005143,71.3986786 20.2663,71.0970357 C20.2311571,71.0853214 20.1755143,70.9564643 20.1110857,70.7280357 C19.0333714,70.6196786 17.9908,70.37075 16.9423714,70.00175 C16.2160857,69.7469643 15.5073714,70.5318214 15.7123714,71.2288214 C16.7754429,74.86025 16.6788,78.6966786 15.4868714,82.2900357 C14.8982286,84.0501071 14.0372286,85.6754643 12.9917286,87.2041786 C12.6432286,87.71375 12.1951571,88.3433929 11.6709429,88.9496071 C12.4206571,89.0316071 13.1733,89.0813929 13.9259429,89.1106786 C15.1559429,87.6405357 16.1282286,85.9946786 16.8691571,84.2141071 C18.4213,80.4801786 18.8342286,76.33625 18.0493714,72.3856071 C19.1183,72.6140357 20.2194429,72.7136071 21.3000857,72.6521071" id="Fill-24" fill="#00E07D"></path>
                    <path d="M14.2934786,13.4741714 C14.3081214,13.4741714 14.3081214,13.4507429 14.2934786,13.4507429 C14.2788357,13.4507429 14.2788357,13.4741714 14.2934786,13.4741714" id="Fill-26" fill="#330800"></path>
                    <path d="M17.6138929,13.9076 C18.2406071,14.1418857 18.7560357,13.4536714 18.6301071,12.8943143 C17.8950357,9.64067143 13.6661786,9.66117143 11.05975,9.64945714 C8.02867857,9.64067143 3.55967857,8.89681429 1.78496429,12.0684571 C0.962035714,13.5356714 2.02803571,15.0761 3.58603571,15.2108143 C4.13953571,15.2576714 4.72232143,15.3748143 5.25825,15.5622429 C4.92146429,15.8111714 4.58760714,16.0718143 4.28889286,16.3529571 C3.26975,17.3223143 2.61667857,18.7163143 2.98275,20.1337429 C3.31953571,21.4516 4.09560714,22.0812429 5.05910714,22.3243143 C4.91560714,23.1736 4.97125,24.0082429 5.36953571,24.7667429 C6.67275,27.2413857 10.9631071,27.3556 11.5400357,24.2278857 C11.6923214,23.4166714 11.5019643,22.7870286 11.0246071,22.2540286 C11.3086786,21.5951 11.7508929,20.8834571 11.9939643,20.4236714 C12.7876071,18.9271714 12.1286786,17.2373857 10.8459643,16.5316 C11.0538929,15.7116 10.9894643,14.8388857 10.5794643,14.0452429 C10.4301071,13.7641 10.2514643,13.5063857 10.05525,13.2691714 C10.5443214,13.2369571 11.0333929,13.2047429 11.5195357,13.1696 C13.6691071,13.0143857 15.59025,13.1461714 17.6138929,13.9076" id="Fill-28" fill="#000000"></path>
                    <path d="M18.9320429,16.4472571 C18.8149,16.2803286 18.5718286,16.3037571 18.5044714,16.5029 C18.2643286,17.2174714 18.3199714,17.9876857 17.5116857,18.3391143 C16.6389714,18.7198286 15.7838286,18.1224 15.8424,17.1735429 C15.8511857,16.9949 15.5934714,16.9744 15.5466143,17.1325429 C15.1717571,18.2776143 16.2611857,19.3231143 17.3886857,19.1796143 C18.5074,19.0361143 19.7051857,17.5337571 18.9320429,16.4472571" id="Fill-30" fill="#000000"></path>
                    <path d="M22.3010714,18.9011071 C22.3655,18.8601071 22.4299286,18.8191071 22.4885,18.77225 C22.5734286,18.71075 22.6290714,18.6258214 22.6847143,18.5379643 C22.9131429,18.1660357 22.4562857,17.7150357 22.0843571,17.9405357 C21.9965,17.99325 21.9145,18.0488929 21.853,18.1308929 C21.8032143,18.1923929 21.7622143,18.2568214 21.7212143,18.3183214 C21.4898571,18.6726786 21.9496429,19.1295357 22.3010714,18.9011071" id="Fill-32" fill="#000000"></path>
                    <path d="M22.5728429,22.2871214 C21.9842,22.6912643 21.5712714,23.2594071 20.8391286,23.4439071 C19.8697714,23.6869786 18.8769857,23.2594071 18.2942,22.4774786 C18.1770571,22.3193357 17.9369143,22.4511214 18.0247714,22.6356214 C18.5284857,23.6606214 19.5271286,24.3546929 20.6985571,24.2814786 C21.6767,24.2199786 22.8598429,23.5551929 22.9359857,22.49505 C22.9477,22.3193357 22.7192714,22.18755 22.5728429,22.2871214" id="Fill-34" fill="#000000"></path>
                    <path d="M43.5791929,69.9264857 C45.1371929,70.3364857 46.88555,70.1695571 48.4786929,70.0729143 C49.9019786,69.9879857 51.7528357,70.1022 53.0296929,69.4139857 C53.3547643,69.2382714 53.2874071,68.6935571 52.9213357,68.6086286 C51.4892643,68.2806286 49.6969786,68.8077714 48.2356214,68.9366286 C46.7039786,69.0713429 45.0669071,69.0303429 43.5791929,69.4491286 C43.3478357,69.5164857 43.3419786,69.8649857 43.5791929,69.9264857" id="Fill-36" fill="#FFFFFF"></path>
                    <path d="M54.4983714,6.4702 C56.2760143,5.81127143 58.0478,6.01627143 59.8810857,6.31498571 C61.7407286,6.61955714 63.6091571,6.95927143 65.4073,7.5362 C67.0092286,8.05162857 68.5379429,8.75155714 69.9085143,9.74141429 C71.2673714,10.7224857 72.2660143,11.9788429 73.3905857,13.1942 C73.6190143,13.4402 73.9587286,13.1737 73.9089429,12.8925571 C73.2998,9.28748571 69.1646571,7.09398571 66.0310857,6.11877143 C63.9547286,5.47448571 61.7934429,5.15234286 59.6409429,4.90634286 C57.7842286,4.69548571 55.7898714,4.65155714 54.2084429,5.79077143 C53.8980143,6.01627143 54.0708,6.62834286 54.4983714,6.4702" id="Fill-38" fill="#FFFFFF"></path>
                    <path d="M75.05255,15.7007643 C75.1404071,15.56605 75.1521214,15.5426214 75.0876929,15.6304786 C75.0437643,15.6773357 75.0144786,15.7329786 74.9998357,15.7944786 C74.9822643,15.8559786 74.9734786,15.91455 74.9734786,15.9789786 C74.9734786,16.07855 74.9881214,16.18105 75.01155,16.2747643 C75.0701214,16.5002643 75.2282643,16.6876929 75.44205,16.7784786 C75.6177643,16.85755 75.7934786,16.8692643 75.9604071,16.7433357 C76.0921929,16.6379071 76.1917643,16.42705 76.1244071,16.2542643 C76.1156214,16.2337643 76.0746214,16.1078357 76.0658357,16.1107643 C76.07755,16.1078357 76.1039071,16.2044786 76.0892643,16.1283357 C76.0746214,16.0463357 76.01605,15.9614071 75.9779786,15.8881929 C75.9691929,15.87355 75.9399071,15.8003357 75.9662643,15.8676929 C75.9896929,15.9379786 75.9662643,15.8589071 75.9633357,15.8442643 C75.9457643,15.7944786 75.9252643,15.7417643 75.8989071,15.6949071 C75.8842643,15.6714786 75.7671214,15.4928357 75.8491214,15.6304786 C75.8696214,15.7036929 75.8901214,15.7769071 75.9106214,15.85305 C75.9076929,15.8413357 75.9076929,15.8266929 75.9047643,15.8179071 C75.8871929,15.5982643 75.7554071,15.4196214 75.5299071,15.3903357 C75.3249071,15.36105 75.1052643,15.4899071 75.05255,15.7007643" id="Fill-40" fill="#FFFFFF"></path>
                    <path d="M59.6749143,100.381871 C59.4230571,101.565014 59.1829143,103.404157 60.0527,104.394014 C60.1493429,104.5053 60.3397,104.414514 60.3397,104.273943 C60.3338429,103.732157 60.0966286,103.225514 59.9882714,102.698371 C59.8418429,101.951586 59.8125571,101.201871 59.9150571,100.449229 C59.9355571,100.294014 59.7100571,100.2208 59.6749143,100.381871" id="Fill-42" fill="#FFFFFF"></path>
                </g>
            </g>
        </g>
    </g>
</svg>