<?xml version="1.0" encoding="UTF-8"?>
<svg width="65px" height="143px" viewBox="0 0 65 143" version="1.1" xmlns="http://www.w3.org/2000/svg" xmlns:xlink="http://www.w3.org/1999/xlink">
    <!-- Generator: Sketch 47 (45396) - http://www.bohemiancoding.com/sketch -->
    <title>Group 17</title>
    <desc>Created with Sketch.</desc>
    <defs>
        <polygon id="path-1" points="1.90161502e-15 34.266433 1.90161502e-15 0.340265426 45.2601359 0.340265426 45.2601359 34.266433"></polygon>
        <polygon id="path-3" points="23.6836826 0.11239094 23.6836826 16.8441359 0.913771787 16.8441359 0.913771787 0.11239094 23.6836826 0.11239094"></polygon>
        <polygon id="path-5" points="23.795558 6.07978723 0.730278795 6.07978723 0.730278795 0.000253324468 23.795558 0.000253324468 23.795558 6.07978723"></polygon>
    </defs>
    <g id="Page-1" stroke="none" stroke-width="1" fill="none" fill-rule="evenodd">
        <g id="Lalaland_1-Copy" transform="translate(-928.000000, -3955.000000)">
            <g id="Group-17" transform="translate(960.500000, 4027.000000) scale(-1, 1) translate(-960.500000, -4027.000000) translate(928.000000, 3955.000000)">
                <g id="Page-1">
                    <path d="M24.3658399,105.53846 C24.3112172,103.75372 23.7445069,97.6365918 23.8446485,93.4221081 C23.6398134,90.6848899 23.6398134,91.736777 23.6398134,90.6848899 C23.6398134,89.0434838 21.461734,89.4203137 17.6495259,85.148034 C16.6048671,83.9759313 14.6088633,81.0190883 14.2265045,82.4686118 C13.6211031,84.7712041 13.4139921,90.6201584 13.750832,92.9874822 C14.0489808,95.0866327 14.6748657,97.1326108 15.3166822,99.1439113 C16.652662,103.321406 17.2079926,105.85287 20.838125,109.436221 C23.2369711,111.801233 26.0910063,113.928126 25.6176097,111.183972 C25.4469138,110.185257 24.5570193,106.532551 24.3658399,105.53846" id="Fill-1" fill="#FFDA00"></path>
                    <path d="M59.0211202,111.610661 C58.5640776,111.610661 58.1675259,111.726256 57.835946,111.920456 C56.7493496,111.088171 54.9727084,110.972576 53.780813,110.956393 C52.3357518,110.937898 51.1819432,111.851099 51.3566948,113.212809 C51.8675071,117.21471 52.8488045,118.144095 53.2162309,119.452631 C53.6710331,121.08021 55.3468561,121.040907 56.1802867,120.039854 C56.3729615,120.536913 56.5589151,121.038595 56.7179839,121.547214 C56.7112627,121.884751 56.7090223,122.219977 56.7135031,122.552891 C56.7269455,123.84062 56.8277637,125.142221 56.9353032,126.425326 C57.0406022,127.689936 57.045083,129.125627 57.8023399,130.184478 C58.1518431,130.674601 58.9561485,130.979772 59.4131911,130.397173 C60.2197369,129.368377 60.3519208,128.166188 60.5199511,126.885394 C60.7014239,125.525996 60.8716947,124.138855 60.9590705,122.767898 C61.1271009,120.148513 61.4004303,117.37192 61.8709153,114.791837 C62.1644084,113.180442 60.7171068,111.610661 59.0211202,111.610661" id="Fill-3" fill="#FFDA00"></path>
                    <path d="M54.9911302,133.980864 C54.6576654,133.627581 54.1908146,133.384412 53.6986665,133.28118 C54.2667066,133.164183 54.8002503,132.893486 55.2556023,132.439264 C56.2628961,131.436766 56.5227687,129.723112 55.7661485,128.498091 C51.8174649,122.113757 49.6878895,114.834744 49.5062086,107.489204 C49.407319,103.522796 49.7430836,100.304247 50.6583871,96.6062429 C50.8354684,95.8905001 51.1896311,94.5691288 51.3483144,94.2250216 C51.7622707,93.3372253 52.2705171,92.887592 52.9098497,92.0961456 C54.2851047,90.3870802 55.3475926,88.6023113 56.1433087,86.5560209 C56.9436243,84.4936723 57.3437821,82.2340355 57.3759787,80.0225737 C57.4127748,77.6138239 57.1322044,75.1247824 55.8006448,73.078492 C55.011828,71.869529 53.5698801,71.1996671 52.1371312,71.5919493 C51.2793216,71.8259421 50.4054138,72.5485671 49.9891577,73.4248932 C49.9408628,73.3996587 49.8902681,73.3767182 49.8396735,73.3537777 C49.5522038,73.2344873 49.2256382,73.1496075 48.8898736,73.1083146 C48.5426102,71.9681731 47.7054985,70.9633803 46.486627,70.6858005 C45.0607774,70.3623398 43.8373064,70.8326196 42.9105042,71.8282362 C42.7265236,71.7410624 42.5287444,71.6699469 42.3171667,71.6217719 C41.8342177,71.5139517 41.3144725,71.5024814 40.8085258,71.5850671 C40.1484954,70.4999827 38.8882283,69.9264708 37.6624576,69.9677637 C37.3588896,68.825328 36.4504854,67.7907126 35.2868081,67.5268971 C34.6198784,67.373196 33.8448602,67.4121948 33.1503334,67.6530698 C32.699581,66.941915 31.9958552,66.3798734 31.2001391,66.1986437 C30.5286099,66.0449425 29.730594,66.0862353 29.0245685,66.3385806 C28.4450296,65.6756008 27.6286157,65.2351437 26.7202115,65.2282616 C26.563828,63.6568391 25.1379784,62.3813487 23.5442464,62.3813487 C22.27708,62.3813487 21.3088821,63.074151 20.7822377,64.0651795 C20.8949258,63.5765474 21.0766066,63.0970915 21.3709756,62.6199296 C22.1344951,61.3765559 20.4464731,60.2157678 19.4184815,61.1196226 C19.2391004,61.2802059 19.0689184,61.4453773 18.9102351,61.6174309 C18.5054778,61.3444392 17.9811331,61.2733237 17.5349801,61.5990785 C16.2793125,62.5098153 15.6928744,64.0766497 15.1156353,65.4737247 C14.4763027,67.0245007 14.037049,68.5913352 13.8047735,70.2522255 C13.3563208,73.4088349 13.5747977,76.5837966 14.7890697,79.554588 C15.8630564,82.1881545 17.498184,84.5969044 19.7404475,86.3793793 C20.9248226,87.3199387 22.1551929,88.056328 23.558045,88.6252517 C23.7696227,88.7101315 24.0685911,88.8615386 24.3744589,88.9877112 C24.3583606,89.4006398 24.4181543,89.8732136 24.4158545,90.2264969 C24.3744589,97.3173976 24.4572501,104.527589 26.1590707,111.4602 C27.7712007,118.025764 31.6600906,123.439716 36.0296298,128.477444 C38.1753035,130.952722 40.4106678,134.109331 43.7982106,134.680549 C43.3405588,134.962717 42.9473003,135.364175 42.6046364,135.857395 C42.2136776,136.426319 42.1515842,137.187943 42.3401643,137.883039 C41.3581679,138.103268 40.3738717,138.318908 39.3872757,138.51849 C38.6076579,138.674485 37.8257404,138.81901 37.0461226,138.972712 C36.1653155,139.144765 35.4546904,139.475108 34.6152789,139.736629 C33.4516016,140.096795 33.4171053,141.776038 34.6152789,142.124733 C35.4914865,142.377078 36.1837135,142.645482 37.108216,142.748714 C37.9844236,142.845064 38.8928278,142.87718 39.7782345,142.874886 C41.5444482,142.874886 43.2922639,142.707421 45.0400796,142.441311 C48.4506199,141.925151 51.7231748,140.947887 54.9221375,139.665514 C56.860833,138.885538 57.4748683,136.848424 56.1019131,135.20818 C55.7477504,134.783781 55.3682904,134.384617 54.9911302,133.980864" id="Fill-5" fill="#FFDA00"></path>
                    <g id="Group-9">
                        <mask id="mask-2" fill="white">
                            <use xlink:href="#path-1"></use>
                        </mask>
                        <g id="Clip-8"></g>
                        <path d="M45.2312997,32.5815798 C44.8847604,30.7730457 45.2245048,33.1036309 43.7998434,32.3508519 C42.2823186,31.5514612 38.6855583,27.7829051 37.1997429,26.918258 C34.3390954,25.2542202 30.7672496,22.1615338 28.0085254,20.3250327 C22.4661623,16.6357165 19.2023515,13.7947332 13.0892179,9.35263803 C11.5377186,8.22696543 9.29993573,6.73072979 7.88433421,5.43259388 C6.87416097,4.50502101 5.21167854,3.4888859 5.04407133,2.85496676 C4.75189117,1.75493059 4.24453959,0.307637234 3.70547853,0.340265426 C2.90594679,0.389207713 2.48466378,1.12800319 2.31705656,1.8155258 C2.24457777,1.88311277 2.18115882,1.971675 2.13359461,2.08354309 C1.97957716,2.44478378 0.582095344,5.53747021 0.287650228,6.40677846 C-0.0113248121,7.28773963 -0.271795491,8.54858617 0.557180757,8.31319707 C2.00222679,7.90068351 2.88329717,7.83309654 3.39291372,7.42291356 C3.68282891,7.87970824 7.20711044,9.49014255 12.1356687,12.8508463 C22.3710339,19.8286181 40.4771435,31.7332468 41.657189,32.3508519 C43.3876203,33.2621106 42.7579607,34.9914048 44.6967685,33.9356497 C45.1769406,33.6746242 45.330958,33.0896473 45.2312997,32.5815798" id="Fill-7" fill="#FFDA00" mask="url(#mask-2)"></path>
                    </g>
                    <path d="M12.8310056,10.6631616 C11.2326165,10.4892118 9.41222901,11.307668 8.16436388,12.1907979 C6.75759457,13.1809739 5.61254978,14.4164637 4.96992261,15.9820122 C3.74776256,18.9436196 5.21295252,21.8740052 7.62455705,23.8097546 C10.1459924,25.8302488 13.0974038,27.4493203 16.0090891,28.894442 C19.1217414,30.4376892 22.3816138,31.7467732 25.7162647,32.7815517 C27.377748,33.2967108 29.1023257,33.6936732 30.8339138,33.2409576 C32.2056307,32.8819073 33.4534958,32.0567607 34.3858895,31.0442835 C35.3393145,30.0072749 36.5801692,28.4461866 36.15253,26.965383 C35.6968489,25.3753031 33.9699344,25.6607592 33.0492249,26.7089185 C32.1916098,27.6879438 31.6144137,28.9167432 30.3595381,29.5099568 C29.0625996,30.1210113 27.6301252,29.5121869 26.3635655,29.1040738 C23.0943458,28.0536845 19.9396306,26.7245293 16.9157776,25.1411398 C15.2145682,24.2513196 13.5577585,23.2834449 11.952359,22.241976 C10.7932932,21.4881934 9.46831284,20.6518961 8.79063327,19.4387076 C6.93753018,16.1002089 12.3472826,14.4075432 13.833504,12.3312959 C14.3826581,11.5619024 13.6255265,10.7501365 12.8310056,10.6631616" id="Fill-10" fill="#FFDA00"></path>
                    <path d="M21.1396493,35.1668162 C21.2030683,34.8172284 21.1728688,34.972263 21.1396493,35.1668162" id="Fill-12" fill="#FFFFFF"></path>
                    <path d="M53.9038668,39.8460716 C53.9015766,39.8414626 53.8969963,39.834549 53.8947061,39.82994 C53.8992865,39.834549 53.9015766,39.8414626 53.9038668,39.8460716 Z M60.208682,54.1479265 C59.9590543,50.9976468 59.3819336,47.824322 57.8108827,45.0473746 C57.0826112,43.7545386 56.0841007,42.6529777 55.1153623,41.5421988 C54.6458792,41.0052455 54.4603761,40.8162748 54.1489141,40.2977577 C54.0641781,40.1571819 53.9863126,40.0143016 53.9153176,39.8668123 L53.9153176,39.8645078 C53.9405094,39.9082937 53.9450897,39.8967711 53.9244782,39.8276355 C53.935929,39.7907631 53.9473798,39.7469772 53.9565405,39.6985823 C54.5245006,37.705172 52.5068681,35.3107751 50.3976292,36.1127482 C48.1234986,36.9769435 45.8539484,37.8434432 43.6279112,38.7836876 C43.4172163,38.6799842 43.172169,38.6315893 42.9019299,38.6638526 C41.7637196,38.7975147 40.5751256,38.9150453 39.4552366,39.1685426 C38.3948917,39.4105172 37.323096,39.887553 36.3154249,40.2977577 C34.2657301,41.1342986 32.2114551,42.0768476 30.3289422,43.2521531 C30.2327554,43.3097661 30.1411489,43.3719882 30.0472523,43.4319057 C29.8434279,43.4296012 29.6373133,43.4272966 29.4311988,43.4180786 C29.1609597,43.406556 28.8907206,43.3881198 28.6204815,43.3696836 C28.570098,43.3673791 28.528875,43.3627701 28.4876521,43.3604655 C28.4670407,43.353552 28.4212374,43.3443339 28.3456621,43.3282023 C27.8509872,43.2291079 27.3608926,43.1115773 26.8799586,42.959479 C26.6669736,42.8926479 26.4585689,42.8189032 26.247874,42.738245 C26.1287856,42.6944591 26.0532102,42.6691094 26.0005365,42.6529777 C25.9570235,42.623019 25.8883186,42.5769285 25.7623597,42.5147065 C18.3422358,38.8920001 22.1255829,30.2661795 22.8126314,28.4363901 C22.8080511,28.4479127 22.8904969,28.2382013 22.920269,28.1552386 C22.991264,28.0031402 23.1355442,27.6805073 23.160736,27.6321124 C23.3622702,27.2265168 23.5889962,26.8370528 23.8203026,26.4498933 C24.1042826,25.9728576 24.4157446,25.5073444 24.6401805,25.0026544 C24.7226263,24.8159882 24.8073623,24.6154949 24.8646163,24.4173062 C24.9264507,24.23064 24.9630933,24.0370603 24.9768342,23.841176 C25.015767,23.4678437 25.029508,23.4401894 25.0180571,23.7582133 C25.7440384,22.3870235 24.5508642,21.0734468 23.1424147,21.3062033 C22.6660611,21.3868616 22.22635,21.3015943 21.7225145,21.4398655 C21.1293626,21.5988775 20.6278172,21.9238149 20.1377225,22.278711 C19.2102071,22.9539356 18.4292619,23.783563 17.7170216,24.6800215 C16.2055149,26.5904691 15.1153979,28.7843727 14.4627018,31.1395928 C13.1847916,35.7647656 13.2260145,40.7056578 15.1474602,45.1372509 C16.3726967,47.9718113 18.4819356,50.068925 20.9713414,51.6590443 C20.781258,51.8918008 20.5957549,52.1222529 20.412542,52.357314 C18.9582893,54.2170621 17.3437253,56.3879205 16.7047701,58.6993547 C16.3177328,60.1005032 16.3360541,61.697536 17.0574551,62.9949811 C17.8590116,64.437611 19.1827251,65.1497079 20.6804909,65.6889657 C25.9890857,67.6063269 31.3434838,69.3923303 36.6795606,71.2382513 C42.6912351,73.3169289 48.6822981,75.4993099 54.7535168,77.3959304 C56.3405988,77.8937068 58.4773197,76.8082776 58.7910719,75.0891053 C60.0437903,68.2423745 60.7651913,61.1098833 60.208682,54.1479265 L60.208682,54.1479265 Z" id="Fill-14" fill="#00E07D"></path>
                    <path d="M53.5451842,23.9487092 C53.2659431,23.4166287 52.8057537,22.9918778 52.1958911,22.8731302 C50.0535533,22.4597973 48.239603,23.8939026 46.1263063,24.3506241 C45.1277401,24.5675668 41.0887966,25.5380998 40.1996929,26.0404934 C39.6077018,26.3761837 41.6249396,28.8470467 41.7142967,29.0571386 C41.5981324,29.1599009 41.486436,29.2649468 41.3769735,29.3791272 C40.952527,29.8289978 40.5638234,30.3382422 40.2577751,30.8748899 C39.5920643,32.037246 39.2033607,33.43253 39.2659107,34.7821419 C39.411116,37.9449379 41.895245,40.2513812 44.8261597,40.8382683 C51.0521195,42.0851178 56.9697972,37.3580509 57.3652026,30.9045768 C57.5349812,28.1551137 56.1365417,25.0265718 53.5451842,23.9487092" id="Fill-16" fill="#000000"></path>
                    <g id="Group-20" transform="translate(40.769324, 14.804521)">
                        <mask id="mask-4" fill="white">
                            <use xlink:href="#path-3"></use>
                        </mask>
                        <g id="Clip-19"></g>
                        <path d="M18.6214092,0.809740293 C16.21547,-0.0543494681 10.7781875,0.830259574 9.76540609,3.6983992 C7.63249784,2.47864189 5.44591684,1.35692114 3.25000145,0.310437766 C1.35512016,-0.590130718 0.0249694949,1.80378551 1.63281828,3.01214322 C4.16943893,4.92043644 6.55670932,7.0704012 8.94397972,9.15880811 C11.3755885,11.2882536 13.5294991,13.6570907 15.8280928,15.9164916 C17.0905691,17.1567682 19.2538141,17.1499285 20.5162905,15.9164916 C20.7846542,15.6543008 22.9222297,13.2558247 23.2395989,11.8901525 C24.4974081,6.47990186 23.134587,2.42848364 18.6214092,0.809740293" id="Fill-18" fill="#FFDA00" mask="url(#mask-4)"></path>
                    </g>
                    <path d="M21.139658,22.6753182 C21.1371139,21.1735959 21.6942665,16.5994608 23.617588,16.7218234 C25.5383653,16.8464107 29.077175,17.9699215 28.6548584,19.696346 C28.2299977,21.4249953 26.7239047,24.4773851 25.426426,24.3127518 C24.1264032,24.1481185 21.139658,23.5429801 21.139658,22.6753182" id="Fill-21" fill="#000000"></path>
                    <path d="M31.585656,21.2154176 C31.585656,22.0209894 30.9363668,22.6715266 30.1391,22.6715266 C29.3388133,22.6715266 28.6895241,22.0209894 28.6895241,21.2154176 C28.6895241,20.4098457 29.3388133,19.7593085 30.1391,19.7593085 C30.9363668,19.7593085 31.585656,20.4098457 31.585656,21.2154176" id="Fill-23" fill="#FFDC9C"></path>
                    <path d="M34.6086259,22.7353644 C34.6086259,23.5409362 33.9593367,24.1945133 33.1620699,24.1945133 C32.3587632,24.1945133 31.709474,23.5409362 31.709474,22.7353644 C31.709474,21.9297926 32.3587632,21.2792553 33.1620699,21.2792553 C33.9593367,21.2792553 34.6086259,21.9297926 34.6086259,22.7353644" id="Fill-25" fill="#FFDC9C"></path>
                    <path d="M36.1155809,24.2583511 C36.1155809,25.0639229 35.4662917,25.7144601 34.6690249,25.7144601 C33.8687382,25.7144601 33.2194489,25.0639229 33.2194489,24.2583511 C33.2194489,23.4527793 33.8687382,22.7992021 34.6690249,22.7992021 C35.4662917,22.7992021 36.1155809,23.4527793 36.1155809,24.2583511" id="Fill-27" fill="#FFDC9C"></path>
                    <path d="M48.3191984,32.6788564 C48.3191984,33.937695 47.3048158,34.9587766 46.054236,34.9587766 C44.8015473,34.9587766 43.7892736,33.937695 43.7892736,32.6788564 C43.7892736,31.4200178 44.8015473,30.3989362 46.054236,30.3989362 C47.3048158,30.3989362 48.3191984,31.4200178 48.3191984,32.6788564" id="Fill-29" fill="#EB495F"></path>
                    <path d="M22.926018,52.3738781 C23.4723007,52.6166768 23.8881949,53.2118559 24.2973449,53.6136555 C24.7514564,54.060577 25.2258006,54.4623767 25.7563467,54.8233517 C26.9118582,55.6119103 28.1797735,56.2199814 29.512883,56.6883895 C32.2195675,57.6445437 35.0948577,57.9238697 37.9589076,57.668179 C40.9983074,57.3974477 43.9500323,56.6712003 46.811834,55.6742215 C49.122857,54.8706223 53.0322626,53.832819 54.1338202,51.4714404 C55.0915009,49.4194691 52.7984626,47.7757434 50.96628,49.1358458 C50.0760416,49.7954848 49.4668128,50.465867 48.419209,50.9579104 C47.2839302,51.4907784 46.0991937,51.9355512 44.9122091,52.3545401 C42.3179285,53.2720184 39.6000037,54.0240498 36.8326211,54.2217266 C34.3979539,54.3957682 31.9048368,54.2668485 29.5533484,53.6115069 C28.3528754,53.2763157 27.2648062,52.8014616 26.1587525,52.2449584 C25.1336294,51.7292798 24.389516,51.265169 23.1980353,51.4134266 C22.7394276,51.4714404 22.3774873,52.1310794 22.926018,52.3738781" id="Fill-31" fill="#154733"></path>
                    <path d="M47.6516728,25.8735593 C46.9661441,26.4985082 46.4829522,27.4230193 47.0778823,28.2287385 C47.5852339,28.9182482 48.6240966,29.0680293 49.385124,28.636763 C49.8139569,28.3965967 49.385124,27.7974721 48.9864906,28.0557155 C48.1711042,28.5876967 47.2681391,27.8078019 47.3557177,27.0356543 C47.4010169,26.6508717 47.6093935,26.3254851 47.8660892,26.0155931 C47.9627276,25.9071309 47.757371,25.7754268 47.6516728,25.8735593" id="Fill-33" fill="#FFFFFF"></path>
                    <g id="Group-37" transform="translate(33.219449, 136.795213)">
                        <mask id="mask-6" fill="white">
                            <use xlink:href="#path-5"></use>
                        </mask>
                        <g id="Clip-36"></g>
                        <path d="M11.83587,5.60125731 C15.2965953,5.03127726 18.6173048,3.95211503 21.8633391,2.53349801 C23.0021348,2.03698205 23.6858789,1.07434907 23.795558,0.000253324468 C19.8237748,1.61139694 15.6769718,2.88815226 11.5768407,4.00531316 C9.39959407,4.59809242 7.29002179,4.88434907 5.04276726,4.88688231 C3.66361104,4.88941556 2.15610696,4.72982114 0.730278795,4.92234774 C0.867961056,5.06674269 1.04298088,5.1807387 1.25767186,5.2491363 C2.14677257,5.53032646 2.84918546,5.82671609 3.78729172,5.93817886 C4.67872602,6.04710838 5.5981635,6.08004056 6.49659859,6.08004056 C8.28880159,6.07750731 10.0623358,5.89258045 11.83587,5.60125731" id="Fill-35" fill="#000000" mask="url(#mask-6)"></path>
                    </g>
                    <path d="M61.0440848,121.621448 C61.1970671,119.032798 61.4438785,116.288783 61.8742686,113.738973 C62.0639666,112.610294 61.4561171,111.504463 60.5361837,110.956117 C59.8467436,113.327714 59.8039085,116.128848 59.5897333,118.479882 C59.4469499,120.056377 59.3000869,121.630588 59.1654625,123.207083 C59.0247188,124.858975 58.6045275,126.887856 59.196059,128.46892 C59.3021267,128.749948 59.4428704,128.992134 59.6080912,129.195479 C59.6162503,129.184055 59.6264491,129.174916 59.6366479,129.161207 C60.3709628,128.142197 60.4913089,126.954114 60.6442911,125.690633 C60.809512,124.344901 60.964534,122.97632 61.0440848,121.621448" id="Fill-38" fill="#000000"></path>
                </g>
            </g>
        </g>
    </g>
</svg>