<svg width="556" height="458" viewBox="0 0 556 458" xmlns="http://www.w3.org/2000/svg" xmlns:xlink="http://www.w3.org/1999/xlink"><title>Group 8</title><defs><path id="a" d="M0 0h555v420H0z"/><path id="b" d="M0 0h556v508H0z"/></defs><g fill="none" fill-rule="evenodd"><use fill="#FFF" xlink:href="#a" transform="translate(0 38)"/><g transform="translate(0 -50)"><mask id="c" fill="#fff"><use xlink:href="#b"/></mask><g mask="url(#c)"><path d="M101.01 541.144c.357-34.324 102.648-92.752 223.694-121.15 20.75-4.868 230.177-32.277 240.446-30.698 2.763 12.77-1.863 152.744-1.863 152.744s-434.375-1.426-462.277-.896z" fill="#05C872"/><path d="M170.92 133.194c-.673-.78-1.777-.793-2.562-.189-1.16.894-2.193 1.943-3.354 2.837-.784.604-.808 1.846-.188 2.562.673.78 1.777.793 2.562.19 1.16-.895 2.193-1.944 3.354-2.838.784-.603.808-1.845.188-2.562m11.152-9.93c-1.356 1.294-2.837 2.485-4.47 3.411-2.024 1.15-.455 4.429 1.588 3.27a26.857 26.857 0 0 0 5.255-3.93c1.687-1.61-.673-4.374-2.373-2.751m12.063-7.774c-.982-.355-1.924.19-2.325 1.093-.551 1.239-1.269 1.757-2.34 2.355-.863.483-1.292 1.498-.84 2.428.412.851 1.562 1.324 2.427.84 1.92-1.071 3.268-2.363 4.17-4.39.404-.906-.213-2.008-1.092-2.326m13.223-7.992c-.408-.842-1.57-1.337-2.428-.841-1.456.842-2.448 2.076-3.747 3.096-.778.61-.813 1.84-.189 2.562.67.774 1.784.8 2.563.189 1.029-.808 1.815-1.916 2.96-2.578.856-.495 1.297-1.488.84-2.428m5.325-8.45c-.91 1.245-2.367 2.07-3.481 3.126-1.695 1.604.666 4.367 2.373 2.75 1.362-1.288 2.981-2.285 4.1-3.817 1.386-1.895-1.611-3.949-2.992-2.06m12.403-7.836c-.682.932-1.714 1.417-2.823 1.644-2.292.471-1.635 4.044.661 3.573 2.063-.424 3.9-1.441 5.155-3.158 1.386-1.894-1.611-3.948-2.993-2.059m12.472-8.878c-1.704.966-3.258 2.17-4.962 3.135-2.024 1.148-.456 4.428 1.587 3.269 1.704-.966 3.258-2.17 4.961-3.135 2.025-1.148.457-4.427-1.586-3.269m11.375-8.013c-1.214 1.145-2.58 1.972-4.032 2.775-2.04 1.128-.47 4.406 1.587 3.27 1.711-.947 3.389-1.945 4.818-3.295 1.697-1.602-.664-4.365-2.373-2.75m12.921-6.716c-.678-.785-1.772-.786-2.562-.19l-2.917 2.203c-.79.596-.804 1.85-.189 2.563.679.784 1.772.785 2.562.188l2.918-2.202c.79-.596.804-1.85.188-2.562m11.868-7.737c-.683-.79-1.766-.779-2.562-.19-1.327.983-2.676 1.82-3.664 3.184-1.376 1.9 1.62 3.955 2.993 2.059.772-1.066 2-1.719 3.044-2.491.796-.589.8-1.856.19-2.562m9.499-9.257c-1.556.896-2.873 2.141-4.426 3.035-2.015 1.161-.448 4.442 1.587 3.27 1.557-.898 2.874-2.142 4.426-3.036 2.016-1.161.45-4.442-1.587-3.27m-96.902 81.953c-.682-.79-1.767-.78-2.563-.19-.6.447-1.24.84-1.823 1.308-.816.656-1.221 1.45-1.157 2.502.06.99 1.233 1.62 2.116 1.456.69-.128 1.119-.567 1.321-1.127.18-.163.381-.304.578-.447.442-.32.9-.614 1.34-.94.794-.59.8-1.855.188-2.562m11.768-8.274c-.678-.784-1.772-.785-2.562-.188l-2.917 2.202c-.79.596-.804 1.85-.19 2.563.68.784 1.773.784 2.563.188l2.918-2.202c.79-.596.803-1.85.188-2.563m10.036-7.02c-.173-.934-1.153-1.688-2.116-1.456-.578.14-.967.367-1.449.707-.077.054-.151.112-.227.17-.03.015-.06.03-.09.043-.037.014-.076.026-.112.042l-.005.002.004-.001c-.758.341-1.247 1.11-1.085 1.987.172.934 1.153 1.688 2.116 1.456.577-.14.967-.366 1.448-.706.077-.055.152-.113.228-.17.03-.015.06-.03.09-.043.037-.015.076-.026.111-.042l.006-.002h-.004c.758-.341 1.247-1.11 1.085-1.987m-56.693 26.073c-1.355 1.294-2.836 2.486-4.469 3.412-2.024 1.148-.456 4.428 1.587 3.269a26.835 26.835 0 0 0 5.256-3.93c1.687-1.61-.674-4.374-2.374-2.75m7.7 6.996c-.683-.791-1.765-.777-2.562-.19-1.113.822-2.338 1.48-3.453 2.302-.796.588-.799 1.857-.189 2.563.684.79 1.766.776 2.562.188 1.114-.821 2.34-1.479 3.454-2.3.796-.588.798-1.858.189-2.563m12.839-8.472c-.668-.773-1.784-.802-2.562-.189-1.033.815-1.784 1.923-2.818 2.738-.777.613-.814 1.84-.189 2.563.669.773 1.785.802 2.562.189 1.034-.815 1.785-1.923 2.819-2.738.777-.613.814-1.84.189-2.563m45.664-31.723c-.678-.785-1.772-.786-2.562-.189l-2.917 2.202c-.79.596-.804 1.85-.19 2.562.68.785 1.773.786 2.563.19l2.918-2.203c.79-.596.803-1.85.188-2.562m11.588-10.565c-1.34 1.246-2.977 2.007-4.568 2.875-2.047 1.117-.475 4.394 1.587 3.27 1.857-1.014 3.79-1.94 5.354-3.394 1.71-1.59-.652-4.352-2.373-2.751m12.814-8.732c-.833-.573-1.943-.332-2.526.467l-.004.006c-.112.027-.224.05-.338.07a1.834 1.834 0 0 0-1.456 2.117 1.833 1.833 0 0 0 2.117 1.456c1.104-.205 2-.667 2.674-1.59.584-.8.332-1.977-.467-2.526m10.85-8.103c-.642.907-1.206 1.325-2.287 1.544-2.294.465-1.637 4.038.66 3.573 1.965-.398 3.468-1.428 4.62-3.059 1.354-1.915-1.64-3.972-2.993-2.058m14.096-9.813c-.832-.572-1.943-.331-2.526.468-.035.051-.076.1-.114.148l-.087.09c-.175.174-.365.333-.554.493-.424.36-.873.69-1.317 1.026-.79.596-.804 1.85-.189 2.562.679.785 1.773.785 2.563.19.967-.731 1.97-1.461 2.691-2.45.584-.8.332-1.978-.467-2.526m11.497-9.621c-1.34 1.247-2.977 2.008-4.567 2.876-2.047 1.117-.476 4.394 1.586 3.269 1.857-1.013 3.79-1.94 5.355-3.394 1.71-1.59-.653-4.35-2.374-2.75m13.376-8.571c-1.077 1.037-2.19 1.946-3.496 2.677-2.032 1.139-.463 4.418 1.586 3.27a20.743 20.743 0 0 0 4.284-3.196c1.68-1.616-.68-4.381-2.374-2.751" fill="#FDC004"/><path d="M127.747 472.925c-.377-.377-1.038-.395-1.412 0-.462.488-.756 1.103-1.054 1.699-.243.487-.133 1.077.358 1.365.446.262 1.122.128 1.365-.358.137-.274.275-.546.423-.815.066-.118.137-.233.211-.348l.04-.056c.022-.025.044-.052.069-.076.373-.395.392-1.019 0-1.411m5.485-5.845c-.453-.265-1.112-.122-1.365.359-.327.62-.847 1.1-1.34 1.594-.911.911.5 2.322 1.41 1.41.607-.605 1.249-1.23 1.653-1.997.254-.481.126-1.082-.358-1.365m5.376-5.832c-.606.607-1.248 1.232-1.652 1.998-.254.481-.126 1.082.358 1.366.454.265 1.112.122 1.365-.358.327-.62.847-1.1 1.34-1.595.912-.91-.5-2.322-1.41-1.411m7.099-4.789a1.008 1.008 0 0 0-1.412 0c-.106.105-.214.21-.326.31l-.03.018-.015.003-.031.006-.005.001h.003c-.445.109-.786.475-.786.965 0 .522.454 1.028.998.999.673-.037 1.147-.435 1.604-.891a1.008 1.008 0 0 0 0-1.412m6.286-4.49a1.008 1.008 0 0 0-1.411 0l-.3.296-.135.126-.098.082c-.055.03-.135.07-.17.09a.63.63 0 0 1-.089.011c-.543.013-.997.445-.997.998 0 .535.453 1.011.997.998.944-.022 1.567-.555 2.203-1.19a1.008 1.008 0 0 0 0-1.411m5.174-4.491c-.191.186-.366.33-.596.465-.115.053-.135.066-.06.04a2.051 2.051 0 0 1-.2.067c-.045.012-.09.021-.136.03a.467.467 0 0 0-.098.004c-.543.015-.998.442-.998.998 0 .532.454 1.013.998.998.987-.028 1.808-.516 2.502-1.19.924-.9-.489-2.309-1.412-1.412m9.052-5.187c-.284-.484-.885-.611-1.366-.358-.64.337-1.156.86-1.796 1.198-.481.253-.624.912-.358 1.365.284.485.884.612 1.365.358.64-.337 1.156-.86 1.796-1.197.481-.253.624-.912.358-1.366m87.939-28.343c-.658.64-1.434 1.134-2.193 1.64-.452.302-.645.876-.358 1.366.262.448.912.66 1.365.358.898-.6 1.82-1.197 2.597-1.953.924-.898-.488-2.308-1.411-1.41m10.679-6.444a14.448 14.448 0 0 0-3.495 2.551c-.92.903.493 2.314 1.411 1.411a12.63 12.63 0 0 1 3.091-2.238c1.145-.589.136-2.31-1.007-1.724m10.178-4.191c-.77.498-1.59.808-2.456 1.097-1.214.405-.694 2.333.53 1.925 1.02-.34 2.026-.712 2.933-1.299 1.077-.695.077-2.424-1.007-1.723m8.18-2.837c-.557.54-1.221.98-1.955 1.24-.512.18-.849.675-.697 1.227.137.497.714.878 1.228.697a7.74 7.74 0 0 0 2.835-1.753c.925-.898-.488-2.308-1.411-1.411m9.649-2.793c-.287-.491-.879-.6-1.365-.357l-1.796.898c-.486.243-.619.92-.358 1.365.288.492.88.601 1.365.358l1.796-.898c.486-.243.62-.92.358-1.366m8.119-4.086c-1.16.024-2.229.409-3.197 1.034-1.078.696-.078 2.425 1.007 1.724.676-.437 1.375-.745 2.19-.762 1.286-.027 1.288-2.023 0-1.996m9.614-3.258c-.895.228-1.798.545-2.729.564-1.285.026-1.287 2.022 0 1.996 1.116-.023 2.186-.363 3.259-.635 1.247-.316.718-2.241-.53-1.924m9.843-2.731c-.608.021-1.224.28-1.795.3-.544.018-.998.44-.998.998 0 .53.454 1.016.998.998.61-.02 1.225-.28 1.796-.3.544-.018.998-.44.998-.997 0-.53-.454-1.017-.998-.999m8.489-2.102c-.387-.387-1.001-.374-1.396-.012-.043.005-.097.014-.127.015-.126.005-.253.004-.38.004-.544 0-.998.454-.998.998s.454.998.998.998c.715 0 1.362-.077 1.903-.592.394-.375.377-1.034 0-1.411m-199.869 79.178c-.493-.29-1.06-.091-1.365.358-.588.866-1.238 1.633-1.597 2.633-.185.512.202 1.091.697 1.227.555.153 1.043-.185 1.227-.696.288-.801.924-1.461 1.396-2.157.306-.45.087-1.104-.358-1.365m5.746-5.63c-.262-.448-.912-.66-1.365-.358-.9.601-2.506 1.593-1.955 2.923.208.503.653.855 1.227.697.449-.123.856-.657.727-1.14.045-.045.091-.088.138-.131.26-.242.575-.429.87-.626.452-.3.646-.875.358-1.365m5.988-4.191c-.287-.489-.881-.606-1.366-.358a9.556 9.556 0 0 0-2.297 1.653c-.922.9.49 2.31 1.411 1.411a7.767 7.767 0 0 1 1.893-1.34c.485-.248.622-.916.359-1.366m6.13-4.693a1.008 1.008 0 0 0-1.411 0c-.185.185-.371.365-.566.538-.22.195-.37.316-.729.504-.482.251-.623.913-.358 1.365.284.486.883.61 1.365.358.642-.335 1.19-.844 1.699-1.353a1.008 1.008 0 0 0 0-1.412m6.585-4.49a1.009 1.009 0 0 0-1.41 0c-.07.067-.144.129-.218.191-.04.027-.173.128-.205.15-.218.15-.431.3-.64.465-.586.462-.615 1.26-.135 1.802.36.409 1.045.367 1.411 0a.952.952 0 0 0 .258-.466.009.009 0 0 0 .003-.002c.327-.223.653-.453.936-.73.39-.378.381-1.03 0-1.41m6.586-4.491a1.01 1.01 0 0 0-1.411 0 1.487 1.487 0 0 1-.095.088l-.02.013c-.102.074-.208.143-.314.214a5.522 5.522 0 0 0-.768.583c-.393.376-.378 1.034 0 1.411.39.391 1.018.376 1.411 0a1.728 1.728 0 0 1 .095-.087l.019-.013c.103-.074.21-.143.314-.214a5.61 5.61 0 0 0 .77-.584c.392-.376.377-1.033 0-1.41m6.285-3.593c-.392-.393-1.015-.373-1.41 0a.714.714 0 0 0-.044.043 2.323 2.323 0 0 1-.345.192c.165-.079-.145.036-.147.037-.052.014-.105.023-.157.033.023-.007-.008-.006-.099.001-.543.016-.998.442-.998.998 0 .532.454 1.014.998.998a3.337 3.337 0 0 0 2.202-.891c.396-.374.377-1.035 0-1.411m-36.264 20.797c-.136-.497-.713-.876-1.227-.697-1.225.43-2.064 1.269-2.493 2.494-.18.513.2 1.09.697 1.227.551.152 1.048-.184 1.227-.697.083-.236.232-.485.384-.648.051-.055.108-.104.164-.153-.012.018.142-.099.152-.105.083-.053.171-.097.258-.14-.163.081.138-.052.141-.053.513-.18.85-.676.697-1.228m6.128-6.284c-.454-.266-1.112-.123-1.366.358-.022.042-.12.177-.143.217-.026.026-.05.054-.077.08l-.015.015c-.051.03-.144.076-.19.1l-.018.006c-.494.067-.89.463-.89.984 0 .53.454 1.017.998.998.866-.031 1.663-.644 2.059-1.393.253-.481.126-1.082-.358-1.365m7.841-4.732c-.282-.482-.885-.614-1.365-.358-.333.178-.622.43-.89.694-.102.101-.203.204-.309.303l-.119.097a2.405 2.405 0 0 1-.179.104c-.479.256-.624.91-.358 1.365.283.483.886.614 1.366.359.332-.178.622-.43.889-.694.102-.102.204-.204.31-.303l.119-.097c.058-.037.117-.071.178-.104.48-.256.625-.91.358-1.365m6.885-4.791c-.284-.485-.883-.61-1.365-.357-.642.335-1.189.845-1.699 1.353a1.007 1.007 0 0 0 0 1.411 1.008 1.008 0 0 0 1.412 0c.184-.183.37-.364.565-.537.22-.195.37-.316.73-.504.481-.251.622-.913.357-1.365m7.484-5.09c-.284-.485-.883-.61-1.365-.358-.642.336-1.19.845-1.699 1.354a1.007 1.007 0 0 0 0 1.41 1.007 1.007 0 0 0 1.412 0c.184-.183.37-.363.565-.537.22-.194.37-.316.73-.503.481-.252.622-.914.357-1.366m12.417-2.297a1.008 1.008 0 0 0-1.411 0 7.13 7.13 0 0 1-.327.31.567.567 0 0 1-.03.018.138.138 0 0 1-.015.003l-.03.007h-.006.003c-.444.11-.786.476-.786.966 0 .522.455 1.027.998.998.673-.037 1.147-.435 1.604-.89a1.007 1.007 0 0 0 0-1.412m-.007 4.298c0-.522-.454-1.028-.998-.998-.673.037-1.147.435-1.604.89a1.008 1.008 0 0 0 0 1.412 1.008 1.008 0 0 0 1.411 0c.107-.107.215-.21.327-.31l.03-.018.015-.004.03-.006h.003c.444-.11.786-.476.786-.966m85.548-31.199c-.93.329-1.766.87-2.694 1.197-1.205.426-.686 2.355.53 1.925.93-.329 1.767-.87 2.695-1.198 1.205-.425.686-2.354-.53-1.924m7.342-5.132c-.533.503-1.275.714-1.955.94-1.214.406-.693 2.334.531 1.925 1.022-.341 2.038-.701 2.835-1.454.938-.885-.476-2.294-1.411-1.41m7.625-3.551c-1.022.341-2.038.701-2.835 1.454-.938.885.476 2.294 1.41 1.411.533-.503 1.276-.713 1.955-.94 1.214-.406.694-2.334-.53-1.925m6.145-1.839c-.461.435-1.068.594-1.69.606-1.284.025-1.287 2.021 0 1.996 1.157-.023 2.251-.389 3.101-1.191.938-.884-.476-2.293-1.411-1.411m9.051-2.192c-.288-.493-.88-.602-1.365-.36l-1.797.9c-.485.242-.619.919-.357 1.365.287.491.878.6 1.365.357l1.796-.898c.486-.243.62-.919.358-1.365m7.783-3.592c-.29-.496-.876-.596-1.365-.358-.684.332-1.411.565-2.096.898-.489.237-.617.923-.358 1.365.29.495.876.596 1.365.358.684-.332 1.412-.565 2.096-.898.489-.238.617-.923.358-1.365m8.382-2.994c-.288-.492-.88-.6-1.365-.358l-1.797.898c-.485.243-.619.92-.357 1.365.287.492.878.601 1.365.358l1.796-.898c.486-.243.62-.92.358-1.365m8.98-2.993c-.29-.497-.875-.596-1.365-.36-.689.335-1.432.557-2.156.799-1.215.405-.694 2.333.53 1.924.89-.297 1.788-.589 2.633-.999.49-.237.617-.923.358-1.365m8.526-2.597c-.38-.379-.937-.36-1.34-.053-.006 0-.013.002-.02.004.053-.058-.04-.006-.033.007-.076.015-.168.032-.154.034-.218.018-.438.015-.655.015-.544 0-.999.454-.999.998s.455.999.999.998c.794 0 1.58-.038 2.202-.592.406-.362.367-1.043 0-1.41m8.009-2.053c-.8.247-1.598.262-2.429.263-1.287 0-1.287 1.996 0 1.996 1 0 1.998-.037 2.96-.335 1.225-.38.702-2.307-.53-1.925m-66.157 34.428a12.232 12.232 0 0 0-3.531 1.597c-1.073.701-.074 2.43 1.007 1.724.95-.621 1.955-1.104 3.054-1.396 1.243-.33.715-2.255-.53-1.925m11.005-4.331c-.284-.485-.884-.612-1.365-.358-.64.337-1.156.86-1.796 1.197-.481.253-.624.912-.358 1.365.283.485.884.612 1.365.359.64-.337 1.156-.86 1.796-1.198.481-.253.624-.912.358-1.365m10.023-4.094c-.376-.375-.94-.364-1.34-.055l-.012.008a1.091 1.091 0 0 1-.115.032c-.025.002-.138.016-.18.018-.086.004-.171.004-.257.004-.544 0-.998.454-.998.998s.454.998.998.998c.694 0 1.372-.108 1.903-.592.402-.366.371-1.04 0-1.411m10.034-3.39c-.287-.492-.878-.602-1.365-.358-.519.259-.982.45-1.591.462-1.286.025-1.288 2.022 0 1.996.947-.019 1.761-.317 2.599-.735.486-.243.619-.92.357-1.365m8.825-4.394c-.377-.377-.931-.36-1.334-.057a.836.836 0 0 0-.057.034c-.117.042-.239.073-.358.106a6.1 6.1 0 0 0-.957.36c-.492.232-.614.928-.358 1.365.293.5.874.59 1.365.359-.063.016-.037.005.078-.034.067-.024.136-.047.205-.067.157-.05.317-.09.475-.138.356-.107.663-.268.941-.517.406-.362.368-1.043 0-1.41m9.173-3.586c-.835.029-1.564.368-2.3.735-.486.242-.619.92-.358 1.365.289.492.879.601 1.366.358.406-.202.856-.447 1.292-.462.544-.02.998-.44.998-.998 0-.53-.454-1.017-.998-.998m10.178-3.593h-1.197c-.544 0-.998.454-.998.999 0 .543.454.997.998.997h1.197c.544 0 .998-.454.998-.997 0-.545-.454-.999-.998-.999m11.076-2.395h-1.197c-.544 0-.999.454-.999.998s.455.998.999.998h1.197c.544 0 .998-.454.998-.998s-.454-.998-.998-.998" fill="#FFF"/><path d="M362.556 165.216s-9.36-38.401-40.8-39.362c-31.439-.96-39.118 11.281-46.318 16.321-7.2 5.04-25.44 9.12-40.8 12.721-15.359 3.6-65.038 15.601-79.438 47.283-14.4 31.682-13.2 49.922-6 64.803 7.2 14.881 34.19 42.002 71.094 30.962 36.904-11.04 31.144-42.722 46.264-54.243 15.12-11.52 18.96-9.84 31.68-23.041 12.72-13.201 9.071-35.353 20.006-46.502 11.655-11.885 24.982-8.61 24.982-8.61l19.33-.332z" fill="#0900C6"/><path d="M134.725 462.766s1.87-114.627 0-142.647c-1.868-28.02-3.113-70.05 0-75.144 3.114-5.094 28.025 0 28.025 0s-4.359 213.97 0 217.79c4.36 3.821-28.025 0-28.025 0m.508-294.136s-.673 12.405 0 21.365c.674 8.96 0 37.906 0 37.906s25.544 5.513 26.083 0c.54-5.514 2.494-56.514 0-59.271-2.493-2.757-26.083 0-26.083 0" fill="#FFDA00"/><path d="M162.029 245.818h-28.99a4.208 4.208 0 0 1-4.208-4.208v-10.19a4.208 4.208 0 0 1 4.207-4.209h28.99a4.208 4.208 0 0 1 4.21 4.209v10.191a4.208 4.208 0 0 1-4.21 4.208" fill="#EB495F"/><path d="M362.556 165.216s-6.044-34.492-26.344-35.112c-20.3-.62-25.26 7.284-29.908 10.538-4.649 3.254-16.427 5.89-26.344 8.214-9.918 2.324-74.073-14.166-88.22 19.813-8.637 20.745 7.993 71.308 12.642 80.916 4.649 9.609 42.486-1.234 66.315-8.363 23.83-7.129 25.53-22.643 35.292-30.082 9.763-7.438 6.823-11.297 15.036-19.82 8.214-8.524 5.858-22.827 12.919-30.027 7.526-7.674 16.13-5.56 16.13-5.56l12.482 9.483z" fill="#847FE2"/><path d="M181.438 156.707v108.866a6.966 6.966 0 0 0 6.967 6.967h13.37a6.958 6.958 0 0 0 6.219-3.825c3.3-6.551 9.08-21.047 7.47-39.82-1.824-21.287-15.648-61.074-20.507-74.554a6.967 6.967 0 0 0-13.519 2.366M65.858 377.368l-1.622-4.635a6.02 6.02 0 0 1 1.138-5.938c9.511-10.94 46.244-52.24 63.546-58.007 13.465-4.489 23.568-5.951 28.722-6.427a6.023 6.023 0 0 1 5.707 2.87l7.505 12.362a6.022 6.022 0 0 1-2.124 8.334l-94.166 54.66c-3.27 1.897-7.457.349-8.706-3.22m155.792-71.033l-8.215 12.838a5.135 5.135 0 0 0-.75 3.617c.636 3.781 3.422 11.99 15.354 20.398 16.274 11.466 34.766 20.343 41.424 21.823 5.548 1.233 37.3 6.062 47.724 7.638a5.176 5.176 0 0 0 5.127-2.32l1.937-3.013a5.176 5.176 0 0 0-1.724-7.257l-93.887-55.392a5.176 5.176 0 0 0-6.99 1.668" fill="#EB495F"/><path d="M171.941 316.961l12.473-7.559c.545-.33.757-1.017.493-1.597l-2.907-6.39a1.259 1.259 0 0 0-1.751-.583l-13.524 7.431a1.258 1.258 0 0 0-.47 1.756l3.958 6.52c.36.593 1.134.782 1.728.422m31.448-7.334l10.398 6.411c.658.406 1.52.209 1.937-.442l4.346-6.793a1.417 1.417 0 0 0-.516-2.008l-10.97-5.965a1.417 1.417 0 0 0-1.895.52l-3.774 6.347a1.417 1.417 0 0 0 .474 1.93m-15.874-35.717v11.653c0 .756.614 1.37 1.37 1.37h9.403a1.37 1.37 0 0 0 1.37-1.37V273.91a1.37 1.37 0 0 0-1.37-1.37h-9.403a1.37 1.37 0 0 0-1.37 1.37" fill="#EB495F"/><path d="M225.74 471.629V236.685c0-5.633 4.567-10.199 10.199-10.199h42.486a3.247 3.247 0 0 1 3.24 3.012l2.86 39.235a10.198 10.198 0 0 0 8.168 9.258l112.27 22.497a10.198 10.198 0 0 1 8.194 10v161.14c0 5.633-4.566 10.2-10.197 10.2H235.939c-5.632 0-10.198-4.567-10.198-10.2" fill="#FFDA00"/><path d="M346.789 166.612h11.992a4.333 4.333 0 0 1 4.306 3.856l13.149 118.504c.323 2.915-2.282 5.303-5.157 4.726l-36.482-7.31a4.332 4.332 0 0 1-3.46-4.688l11.342-111.194a4.333 4.333 0 0 1 4.31-3.894m93.607 259.982h-57.371a.522.522 0 0 1-.522-.523v-8.745c0-.288.233-.522.522-.522h53.055a4.839 4.839 0 0 1 4.838 4.839v4.428a.522.522 0 0 1-.522.523M263.392 276.96h-15.913v-19.586a7.956 7.956 0 1 1 15.913 0v19.586zm36.721 53.955H284.2V311.33a7.957 7.957 0 1 1 15.913 0v19.586zm71.32 86.611h-39.596V379.61c0-10.935 8.864-19.8 19.798-19.8 10.934 0 19.798 8.865 19.798 19.8v37.915zm-108.041-86.611h-15.913V311.33a7.956 7.956 0 1 1 15.913 0v19.586zm114.448-3.153h12.547v-6.12H377.84zm14.995 0h12.546v-6.12h-12.546zm-21.268 9.274h12.546v-6.12h-12.546zm6.273 9.274h12.547v-6.12H377.84zm-133.203 70.494h12.547v-6.121h-12.547zm-7.893 9.79h12.547v-6.121h-12.547zm15.896 0h12.547v-6.121H252.64zm8.168 9.789h12.547v-6.12h-12.547zm-68.115-120.345c-9.591 0-17.367-7.776-17.367-17.37 0-9.592 7.776-17.368 17.367-17.368 9.592 0 17.368 7.776 17.368 17.369s-7.776 17.37-17.368 17.37z" fill="#EB495F"/><path fill="#FFDA00" d="M340.278 192.088l23.975-11.11-.368-3.32-23.203 10.47zm-1.17 11.327l26.31-12.148-.368-3.32-25.538 11.509zm-1.132 11.423l28.562-13.217-.368-3.32-27.79 12.578zm-1.173 11.311l30.886-14.266-.367-3.32-30.116 13.627z"/><path d="M362.62 165.233s-4.022-16.497-17.527-16.91c-13.506-.412-16.805 4.846-19.898 7.011-3.093 2.166-10.928 3.919-17.527 5.465-6.598 1.547-27.939 6.702-34.125 20.312-6.186 13.61-5.67 21.446-2.577 27.838 3.093 6.393 14.687 18.044 30.54 13.3 15.853-4.742 13.38-18.352 19.874-23.301 6.495-4.95 8.145-4.227 13.609-9.898 5.464-5.67 5.17-13.32 9.868-18.11 5.007-5.106 9.458-5.565 9.458-5.565l8.304-.142zm44.737 251.571h-19.615c-.901 0-1.632-.73-1.632-1.632v-15.053c0-.902.731-1.632 1.632-1.632h19.615c.901 0 1.632.73 1.632 1.632v15.053c0 .902-.73 1.632-1.632 1.632" fill="#0900C6"/><path d="M400.011 402.345h-5.154a1.035 1.035 0 0 1 0-2.07h5.154a1.035 1.035 0 0 1 0 2.07" fill="#FFF"/><path fill="#EB495F" d="M143.767 444.303h12.547v-6.12h-12.547zm44.937-53.755h12.547v-6.121h-12.547zm0 8.658h12.547v-6.12h-12.547zm0 8.659h12.547v-6.121h-12.547zm14.586 36.438h12.547v-6.12h-12.546zm-14.586-27.419h12.547v-6.12h-12.547zm0 9.02h12.547v-6.121h-12.547zm0 9.019h12.547v-6.12h-12.547zm-14.994 9.38h12.546v-6.12h-12.547zm-45.25 0h12.546v-6.12h-12.547z"/><path d="M177.256 463.898h31.104a2.98 2.98 0 0 0 2.972-3.18l-11.487-171.005a2.98 2.98 0 0 0-2.972-2.78h-6.596a2.98 2.98 0 0 0-2.971 2.753l-13.02 171.007a2.98 2.98 0 0 0 2.97 3.205" fill="#EB495F"/><path d="M611.777 587.91c-.357-34.325-102.648-92.752-223.694-121.15-20.75-4.868-284.304-61.978-356.636-13.77-66.012 43.995-54.712 135.783-54.712 135.783s607.14-1.393 635.042-.864" fill="#00E07D"/><path d="M192.372 301.026c2.763 0 2.768-4.296 0-4.296-2.764 0-2.769 4.296 0 4.296m-32.219 4.547a7.676 7.676 0 0 0-2.784-.638c-.784-.028-.782 1.19 0 1.218.747.027 1.48.177 2.17.472.304.13.648.088.832-.219.152-.255.084-.704-.218-.833m-8.553.28c-1.23-.106-2.412.141-3.516.682-.704.344-.088 1.394.614 1.05.917-.448 1.889-.602 2.902-.514.78.068.776-1.15 0-1.218m-8.103 1.327a5.423 5.423 0 0 0-2.56.334c-.724.28-.41 1.457.324 1.174a4.626 4.626 0 0 1 2.236-.29c.778.085.772-1.133 0-1.218m-6.779 1.581c-1.014-.107-3.765-.163-3.467 1.472.056.31.458.526.749.425l2.231-.772c.736-.254.42-1.431-.323-1.174m-8.324 3.588c-1.135-.725-2.932-.208-3.003 1.306-.033.689.644 1.34 1.3.869.345-.248.339-1.04.91-.914m64.195-159.343a20.292 20.292 0 0 0 2.023 6.34c.356.7 1.406.084 1.052-.614a19.307 19.307 0 0 1-1.9-6.05c-.112-.772-1.286-.443-1.175.324m3.784 11.142c-.105.653.081 1.126.459 1.657.464.651.786 1.233.792 2.06.005.785 1.192.783 1.217 0 .025-.78.215-1.744.026-2.508a1.26 1.26 0 0 0-.404-.643c-.125-.11-.674-.304-.713-.438-.142-.502-.601-.545-1.376-.128zm4.51 11.669h1.174c-.174-1.25-.2-2.622-.951-3.9-.397-.675-1.45-.064-1.051.614.586.998 1.23 2.107.829 3.286zm1.809 9.008c.194.434.836.359 1.051 0 .315-.524.296-1.103.043-1.653-.143-.31-.364-.574-.513-.879-.191-.389.154-.337.082-.832-.113-.764-1.063-1.097-1.175-.323a6.494 6.494 0 0 0 .512 3.687zm1.779 7.255c.086.784 1.126.781 1.217 0 .156-1.34.653-3.272-1-3.857-.74-.261-1.304.406-.57.666.449.159.566 1.222.353 3.191z" fill="#FFF"/></g></g></g></svg>