<svg width="531" height="442" viewBox="0 0 531 442" xmlns="http://www.w3.org/2000/svg"><title>Mac</title><g fill="none"><path d="M522.688 297.92L376.89 212.81a14.876 14.876 0 0 0-14.322-.425c1.632-2.122 1.187-5.39-1.334-6.896l-66.608-46.386c-4.576-2.695-10.275-2.758-14.893-.127L3.729 318.439c-4.598 2.632-5.021 7.364-.064 8.106l110.673 21.708c5.339.912 9.83 1.782 14.258-.34-1.653 2.122-1.208 5.411 1.335 6.918l145.862 85.068a14.88 14.88 0 0 0 14.893.106l231.939-133.958c3.114-1.803 3.156-6.302.063-8.127z" fill="#231F20" opacity=".2"/><path d="M124.91 326.418L65.696 148.557c-1.949-5.835-.127-11.862 5.19-14.938l228.72-132.24c3.877-2.249 8.94-1.91 10.805 2.547l63.132 187.049c1.25 3.692.233 9.23-3.135 11.182l-232.83 134.616c-3.982 2.313-8.791 1.316-12.668-10.355z" fill="#BA9C24"/><path d="M67.666 146.605L129.72 332.72c2.097 6.175 7.754 4.817 10.211 2.186l120.143-69.473-192.3-126.064c-.954 2.037-1.039 4.392-.107 7.236z" fill="#CFB418"/><path d="M373.521 192.439L310.601 6.048c-1.865-4.457-4.598-6.6-8.475-4.35L73.45 133.916c-2.712 1.57-4.682 3.331-5.678 5.474l6.186 1.55 186.115 124.515 110.313-63.786c3.39-1.952 4.406-5.538 3.135-9.23z" fill="#CBCBCB"/><path d="M131.795 333.166L69.235 145.31a8.163 8.163 0 0 1 3.664-9.654L304.69 1.613c2.776-1.613 6.335-.276 7.352 2.758l63.28 187.41c1.25 3.692-.253 7.766-3.643 9.697l-232.51 134.489c-2.797 1.634-6.356.276-7.373-2.801z" fill="#FFF"/><path d="M133.066 331.383L71.31 145.968a8.04 8.04 0 0 1 3.602-9.506L303.546 4.244c3.071-1.783 6.186-.976 7.52 2.567l62.455 184.97c1.398 4.69-.53 7.809-3.856 9.718L140.333 334.142c-3.56 2.058-5.996 1.124-7.267-2.759z" fill="#4E440E"/><path d="M286.195 371.148l-.466 60.476c3.199.912 6.588.87 9.766-.085l.424-54.661-9.724-5.73z" fill="#FDE51C"/><path d="M518.027 290.409l-222.087 86.49-.424 54.661c1.208-.36 2.394-.87 3.517-1.507l228.274-131.687a5.481 5.481 0 0 0 2.775-4.774l.042-2.992-12.097-.191z" fill="#CBCBCB"/><path d="M140.99 347.701l140.67 82.204a17.546 17.546 0 0 0 4.069 1.74l.466-60.475 99.169-165.32a17.386 17.386 0 0 0-17.393-.15L136.92 338.96c.085 4.137-.253 6.238 4.068 8.742z" fill="#FDE51C"/><path d="M286.195 372.485l-.466 60.476c3.199.912 6.588.87 9.766-.085l.424-54.662-9.724-5.729z" fill="#999551"/><path d="M518.027 291.724l-222.087 86.49-.424 54.662a17.047 17.047 0 0 0 3.517-1.507l228.274-131.666a5.481 5.481 0 0 0 2.775-4.775l.042-2.992-12.097-.212z" fill="#BA9C24"/><path d="M140.99 349.017l140.67 82.204a17.546 17.546 0 0 0 4.069 1.74l.466-60.476 99.169-165.32a17.386 17.386 0 0 0-17.393-.149L136.92 340.274c.085 4.138-.253 6.239 4.068 8.743z" fill="#BA9C24"/><path d="M139.994 333.824l-.34.19c-3.664 2.08-3.686 7.342-.063 9.464l142.112 83.032a17.373 17.373 0 0 0 9.385 2.398V246.697l-151.094 87.127z" fill="#CFB418"/><path d="M527.328 294.992c3.644-2.08 3.686-7.32.084-9.464l-142.006-83.074a17.386 17.386 0 0 0-17.393-.148l-76.925 44.39v182.212a17.364 17.364 0 0 0 7.987-2.25l228.253-131.666z" fill="#FFF"/><path d="M527.412 284.17l-142.006-83.074a17.386 17.386 0 0 0-17.393-.148l-21.715 12.52 8.538 5.665-173.7 100.431-9.385-5.432-31.757 18.312-.34.191c-3.664 2.08-3.686 7.342-.063 9.464l142.112 83.032a17.346 17.346 0 0 0 17.372.127L527.35 293.613c3.644-2.059 3.686-7.32.063-9.443z" fill="#FDF167"/><path d="M374.136 249.158l2.245-36.136a16.243 16.243 0 0 0-8.813 2.164L166.73 331.32l-.318.19c-3.41 1.974-3.41 6.876 0 8.85l75.293 43.541c3.326 1.931 7.16 2.568 10.847 1.952l1.271-18.397 120.313-118.298z" fill="#FFF"/><path d="M442.437 277.231l16.589-9.59c3.39-1.974 3.41-6.876 0-8.85l-75.209-43.584a16.193 16.193 0 0 0-7.436-2.164l-2.245 36.136-120.334 118.298-1.271 18.398a16.39 16.39 0 0 0 5.402-1.952L442.437 277.23z" fill="#CFB418"/><path d="M452.903 262.293l-69.065-40.041a15.557 15.557 0 0 0-15.613 0l-192.852 111.53-.317.169c-3.263 1.888-3.263 6.62 0 8.509l68.62 39.68c4.83 2.78 9.872 2.27 14.702-.51l188.636-109.088 4.449-2.568c3.283-1.888 4.703-5.793 1.44-7.681z" fill="#F9F4A8"/><path d="M179.208 330.089l-7.5 3.883c0 1.061-.275 2.143.784 2.759l1.547.89a5.776 5.776 0 0 0 3.114.786l5.19-9.124c-1.08 0-2.16.254-3.135.806z" fill="#BA9C24"/><path d="M186.708 333.76c1.059-.615.783-1.57.783-2.759l-2.33-.89a5.83 5.83 0 0 0-2.839-.786l-5.19 3.84v5.284a6.208 6.208 0 0 0 2.839-.785l6.737-3.904z" fill="#FDE51C"/><path d="M172.492 335.203l1.547.891a5.965 5.965 0 0 0 5.953 0l6.716-3.883a1.595 1.595 0 0 0 0-2.759l-1.547-.89a5.965 5.965 0 0 0-5.953 0l-6.716 3.882c-1.06.594-1.06 2.143 0 2.759z" fill="#4E440E"/><path d="M194.08 321.495l-7.5 3.883c0 1.061-.275 2.143.784 2.759l1.547.89a5.776 5.776 0 0 0 3.114.786l5.19-9.124c-1.101 0-2.182.254-3.135.806z" fill="#BA9C24"/><path d="M201.559 325.166c1.059-.615.783-1.57.783-2.759l-2.33-.89a5.83 5.83 0 0 0-2.839-.786l-5.19 3.84v5.284a6.208 6.208 0 0 0 2.839-.785l6.737-3.904z" fill="#FDE51C"/><path d="M187.364 326.609l1.547.891a5.965 5.965 0 0 0 5.953 0l6.716-3.883a1.595 1.595 0 0 0 0-2.759l-1.547-.89a5.965 5.965 0 0 0-5.953 0l-6.716 3.882c-1.08.595-1.08 2.144 0 2.759z" fill="#4E440E"/><path d="M208.931 312.901l-7.5 3.883c0 1.061-.275 2.144.784 2.759l1.547.891a5.776 5.776 0 0 0 3.114.785l5.19-9.124c-1.08 0-2.16.254-3.135.806z" fill="#BA9C24"/><path d="M216.43 316.572c1.06-.615.785-1.57.785-2.758l-2.33-.892a5.83 5.83 0 0 0-2.84-.785l-5.19 3.841v5.284a6.208 6.208 0 0 0 2.839-.785l6.737-3.905z" fill="#FDE51C"/><path d="M202.215 318.015l1.547.891a5.965 5.965 0 0 0 5.953 0l6.716-3.883a1.595 1.595 0 0 0 0-2.758l-1.547-.892a5.965 5.965 0 0 0-5.953 0l-6.716 3.884c-1.059.594-1.059 2.143 0 2.758z" fill="#4E440E"/><path d="M223.803 304.307l-7.5 3.883c0 1.061-.275 2.144.785 2.759l1.546.891a5.776 5.776 0 0 0 3.114.785l5.19-9.124c-1.1 0-2.181.255-3.135.806z" fill="#BA9C24"/><path d="M231.282 307.978c1.06-.615.784-1.57.784-2.758l-2.33-.891a5.83 5.83 0 0 0-2.84-.786l-5.19 3.841v5.284a6.208 6.208 0 0 0 2.839-.785l6.737-3.905z" fill="#FDE51C"/><path d="M217.088 309.421l1.546.891a5.965 5.965 0 0 0 5.953 0l6.716-3.883a1.595 1.595 0 0 0 0-2.758l-1.547-.891a5.965 5.965 0 0 0-5.953 0l-6.715 3.883c-1.08.594-1.08 2.143 0 2.758z" fill="#4E440E"/><path d="M238.654 295.713l-7.5 3.884c0 1.06-.275 2.143.785 2.758l1.546.891a5.776 5.776 0 0 0 3.114.785l5.19-9.124c-1.08 0-2.16.255-3.135.806z" fill="#BA9C24"/><path d="M246.154 299.384c1.06-.615.784-1.57.784-2.758l-2.33-.891a5.83 5.83 0 0 0-2.84-.785l-5.19 3.84v5.284a6.208 6.208 0 0 0 2.84-.785l6.736-3.905z" fill="#FDE51C"/><path d="M231.939 300.827l1.546.892a5.965 5.965 0 0 0 5.953 0l6.716-3.884a1.595 1.595 0 0 0 0-2.758l-1.546-.891a5.965 5.965 0 0 0-5.954 0l-6.715 3.883c-1.06.594-1.06 2.143 0 2.758z" fill="#4E440E"/><path d="M253.527 287.12l-7.5 3.883c0 1.06-.275 2.143.784 2.758l1.546.892a5.776 5.776 0 0 0 3.115.785l5.19-9.125c-1.102 0-2.182.255-3.135.807z" fill="#BA9C24"/><path d="M261.005 290.79c1.06-.615.784-1.57.784-2.758l-2.33-.891a5.83 5.83 0 0 0-2.84-.785l-5.19 3.84v5.284a6.208 6.208 0 0 0 2.84-.785l6.736-3.904z" fill="#FDE51C"/><path d="M246.81 292.234l1.547.89a5.965 5.965 0 0 0 5.953 0l6.716-3.882a1.595 1.595 0 0 0 0-2.759l-1.546-.891a5.965 5.965 0 0 0-5.953 0l-6.716 3.883c-1.06.594-1.06 2.143 0 2.759z" fill="#4E440E"/><path d="M268.399 278.526l-7.5 3.883c0 1.06-.275 2.143.784 2.758l1.547.892a5.776 5.776 0 0 0 3.114.785l5.19-9.125a6.015 6.015 0 0 0-3.135.807z" fill="#BA9C24"/><path d="M275.877 282.197c1.06-.616.784-1.57.784-2.759l-2.33-.891a5.83 5.83 0 0 0-2.84-.785l-5.19 3.84v5.284a6.208 6.208 0 0 0 2.84-.785l6.736-3.904z" fill="#FDE51C"/><path d="M261.662 283.64l1.546.89a5.965 5.965 0 0 0 5.953 0l6.716-3.882a1.595 1.595 0 0 0 0-2.759l-1.546-.891a5.965 5.965 0 0 0-5.953 0l-6.716 3.883c-1.06.594-1.06 2.143 0 2.759z" fill="#4E440E"/><path d="M283.25 269.932l-7.5 3.883c0 1.061-.275 2.143.784 2.759l1.547.89a5.776 5.776 0 0 0 3.114.786l5.19-9.124a6.015 6.015 0 0 0-3.135.806z" fill="#BA9C24"/><path d="M290.728 273.582c1.06-.616.784-1.57.784-2.759l-2.33-.891a5.83 5.83 0 0 0-2.84-.785l-5.19 3.84v5.284a6.208 6.208 0 0 0 2.84-.785l6.736-3.904z" fill="#FDE51C"/><path d="M276.534 275.046l1.547.891a5.965 5.965 0 0 0 5.953 0l6.715-3.883a1.595 1.595 0 0 0 0-2.759l-1.546-.89a5.965 5.965 0 0 0-5.953 0l-6.716 3.882c-1.06.594-1.06 2.143 0 2.759z" fill="#4E440E"/><path d="M298.122 261.338l-7.5 3.883c0 1.061-.275 2.143.784 2.759l1.547.891a5.776 5.776 0 0 0 3.114.785l5.19-9.124a6.015 6.015 0 0 0-3.135.806z" fill="#BA9C24"/><path d="M305.6 264.988c1.06-.616.784-1.57.784-2.759l-2.33-.89a5.83 5.83 0 0 0-2.839-.786l-5.19 3.84v5.284a6.208 6.208 0 0 0 2.839-.785l6.737-3.904z" fill="#FDE51C"/><path d="M291.385 266.452l1.547.891a5.965 5.965 0 0 0 5.953 0l6.716-3.883a1.595 1.595 0 0 0 0-2.759l-1.547-.89a5.965 5.965 0 0 0-5.953 0l-6.716 3.882c-1.06.595-1.06 2.144 0 2.759z" fill="#4E440E"/><path d="M312.973 252.744l-7.5 3.883c0 1.061-.275 2.144.784 2.759l1.547.891a5.776 5.776 0 0 0 3.114.785l5.19-9.124a6.015 6.015 0 0 0-3.135.806z" fill="#BA9C24"/><path d="M320.452 256.394c1.059-.615.783-1.57.783-2.759l-2.33-.89a5.83 5.83 0 0 0-2.839-.786l-5.19 3.84v5.284a6.208 6.208 0 0 0 2.839-.785l6.737-3.904z" fill="#FDE51C"/><path d="M306.257 257.858l1.547.891a5.965 5.965 0 0 0 5.953 0l6.716-3.883a1.595 1.595 0 0 0 0-2.758l-1.547-.892a5.965 5.965 0 0 0-5.953 0l-6.716 3.884c-1.059.594-1.059 2.143 0 2.758z" fill="#4E440E"/><path d="M327.845 244.15l-7.5 3.884c0 1.06-.275 2.143.784 2.758l1.547.891a5.776 5.776 0 0 0 3.114.785l5.19-9.124a6.015 6.015 0 0 0-3.135.806z" fill="#BA9C24"/><path d="M335.324 247.8c1.059-.615.784-1.57.784-2.758l-2.33-.892a5.83 5.83 0 0 0-2.84-.785l-5.19 3.841v5.284a6.208 6.208 0 0 0 2.839-.786l6.737-3.904z" fill="#FDE51C"/><path d="M321.108 249.243l1.547.891a5.965 5.965 0 0 0 5.953 0l6.716-3.883a1.595 1.595 0 0 0 0-2.758l-1.547-.892a5.965 5.965 0 0 0-5.953 0l-6.716 3.883c-1.059.616-1.059 2.165 0 2.759z" fill="#4E440E"/><path d="M342.696 235.557l-7.5 3.883c0 1.06-.275 2.143.784 2.758l1.547.891a5.776 5.776 0 0 0 3.114.786l5.19-9.125a6.067 6.067 0 0 0-3.135.807z" fill="#BA9C24"/><path d="M350.175 239.206c1.059-.615.784-1.57.784-2.758l-2.33-.891a5.83 5.83 0 0 0-2.84-.786l-5.19 3.841v5.284a6.208 6.208 0 0 0 2.839-.785l6.737-3.905z" fill="#FDE51C"/><path d="M335.98 240.65l1.547.89a5.965 5.965 0 0 0 5.953 0l6.716-3.883a1.595 1.595 0 0 0 0-2.758l-1.547-.892a5.965 5.965 0 0 0-5.953 0l-6.716 3.884a1.595 1.595 0 0 0 0 2.758z" fill="#4E440E"/><path d="M357.568 226.963l-7.5 3.883c0 1.06-.275 2.143.785 2.758l1.546.892a5.776 5.776 0 0 0 3.114.785l5.19-9.125a6.015 6.015 0 0 0-3.135.807z" fill="#BA9C24"/><path d="M365.047 230.612c1.06-.615.784-1.57.784-2.758l-2.33-.891a5.83 5.83 0 0 0-2.84-.785l-5.169 3.84v5.284a6.208 6.208 0 0 0 2.84-.785l6.715-3.905z" fill="#FDE51C"/><path d="M350.831 232.055l1.547.892a5.965 5.965 0 0 0 5.953 0l6.716-3.884a1.595 1.595 0 0 0 0-2.758l-1.547-.891a5.965 5.965 0 0 0-5.953 0l-6.716 3.883a1.595 1.595 0 0 0 0 2.758z" fill="#4E440E"/><path d="M372.42 218.369l-7.5 3.883c0 1.06-.276 2.143.784 2.758l1.546.892a5.776 5.776 0 0 0 3.115.785l5.19-9.125a6.067 6.067 0 0 0-3.136.807z" fill="#BA9C24"/><path d="M379.898 222.019c1.06-.616.784-1.57.784-2.759l-2.33-.891a5.83 5.83 0 0 0-2.84-.785l-5.19 3.84v5.284a6.208 6.208 0 0 0 2.839-.785l6.737-3.904z" fill="#FDE51C"/><path d="M365.704 223.461l1.546.892a5.965 5.965 0 0 0 5.953 0l6.716-3.883a1.595 1.595 0 0 0 0-2.759l-1.546-.891a5.965 5.965 0 0 0-5.954 0l-6.715 3.883a1.595 1.595 0 0 0 0 2.758z" fill="#4E440E"/><path d="M188.53 335.479l-7.5 3.883c0 1.06-.276 2.143.784 2.758l6.716 3.883a5.776 5.776 0 0 0 3.114.786V334.65c-1.06.021-2.14.276-3.114.828z" fill="#BA9C24"/><path d="M201.198 342.142c1.06-.616.784-1.57.784-2.759l-7.5-3.904a5.83 5.83 0 0 0-2.838-.785v12.137a6.208 6.208 0 0 0 2.839-.785l6.715-3.904z" fill="#FDE51C"/><path d="M181.814 340.593l6.716 3.883a5.965 5.965 0 0 0 5.953 0l6.715-3.883a1.595 1.595 0 0 0 0-2.759l-6.715-3.883a5.965 5.965 0 0 0-5.953 0l-6.716 3.883c-1.06.594-1.06 2.143 0 2.759z" fill="#4E440E"/><path d="M203.402 326.885l-7.5 3.883c0 1.06-.275 2.143.784 2.758l6.716 3.884a5.776 5.776 0 0 0 3.114.785v-12.138c-1.08.021-2.16.276-3.114.828z" fill="#BA9C24"/><path d="M216.07 333.548c1.06-.616.785-1.57.785-2.759l-7.5-3.883a5.83 5.83 0 0 0-2.839-.785v12.137a6.208 6.208 0 0 0 2.839-.785l6.716-3.925z" fill="#FDE51C"/><path d="M196.686 331.999l6.716 3.883a5.965 5.965 0 0 0 5.953 0l6.716-3.883a1.595 1.595 0 0 0 0-2.759l-6.716-3.883a5.965 5.965 0 0 0-5.953 0l-6.716 3.883c-1.06.594-1.06 2.143 0 2.759z" fill="#4E440E"/><path d="M218.274 318.29l-7.5 3.884c0 1.061-.275 2.143.784 2.759l6.716 3.883a5.776 5.776 0 0 0 3.114.785v-12.138c-1.08.022-2.16.276-3.114.828z" fill="#BA9C24"/><path d="M230.922 324.954c1.059-.616.784-1.57.784-2.759l-7.5-3.883a5.83 5.83 0 0 0-2.839-.785v12.138a6.208 6.208 0 0 0 2.839-.786l6.716-3.925z" fill="#FDE51C"/><path d="M211.537 323.405l6.716 3.883a5.965 5.965 0 0 0 5.953 0l6.716-3.883a1.595 1.595 0 0 0 0-2.759l-6.716-3.883a5.965 5.965 0 0 0-5.953 0l-6.716 3.883c-1.06.594-1.06 2.143 0 2.759z" fill="#4E440E"/><path d="M233.125 309.697l-7.5 3.883c0 1.061-.275 2.143.784 2.759l6.716 3.883a5.776 5.776 0 0 0 3.114.785V308.87c-1.08.02-2.16.275-3.114.827z" fill="#BA9C24"/><path d="M245.794 316.36c1.06-.615.784-1.57.784-2.759l-7.5-3.883a5.83 5.83 0 0 0-2.839-.785v12.138a6.208 6.208 0 0 0 2.84-.785l6.715-3.926z" fill="#FDE51C"/><path d="M226.41 314.81l6.715 3.884a5.965 5.965 0 0 0 5.953 0l6.716-3.883a1.595 1.595 0 0 0 0-2.759l-6.716-3.883a5.965 5.965 0 0 0-5.953 0l-6.716 3.883c-1.06.595-1.06 2.144 0 2.759z" fill="#4E440E"/><path d="M247.997 301.103l-7.5 3.883c0 1.061-.275 2.144.784 2.759l6.716 3.883a5.776 5.776 0 0 0 3.114.785v-12.137c-1.08.02-2.16.276-3.114.827z" fill="#BA9C24"/><path d="M260.645 307.766c1.06-.615.784-1.57.784-2.758l-7.5-3.884a5.83 5.83 0 0 0-2.839-.785v12.138a6.208 6.208 0 0 0 2.84-.785l6.715-3.926z" fill="#FDE51C"/><path d="M241.26 306.217l6.716 3.883a5.965 5.965 0 0 0 5.953 0l6.716-3.883a1.595 1.595 0 0 0 0-2.758l-6.716-3.884a5.965 5.965 0 0 0-5.953 0l-6.716 3.884c-1.06.594-1.06 2.143 0 2.758z" fill="#4E440E"/><path d="M248.379 305.305l1.758 1.018c.487.276 1.08.276 1.568 0l1.758-1.018c.275-.17.275-.573 0-.722l-1.758-1.018a1.588 1.588 0 0 0-1.568 0l-1.758 1.018c-.276.149-.276.552 0 .722z" fill="#FFF"/><path d="M262.848 292.51l-7.5 3.883c0 1.06-.275 2.143.784 2.758l6.716 3.883a5.776 5.776 0 0 0 3.114.785v-12.137c-1.08.021-2.14.276-3.114.827z" fill="#BA9C24"/><path d="M275.517 299.172c1.06-.615.784-1.57.784-2.758l-7.5-3.883a5.83 5.83 0 0 0-2.839-.786v12.138a6.208 6.208 0 0 0 2.84-.785l6.715-3.926z" fill="#FDE51C"/><path d="M256.132 297.623l6.716 3.883a5.965 5.965 0 0 0 5.953 0l6.716-3.883a1.595 1.595 0 0 0 0-2.758l-6.716-3.883a5.965 5.965 0 0 0-5.953 0l-6.716 3.883c-1.059.594-1.059 2.143 0 2.758z" fill="#4E440E"/><path d="M263.25 296.71l1.76 1.02c.486.275 1.08.275 1.567 0l1.758-1.02c.276-.169.276-.572 0-.72l-1.758-1.02a1.588 1.588 0 0 0-1.568 0l-1.758 1.02c-.276.148-.276.551 0 .72zm14.47-12.794l-7.5 3.883c0 1.06-.275 2.143.785 2.758l6.715 3.883a5.776 5.776 0 0 0 3.115.785v-12.137c-1.08.021-2.161.276-3.115.828z" fill="#BA9C24"/><path d="M290.368 290.578c1.06-.615.784-1.57.784-2.758l-7.5-3.883a5.83 5.83 0 0 0-2.839-.785v12.137a6.208 6.208 0 0 0 2.84-.785l6.715-3.926z" fill="#FDE51C"/><path d="M270.983 289.03l6.716 3.883a5.965 5.965 0 0 0 5.953 0l6.716-3.884a1.595 1.595 0 0 0 0-2.758l-6.716-3.883a5.965 5.965 0 0 0-5.953 0l-6.716 3.883c-1.059.594-1.059 2.143 0 2.758z" fill="#4E440E"/><path d="M278.102 288.117l1.758 1.018c.487.276 1.08.276 1.568 0l1.758-1.018c.276-.17.276-.573 0-.722l-1.758-1.018a1.588 1.588 0 0 0-1.568 0l-1.758 1.018c-.276.149-.276.552 0 .722zm14.469-12.795l-7.5 3.883c0 1.06-.275 2.143.785 2.758l6.715 3.883a5.776 5.776 0 0 0 3.115.786v-12.138c-1.08.021-2.14.276-3.115.828z" fill="#BA9C24"/><path d="M305.24 281.985c1.06-.616.784-1.57.784-2.759l-7.5-3.883a5.83 5.83 0 0 0-2.838-.785v12.137a6.208 6.208 0 0 0 2.839-.785l6.715-3.925z" fill="#FDE51C"/><path d="M285.856 280.436l6.715 3.883a5.965 5.965 0 0 0 5.954 0l6.715-3.883a1.595 1.595 0 0 0 0-2.759l-6.715-3.883a5.965 5.965 0 0 0-5.954 0l-6.715 3.883c-1.06.594-1.06 2.143 0 2.759z" fill="#4E440E"/><path d="M292.974 279.523l1.758 1.019c.488.275 1.08.275 1.568 0l1.758-1.019c.276-.17.276-.573 0-.721l-1.758-1.019a1.588 1.588 0 0 0-1.568 0l-1.758 1.019c-.275.148-.275.551 0 .721zm14.47-12.795l-7.5 3.883c0 1.06-.275 2.143.784 2.758l6.716 3.884a5.776 5.776 0 0 0 3.114.785V265.9c-1.08.021-2.161.276-3.114.828z" fill="#BA9C24"/><path d="M320.091 273.39c1.06-.615.784-1.57.784-2.758l-7.5-3.883a5.83 5.83 0 0 0-2.838-.785V278.1a6.208 6.208 0 0 0 2.839-.785l6.715-3.925z" fill="#FDE51C"/><path d="M300.707 271.842l6.715 3.883a5.965 5.965 0 0 0 5.954 0l6.715-3.883a1.595 1.595 0 0 0 0-2.759l-6.715-3.883a5.965 5.965 0 0 0-5.954 0l-6.715 3.883c-1.06.594-1.06 2.143 0 2.759z" fill="#4E440E"/><path d="M307.825 270.93l1.758 1.018c.488.276 1.08.276 1.568 0l1.758-1.019c.276-.17.276-.573 0-.721l-1.758-1.019a1.588 1.588 0 0 0-1.568 0l-1.758 1.019c-.275.148-.275.551 0 .721zm14.47-12.796l-7.5 3.883c0 1.061-.275 2.143.784 2.759l6.716 3.883a5.776 5.776 0 0 0 3.114.785v-12.138c-1.06.022-2.14.276-3.114.828z" fill="#BA9C24"/><path d="M334.964 264.797c1.059-.616.783-1.57.783-2.759l-7.5-3.883a5.83 5.83 0 0 0-2.838-.785v12.138a6.208 6.208 0 0 0 2.839-.786l6.716-3.925z" fill="#FDE51C"/><path d="M315.579 263.248l6.716 3.883a5.965 5.965 0 0 0 5.953 0l6.716-3.883a1.595 1.595 0 0 0 0-2.759l-6.716-3.883a5.965 5.965 0 0 0-5.953 0l-6.716 3.883c-1.06.594-1.06 2.143 0 2.759z" fill="#4E440E"/><path d="M322.697 262.335l1.759 1.019c.487.276 1.08.276 1.567 0l1.759-1.019c.275-.17.275-.573 0-.721l-1.759-1.019a1.588 1.588 0 0 0-1.567 0l-1.759 1.019c-.275.148-.275.552 0 .721z" fill="#FFF"/><path d="M337.167 249.54l-7.5 3.883c0 1.061-.275 2.143.784 2.759l6.716 3.883a5.776 5.776 0 0 0 3.114.785v-12.137c-1.08.02-2.16.275-3.114.827z" fill="#BA9C24"/><path d="M349.836 256.203c1.06-.615.784-1.57.784-2.759l-7.5-3.883a5.83 5.83 0 0 0-2.839-.785v12.138a6.208 6.208 0 0 0 2.839-.785l6.716-3.926z" fill="#FDE51C"/><path d="M330.451 254.654l6.716 3.883a5.965 5.965 0 0 0 5.953 0l6.716-3.883a1.595 1.595 0 0 0 0-2.759l-6.716-3.883a5.965 5.965 0 0 0-5.953 0l-6.716 3.883c-1.08.595-1.08 2.144 0 2.759z" fill="#4E440E"/><path d="M337.548 253.742l1.759 1.018c.487.276 1.08.276 1.567 0l1.759-1.018c.275-.17.275-.573 0-.722l-1.759-1.018a1.588 1.588 0 0 0-1.567 0l-1.759 1.018c-.275.149-.275.552 0 .722zm14.47-12.796l-7.5 3.883c0 1.061-.275 2.144.784 2.759l6.716 3.883a5.776 5.776 0 0 0 3.114.785V240.12a6.34 6.34 0 0 0-3.114.827z" fill="#BA9C24"/><path d="M364.687 247.61c1.06-.616.784-1.571.784-2.76l-7.5-3.883a5.83 5.83 0 0 0-2.839-.785v12.138a6.208 6.208 0 0 0 2.839-.785l6.716-3.926z" fill="#FDE51C"/><path d="M345.302 246.06l6.716 3.883a5.965 5.965 0 0 0 5.953 0l6.716-3.883a1.595 1.595 0 0 0 0-2.758l-6.716-3.884a5.965 5.965 0 0 0-5.953 0l-6.716 3.884c-1.06.594-1.06 2.143 0 2.758z" fill="#4E440E"/><path d="M352.42 245.148l1.759 1.018c.487.276 1.08.276 1.568 0l1.758-1.018c.275-.17.275-.573 0-.722l-1.758-1.018a1.588 1.588 0 0 0-1.568 0l-1.759 1.018c-.275.149-.275.552 0 .722zm29.321-21.389l-22.202 12.37c0 1.061-.276 2.144.784 2.759l6.715 3.883a5.776 5.776 0 0 0 3.115.785l14.681-20.625a6.321 6.321 0 0 0-3.093.828z" fill="#BA9C24"/><path d="M394.41 230.421c1.06-.615.784-1.57.784-2.758l-7.5-3.883a5.83 5.83 0 0 0-2.839-.785l-14.85 15.575.169 5.05a6.208 6.208 0 0 0 2.839-.785l21.397-12.414z" fill="#FDE51C"/><path d="M360.344 237.36l6.716 3.883a5.965 5.965 0 0 0 5.953 0l21.418-12.37a1.595 1.595 0 0 0 0-2.76l-6.716-3.882a5.965 5.965 0 0 0-5.953 0l-21.418 12.37c-1.06.595-1.06 2.144 0 2.76z" fill="#4E440E"/><path d="M382.144 227.96l1.758 1.018c.487.276 1.08.276 1.568 0l1.758-1.018c.276-.17.276-.573 0-.721l-1.758-1.019a1.588 1.588 0 0 0-1.568 0l-1.758 1.019c-.276.148-.276.551 0 .721zM208.486 341.25l-12.5 6.77c0 1.06-.275 2.142.785 2.758l6.716 3.883a5.776 5.776 0 0 0 3.114.785l5-15.023a6.34 6.34 0 0 0-3.115.827z" fill="#BA9C24"/><path d="M221.155 347.913c1.06-.615.784-1.57.784-2.758l-7.5-3.883a5.83 5.83 0 0 0-2.838-.786l-5 11.798v3.226a6.208 6.208 0 0 0 2.839-.785l11.715-6.812z" fill="#FDE51C"/><path d="M196.77 349.25l6.717 3.883a5.965 5.965 0 0 0 5.953 0l11.715-6.769a1.595 1.595 0 0 0 0-2.758l-6.716-3.883a5.965 5.965 0 0 0-5.953 0l-11.715 6.769c-1.06.594-1.06 2.143 0 2.758z" fill="#4E440E"/><path d="M223.358 332.656l-7.5 3.884c0 1.06-.275 2.143.785 2.758l6.715 3.883a5.776 5.776 0 0 0 3.115.785v-12.095a5.776 5.776 0 0 0-3.115.785z" fill="#BA9C24"/><path d="M236.027 339.32c1.06-.616.784-1.57.784-2.76l-7.5-3.882a5.83 5.83 0 0 0-2.838-.785v12.137a6.208 6.208 0 0 0 2.839-.785l6.715-3.926z" fill="#FDE51C"/><path d="M216.643 337.77l6.715 3.883a5.965 5.965 0 0 0 5.954 0l6.715-3.883a1.595 1.595 0 0 0 0-2.758l-6.715-3.883a5.965 5.965 0 0 0-5.954 0l-6.715 3.883c-1.08.594-1.08 2.143 0 2.758z" fill="#4E440E"/><path d="M223.74 336.858l1.758 1.018c.487.276 1.08.276 1.568 0l1.758-1.018c.276-.17.276-.573 0-.722l-1.758-1.018a1.588 1.588 0 0 0-1.568 0l-1.758 1.018c-.276.149-.276.552 0 .722zm14.47-12.795l-7.5 3.883c0 1.06-.276 2.143.784 2.758l6.716 3.883a5.776 5.776 0 0 0 3.114.786v-12.138a6.34 6.34 0 0 0-3.114.828z" fill="#BA9C24"/><path d="M250.878 330.725c1.06-.615.784-1.57.784-2.758l-7.5-3.883a5.83 5.83 0 0 0-2.838-.785v12.137a6.208 6.208 0 0 0 2.839-.785l6.715-3.926z" fill="#FDE51C"/><path d="M231.494 329.155l6.716 3.883a5.965 5.965 0 0 0 5.953 0l6.715-3.883a1.595 1.595 0 0 0 0-2.758l-6.715-3.883a5.965 5.965 0 0 0-5.953 0l-6.716 3.883c-1.06.615-1.06 2.164 0 2.758z" fill="#4E440E"/><path d="M238.612 328.264l1.758 1.019c.488.275 1.08.275 1.568 0l1.759-1.019c.275-.17.275-.573 0-.721l-1.759-1.019a1.588 1.588 0 0 0-1.568 0l-1.758 1.019c-.275.148-.275.551 0 .721zm14.47-12.795l-7.5 3.883c0 1.06-.275 2.143.784 2.758l6.716 3.884a5.776 5.776 0 0 0 3.114.785v-12.095a5.776 5.776 0 0 0-3.114.785z" fill="#BA9C24"/><path d="M265.75 322.132c1.06-.616.784-1.57.784-2.759l-7.5-3.883a5.83 5.83 0 0 0-2.838-.785v12.137a6.208 6.208 0 0 0 2.839-.785l6.716-3.925z" fill="#FDE51C"/><path d="M246.366 320.561l6.716 3.884a5.965 5.965 0 0 0 5.953 0l6.716-3.884a1.595 1.595 0 0 0 0-2.758l-6.716-3.883a5.965 5.965 0 0 0-5.953 0l-6.716 3.883a1.595 1.595 0 0 0 0 2.758z" fill="#4E440E"/><path d="M253.484 319.67l1.759 1.019c.487.276 1.08.276 1.567 0l1.759-1.019c.275-.17.275-.573 0-.721l-1.759-1.019a1.588 1.588 0 0 0-1.567 0l-1.759 1.019c-.296.148-.296.551 0 .721zm14.449-12.795l-7.5 3.883c0 1.061-.275 2.143.784 2.759l6.716 3.883a5.776 5.776 0 0 0 3.114.785v-12.138a6.34 6.34 0 0 0-3.114.828z" fill="#BA9C24"/><path d="M280.602 313.538c1.059-.616.784-1.57.784-2.759l-7.5-3.883a5.83 5.83 0 0 0-2.839-.785v12.137a6.208 6.208 0 0 0 2.839-.785l6.716-3.925z" fill="#FDE51C"/><path d="M261.217 311.968l6.716 3.883a5.965 5.965 0 0 0 5.953 0l6.716-3.883a1.595 1.595 0 0 0 0-2.759l-6.716-3.883a5.965 5.965 0 0 0-5.953 0l-6.716 3.883a1.595 1.595 0 0 0 0 2.759z" fill="#4E440E"/><path d="M282.805 298.281l-7.5 3.883c0 1.061-.275 2.143.784 2.759l6.716 3.883a5.776 5.776 0 0 0 3.114.785v-12.095a5.776 5.776 0 0 0-3.114.785z" fill="#BA9C24"/><path d="M295.474 304.944c1.06-.615.784-1.57.784-2.759l-7.5-3.883a5.83 5.83 0 0 0-2.839-.785v12.138a6.208 6.208 0 0 0 2.839-.785l6.716-3.926z" fill="#FDE51C"/><path d="M276.09 303.374l6.715 3.883a5.965 5.965 0 0 0 5.953 0l6.716-3.883a1.595 1.595 0 0 0 0-2.759l-6.716-3.883a5.965 5.965 0 0 0-5.953 0l-6.716 3.883a1.595 1.595 0 0 0 0 2.759z" fill="#4E440E"/><path d="M283.207 302.482l1.759 1.019c.487.276 1.08.276 1.568 0l1.758-1.019c.275-.17.275-.572 0-.721l-1.758-1.019a1.588 1.588 0 0 0-1.568 0l-1.759 1.019c-.296.149-.296.552 0 .721zm14.47-12.795l-7.5 3.883c0 1.061-.275 2.143.784 2.759l6.716 3.883a5.776 5.776 0 0 0 3.114.785V288.86c-1.08 0-2.16.275-3.114.827z" fill="#BA9C24"/><path d="M310.325 296.35c1.06-.615.784-1.57.784-2.758l-7.5-3.884a5.83 5.83 0 0 0-2.839-.785v12.138a6.208 6.208 0 0 0 2.84-.785l6.715-3.926z" fill="#FDE51C"/><path d="M290.94 294.78l6.716 3.883a5.965 5.965 0 0 0 5.953 0l6.716-3.883a1.595 1.595 0 0 0 0-2.759l-6.716-3.883a5.965 5.965 0 0 0-5.953 0l-6.716 3.883a1.595 1.595 0 0 0 0 2.759z" fill="#4E440E"/><path d="M298.058 293.889l1.759 1.018c.487.276 1.08.276 1.568 0l1.758-1.018c.275-.17.275-.573 0-.722l-1.758-1.018a1.588 1.588 0 0 0-1.568 0l-1.759 1.018c-.275.149-.275.552 0 .722zm14.47-12.796l-7.5 3.883c0 1.061-.275 2.144.784 2.759l6.716 3.883a5.776 5.776 0 0 0 3.114.785v-12.137c-1.08 0-2.16.276-3.114.827z" fill="#BA9C24"/><path d="M325.197 287.756c1.06-.615.784-1.57.784-2.758l-7.5-3.883a5.83 5.83 0 0 0-2.839-.786v12.138a6.208 6.208 0 0 0 2.84-.785l6.715-3.926z" fill="#FDE51C"/><path d="M305.812 286.186l6.716 3.883a5.965 5.965 0 0 0 5.953 0l6.716-3.883a1.595 1.595 0 0 0 0-2.759l-6.716-3.883a5.965 5.965 0 0 0-5.953 0l-6.716 3.883a1.595 1.595 0 0 0 0 2.759z" fill="#4E440E"/><path d="M312.93 285.295l1.76 1.018c.486.276 1.08.276 1.567 0l1.758-1.018c.276-.17.276-.573 0-.722l-1.758-1.018a1.588 1.588 0 0 0-1.568 0l-1.758 1.018c-.297.149-.297.552 0 .722zM327.4 272.5l-7.5 3.883c0 1.06-.275 2.143.785 2.758l6.715 3.883a5.776 5.776 0 0 0 3.115.785v-12.137c-1.08 0-2.161.276-3.115.827z" fill="#BA9C24"/><path d="M340.048 279.141c1.06-.615.784-1.57.784-2.758l-7.5-3.884a5.83 5.83 0 0 0-2.839-.785v12.138a6.208 6.208 0 0 0 2.84-.785l6.715-3.926z" fill="#FDE51C"/><path d="M320.663 277.592l6.716 3.883a5.965 5.965 0 0 0 5.953 0l6.716-3.883a1.595 1.595 0 0 0 0-2.758l-6.716-3.884a5.965 5.965 0 0 0-5.953 0l-6.716 3.884a1.595 1.595 0 0 0 0 2.758z" fill="#4E440E"/><path d="M327.782 276.7l1.758 1.02c.487.275 1.08.275 1.568 0l1.758-1.02c.276-.169.276-.572 0-.72l-1.758-1.02a1.588 1.588 0 0 0-1.568 0l-1.758 1.02c-.276.148-.276.551 0 .72zm14.469-12.794l-7.5 3.883c0 1.06-.275 2.143.785 2.758l6.715 3.883a5.776 5.776 0 0 0 3.115.786v-12.138c-1.08 0-2.161.276-3.115.828z" fill="#BA9C24"/><path d="M354.92 270.547c1.06-.615.784-1.57.784-2.758l-7.5-3.883a5.83 5.83 0 0 0-2.838-.786v12.138a6.208 6.208 0 0 0 2.838-.785l6.716-3.926z" fill="#FDE51C"/><path d="M335.536 268.998l6.715 3.883a5.965 5.965 0 0 0 5.953 0l6.716-3.883a1.595 1.595 0 0 0 0-2.758l-6.716-3.883a5.965 5.965 0 0 0-5.953 0l-6.715 3.883a1.595 1.595 0 0 0 0 2.758z" fill="#4E440E"/><path d="M357.124 255.312l-7.5 3.883c0 1.06-.275 2.143.784 2.758l6.716 3.884a5.776 5.776 0 0 0 3.114.785v-12.138a6.22 6.22 0 0 0-3.114.828z" fill="#BA9C24"/><path d="M369.771 261.953c1.06-.615.784-1.57.784-2.758l-7.5-3.883a5.83 5.83 0 0 0-2.838-.785v12.137a6.208 6.208 0 0 0 2.839-.785l6.715-3.926z" fill="#FDE51C"/><path d="M350.387 260.404l6.715 3.884a5.965 5.965 0 0 0 5.954 0l6.715-3.884a1.595 1.595 0 0 0 0-2.758l-6.715-3.883a5.965 5.965 0 0 0-5.954 0l-6.715 3.883a1.595 1.595 0 0 0 0 2.758z" fill="#4E440E"/><path d="M357.505 259.513l1.758 1.019c.488.276 1.08.276 1.568 0l1.758-1.019c.276-.17.276-.573 0-.721l-1.758-1.019a1.588 1.588 0 0 0-1.568 0l-1.758 1.019c-.275.148-.275.551 0 .721zm14.47-12.795l-7.5 3.883c0 1.061-.275 2.143.784 2.759l6.716 3.883a5.776 5.776 0 0 0 3.114.785V245.89a6.28 6.28 0 0 0-3.114.828z" fill="#BA9C24"/><path d="M384.644 253.36c1.059-.616.783-1.57.783-2.759l-7.5-3.883a5.83 5.83 0 0 0-2.838-.785v12.137a6.208 6.208 0 0 0 2.839-.785l6.716-3.925z" fill="#FDE51C"/><path d="M365.259 251.81l6.716 3.884a5.965 5.965 0 0 0 5.953 0l6.716-3.883a1.595 1.595 0 0 0 0-2.759l-6.716-3.883a5.965 5.965 0 0 0-5.953 0l-6.716 3.883a1.595 1.595 0 0 0 0 2.759z" fill="#4E440E"/><path d="M372.377 250.92l1.759 1.018c.487.276 1.08.276 1.567 0l1.759-1.019c.275-.17.275-.573 0-.721l-1.759-1.019a1.588 1.588 0 0 0-1.567 0l-1.759 1.019c-.275.148-.275.552 0 .721zm24.343-18.504l-17.203 9.485c0 1.061-.276 2.143.783 2.759l6.716 3.883a5.776 5.776 0 0 0 3.115.785l9.703-17.74a6.223 6.223 0 0 0-3.115.828z" fill="#BA9C24"/><path d="M409.367 239.058c1.06-.616.784-1.57.784-2.759l-7.5-3.883a5.83 5.83 0 0 0-2.839-.785l-9.703 13.58v4.138a6.208 6.208 0 0 0 2.84-.785l16.418-9.506z" fill="#FDE51C"/><path d="M380.3 243.11l6.716 3.884a5.965 5.965 0 0 0 5.953 0l16.42-9.485a1.595 1.595 0 0 0 0-2.759l-6.717-3.883a5.965 5.965 0 0 0-5.953 0l-16.419 9.485a1.579 1.579 0 0 0 0 2.759z" fill="#4E440E"/><path d="M397.1 236.617l1.759 1.019c.487.276 1.08.276 1.568 0l1.758-1.019c.276-.17.276-.572 0-.721l-1.758-1.019a1.588 1.588 0 0 0-1.568 0l-1.758 1.019c-.276.149-.276.552 0 .721zM223.592 349.993l-12.5 6.769c0 1.06-.275 2.143.784 2.758l6.716 3.883a5.776 5.776 0 0 0 3.114.785l5-15.023a6.34 6.34 0 0 0-3.114.828z" fill="#BA9C24"/><path d="M236.26 356.634c1.06-.615.784-1.57.784-2.758l-7.5-3.883a5.83 5.83 0 0 0-2.838-.785l-5 11.798v3.225a6.208 6.208 0 0 0 2.839-.785l11.715-6.812z" fill="#FDE51C"/><path d="M211.897 357.971l6.716 3.883a5.965 5.965 0 0 0 5.953 0l11.716-6.769a1.595 1.595 0 0 0 0-2.758l-6.716-3.883a5.965 5.965 0 0 0-5.953 0l-11.716 6.769a1.579 1.579 0 0 0 0 2.758z" fill="#4E440E"/><path d="M238.464 341.399l-7.5 3.883c0 1.061-.275 2.143.784 2.759l6.716 3.883a5.776 5.776 0 0 0 3.114.785V340.57c-1.08 0-2.16.276-3.114.828z" fill="#BA9C24"/><path d="M251.133 348.04c1.059-.615.784-1.57.784-2.758l-7.5-3.883a5.83 5.83 0 0 0-2.839-.785v12.137a6.208 6.208 0 0 0 2.839-.785l6.716-3.925z" fill="#FDE51C"/><path d="M231.748 346.492l6.716 3.883a5.965 5.965 0 0 0 5.953 0l6.716-3.883a1.595 1.595 0 0 0 0-2.759l-6.716-3.883a5.965 5.965 0 0 0-5.953 0l-6.716 3.883a1.579 1.579 0 0 0 0 2.759z" fill="#4E440E"/><path d="M238.866 345.6l1.759 1.019c.487.276 1.08.276 1.567 0l1.759-1.019c.275-.17.275-.573 0-.721l-1.759-1.019a1.588 1.588 0 0 0-1.567 0l-1.759 1.019c-.296.148-.296.552 0 .721zm14.449-12.795l-7.5 3.883c0 1.061-.275 2.143.784 2.759l6.716 3.883a5.776 5.776 0 0 0 3.114.785v-12.138a6.34 6.34 0 0 0-3.114.828z" fill="#BA9C24"/><path d="M265.984 339.447c1.059-.616.784-1.57.784-2.759l-7.5-3.883a5.83 5.83 0 0 0-2.839-.785v12.137a6.208 6.208 0 0 0 2.839-.785l6.716-3.925z" fill="#FDE51C"/><path d="M246.599 337.898l6.716 3.883a5.965 5.965 0 0 0 5.953 0l6.716-3.883a1.595 1.595 0 0 0 0-2.759l-6.716-3.883a5.965 5.965 0 0 0-5.953 0l-6.716 3.883a1.595 1.595 0 0 0 0 2.759z" fill="#4E440E"/><path d="M253.717 336.985l1.759 1.019c.487.276 1.08.276 1.567 0l1.759-1.019c.275-.17.275-.573 0-.721l-1.759-1.019a1.588 1.588 0 0 0-1.567 0l-1.759 1.019c-.275.17-.275.573 0 .721zm14.47-12.774l-7.5 3.883c0 1.061-.275 2.143.784 2.759l6.716 3.883a5.776 5.776 0 0 0 3.114.785v-12.137c-1.08 0-2.16.275-3.114.827z" fill="#BA9C24"/><path d="M280.856 330.853c1.06-.616.784-1.57.784-2.759l-7.5-3.883a5.83 5.83 0 0 0-2.839-.785v12.138a6.208 6.208 0 0 0 2.84-.786l6.715-3.925z" fill="#FDE51C"/><path d="M261.471 329.304l6.716 3.883a5.965 5.965 0 0 0 5.953 0l6.716-3.883a1.595 1.595 0 0 0 0-2.759l-6.716-3.883a5.965 5.965 0 0 0-5.953 0l-6.716 3.883a1.595 1.595 0 0 0 0 2.759z" fill="#4E440E"/><path d="M268.59 328.391l1.758 1.019c.487.276 1.08.276 1.568 0l1.758-1.019c.275-.17.275-.573 0-.721l-1.758-1.019a1.588 1.588 0 0 0-1.568 0l-1.759 1.019c-.296.17-.296.573 0 .721zm14.47-12.774l-7.5 3.883c0 1.061-.276 2.144.783 2.759l6.716 3.883a5.776 5.776 0 0 0 3.114.785V314.79c-1.08 0-2.16.254-3.114.827z" fill="#BA9C24"/><path d="M295.707 322.259c1.06-.615.784-1.57.784-2.759l-7.5-3.883a5.83 5.83 0 0 0-2.839-.785v12.138a6.208 6.208 0 0 0 2.84-.785l6.715-3.926z" fill="#FDE51C"/><path d="M276.322 320.71l6.716 3.883a5.965 5.965 0 0 0 5.953 0l6.716-3.883a1.595 1.595 0 0 0 0-2.759l-6.716-3.883a5.965 5.965 0 0 0-5.953 0l-6.716 3.883a1.595 1.595 0 0 0 0 2.759z" fill="#4E440E"/><path d="M297.91 307.023l-7.5 3.884c0 1.06-.275 2.143.784 2.758l6.716 3.883a5.776 5.776 0 0 0 3.114.785v-12.137c-1.08 0-2.16.255-3.114.827z" fill="#BA9C24"/><path d="M310.58 313.665c1.058-.615.783-1.57.783-2.758l-7.5-3.884a5.83 5.83 0 0 0-2.839-.785v12.138a6.208 6.208 0 0 0 2.84-.785l6.715-3.926z" fill="#FDE51C"/><path d="M291.194 312.116L297.91 316a5.965 5.965 0 0 0 5.953 0l6.716-3.883a1.595 1.595 0 0 0 0-2.758l-6.716-3.884a5.965 5.965 0 0 0-5.953 0l-6.716 3.884a1.595 1.595 0 0 0 0 2.758z" fill="#4E440E"/><path d="M298.313 311.204l1.758 1.018c.487.276 1.08.276 1.568 0l1.758-1.018c.276-.17.276-.573 0-.722l-1.758-1.018a1.588 1.588 0 0 0-1.568 0l-1.758 1.018c-.297.17-.297.573 0 .722zm14.469-12.774l-7.5 3.883c0 1.06-.275 2.143.785 2.758l6.715 3.883a5.776 5.776 0 0 0 3.115.786v-12.138c-1.08 0-2.161.255-3.115.828z" fill="#BA9C24"/><path d="M325.43 305.071c1.06-.615.784-1.57.784-2.758l-7.5-3.883a5.83 5.83 0 0 0-2.839-.786v12.138a6.208 6.208 0 0 0 2.84-.785l6.715-3.926z" fill="#FDE51C"/><path d="M306.045 303.522l6.716 3.883a5.965 5.965 0 0 0 5.953 0l6.716-3.883a1.595 1.595 0 0 0 0-2.758l-6.716-3.883a5.965 5.965 0 0 0-5.953 0l-6.716 3.883a1.595 1.595 0 0 0 0 2.758z" fill="#4E440E"/><path d="M313.164 302.61l1.758 1.018c.487.276 1.08.276 1.568 0l1.758-1.018c.276-.17.276-.573 0-.722l-1.758-1.018a1.588 1.588 0 0 0-1.568 0l-1.758 1.018c-.276.17-.276.573 0 .722zm14.469-12.774l-7.5 3.883c0 1.06-.275 2.143.785 2.758l6.715 3.884a5.776 5.776 0 0 0 3.115.785v-12.138c-1.08 0-2.161.255-3.115.828z" fill="#BA9C24"/><path d="M340.302 296.477c1.06-.615.784-1.57.784-2.758l-7.5-3.883a5.83 5.83 0 0 0-2.838-.785v12.137a6.208 6.208 0 0 0 2.839-.785l6.715-3.926z" fill="#FDE51C"/><path d="M320.918 294.928l6.715 3.884a5.965 5.965 0 0 0 5.954 0l6.715-3.884a1.595 1.595 0 0 0 0-2.758l-6.715-3.883a5.965 5.965 0 0 0-5.954 0l-6.715 3.883a1.595 1.595 0 0 0 0 2.758z" fill="#4E440E"/><path d="M328.036 294.016l1.758 1.018c.488.276 1.08.276 1.568 0l1.758-1.018c.276-.17.276-.573 0-.722l-1.758-1.018a1.588 1.588 0 0 0-1.568 0l-1.758 1.018c-.297.17-.297.573 0 .722zm14.47-12.774l-7.5 3.883c0 1.061-.275 2.143.784 2.759l6.716 3.883a5.776 5.776 0 0 0 3.114.785v-12.138c-1.08 0-2.161.255-3.114.828z" fill="#BA9C24"/><path d="M355.153 287.884c1.06-.616.784-1.57.784-2.759l-7.5-3.883a5.83 5.83 0 0 0-2.838-.785v12.137a6.208 6.208 0 0 0 2.839-.785l6.715-3.925z" fill="#FDE51C"/><path d="M335.769 286.335l6.715 3.883a5.965 5.965 0 0 0 5.954 0l6.715-3.883a1.595 1.595 0 0 0 0-2.759l-6.715-3.883a5.965 5.965 0 0 0-5.954 0l-6.715 3.883a1.595 1.595 0 0 0 0 2.759z" fill="#4E440E"/><path d="M342.887 285.422l1.758 1.019c.488.275 1.08.275 1.568 0l1.758-1.019c.276-.17.276-.573 0-.721l-1.758-1.019a1.588 1.588 0 0 0-1.568 0l-1.758 1.019c-.275.17-.275.573 0 .721zm14.47-12.774l-7.5 3.883c0 1.061-.275 2.143.784 2.759l6.716 3.883a5.776 5.776 0 0 0 3.114.785V271.82c-1.08 0-2.14.255-3.114.828z" fill="#BA9C24"/><path d="M370.026 279.29c1.059-.616.783-1.57.783-2.759l-7.5-3.883a5.83 5.83 0 0 0-2.838-.785V284a6.208 6.208 0 0 0 2.839-.785l6.716-3.925z" fill="#FDE51C"/><path d="M350.64 277.74l6.717 3.884a5.965 5.965 0 0 0 5.953 0l6.716-3.883a1.595 1.595 0 0 0 0-2.759l-6.716-3.883a5.965 5.965 0 0 0-5.953 0l-6.716 3.883a1.595 1.595 0 0 0 0 2.759z" fill="#4E440E"/><path d="M372.229 264.054l-7.5 3.883c0 1.061-.275 2.143.784 2.759l6.716 3.883a5.776 5.776 0 0 0 3.114.785v-12.137c-1.08 0-2.16.254-3.114.827z" fill="#BA9C24"/><path d="M384.877 270.696c1.059-.616.783-1.57.783-2.759l-7.5-3.883a5.83 5.83 0 0 0-2.838-.785v12.138a6.208 6.208 0 0 0 2.839-.786l6.716-3.925z" fill="#FDE51C"/><path d="M365.492 269.147l6.716 3.883a5.965 5.965 0 0 0 5.953 0l6.716-3.883a1.595 1.595 0 0 0 0-2.759l-6.716-3.904a5.965 5.965 0 0 0-5.953 0l-6.716 3.883c-1.06.637-1.06 2.164 0 2.78z" fill="#4E440E"/><path d="M372.61 268.234l1.759 1.019c.487.276 1.08.276 1.567 0l1.759-1.019c.275-.17.275-.573 0-.721l-1.759-1.019a1.588 1.588 0 0 0-1.567 0l-1.759 1.019c-.275.17-.275.573 0 .721zm14.47-12.774l-7.5 3.883c0 1.061-.275 2.144.784 2.759l6.716 3.883a5.776 5.776 0 0 0 3.114.785v-12.137c-1.08 0-2.14.254-3.114.827z" fill="#BA9C24"/><path d="M399.749 262.102c1.059-.615.784-1.57.784-2.759l-7.5-3.883a5.83 5.83 0 0 0-2.839-.785v12.138a6.208 6.208 0 0 0 2.839-.785l6.716-3.926z" fill="#FDE51C"/><path d="M380.364 260.553l6.716 3.883a5.965 5.965 0 0 0 5.953 0l6.716-3.883a1.595 1.595 0 0 0 0-2.759l-6.716-3.883a5.965 5.965 0 0 0-5.953 0l-6.716 3.883c-1.06.595-1.06 2.144 0 2.759z" fill="#4E440E"/><path d="M387.482 259.64l1.759 1.019c.487.276 1.08.276 1.567 0l1.759-1.018c.275-.17.275-.573 0-.722l-1.759-1.018a1.588 1.588 0 0 0-1.567 0l-1.759 1.018c-.275.17-.275.573 0 .722zm24.342-18.482l-17.202 9.485c0 1.061-.276 2.144.784 2.759l6.716 3.883a5.776 5.776 0 0 0 3.114.785l9.703-17.74c-1.08 0-2.161.256-3.115.828z" fill="#BA9C24"/><path d="M424.472 247.8c1.06-.615.784-1.57.784-2.758l-7.5-3.884a5.83 5.83 0 0 0-2.838-.785l-9.703 13.58v4.139a6.208 6.208 0 0 0 2.838-.786l16.42-9.506z" fill="#FDE51C"/><path d="M395.406 251.853l6.716 3.883a5.965 5.965 0 0 0 5.953 0l16.418-9.485a1.595 1.595 0 0 0 0-2.758l-6.715-3.884a5.965 5.965 0 0 0-5.954 0l-16.418 9.485a1.595 1.595 0 0 0 0 2.759z" fill="#4E440E"/><path d="M412.206 245.339l1.758 1.018c.487.276 1.08.276 1.568 0l1.758-1.018c.276-.17.276-.573 0-.722l-1.758-1.018a1.588 1.588 0 0 0-1.568 0l-1.758 1.018c-.276.17-.276.573 0 .722zM249.353 352.56l-23.156 12.923c0 1.06-.275 2.143.784 2.758l6.716 3.884a5.776 5.776 0 0 0 3.114.785l15.635-21.177c-1.06.02-2.14.276-3.093.827z" fill="#BA9C24"/><path d="M262.022 359.223c1.06-.615.784-1.57.784-2.758l-7.5-3.884a5.83 5.83 0 0 0-2.839-.785l-15.635 17.952v3.225a6.208 6.208 0 0 0 2.84-.785l22.35-12.965z" fill="#FDE51C"/><path d="M227.002 366.714l6.716 3.883a5.965 5.965 0 0 0 5.953 0l22.372-12.923a1.595 1.595 0 0 0 0-2.758l-6.716-3.884a5.965 5.965 0 0 0-5.953 0l-22.372 12.923a1.579 1.579 0 0 0 0 2.759z" fill="#4E440E"/><path d="M264.225 343.966l-7.5 3.884c0 1.06-.275 2.143.784 2.758l6.716 3.883a5.776 5.776 0 0 0 3.115.785V343.14c-1.08.021-2.161.276-3.115.827z" fill="#BA9C24"/><path d="M276.873 350.63c1.06-.616.784-1.571.784-2.76l-7.5-3.882a5.83 5.83 0 0 0-2.839-.786v12.138a6.208 6.208 0 0 0 2.84-.785l6.715-3.926z" fill="#FDE51C"/><path d="M257.488 349.08l6.716 3.883a5.965 5.965 0 0 0 5.953 0l6.716-3.883a1.595 1.595 0 0 0 0-2.758l-6.716-3.883a5.965 5.965 0 0 0-5.953 0l-6.716 3.883c-1.059.594-1.059 2.143 0 2.758z" fill="#4E440E"/><path d="M264.607 348.168l1.758 1.018c.487.276 1.08.276 1.568 0l1.758-1.018c.276-.17.276-.573 0-.722l-1.758-1.018a1.588 1.588 0 0 0-1.568 0l-1.758 1.018c-.276.149-.276.552 0 .722zm14.469-12.795l-7.5 3.883c0 1.06-.275 2.143.784 2.758l6.716 3.883a5.776 5.776 0 0 0 3.115.785v-12.137c-1.08.021-2.161.276-3.115.828z" fill="#BA9C24"/><path d="M291.745 342.035c1.06-.615.784-1.57.784-2.758l-7.5-3.883a5.83 5.83 0 0 0-2.838-.785v12.137a6.208 6.208 0 0 0 2.838-.785l6.716-3.926z" fill="#FDE51C"/><path d="M272.36 340.486l6.716 3.884a5.965 5.965 0 0 0 5.953 0l6.716-3.884a1.595 1.595 0 0 0 0-2.758l-6.716-3.883a5.965 5.965 0 0 0-5.953 0l-6.716 3.883c-1.059.594-1.059 2.143 0 2.758z" fill="#4E440E"/><path d="M279.479 339.574l1.758 1.019c.487.275 1.08.275 1.568 0l1.758-1.019c.276-.17.276-.573 0-.721l-1.758-1.019a1.588 1.588 0 0 0-1.568 0l-1.758 1.019c-.297.148-.297.551 0 .721zm14.469-12.795l-7.5 3.883c0 1.06-.275 2.143.785 2.758l6.715 3.884a5.776 5.776 0 0 0 3.115.785V325.95c-1.08.021-2.161.276-3.115.828z" fill="#BA9C24"/><path d="M306.596 333.442c1.06-.616.784-1.57.784-2.759l-7.5-3.883a5.83 5.83 0 0 0-2.838-.785v12.137a6.208 6.208 0 0 0 2.838-.785l6.716-3.925z" fill="#FDE51C"/><path d="M287.212 331.893l6.715 3.883a5.965 5.965 0 0 0 5.953 0l6.716-3.883a1.595 1.595 0 0 0 0-2.759l-6.716-3.883a5.965 5.965 0 0 0-5.953 0l-6.715 3.883c-1.06.594-1.06 2.143 0 2.759z" fill="#4E440E"/><path d="M294.33 330.98l1.758 1.019c.487.276 1.08.276 1.568 0l1.758-1.019c.276-.17.276-.573 0-.721l-1.758-1.019a1.588 1.588 0 0 0-1.568 0l-1.758 1.019c-.276.148-.276.551 0 .721zm14.47-12.795l-7.5 3.883c0 1.06-.276 2.143.784 2.759l6.716 3.883a5.776 5.776 0 0 0 3.114.785v-12.138c-1.08.021-2.14.276-3.114.828z" fill="#BA9C24"/><path d="M321.468 324.848c1.06-.616.784-1.57.784-2.759l-7.5-3.883a5.83 5.83 0 0 0-2.838-.785v12.137a6.208 6.208 0 0 0 2.839-.785l6.715-3.925z" fill="#FDE51C"/><path d="M302.084 323.299l6.716 3.883a5.965 5.965 0 0 0 5.953 0l6.715-3.883a1.595 1.595 0 0 0 0-2.759l-6.715-3.883a5.965 5.965 0 0 0-5.953 0l-6.716 3.883c-1.06.594-1.06 2.143 0 2.759z" fill="#4E440E"/><path d="M323.672 309.591l-7.5 3.883c0 1.061-.275 2.143.784 2.759l6.716 3.883a5.776 5.776 0 0 0 3.114.785v-12.138c-1.08 0-2.16.276-3.114.828z" fill="#BA9C24"/><path d="M336.32 316.254c1.059-.615.783-1.57.783-2.759l-7.5-3.883a5.83 5.83 0 0 0-2.838-.785v12.138a6.208 6.208 0 0 0 2.839-.786l6.715-3.925z" fill="#FDE51C"/><path d="M316.935 314.705l6.716 3.883a5.965 5.965 0 0 0 5.953 0l6.715-3.883a1.595 1.595 0 0 0 0-2.759l-6.715-3.883a5.965 5.965 0 0 0-5.953 0l-6.716 3.862c-1.06.615-1.06 2.164 0 2.78z" fill="#4E440E"/><path d="M324.053 313.792l1.758 1.019c.488.276 1.08.276 1.568 0l1.759-1.019c.275-.17.275-.573 0-.721l-1.759-1.019a1.588 1.588 0 0 0-1.568 0l-1.758 1.019c-.275.148-.275.552 0 .721zm14.47-12.795l-7.5 3.883c0 1.061-.275 2.143.784 2.759l6.716 3.883a5.776 5.776 0 0 0 3.114.785V300.17a6.34 6.34 0 0 0-3.114.827z" fill="#BA9C24"/><path d="M351.192 307.66c1.059-.615.784-1.57.784-2.759l-7.5-3.883a5.83 5.83 0 0 0-2.839-.785v12.138a6.208 6.208 0 0 0 2.839-.785l6.716-3.926z" fill="#FDE51C"/><path d="M331.807 306.111l6.716 3.883a5.965 5.965 0 0 0 5.953 0l6.716-3.883a1.595 1.595 0 0 0 0-2.759l-6.716-3.883a5.965 5.965 0 0 0-5.953 0l-6.716 3.883c-1.06.595-1.06 2.144 0 2.759z" fill="#4E440E"/><path d="M338.925 305.199l1.759 1.018c.487.276 1.08.276 1.567 0l1.759-1.018c.275-.17.275-.573 0-.722l-1.759-1.018a1.588 1.588 0 0 0-1.567 0l-1.759 1.018c-.275.149-.275.552 0 .722zm14.47-12.796l-7.5 3.883c0 1.061-.275 2.144.784 2.759l6.716 3.883a5.776 5.776 0 0 0 3.114.785v-12.137c-1.08 0-2.16.276-3.114.827z" fill="#BA9C24"/><path d="M366.064 299.066c1.06-.615.784-1.57.784-2.758l-7.5-3.884a5.83 5.83 0 0 0-2.839-.785v12.138a6.208 6.208 0 0 0 2.84-.785l6.715-3.926z" fill="#FDE51C"/><path d="M346.658 297.517l6.716 3.883a5.965 5.965 0 0 0 5.953 0l6.716-3.883a1.595 1.595 0 0 0 0-2.758l-6.716-3.884a5.965 5.965 0 0 0-5.953 0l-6.716 3.884c-1.06.594-1.06 2.143 0 2.758z" fill="#4E440E"/><path d="M353.776 296.605l1.759 1.018c.487.276 1.08.276 1.567 0l1.759-1.018c.275-.17.275-.573 0-.722l-1.759-1.018a1.588 1.588 0 0 0-1.567 0l-1.759 1.018c-.275.149-.275.552 0 .722zm14.47-12.795l-7.5 3.883c0 1.06-.275 2.143.784 2.758l6.716 3.883a5.776 5.776 0 0 0 3.114.785v-12.137a6.34 6.34 0 0 0-3.114.827z" fill="#BA9C24"/><path d="M380.915 290.472c1.06-.615.784-1.57.784-2.758l-7.5-3.883a5.83 5.83 0 0 0-2.839-.785v12.137a6.208 6.208 0 0 0 2.84-.785l6.715-3.926z" fill="#FDE51C"/><path d="M361.53 288.923l6.716 3.883a5.965 5.965 0 0 0 5.953 0l6.716-3.883a1.595 1.595 0 0 0 0-2.758l-6.716-3.883a5.965 5.965 0 0 0-5.953 0l-6.716 3.883c-1.06.594-1.06 2.143 0 2.758z" fill="#4E440E"/><path d="M368.648 288.01l1.759 1.02c.487.275 1.08.275 1.568 0l1.758-1.02c.275-.169.275-.572 0-.72l-1.758-1.02a1.588 1.588 0 0 0-1.568 0l-1.759 1.02c-.275.148-.275.551 0 .72zm14.47-12.794l-7.5 3.883c0 1.06-.275 2.143.784 2.758l6.716 3.883a5.776 5.776 0 0 0 3.114.785v-12.137c-1.08 0-2.16.276-3.114.828z" fill="#BA9C24"/><path d="M395.787 281.878c1.06-.615.784-1.57.784-2.758l-7.5-3.883a5.83 5.83 0 0 0-2.839-.785v12.137a6.208 6.208 0 0 0 2.84-.785l6.715-3.926z" fill="#FDE51C"/><path d="M376.402 280.308l6.716 3.883a5.965 5.965 0 0 0 5.953 0l6.716-3.883a1.595 1.595 0 0 0 0-2.758l-6.716-3.883a5.965 5.965 0 0 0-5.953 0l-6.716 3.883c-1.08.615-1.08 2.164 0 2.758z" fill="#4E440E"/><path d="M397.97 266.622l-7.5 3.883c0 1.06-.276 2.143.783 2.758l6.716 3.884a5.776 5.776 0 0 0 3.114.785v-12.138a6.34 6.34 0 0 0-3.114.828z" fill="#BA9C24"/><path d="M410.638 273.285c1.06-.616.784-1.57.784-2.759l-7.5-3.883a5.83 5.83 0 0 0-2.839-.785v12.137a6.208 6.208 0 0 0 2.84-.785l6.715-3.925z" fill="#FDE51C"/><path d="M391.253 271.714l6.716 3.884a5.965 5.965 0 0 0 5.953 0l6.716-3.884a1.595 1.595 0 0 0 0-2.758l-6.716-3.883a5.965 5.965 0 0 0-5.953 0l-6.716 3.883a1.595 1.595 0 0 0 0 2.758z" fill="#4E440E"/><path d="M398.372 270.823l1.758 1.019c.487.276 1.08.276 1.568 0l1.758-1.019c.276-.17.276-.573 0-.721l-1.758-1.019a1.588 1.588 0 0 0-1.568 0l-1.758 1.019c-.276.148-.276.551 0 .721zm28.558-20.943l-21.63 12.052c0 1.061-.276 2.143.783 2.759l6.716 3.883a5.776 5.776 0 0 0 3.114.785l14.131-20.307c-1.08.021-2.16.276-3.114.828z" fill="#BA9C24"/><path d="M439.577 256.542c1.06-.615.784-1.57.784-2.758l-7.5-3.883a5.83 5.83 0 0 0-2.838-.785l-14.13 16.148v4.137a6.208 6.208 0 0 0 2.838-.785l20.846-12.074z" fill="#FDE51C"/><path d="M406.083 263.163l6.716 3.883a5.965 5.965 0 0 0 5.953 0l20.847-12.053a1.595 1.595 0 0 0 0-2.758l-6.716-3.883a5.965 5.965 0 0 0-5.953 0l-20.847 12.052c-1.06.595-1.06 2.144 0 2.759z" fill="#4E440E"/><path d="M427.311 254.081l1.758 1.019c.488.275 1.08.275 1.568 0l1.759-1.019c.275-.17.275-.573 0-.721l-1.759-1.019a1.588 1.588 0 0 0-1.568 0l-1.758 1.019c-.275.148-.275.551 0 .721zM253.802 367.456l-12.5 6.77c0 1.06-.275 2.142.784 2.758l6.716 3.883a5.776 5.776 0 0 0 3.115.785l5-15.023a6.34 6.34 0 0 0-3.115.827z" fill="#BA9C24"/><path d="M266.47 374.12c1.06-.616.785-1.571.785-2.76l-7.5-3.883a5.83 5.83 0 0 0-2.839-.785l-5 11.798v3.226a6.208 6.208 0 0 0 2.84-.785l11.715-6.812z" fill="#FDE51C"/><path d="M242.108 375.456l6.715 3.883a5.965 5.965 0 0 0 5.954 0l11.715-6.769a1.595 1.595 0 0 0 0-2.758l-6.716-3.884a5.965 5.965 0 0 0-5.953 0l-11.715 6.77c-1.08.594-1.08 2.143 0 2.758z" fill="#4E440E"/><path d="M268.674 358.862l-7.5 3.884c0 1.06-.275 2.143.784 2.758l6.716 3.883a5.776 5.776 0 0 0 3.114.785v-12.137c-1.08 0-2.16.276-3.114.827z" fill="#BA9C24"/><path d="M281.343 365.525c1.06-.615.784-1.57.784-2.758l-7.5-3.883a5.83 5.83 0 0 0-2.839-.785v12.137a6.208 6.208 0 0 0 2.84-.785l6.715-3.926z" fill="#FDE51C"/><path d="M261.958 363.976l6.716 3.883a5.965 5.965 0 0 0 5.953 0l6.716-3.883a1.595 1.595 0 0 0 0-2.758l-6.716-3.883a5.965 5.965 0 0 0-5.953 0l-6.716 3.883c-1.059.594-1.059 2.143 0 2.758z" fill="#4E440E"/><path d="M269.077 363.064l1.758 1.018c.487.276 1.08.276 1.568 0l1.758-1.018c.276-.17.276-.573 0-.722l-1.758-1.018a1.588 1.588 0 0 0-1.568 0l-1.758 1.018c-.297.149-.297.552 0 .722zm14.469-12.795l-7.5 3.883c0 1.06-.275 2.143.785 2.758l6.715 3.883a5.776 5.776 0 0 0 3.115.785v-12.095a5.776 5.776 0 0 0-3.115.786z" fill="#BA9C24"/><path d="M296.194 356.931c1.06-.615.784-1.57.784-2.758l-7.5-3.883a5.83 5.83 0 0 0-2.838-.785v12.137a6.208 6.208 0 0 0 2.838-.785l6.716-3.926z" fill="#FDE51C"/><path d="M276.81 355.382l6.715 3.884a5.965 5.965 0 0 0 5.953 0l6.716-3.884a1.595 1.595 0 0 0 0-2.758l-6.716-3.883a5.965 5.965 0 0 0-5.953 0l-6.716 3.883c-1.059.594-1.059 2.143 0 2.758z" fill="#4E440E"/><path d="M283.928 354.47l1.758 1.019c.487.275 1.08.275 1.568 0l1.758-1.019c.276-.17.276-.573 0-.721l-1.758-1.019a1.588 1.588 0 0 0-1.568 0l-1.758 1.019c-.276.148-.276.551 0 .721zm14.469-12.795l-7.5 3.883c0 1.06-.275 2.143.785 2.758l6.715 3.884a5.776 5.776 0 0 0 3.115.785v-12.138c-1.08 0-2.161.276-3.115.828z" fill="#BA9C24"/><path d="M311.066 348.338c1.06-.616.784-1.57.784-2.759l-7.5-3.883a5.83 5.83 0 0 0-2.838-.785v12.137a6.208 6.208 0 0 0 2.839-.785l6.715-3.925z" fill="#FDE51C"/><path d="M291.682 346.767l6.715 3.884a5.965 5.965 0 0 0 5.954 0l6.715-3.884a1.595 1.595 0 0 0 0-2.758l-6.715-3.883a5.965 5.965 0 0 0-5.954 0l-6.715 3.883c-1.06.615-1.06 2.164 0 2.758z" fill="#4E440E"/><path d="M298.8 345.876l1.758 1.019c.488.276 1.08.276 1.568 0l1.758-1.019c.276-.17.276-.573 0-.721l-1.758-1.019a1.588 1.588 0 0 0-1.568 0l-1.758 1.019c-.297.148-.297.551 0 .721zm73.853-47.128l-66.904 38.216c0 1.061-.276 2.143.784 2.759l6.715 3.883a5.776 5.776 0 0 0 3.115.785l59.383-46.47c-1.06 0-2.14.254-3.093.827z" fill="#BA9C24"/><path d="M385.321 305.39c1.06-.616.784-1.57.784-2.759l-7.5-3.883a5.83 5.83 0 0 0-2.838-.785l-59.383 42.82v3.629a6.208 6.208 0 0 0 2.839-.785l66.098-38.237z" fill="#FDE51C"/><path d="M306.533 338.174l6.715 3.883a5.965 5.965 0 0 0 5.954 0l66.12-38.238a1.595 1.595 0 0 0 0-2.758l-6.716-3.883a5.965 5.965 0 0 0-5.953 0l-66.12 38.237a1.595 1.595 0 0 0 0 2.759z" fill="#4E440E"/><path d="M387.567 290.112l-7.5 3.883c0 1.06-.275 2.143.784 2.758l6.716 3.883a5.776 5.776 0 0 0 3.114.786v-12.138a6.34 6.34 0 0 0-3.114.828z" fill="#BA9C24"/><path d="M400.236 296.753c1.06-.615.784-1.57.784-2.758l-7.5-3.883a5.83 5.83 0 0 0-2.839-.786v12.138a6.208 6.208 0 0 0 2.84-.785l6.715-3.926z" fill="#FDE51C"/><path d="M380.851 295.204l6.716 3.883a5.965 5.965 0 0 0 5.953 0l6.716-3.883a1.595 1.595 0 0 0 0-2.758l-6.716-3.883a5.965 5.965 0 0 0-5.953 0l-6.716 3.883a1.595 1.595 0 0 0 0 2.758z" fill="#4E440E"/><path d="M402.44 281.518l-7.5 3.883c0 1.06-.276 2.143.784 2.758l6.715 3.884a5.776 5.776 0 0 0 3.115.785V280.69c-1.08 0-2.161.276-3.115.828z" fill="#BA9C24"/><path d="M415.108 288.16c1.06-.616.784-1.57.784-2.76l-7.5-3.882a5.83 5.83 0 0 0-2.838-.785v12.137a6.208 6.208 0 0 0 2.838-.785l6.716-3.926z" fill="#FDE51C"/><path d="M395.724 286.61l6.715 3.884a5.965 5.965 0 0 0 5.953 0l6.716-3.884a1.595 1.595 0 0 0 0-2.758l-6.716-3.883a5.965 5.965 0 0 0-5.953 0l-6.715 3.883a1.579 1.579 0 0 0 0 2.758z" fill="#4E440E"/><path d="M402.82 285.72l1.759 1.018c.487.276 1.08.276 1.568 0l1.758-1.019c.276-.17.276-.573 0-.721l-1.758-1.019a1.588 1.588 0 0 0-1.568 0l-1.758 1.019c-.276.148-.276.551 0 .721zm14.47-12.796l-7.5 3.883c0 1.061-.275 2.143.785 2.759l6.715 3.883a5.776 5.776 0 0 0 3.115.785v-12.138a6.34 6.34 0 0 0-3.115.828z" fill="#BA9C24"/><path d="M429.96 279.566c1.059-.616.783-1.57.783-2.759l-7.5-3.883a5.83 5.83 0 0 0-2.838-.785v12.137a6.208 6.208 0 0 0 2.838-.785l6.716-3.925z" fill="#FDE51C"/><path d="M410.575 278.017l6.715 3.883a5.965 5.965 0 0 0 5.953 0l6.716-3.883a1.595 1.595 0 0 0 0-2.759l-6.716-3.883a5.965 5.965 0 0 0-5.953 0l-6.715 3.883a1.595 1.595 0 0 0 0 2.759z" fill="#4E440E"/><path d="M417.693 277.125l1.758 1.019c.488.276 1.08.276 1.568 0l1.758-1.019c.276-.17.276-.573 0-.721l-1.758-1.019a1.588 1.588 0 0 0-1.568 0l-1.758 1.019c-.276.148-.276.552 0 .721zm24.342-18.503l-17.203 9.485c0 1.061-.275 2.143.784 2.759l6.716 3.883a5.776 5.776 0 0 0 3.114.785l9.703-17.74c-1.08 0-2.16.276-3.114.828z" fill="#BA9C24"/><path d="M454.683 265.264c1.059-.616.784-1.57.784-2.759l-7.5-3.883a5.83 5.83 0 0 0-2.839-.785l-9.703 13.58v4.138a6.208 6.208 0 0 0 2.839-.785l16.419-9.506z" fill="#FDE51C"/><path d="M425.616 269.338l6.716 3.883a5.965 5.965 0 0 0 5.953 0l16.419-9.485a1.595 1.595 0 0 0 0-2.759l-6.716-3.883a5.965 5.965 0 0 0-5.953 0l-16.419 9.485c-1.059.594-1.059 2.143 0 2.759z" fill="#4E440E"/><path d="M442.416 262.823l1.759 1.019c.487.276 1.08.276 1.567 0l1.759-1.019c.275-.17.275-.572 0-.721l-1.759-1.019a1.588 1.588 0 0 0-1.567 0l-1.759 1.019c-.275.149-.275.552 0 .721z" fill="#BA9C24"/><path d="M342.06 213.403l-170.733 98.734 1.292.998 173.234-100.177a4.702 4.702 0 0 0-3.792.445z" fill="#4E440E"/><path d="M350.429 217.584l-1.97-2.78a4.846 4.846 0 0 0-2.606-1.867L172.619 313.113l5.445 4.138 172.365-99.667z" fill="#615017"/><path fill="#BA9C24" d="M351.573 219.175l-1.144-1.591-172.344 99.667 1.674 1.273z"/><path fill="#615017" d="M181.136 319.564l171.348-99.073-.911-1.316-171.814 99.35z"/><path d="M171.75 314.153l9.386 5.411-6.631-6.981c-1.42-1.507-3.92-.997-4.64.955l-.826 2.185 2.712-1.57z" fill="#292200"/><path d="M334.35 344.476l50.908-29.453a12.365 12.365 0 0 1 12.415 0l34.32 19.861c3.56 2.059 2.034 6.324-1.525 8.382l-49.998 28.922c-3.835 2.228-7.055 3.098-10.89.87l-35.23-20.37c-3.157-1.825-3.157-6.387 0-8.212z" fill="#FFF"/><path d="M334.815 345.027l50.634-29.282a11.89 11.89 0 0 1 11.885 0l35.612 20.604c2.183 1.273 2.183 4.413 0 5.686l-50.633 29.283a11.89 11.89 0 0 1-11.885 0l-35.613-20.604c-2.203-1.252-2.203-4.413 0-5.687z" fill="#BA9C24"/><path d="M334.815 346.152l50.634-29.283a11.89 11.89 0 0 1 11.885 0l35.612 20.604c2.183 1.273 2.183 4.414 0 5.687l-50.633 29.283a11.89 11.89 0 0 1-11.885 0l-35.613-20.604c-2.203-1.273-2.203-4.435 0-5.687z" fill="#FDE51C"/><path fill="#CFB418" d="M169.018 361.557l-.89-.509v2.44l6.737 3.883v-.89l-5.847-3.375z"/><path fill="#615017" d="M169.018 361.557v1.55l5.847 3.373v-1.528z"/><path fill="#CFB418" d="M158.637 355.552l-.89-.51v2.441l6.737 3.883v-.89l-5.847-3.375z"/><path fill="#615017" d="M158.637 355.552v1.55l5.847 3.373v-1.528z"/><path fill="#CFB418" d="M148.256 349.547l-.89-.51v2.441l6.737 3.883v-.891l-5.847-3.374z"/><path fill="#615017" d="M148.256 349.547v1.55l5.847 3.373v-1.528z"/><g><path fill="#5D5D5D" d="M308.312 18.036l-1.017-3.119z"/><path fill="#FFF" d="M185.352 85.43l157.323 90.988 23.876 13.814-59.256-175.315z"/></g><g><path fill="#92BDC2" d="M366.551 190.232l-151.031-87.34-126.944 73.61 48.155 146.627z"/><path fill="#D8E8EF" d="M161.751 138.35l-33.367 19.395 42.392 24.508 33.452-19.352zm89.509 51.755l-33.452 19.352-37.668-21.793 33.367-19.394zm51.671 29.876l-33.452 19.353-42.392-24.53 33.367-19.395zm-174.886-13.007l33.452-19.352-42.477-24.572-29.278 17.018 1.928 5.856zm80.484 7.83l-33.452 19.352-37.69-21.771 33.39-19.395zM260.2 244.68l-33.473 19.353-42.392-24.508 33.388-19.395zm-141.434-32.359l-22.753-13.156 7.266 22.11zm13.558 46.556l33.474-19.352-37.753-21.835-21.779 12.668 5.445 16.593zm85.145 10.524l-33.473 19.353-42.392-24.509 33.388-19.394zm-94.403-5.156l-7.012-4.053 2.246 6.812zm13.559 51.903l38.092-22.026-42.477-24.572-10.996 6.408 12.69 38.62zM251.62 135.507l-38.113 22.026-42.392-24.509 38.028-22.068zm98.682 57.08l-38.092 22.026-42.392-24.508 38.007-22.09z"/><path fill="#0EA54B" d="M298.63 162.71l-38.091 22.026-37.753-21.835 38.007-22.068zm-142.218 77.133l-3.665-2.122-25.232 14.599 3.665 2.1zm-27.943 10.44l22.986-13.305-3.644-2.122-23.007 13.305zm-7.182-1.57l25.232-14.578-3.665-2.122-25.211 14.578zm42.392 43.097l-29.575 17.102 4.3 2.483 29.554-17.103zm-1.504-.85l-4.3-2.482-26.949 15.575 4.3 2.482zm-5.805-3.352l-4.28-2.483-23.41 13.517 1.378 4.18zm-37.774-43.054l15.72-9.082-3.665-2.122-15.72 9.103zm-.169-5.624l18.22-10.524-3.666-2.122-18.22 10.546zm13.262-13.368l-3.644-2.122-20.232 11.692 1.186 3.544zm206.707-27.776l-26.63-15.384-22.987 13.283 26.63 15.406zM103.427 208.82l-5.232-3.034 1.673 5.092zm95.441-46.067l-27.477-15.872-28.071 16.232 27.456 15.894zm-33.833-65.674l-39.66 22.747-46.65 26.736 9.915 29.898 126.88-73.567-30.168-17.464-20.296 11.65zm0 0h.035zm-39.659 22.747l-46.65 26.736zm2.987 84.134l28.092-16.232-27.478-15.893-28.07 16.232zm120.057 37.92l-22.032-12.753-22.986 13.305 22.011 12.731zm-87.919 22.917l-7.733-4.477-8.961 5.198 7.733 4.456zm10.148 5.878l-7.733-4.478-8.961 5.2 7.733 4.455zm10.148 5.877l-7.733-4.477-8.961 5.199 7.732 4.456zm10.169 5.878l-7.733-4.477-8.982 5.199 7.732 4.456zm33.452-64.019l-6.631-3.84-29.85 17.272 6.652 3.82zm-3.178-34.248v-7.681l-26.715 15.447 6.652 3.82zm-2.034 10.992v-5.623l2.775-1.613-1.758-1.019-17.181 9.931 6.63 3.84zm48.07 18.015l-3.178-1.846-9.576 5.538 3.178 1.846zm11.398 6.6l-5.7-3.311-9.575 5.56 5.699 3.289zm20.105.53l-10.508-6.069-28.749 16.615 10.508 6.069zm-35.38 1.719l-5.699-3.31-9.576 5.538 5.7 3.31zm19.173-11.099l-5.699-3.288-9.597 5.538 5.699 3.289z"/><g fill="#3B0063"><path d="M256.196 188.768c.763 3.183-.487 6.769-3.729 8.636l-3.516 2.016-28.495 16.487-3.284-2.567 26.673-15.427 4.682-2.822c2.309-1.38 3.072-4.074 2.309-6.323h5.36z"/><path d="M248.357 185.818l-2.118-1.146-71.268-41.229V140.6l75.378 41.972 2.16 1.252a7.648 7.648 0 0 1 3.708 4.965h-5.381a5.155 5.155 0 0 0-2.479-2.97z"/></g><path d="M243.845 195.027l4.682-2.822c3.538-2.122 3.432-7.278-.19-9.251l-2.12-1.146-71.246-41.208 3.856-2.228 71.5 41.356 2.162 1.252c5.232 3.013 5.232 10.589-.022 13.58l-3.516 2.016-30.592 17.697-3.284-2.567 28.77-16.679z" fill="#7712BA"/><path fill="#D8E8EF" d="M213.507 151.782l-42.392-24.508 38.918-22.514 41.587 23.044-12.711 9.295z"/><path fill="#92BDC2" d="M206.77 118.51l10.953 6.324v-58.12l-10.953 6.302z"/><path fill="#FFF" d="M228.655 60.39l-10.932 6.324v58.12l12.69-7.342v-58.12zm-47.286 72.804l12.69-7.342V80.337l-12.69 7.32zm34.596-12.35v17.676l-12.712 7.342v-17.676z"/><path fill="#FFF" d="M238.909 137.099l-25.402 14.683v5.75l38.113-22.025V34.482l-12.711 7.341z"/><path fill="#DCEDF0" d="M241.366 28.561l-12.711 7.342 10.254 5.92 12.71-7.341-6.906-3.99zm3.347 22.557l-3.347-1.953z"/><path fill="#92BDC2" d="M228.655 131.157l10.254 5.942V41.823l-10.254-5.92V60.39zm-57.54 1.867l42.392 24.509v-5.75l-10.254-5.92v-17.677l-10.931-6.344v17.676l-10.953-6.324V87.657l-10.254 5.92z"/><path fill="#DCEDF0" d="M215.965 120.844l-10.953-6.344-12.69 7.342 10.931 6.344zm44.913-2.376l9.13 5.284-12.69 7.341-9.13-5.283z"/><path fill="#92BDC2" d="M248.188 125.81v22.407l9.13 5.284v-22.408z"/><path fill="#FFF" d="M270.009 123.752l-12.69 7.341v22.408l12.69-7.342z"/><path fill="#DCEDF0" d="M279.754 62.194l9.767 5.644-12.712 7.342-9.745-5.644z"/><path fill="#92BDC2" d="M276.81 164.769V75.18l-9.746-5.644v89.588z"/><path fill="#FFF" d="M289.52 67.838l-12.71 7.342v89.589l12.71-7.342z"/><path fill="#92BDC2" d="M260.539 184.736v-9.782l-37.753-21.835v9.782z"/><path fill="#FFF" d="M273.25 167.612v9.782l-12.711 7.342v-9.782z"/><path fill="#DCEDF0" d="M273.25 167.612l-37.773-21.835-12.69 7.342 37.752 21.835z"/><path fill="#FFF" d="M318.163 159.04v14.959l-38.091 22.026v-14.96z"/><path fill="#DCEDF0" d="M307.91 153.12l-38.092 22.025 10.254 5.92 38.091-22.026z"/><path fill="#92BDC2" d="M269.818 175.145v14.96l10.254 5.92v-14.96zm63.218-50.184l-21.906-12.668-5.678 54.088v14.96l21.906 12.668v-14.96z"/><path fill="#FFF" d="M340.048 120.908v50.8l-12.69 7.341 5.678-54.088z"/><path fill="#DCEDF0" d="M340.048 120.908l-7.012 4.053-21.906-12.668 7.033-4.053z"/><path fill="#FFF" d="M350.302 177.628v14.96l-38.092 22.025v-14.96z"/><path fill="#DCEDF0" d="M340.048 171.707l-38.091 22.026 10.253 5.92 38.092-22.025z"/><path fill="#92BDC2" d="M301.957 193.733v14.96l10.253 5.92v-14.96z"/><path fill="#FFF" d="M172.09 144.313l-22.902 13.092v-11.861l22.902-13.262z"/><path fill="#DCEDF0" d="M149.188 145.544l-9.66-19.82 22.308-12.9 10.254 19.458z"/><path fill="#92BDC2" d="M149.188 145.544v11.861l-9.66-5.58v-26.1z"/><path fill="#FFF" d="M193.084 148.217v21.135l-22.308 12.901v-21.155z"/><path fill="#DCEDF0" d="M170.776 161.098l22.308-12.88-10.253-5.942-22.309 12.901z"/><path fill="#92BDC2" d="M160.522 155.177v21.156l10.254 5.92v-21.155z"/><path fill="#FFF" d="M222.638 173.553v-73.61l-11.143 6.451v73.61z"/><path fill="#92BDC2" d="M211.495 106.394l-9.767-5.644v73.61l9.767 5.644z"/><path fill="#DCEDF0" d="M201.728 100.75l9.767 5.644 11.143-6.45-9.745-5.645z"/><path fill="#FFF" d="M200.33 186.455v-14.387l-11.144 6.45v14.388z"/><path fill="#92BDC2" d="M189.186 178.519l-9.766-5.645v14.387l9.766 5.645z"/><path fill="#DCEDF0" d="M200.33 172.068l-9.745-5.644-11.165 6.45 9.766 5.645z"/><path fill="#FFF" d="M242.129 184.82v-14.386l-11.144 6.45v14.388z"/><path fill="#92BDC2" d="M230.985 176.885l-9.745-5.623v14.365l9.745 5.645z"/><path fill="#DCEDF0" d="M242.129 170.434l-9.746-5.623-11.143 6.45 9.745 5.624z"/><path fill="#FFF" d="M240.116 196.555v-7.85l-11.165 6.45v7.851z"/><path fill="#92BDC2" d="M228.951 195.155l-9.745-5.623v7.83l9.745 5.644z"/><path fill="#DCEDF0" d="M240.116 188.704l-9.745-5.623-11.165 6.45 9.745 5.624z"/><path fill="#FFF" d="M128.935 187.643v6.939l11.165-6.45v-6.94zm-10.932.615v-6.938l-11.165 6.45v6.94zm22.097-7.066l11.143-6.45V76.135l-11.143 6.45z"/><path fill="#DCEDF0" d="M129.147 76.241l10.953 6.345 11.143-6.45-10.932-6.345z"/><path fill="#92BDC2" d="M129.147 76.241v98.628l10.953 6.323V82.586z"/><path fill="#DCEDF0" d="M161.497 180.683l-10.254-5.941-11.143 6.45 10.253 5.942z"/><path fill="#FFF" d="M161.497 180.683v6.939l-11.144 6.45v-6.938z"/><path fill="#92BDC2" d="M140.1 181.192l10.253 5.942v6.939L140.1 188.13zm-22.097 7.066l10.932 6.324v-6.939l-10.932-6.323z"/><path fill="#DCEDF0" d="M95.885 181.426l10.953 6.344 11.165-6.45 10.932 6.323 11.165-6.45-21.906-12.647z"/><path fill="#92BDC2" d="M85.653 167.612l6.017 18.312 15.168 8.785v-6.939l-10.953-6.344v-42.163l-2.203-1.273-8.03 4.604z"/><path fill="#FFF" d="M107.05 174.975v-42.163l-11.165 6.45v42.164z"/><path fill="#DCEDF0" d="M95.885 139.263l11.165-6.45-2.16-1.253-11.208 6.43zm84.022 53.239l-33.473 19.352 19.512 11.268 27.308-22.896z"/><path fill="#0EA54B" d="M179.822 195.325L151.35 211.79l19.512 11.267 22.308-20.01z"/><path fill="#FFF" d="M208.529 201.945v12.859l-33.452 19.352v-12.859z"/><path fill="#92BDC2" d="M175.077 221.297l-9.131-5.284v7.109l-19.512-11.268v-7.108l-9.13-5.284v12.86l37.773 21.834z"/><path fill="#DCEDF0" d="M170.776 180.11l9.131 5.284-33.473 19.352-9.13-5.284z"/><path fill="#FFF" d="M146.434 211.854v-7.108l33.473-19.352v7.108z"/><path fill="#DCEDF0" d="M199.398 196.661l9.13 5.284-33.451 19.352-9.131-5.284z"/><path fill="#3B0063" d="M163.721 248.691l56.735-32.805-3.284-2.567-54.87 31.723 1.42.785z"/><path fill="#7712BA" d="M163.721 245.827l54.638-31.575-3.284-2.567-55.273 31.956z"/><path fill="#3B0063" d="M163.721 245.827l-3.855-2.228v2.864l3.855 2.228z"/><path fill="#DCEDF0" d="M217.469 263.651l-42.392-24.53-22.309 12.902 42.393 24.53z"/><path fill="#FFF" d="M217.469 269.401v-5.75l-22.308 12.901v5.75z"/><path fill="#92BDC2" d="M195.16 276.552l-42.392-24.53v5.772l42.393 24.509z"/><path fill="#DCEDF0" d="M153.531 274.048l-21.207-12.264-12.69 7.342 10.254 5.941-7.52 4.329 3.495 10.652z"/><path fill="#FFF" d="M153.531 274.048l-27.668 16 2.16 6.557 25.508-14.748z"/><path fill="#92BDC2" d="M123.13 278.971l6.758-3.904-10.254-5.941v1.952l2.373 7.236z"/><path fill="#DCEDF0" d="M174.717 290.133l-10.233-5.92-12.711 7.341 10.254 5.92z"/><path fill="#FFF" d="M174.717 290.133v3.989l-12.69 7.342v-3.99z"/><path fill="#92BDC2" d="M162.027 297.475l-10.254-5.92v3.989l10.254 5.92z"/><path fill="#DCEDF0" d="M136.625 312.159l12.711-7.342-10.253-5.92-8.665 5.007 1.885 5.772z"/><path fill="#FFF" d="M136.625 312.159v3.989l12.711-7.342v-3.99z"/><path fill="#92BDC2" d="M136.625 316.148v-3.99l-4.322-2.482 1.632 4.902z"/><path fill="#FFF" d="M260.2 237.339l-11.165 6.45v7.343l11.165-6.451z"/><path fill="#92BDC2" d="M249.035 243.79l-21.185-12.265v7.363l21.185 12.244z"/><path fill="#DCEDF0" d="M260.2 237.339l-21.207-12.265-11.143 6.45 21.185 12.266z"/><path fill="#FFF" d="M237.892 250.24l-11.165 6.451v7.342l11.165-6.45z"/><path fill="#92BDC2" d="M226.727 256.691l-21.186-12.265v7.363l21.186 12.244z"/><path fill="#DCEDF0" d="M237.892 250.24l-21.207-12.264-11.144 6.45 21.186 12.265z"/><path fill="#FFF" d="M228.062 218.517l-33.473 19.331v7.597l33.473-19.352z"/><path fill="#DCEDF0" d="M228.062 218.517l-10.254-5.941-33.473 19.352 10.254 5.92z"/><path fill="#92BDC2" d="M194.589 237.848l-10.254-5.92v7.597l10.254 5.92z"/><path fill="#FFF" d="M123.066 264.245v-6.472l-6.567 3.777 1.8 5.454z"/><path fill="#DCEDF0" d="M123.066 257.773l-9.13-5.283-.34.19 2.903 8.87z"/><path fill="#FFF" d="M118.766 212.321v-5.665l-11.165 6.45v-13.474l-9.618 5.56 5.296 16.105z"/><path fill="#DCEDF0" d="M107.601 213.106l11.165-6.45-10.254-5.942-.911.53zm0-13.474l-10.233-5.941-2.648 1.527 3.263 9.974z"/><path fill="#FFF" d="M248.484 158.764v55.53l-11.164 6.451v-55.53z"/><path fill="#DCEDF0" d="M238.23 152.843l-11.143 6.451 10.233 5.92 11.164-6.45z"/><path fill="#92BDC2" d="M227.087 159.294v55.51l10.233 5.941v-55.53z"/><path fill="#FFF" d="M270.793 193.542v7.851l-11.165 6.451v-7.851z"/><path fill="#DCEDF0" d="M260.539 187.622l-11.144 6.45 10.233 5.92 11.165-6.45z"/><path fill="#92BDC2" d="M249.395 194.073v7.85l10.233 5.921v-7.851z"/><g fill="#92BDC2"><path d="M269.776 197.637l-8.834 5.2v-1.826l8.834-5.177zm0 3.056l-8.834 5.199v-1.825l8.834-5.199zm9.004-64.677l1.144-.657v-5.05l-1.144.657zm2.67-1.549l2.69-1.549v-5.05l-2.69 1.55zm5.359-3.097l1.144-.659v-5.05l-1.144.658zm-8.029 11.415l1.144-.657v-5.05l-1.144.657zm2.67-1.549l1.143-.658v-5.05l-1.144.658zm2.69-1.549l1.144-.658v-5.05l-1.144.658zm2.669-1.549l1.144-.679v-5.05l-1.144.679zm-8.029 11.395l1.144-.658v-5.05l-1.144.658zm2.67-1.549l1.143-.658v-5.05l-1.144.658zm3.834-2.207l2.669-1.549v-5.05l-2.67 1.549zm-6.504 10.525l1.144-.679v-5.029l-1.144.658zm3.813-2.228l2.69-1.549v-5.05l-2.69 1.549zm4.216-2.44l1.144-.658v-5.05l-1.144.658zm-8.029-42.651l1.144-.658v-5.05l-1.144.658zm2.67-1.549l2.69-1.55v-5.05l-2.69 1.55zm5.359-3.098l1.144-.68v-5.028l-1.144.658zm-8.029 11.394l1.144-.657v-5.05l-1.144.657zm2.67-1.548l1.143-.658v-5.05l-1.144.657zm2.69-1.549l1.144-.658v-5.05l-1.144.657zm2.669-1.549l1.144-.658v-5.05l-1.144.657zM278.78 122.5l1.144-.658v-5.05l-1.144.657zm2.67-1.55l1.143-.678v-5.05l-1.144.678zm3.834-2.227l2.669-1.55v-5.05l-2.67 1.55zm-6.504 10.524l1.144-.657v-5.05l-1.144.657zm3.813-2.207l2.69-1.548v-5.05l-2.69 1.548zm4.216-2.44l1.144-.658v-5.05l-1.144.658zm-28.304 26.652l1.144-.658v-5.05l-1.144.658zm2.67-1.549l2.69-1.57v-5.03l-2.69 1.55zm5.359-3.119l.53-.297v-5.05l-.53.296zm-8.029-8.87l1.144-.658v-5.05l-1.144.658zm2.67-1.549l1.144-.658v-5.05l-1.144.658zm3.835-2.207l2.054-1.188v-5.05l-2.055 1.188zm-6.505 10.504l1.144-.658v-5.05l-1.144.657zm3.814-2.207l2.69-1.55v-5.05l-2.69 1.55zm4.215-2.44l.53-.297v-5.05l-.53.296zm12.246-37.644l1.144-.657v-5.05l-1.144.657zm2.67-1.549l2.69-1.549v-5.05l-2.69 1.55zm5.359-3.098l1.144-.657v-5.05l-1.144.657zm-8.029-15.638l1.144-.658v-5.05l-1.144.657zm2.67-1.549l1.143-.658v-5.05l-1.144.657zm2.69-1.549l1.144-.658v-5.05l-1.144.657zm2.669-1.549l1.144-.658v-5.05l-1.144.657zm-8.029 11.394l1.144-.657v-5.05l-1.144.657zm2.67-1.549l1.143-.657v-5.05l-1.144.657zm3.834-2.206l2.669-1.55v-5.05l-2.67 1.55zm-6.504 10.524l1.144-.657v-5.05l-1.144.657zm3.813-2.206l2.69-1.55v-5.05l-2.69 1.55zm4.216-2.441l1.144-.679v-5.029l-1.144.658zm-30.889 46.853l-2.69-1.55v-5.05l2.69 1.55zm-5.36-3.098l-1.143-.658v-5.05l1.144.658zm5.36 9.846l-1.143-.658v-5.05l1.144.657zm-2.69-1.549l-1.144-.658v-5.05l1.144.657zm-2.67-1.549l-1.143-.658v-5.05l1.144.657zm5.36 9.867l-1.143-.658v-5.05l1.144.657zm-3.834-2.207l-2.67-1.57v-5.03l2.67 1.55zm26.694 14.132l1.144-.658v-5.05l-1.144.658zm3.813-2.207l2.69-1.549v-5.05l-2.69 1.549zm4.216-2.44l1.144-.658v-5.05l-1.144.658zm-103.851 2.716l1.144-.658v-5.05l-1.144.658zm2.669-1.549l2.69-1.55v-5.05l-2.69 1.55zm4.068-2.356l1.144-.657v-5.05l-1.144.657zm-16.144 9.337l1.144-.658v-5.05l-1.144.658zm2.691-1.549l2.67-1.549v-5.05l-2.67 1.549zm4.068-2.355l1.144-.658v-5.05l-1.144.657zm2.648 1.655l1.144-.658v-1.698l-1.144.658zm2.669-1.549l2.69-1.55v-1.718l-2.69 1.57zm4.068-2.356l1.144-.657v-1.698l-1.144.658zm-16.144 9.337l1.144-.658v-1.697l-1.144.657zm2.691-1.549l2.67-1.55v-1.697l-2.67 1.55zm4.068-2.355l1.144-.658v-1.698l-1.144.658zm2.648 1.633l1.144-.657v-1.698l-1.144.658zm2.669-1.549l2.69-1.549v-1.697l-2.69 1.549zm4.068-2.354l1.144-.659v-1.697l-1.144.658zm-16.144 9.336l1.144-.658v-1.698l-1.144.658zm2.691-1.549l2.67-1.55V168.1l-2.67 1.55zm-9.046-32.615l2.69-1.549v-3.628l-2.69 1.549zm0 3.183l2.69-1.549v-1.718l-2.69 1.57zm0 3.162l2.69-1.549v-1.698l-2.69 1.55zm-4.28-3.883l2.69-1.55v-3.606l-2.69 1.549zm0 3.183l2.69-1.55v-1.697l-2.69 1.55zm0 3.183l2.69-1.55v-1.697l-2.69 1.55zm-4.279-3.883l2.69-1.55v-3.607l-2.69 1.55zm0 3.183l2.69-1.55v-1.697l-2.69 1.549zm0 3.161l2.69-1.549v-1.697l-2.69 1.549zm-4.28-3.861l2.69-1.55v-3.628l-2.69 1.549zm0 3.16l2.69-1.548v-1.698l-2.69 1.55zm0 3.184l2.69-1.55v-1.697l-2.69 1.55zm-1.589-5.432l-1.525.87v-3.608l1.525-.87zm14.428-11.968l2.69-1.55-6.8-14.577-2.69 1.55zm-4.28 2.483l2.69-1.55-6.8-14.577-2.669 1.549z"/><path d="M158.637 140.07l2.69-1.55-6.8-14.599-2.67 1.55zm-1.589.912l-2.69 1.549-3.115-6.684v-7.3zm154.696 35.839l-2.415-1.379v-6.132l2.415 1.379zm0 2.801l-2.415-1.358v-1.528l2.415 1.38zm0 2.822l-2.415-1.379v-1.506l2.415 1.379zm3.856-3.437l-2.415-1.38v-6.11l2.415 1.357zm0 2.822l-2.415-1.38v-1.506l2.415 1.38zm0 2.801l-2.415-1.358v-1.507l2.415 1.358zm3.856-3.438l-2.415-1.379v-6.111l2.415 1.38zm-.36 2.632l-2.055-1.189v-1.506l2.415 1.379v1.103zm-1.759 1.018l-.296.17v-1.061l.932.53zm5.975-3.459l-1.738 1.019-.678-.382v-6.132l2.416 1.379zm-11.568-10.694l-2.415-1.38 5.784-51.754 2.415 1.38zm3.856 2.185l-2.415-1.358 5.784-51.754 2.415 1.38zm3.856 2.207l-2.415-1.379 5.783-51.754 2.415 1.38zm3.856 2.186l-2.416-1.38 5.784-51.732 2.415 1.358zm-172.069-37.07l1.525 3.267-1.525.87v-1.146zm0 10.928l1.525-.87v-1.698l-1.525.87zm0 3.182l1.525-.89v-1.698l-1.525.89zm29.067 14.705l1.144-.679v-1.697l-1.144.658zm2.648 1.825l1.144-.657v-1.72l-1.144.659zm2.669-1.549l2.69-1.549v-1.718l-2.69 1.549zm4.068-2.355l1.144-.658v-1.719l-1.144.658zm-16.144 12.668l1.144-.658v-5.05l-1.144.658zm2.691-1.549l2.67-1.55v-5.05l-2.67 1.55zm-9.618-12.392l-2.69-1.55v-5.05l2.69 1.55zm0 3.183l-2.69-1.55v-1.718l2.69 1.57zm0 3.161l-2.69-1.549v-1.697l2.69 1.549zm0 6.706l-2.69-1.55v-5.05l2.69 1.55zm13.686-6.345l1.144-.658v-1.718l-1.144.657zm-35.761-8.955l2.669-1.548v-5.05l-2.67 1.548zm-45.21 43.394l-.678.403.678 2.122zm4.237 9.167v-11.607l-2.69 1.549v8.106l.974 2.95zm2.521-1.464V202.9l-1.144.658v11.607zm10.763-1.061v-3.438l-1.145.68v3.416zm-2.734 1.57V211.6l-1.144.658v3.416zm-2.733 1.57v-3.416l-1.144.658v3.416zm-2.733 1.592v-3.438l-1.144.68v3.416zm-5.084 2.949v-3.437l-1.25.721.953 2.886zm2.521-1.464v-3.416l-1.144.658v3.416zm38.452-49.463l2.669-1.548v-5.05l-2.67 1.549zm0 6.77l2.669-1.55v-5.05l-2.67 1.55zm0-37.028l2.669-1.55v-5.05l-2.67 1.55zm0 6.768l2.669-1.548v-5.05l-2.67 1.549zm0 6.77l2.669-1.55v-5.05l-2.67 1.55zm0-37.028l2.669-1.549v-5.05l-2.67 1.549zm0 6.769l2.669-1.549v-5.05l-2.67 1.57zm0 6.79l2.669-1.549v-5.05l-2.67 1.549zm0-37.028l2.669-1.549v-5.05l-2.67 1.55zm0 6.769l2.669-1.549v-5.05l-2.67 1.55zm0 6.769l2.669-1.549v-5.05l-2.67 1.55zm-7.691 52.369v5.051l2.67 1.55v-5.051zm0 6.77v5.05l2.67 1.549v-5.05zm0 6.769v5.05l2.67 1.549v-5.05zm0-37.028v5.05l2.67 1.55v-5.051zm0 6.769v5.05l2.67 1.55v-5.051zm0 6.79v5.03l2.67 1.57v-5.05zm0-37.028v5.03l2.67 1.57v-5.05zm0 6.769v5.05l2.67 1.55v-5.05zm0 6.769v5.05l2.67 1.55v-5.05zm0-37.028v5.05l2.67 1.55v-5.05zm0 6.769v5.05l2.67 1.55v-5.05zm0 6.769v5.05l2.67 1.55v-5.05zm-.805 56.444l-2.67-1.549v5.05l2.67 1.55zm0 6.769l-2.67-1.549v5.05l2.67 1.55zm0 6.769l-2.67-1.549v5.05l2.67 1.55zm0-37.007l-2.67-1.57v5.05l2.67 1.55zm0 6.769l-2.67-1.549v5.05l2.67 1.55zm0 6.769l-2.67-1.549v5.05l2.67 1.55zm0-37.028l-2.67-1.549v5.05l2.67 1.55zm0 6.769l-2.67-1.549v5.05l2.67 1.55zm0 6.769l-2.67-1.549v5.05l2.67 1.55zm0-37.027l-2.67-1.55v5.05l2.67 1.55zm0 6.79l-2.67-1.55v5.03l2.67 1.57zm0 6.769l-2.67-1.55v5.051l2.67 1.549zm-3.453 54.873l-2.69-1.549v5.05l2.69 1.55zm0 6.79l-2.69-1.549v5.05l2.69 1.55zm0 6.769l-2.69-1.549v5.05l2.69 1.55zm0-37.027l-2.69-1.55v5.05l2.69 1.55zm0 6.768l-2.69-1.549v5.05l2.69 1.55zm0 6.769l-2.69-1.549v5.05l2.69 1.55zm0-37.027l-2.69-1.55v5.05l2.69 1.55zm0 6.79l-2.69-1.57v5.05l2.69 1.549zm0 6.769l-2.69-1.55v5.051l2.69 1.549zm0-37.028l-2.69-1.549v5.05l2.69 1.55zm0 6.769l-2.69-1.549v5.05l2.69 1.55zm0 6.769l-2.69-1.55v5.051l2.69 1.55zm50.294 11.522l2.69-1.57v-5.05l-2.69 1.57zm0 6.769l2.69-1.549v-5.05l-2.69 1.549zm0 6.77l2.69-1.55v-5.05l-2.69 1.549zm0-37.029l2.69-1.549v-.764l-2.69 1.55zm0 6.769l2.69-1.549v-5.05l-2.69 1.549zm0 6.77l2.69-1.55v-5.05l-2.69 1.549zm3.475 7.935l2.69-1.549v-5.05l-2.69 1.549zm0 6.769l2.69-1.549v-5.05l-2.69 1.549zm0 6.769l2.69-1.549v-5.05l-2.69 1.549zm0-37.028l2.69-1.549v-.764l-2.69 1.55zm0 6.769l2.69-1.549v-5.05l-2.69 1.57zm0 6.791l2.69-1.55v-5.05l-2.69 1.55zm3.474 7.915l2.69-1.55v-5.05l-2.69 1.55zm0 6.768l2.69-1.549v-5.05l-2.69 1.55zm0 6.791l2.69-1.55v-5.05l-2.69 1.55zm0-37.029l2.69-1.548v-.764l-2.69 1.549zm0 6.77l2.69-1.55v-5.05l-2.69 1.55zm0 6.769l2.69-1.55v-5.05l-2.69 1.55zm46.545-28.944l1.144.658V44.858l-1.144-.68zm1.144 50.099l-1.144-.657v-5.05l1.144.657zm0 6.769l-1.144-.657v-5.05l1.144.657zm0 6.769l-1.144-.657v-5.05l1.144.678zm-3.305-64.888l1.122.657V43.606l-1.122-.68zm1.123 50.099l-1.123-.658v-5.05l1.122.657zm0 6.769l-1.123-.658v-5.05l1.122.657zm0 6.768l-1.123-.657v-5.05l1.122.679zm-3.305-64.888l1.144.657V42.354l-1.144-.68zm1.144 50.098l-1.144-.657v-5.05l1.144.657zm0 6.77l-1.144-.658v-5.05l1.144.657zm0 6.79l-1.144-.68v-5.05l1.144.68zm-3.242-64.868l1.144.658V41.123l-1.144-.658zm1.144 50.099l-1.144-.658v-5.05l1.144.658zm0 6.769l-1.144-.658v-5.05l1.144.658zm0 6.769l-1.144-.658v-5.05l1.144.658zm9.407-59.457l1.144-.657V43.988l-1.144.658zm0 49.441l1.144-.657v-5.05l-1.144.657zm0 6.769l1.144-.657v-5.05l-1.144.657zm0 6.769l1.144-.657v-5.05l-1.144.657zm0 10.356l1.144-.658v-8.637l-1.144.658zm2.16-74.587l1.144-.657V42.736l-1.144.658zm0 49.442l1.144-.658v-5.05l-1.144.657zm0 6.768l1.144-.657v-5.05l-1.144.657zm0 6.77l1.144-.658v-5.05l-1.144.657zm0 10.355l1.144-.658v-8.637l-1.144.658zm2.182-74.587l1.123-.657V41.484l-1.122.658zm0 49.442l1.123-.658v-5.05l-1.122.657zm0 6.769l1.123-.658v-5.05l-1.122.657zm0 6.769l1.123-.658v-5.05l-1.122.657zm0 10.355l1.123-.658v-8.636l-1.122.657zm2.098-74.544l1.144-.658V40.274l-1.144.658zm0 49.42l1.144-.658v-5.05l-1.144.658zm0 6.791l1.144-.68v-5.05l-1.144.679zm0 6.768l1.144-.658v-5.05l-1.144.658zm-54.955 17.23l-3.009-1.74v-4.69l3.009 1.74zm4.809 2.78l-3.008-1.74v-4.69l3.008 1.74zm4.83 2.78l-3.03-1.74v-4.69l3.03 1.74zm-4.83-8.361l-3.008-1.74v-4.69l3.008 1.74zm4.83 2.78l-3.03-1.74v-4.69l3.03 1.74zm-4.83-8.36l-3.008-1.74v-4.69l3.008 1.74zm4.83 2.801l-3.03-1.762v-4.69l3.03 1.74zm-4.83-8.382l-3.008-1.74v-4.69l3.008 1.74zm4.83 2.801l-3.03-1.74v-4.69l3.03 1.74zm-24.003 2.907l-3.008-1.74v-4.69l3.008 1.74zm4.809 2.78l-3.008-1.74v-4.69l3.008 1.74zm4.809 2.779l-3.008-1.74v-4.69l3.008 1.74zm59.701-4.201l1.144-.658v-8.615l-1.144.658zm-31.99-42.694l1.144.658v-.87l-1.144-.657zm-2.161-1.145l.106-.064 1.038.615v-.87l-1.144-.657zm-2.161 1.252l1.144-.658v-2.165l-1.144-.657zm-2.097.36l.741.425.381-.234v-4.583l-1.122-.658zm10.55 1.91l1.144.658v-4.095l-1.144.657zm2.161 1.019l1.144-.658v-5.05l-1.144.657zm2.16-1.252l1.145-.658v-5.05l-1.144.657zm0 6.768l1.145-.657v-5.05l-1.144.657zm0 6.77l1.145-.658v-5.05l-1.144.657zm0 10.355l1.145-.658v-8.636l-1.144.679zm2.12-25.125l1.143-.657v-5.05l-1.144.658zm0 6.791l1.143-.658v-5.05l-1.144.658zm0 6.769l1.143-.658v-5.05l-1.144.658zm0 10.334l1.143-.658v-8.615l-1.144.658zm-10.572-48.253l1.144.658v-5.072l-1.144.658zm-2.161-1.251l1.144.657v-2.589l-1.144.658zm-.962-.54v-.14l-.14.07zm7.127 2.258l1.123-.658v-6.535l-1.123.657zm2.161-1.252l1.144-.658v-6.535l-1.144.657zm2.161-1.252l1.144-.658v-6.514l-1.144.658zm2.118-1.231l1.123-.658v-6.514l-1.123.658zm1.992-1.146l1.144-.657v-6.515l-1.144.658zm.126 27.628l1.145-.658v-5.05l-1.144.658zm0 6.769l1.145-.658v-5.05l-1.144.658zm0 6.769l1.145-.658v-5.05l-1.144.658zm0 10.355l1.145-.658v-8.636l-1.144.658zm21.525-55.488l1.144-.658V39.065l-1.144.658zm0 49.42l1.144-.658v-5.05l-1.144.657zm0 6.79l1.144-.658v-5.05l-1.144.657zm0 5.432l1.144-.658v-3.713l-1.144.657zm-12.647-28.434l1.144.658v-5.05l-1.144-.658zm1.144 7.427l-1.144-.658v-5.05l1.144.657zm0 6.769l-1.144-.658v-5.05l1.144.657zm-3.305-15.448l1.122.658v-5.05l-1.122-.658zm1.123 7.427l-1.123-.658v-5.05l1.122.657zm0 6.769l-1.123-.658v-5.05l1.122.657zm-3.305-15.448l1.144.658v-5.05l-1.144-.658zm0 6.769l1.144.658v-5.05l-1.144-.658zm1.144 7.427l-1.144-.658v-5.05l1.144.657zm-3.242-15.427l1.144.68v-5.051l-1.144-.68zm0 6.79l1.144.658v-5.05l-1.144-.658zm1.144 7.427l-1.144-.658v-5.05l1.144.658zm9.407-10.015l1.144-.658v-5.05l-1.144.657zm0 6.769l1.144-.658v-5.05l-1.144.657zm0 6.769l1.144-.658v-5.05l-1.144.657zm2.16-14.79l1.144-.658v-5.05l-1.144.657zm0 6.769l1.144-.658v-5.05l-1.144.657zm0 6.768l1.144-.657v-5.05l-1.144.657zm2.182-14.79l1.123-.657v-5.05l-1.122.657zm0 6.77l1.123-.658v-5.05l-1.122.657zm0 6.769l1.123-.658v-5.05l-1.122.657zm2.098-14.769l1.144-.658v-5.05l-1.144.658zm0 6.769l1.144-.658v-5.05l-1.144.679zm0 6.791l1.144-.659v-5.05l-1.144.658zm2.097-14.77l1.144-.657v-5.05l-1.144.657zm0 6.79l1.144-.678v-5.03l-1.144.658zm0 6.77l1.144-.658v-5.05l-1.144.657zm-12.647-29.707l1.144.657v-5.05l-1.144-.658zm1.144 7.427l-1.144-.659v-5.05l1.144.658zm0 6.79l-1.144-.68v-5.029l1.144.658zm-3.305-15.47l1.122.658v-5.05l-1.122-.658zm1.123 7.427l-1.123-.657v-5.05l1.122.657zm0 6.791l-1.123-.68V83.52l1.122.657zm-3.305-15.469l1.144.657v-5.05l-1.144-.658zm0 6.769l1.144.657v-5.05l-1.144-.658zm1.144 7.448l-1.144-.658v-5.05l1.144.657zm-3.242-15.426l1.144.657v-5.05l-1.144-.658zm0 6.768l1.144.658v-5.05l-1.144-.658zm1.144 7.427l-1.144-.658v-5.05l1.144.658zm9.407-10.015l1.144-.658v-5.05l-1.144.657zm0 6.768l1.144-.657v-5.05l-1.144.657zm0 6.769l1.144-.657v-5.05l-1.144.657zm2.16-14.79l1.144-.657v-5.05l-1.144.657zm0 6.769l1.144-.657v-5.05l-1.144.657zm0 6.769l1.144-.657v-5.05l-1.144.657zm2.182-14.79l1.123-.657v-5.05l-1.122.657zm0 6.769l1.123-.657v-5.05l-1.122.657zm0 6.769l1.123-.657v-5.05l-1.122.657zm2.098-14.768l1.144-.658v-5.05l-1.144.658zm0 6.79l1.144-.658v-5.05l-1.144.658zm0 6.769l1.144-.658v-5.05l-1.144.658zm2.097-14.769l1.144-.658v-5.05l-1.144.68zm0 6.79l1.144-.657v-5.05l-1.144.657zm0 6.769l1.144-.657v-5.05l-1.144.657zm-34.087-6.09l1.144.658v-5.05l-1.144-.658zm0 6.769l1.144.658v-5.05l-1.144-.658zm0 6.769l1.144.68v-5.05l-1.144-.68zm-2.161-14.79l1.144.658v-5.05l-1.144-.658zm0 6.769l1.144.658v-5.05l-1.144-.658zm0 6.769l1.144.68v-5.05l-1.144-.68zm-2.161-14.79l1.144.658v-5.05l-1.144-.658zm0 6.77l1.144.657v-5.05l-1.144-.658zm0 6.769l1.144.679v-5.05l-1.144-.68zm-2.097-14.748l1.122.658v-4.86l-1.122.658zm0 6.769l1.122.658v-5.05l-1.122-.658zm0 6.769l1.122.658v-5.05l-1.122-.658zm10.423-9.358l1.123-.658v-5.05l-1.123.658zm0 6.769l1.123-.658v-5.05l-1.123.658zm0 6.77l1.123-.659v-5.05l-1.123.658zm2.161-14.79l1.144-.658v-5.05l-1.144.657zm0 6.768l1.144-.657v-5.05l-1.144.657zm0 6.769l1.144-.658V86.3l-1.144.658zm2.161-14.79l1.144-.657v-5.05l-1.144.657zm0 6.769l1.144-.657v-5.05l-1.144.657zm0 6.769l1.144-.657v-5.05l-1.144.657zm2.118-14.768l1.123-.658v-5.05l-1.123.657zm0 6.79l1.123-.68V77.07l-1.123.658zm0 6.769l1.123-.658v-5.05l-1.123.658zm2.076-14.769l1.144-.658v-5.05l-1.144.658zm0 6.79l1.144-.657v-5.05l-1.144.657zm0 1.719v5.05l1.144-.657v-5.05zm-132.663 72.91v-5.05l-1.144-.658v5.05zm-2.691-1.549v-5.05l-2.669-1.55v5.05zm-4.067-2.355v-5.05l-1.123-.658v5.05zm6.758-2.738v-5.029l-1.144-.679v5.05zm-2.691-1.549v-5.05l-2.669-1.549v5.05zm-5.19-2.992l1.123.658v-4.456l-1.123.658zm7.881 17.952v-5.029l-1.144-.68v5.051zm-2.691-1.549v-5.05l-2.669-1.55v5.05zm-4.067-2.334v-5.05l-1.123-.658v5.029zm6.758 10.673v-5.05l-1.144-.658v5.05zm-2.691-1.549v-5.05l-2.669-1.55v5.051zm-4.067-2.356v-5.05l-1.123-.657v5.05zm6.758 10.674v-5.05l-1.144-.658v5.05zm-2.691-1.549v-5.05l-2.669-1.55v5.051zm-4.067-2.355v-5.05l-1.123-.658v4.562l.19.594z"/><path d="M87.24 172.068l-.316-.594v.488zm7.565 11.14v-5.05l-1.144-.658v5.05zm-2.691-1.548v-5.051l-2.669-1.549v4.095l.381 1.189zm10.699-29.262v-5.05l-2.69 1.548v5.05zm0-6.642v-5.029l-2.69 1.549v5.05zm0 13.411v-5.03l-2.69 1.55v5.05zm0 6.79v-5.05l-2.69 1.549v5.05zm0 6.769v-5.05l-2.69 1.549v5.05zm0 4.711v-3.077l-2.69 1.549v3.077zm-14.691-3.183l-.35-.149.35.828zm6.683 13.496v-2.887l-1.144-.679v2.907zm-2.691-1.55v-2.907l-1.63-.934 1.186 3.565zm12.097 6.981v-2.885l-1.144-.658v2.886zm-2.669-1.549v-2.885l-2.69-1.55v2.886zm-4.068-2.334v-2.907l-1.144-.658v2.886zm27.266 2.865l1.144.658v-2.886l-1.144-.658zm-1.546-.891v-2.886l-2.67-1.55v2.887zm-4.047-2.356v-2.886l-1.144-.657v2.885zm28.833 3.777l-1.143-.657v-2.886l1.144.657zm-2.669-1.549l-2.69-1.549v-2.886l2.69 1.55zm-4.067-2.334l-1.144-.679v-2.886l1.144.658zm42.604 30.874l-7.394 4.372v-1.825l7.394-4.371zm9.342-5.411l-9.342 5.411v-1.824l9.342-5.39zm11.271-6.429l-9.343 5.41v-1.824l9.343-5.39zm4.068-2.398l-4.068 2.398v-1.804l4.068-2.397zm-53.303-2.079l-7.415 4.37v-1.824l7.415-4.371zm11.271-6.43l-9.343 5.39v-1.825l9.343-5.39zm7.415-4.371l-7.415 4.371v-1.825l7.415-4.37zm5.995-3.438l-4.068 2.398v-1.825l4.068-2.397zm-24.681 17.634l-7.394 4.286v-1.825l7.394-4.371zm-3.369 69.599l-18.43 10.737v1.825l18.43-10.737zm0 3.311l-18.41 10.737v1.825l18.41-10.653zm12.712-78.322l-7.394 4.287v-1.803l7.394-4.372zm9.343-5.389l-7.415 4.286v-1.824l7.415-4.372zm5.995-3.459l-4.068 2.334v-1.803l4.068-2.398zm3.941 30.811l-7.394 4.371v-1.825l7.394-4.371zm11.27-6.43l-9.343 5.39v-1.825l9.343-5.602zm7.415-4.371l-7.415 4.371v-2.037l7.415-4.37zm6.567 51.308l-13.07 7.64-1.76-1.019 13.093-7.639zm-14.787 8.552l-3.156 1.846-1.759-.997 3.157-1.846zm14.216-63.297l-4.068 2.397v-2.037l4.068-2.397zm-24.681 17.824l-7.394 4.371v-1.825l7.394-4.37zm9.342-5.411l-7.415 4.371v-1.803l7.415-4.372zm9.343-5.39l-7.415 4.372v-1.825l7.415-4.372zm5.996-3.438l-4.068 2.399v-1.804l4.068-2.398zm41.354-39.51l7.5 4.371v-1.824l-7.5-4.372zm-24.978-14.238l2.182 1.273v-.891l.975-.573-3.157-1.846zm24.978 17.824l7.5 4.372v-1.825l-7.5-4.35zm64.997 26.44l32.795-18.97v-1.804L314.88 201.35zm0 3.586l32.795-18.97v-1.804l-32.795 18.949zm0 3.734l32.795-18.949v-1.824l-32.795 18.97zm-32.499-26.121l21.143-12.222v-1.825l-21.143 12.244zm0 3.586l21.143-12.222v-1.825l-21.143 12.244zm0 3.756l21.143-12.243v-1.804l-21.143 12.222zm-57.476-29.219l2.182 1.273v-1.825l-2.182-1.252zm32.774 39.617l1.356.806v-1.804l-1.356-.806zm-.169 4.477l1.355.806v-3.289l-1.356-.806zm-2.31-5.899l1.377.806v-1.824l-1.377-.807zm0 4.52l1.377.806v-3.289l-1.377-.806zm-2.478-5.942l1.377.807v-1.825l-1.377-.807zm0 4.52l1.377.806v-3.289l-1.377-.806zm-2.458-5.963l1.356.807v-1.804l-1.356-.806zm0 4.52l1.356.806v-3.289l-1.356-.785zm-27.414-8.106l1.356.807v-1.825l-1.356-.807zm0 4.52l1.356.806v-3.289l-1.356-.806zm2.585-3.034l1.356.806v-1.825l-1.356-.806zm0 4.519l1.356.807v-3.29l-1.356-.806zm-5.064-7.447l1.377.806v-1.804l-1.377-.806zm0 4.52l1.377.805v-3.289l-1.377-.785zm-24.787-12.648l-2.563 1.486v-1.825l2.563-1.485zm-1.207 5.199l-1.356.806v-3.289l1.356-.806zm-2.585-3.034l-1.356.806v-1.804l1.356-.806zm0 4.52l-1.356.806v-3.29l1.356-.784z"/><path d="M196.855 183.93l-1.377.806v-1.825l1.377-.806zm0 4.52l-1.377.806v-3.29l1.377-.806zm2.479-5.963l-1.377.806v-1.804l1.356-.806zm-4.957-.277l-1.356.807v-1.825l1.356-.785zm-2.585 1.486l-1.356.807v-1.804l1.356-.806zm6.271-3.607l-2.585 1.507v-1.825l2.585-1.486z"/><path d="M199.334 179.346l-1.377.807v-1.804l1.356-.806zm-4.957-.276l-1.356.807v-1.825l1.356-.806z"/><path d="M193.593 179.537l-3.157 1.825v-1.803l3.157-1.825zm3.262-1.888l-1.377.806v-1.825l1.377-.806zm2.479-1.443l-1.377.806v-1.803l1.356-.807zm0 10.801l-1.377.806v-3.29l1.356-.784zm6.398-23.872l4.597 2.673v-2.185l-4.597-2.674zm2.945 15.235l1.652.976v-12.074l-1.652-.954zm-2.945-1.697l1.631.955v-12.053l-1.63-.976zm-2.966-15.257l1.631.976v-2.186l-1.63-.954zm5.911-.34l1.652.977v-2.186l-1.652-.955zm-5.911-3.416l4.597 2.653v-2.165l-4.597-2.673zm2.966-2.058l4.597 2.673v-2.164l-4.597-2.674zm-2.966-1.698l1.631.955v-2.185l-1.63-.955zm2.966-5.432l4.597 2.674v-2.165l-4.597-2.673zm-2.966-1.697l1.631.954v-2.185l-1.63-.955zm5.911-.34l1.652.955v-2.186l-1.652-.955zm-5.911-3.437l4.597 2.673v-2.185l-4.597-2.653zm2.966-2.038l4.597 2.674v-2.186l-4.597-2.673zm-2.966-1.718l1.631.955v-2.165l-1.63-.955zm2.966-5.412l4.597 2.674v-2.185l-4.597-2.674zm-2.966-1.718l1.631.955v-2.165l-1.63-.954zm5.911-.34l1.652.955v-2.164l-1.652-.955zm-5.911-3.416l4.597 2.653v-2.165l-4.597-2.673zm2.966-2.058l4.597 2.673v-2.164l-4.597-2.674zm-2.966-1.718l1.631.975v-2.185l-1.63-.955zm2.966-5.412l4.597 2.674v-2.165l-4.597-2.673zm-2.966-1.718l1.631.975v-2.185l-1.63-.955zm5.911-.34l1.652.976V115.9l-1.652-.955zm-5.911-3.416l4.597 2.652v-2.164l-4.597-2.653zm2.966-2.038l4.597 2.674v-2.185l-4.597-2.674zm-2.966-1.718l1.631.955v-2.165l-1.63-.976zm0 65.016l1.631.955v-12.053l-1.63-.955zm15.381-11.819l-4.597 2.673v-2.185l4.597-2.674zm-2.967 15.235l-1.63.976v-12.074l1.63-.954zm2.967-1.697l-1.631.955v-12.053l1.63-.976zm2.966-15.257l-1.653.976v-2.186l1.653-.954zm-5.933-.34l-1.63.977v-2.186l1.63-.955zm5.933-3.416l-4.597 2.653v-2.165l4.597-2.673zm-2.966-2.058l-4.597 2.673v-2.164l4.597-2.674zm2.966-1.698l-1.653.955v-2.185l1.653-.955zm-2.966-5.432l-4.597 2.674v-2.165l4.597-2.673zm2.966-1.697l-1.653.954v-2.185l1.653-.955zm-5.933-.34l-1.63.955v-2.186l1.63-.955zm5.933-3.437l-4.597 2.673v-2.185l4.597-2.653zm-2.966-2.038l-4.597 2.674v-2.186l4.597-2.673zm2.966-1.718l-1.653.955v-2.165l1.653-.955zm-2.966-5.412l-4.597 2.674v-2.185l4.597-2.674zm2.966-1.718l-1.653.955v-2.165l1.653-.954zm-5.933-.34l-1.63.955v-2.164l1.63-.955zm5.933-3.416l-4.597 2.653v-2.165l4.597-2.673zm-2.966-2.058l-4.597 2.673v-2.164l4.597-2.674zm2.966-1.718l-1.653.975v-2.185l1.653-.955zm-2.966-5.412l-4.597 2.674v-2.165l4.597-2.673zm2.966-1.718l-1.653.975v-2.185l1.653-.955zm-5.933-.34l-1.63.976V115.9l1.63-.955zm5.933-3.416l-4.597 2.652v-2.164l4.597-2.653zm-2.966-2.038l-4.597 2.674v-2.185l4.597-2.674zm2.966-1.718l-1.653.955v-2.165l1.653-.976zm0 65.016l-1.653.955v-12.053l1.653-.955zm26.291 35.606l-8.834 5.199v-1.825l8.834-5.199zm0 3.056l-8.834 5.198v-1.824l8.834-5.2zm0-13.199l-8.834 5.199v-1.825l8.834-5.177zm0 3.056l-8.834 5.199v-1.825l8.834-5.2zm0-13.199l-8.834 5.2v-1.826l8.834-5.177zm0 3.056l-8.834 5.199v-1.825l8.834-5.199zm0-13.199l-8.834 5.2v-1.826l8.834-5.177zm0 3.056l-8.834 5.199v-1.825l8.834-5.199zm0-13.198l-8.834 5.198v-1.825l8.834-5.177zm0 3.055l-8.834 5.199v-1.825l8.834-5.199zm-18.813 32.742l8.835 5.177v-1.803l-8.835-5.2zm0 3.055l8.835 5.178v-1.804l-8.835-5.199zm0-13.198l8.835 5.177v-1.803l-8.835-5.199zm0 3.055l8.835 5.178v-1.804l-8.835-5.198zm0-13.198l8.835 5.199v-1.825l-8.835-5.199zm0 3.056l8.835 5.177v-1.804l-8.835-5.198zm0-13.199l8.835 5.199v-1.825l-8.835-5.199zm0 3.056l8.835 5.177v-1.803l-8.835-5.2zm0-13.199l8.835 5.199v-1.825l-8.835-5.199zm0 3.056l8.835 5.177v-1.803l-8.835-5.2zm-1.779 58.544l-2.987 1.74v-5.941l2.987-1.846zm-4.534 2.631l-3.008 1.74v-5.941l3.008-1.846zm-18.219 10.525l-2.988 1.761v-5.962l2.988-1.846zm-4.555 2.631l-2.988 1.762V238.4l2.988-1.846zm13.686-7.914l-2.988 1.76v-5.962l2.987-1.825zm4.618-2.653l-3.008 1.74v-5.963l3.008-1.824zm-9.173 5.284l-2.988 1.76v-5.962l2.988-1.825zm8.177 20.964l3.009 1.74v-5.962l-3.009-1.825zm4.576 2.632l3.009 1.74v-5.963l-3.009-1.825zm-13.749-7.915l3.008 1.74v-5.942l-3.008-1.846zm4.576 2.631l3.008 1.74v-5.941l-3.008-1.846zm27.16-10.1l3.008 1.74v-5.963l-3.008-1.825zm4.575 2.63l3.01 1.74v-5.962l-3.01-1.825zm-13.749-7.914l3.009 1.74v-5.941l-3.009-1.847zm4.576 2.631l3.009 1.74v-5.941l-3.009-1.846zm-72.412-16.063l2.733 1.57.022-4.37-2.755-1.592zm27.033 52.157l1.737.998.022-5.75-1.759-.998zm14.342-18.248l-13.07 7.639-1.76-1.019 13.094-7.639zm-14.787 8.551l-3.156 1.846-1.759-.997 3.157-1.846zm-4.915 6.599l1.737.998.022-5.75-1.759-.998zm14.364-18.248l-13.093 7.639-1.758-1.019 13.093-7.639zm-14.809 8.551l-3.156 1.846-1.759-1.018 3.157-1.825z"/><path d="M178.678 272.775l1.738.998.02-5.75-1.758-1.02zm14.364-18.248l-13.093 7.639-1.758-1.019 13.093-7.639zm-14.809 8.551l-3.156 1.846-1.759-1.018 3.157-1.846z"/><path d="M173.318 269.677l1.738.998.02-5.75-1.758-1.02zm14.364-18.248l-13.092 7.639-1.759-1.019 13.093-7.639zm-14.809 8.551l-3.156 1.846-1.759-1.018 3.157-1.847z"/><path d="M167.958 266.58l1.738.997.02-5.75-1.758-1.02zm14.364-18.25l-13.092 7.64-1.759-1.019 13.093-7.639zm-14.808 8.552l-3.157 1.846-1.758-1.018 3.156-1.847z"/><path d="M162.599 263.481l1.737.998.02-5.75-1.757-1.02zm14.363-18.248l-13.092 7.639-1.759-1.019 13.093-7.639zm-14.808 8.551l-3.157 1.846-1.758-1.018 3.156-1.847z"/><path d="M157.239 260.383l1.737.998.021-5.75-1.758-1.02zm1.25-35.797l2.732 1.57.022-4.392-2.754-1.592zm-3.877-2.249l2.733 1.57.02-4.392-2.753-1.57zm-3.877-2.249l2.733 1.591.02-4.392-2.753-1.592zm-3.877-2.228l2.733 1.57.02-4.393-2.753-1.591zm-26.291 47.828v-5.156l-3.687 2.143 1.42 4.329zm10.931 28.901v-7.809l-5.042 2.928v2.144l1.568 4.753z"/><path d="M126.456 289.708l5.042-2.928-4.682-2.716-2.457 1.422 1.229 3.713z"/></g><path d="M95.949 137.778l7.945-4.605-.911-.51-7.966 4.563zm36.566-61.494l7.394 4.286 7.923-4.605-7.393-4.265zm99.127-40.572L239.036 40l9.194-5.327-7.394-4.265zm-27.753 65.058l7.394 4.287 9.194-5.326-7.393-4.265zm41.566 58.12l-7.394-4.264-7.944 4.583 7.393 4.286zm-86.903 21.942l-7.394-4.265-7.944 4.583 7.394 4.286zm162.81 12.392l-7.393-4.287-7.945 4.605 7.394 4.265zm10.254-5.942l-7.393-4.265-7.924 4.584 7.394 4.286zm10.275-5.941l-7.394-4.265-7.944 4.583 7.394 4.287zm-53.154-7.002l-7.394-4.287-7.944 4.584 7.414 4.286zm10.275-5.942l-7.394-4.286-7.944 4.604 7.393 4.266zm6.652-3.841l.403-3.946-4.195-2.42-7.924 4.584 7.394 4.265zm-176.602 21.326l7.944-4.583-7.393-4.287-7.945 4.605zm-22.202-.127l7.944-4.584-7.394-4.286-7.944 4.604zm13.707 73.461l-5.678-3.289-.19.106 1.8 5.517zm-10.106-84.092l7.394 4.286 7.923-4.605-7.394-4.265z" fill="#0EA54B"/><g opacity=".3" fill="#164048"><path d="M314.435 186.518l-11.673 6.748-14.11-2.207.403-2.291 8.643-17.888-10.529-5.772 10.53-6.09h8.537l-.784 7.363v14.96zm-12.478 22.175l10.253 5.92-19.999.148-10.063-5.92 19.809-11.84zm-79.319-65.016l11.398-6.578h-11.398v-12.287l6.017.022v6.323l10.254 5.942v-3.502l3.199-1.888v9.4h6.08v7.108l9.13 5.284v-19.48l2.86-1.654v19.479h6.886v7.278l9.745 5.645-8.537-.043-17.033-9.846h-9.47l-3.538-2.037-3.517 2.037h-8.898l-3.178-1.846v-.764zm5.212 89.46v5.751l21.185 12.244-9.703-.064-21.249-12.286zm-22.309 18.653l21.186 12.243-9.258.021v-.403l-21.058-12.18 9.13-5.284zm-29.804-12.402l9.259-6.175v6.578l10.253 5.92h-8.58zm51.35-31.332v6.748l10.233 5.941h-9.258v-2.228l-7.521-4.35.784-1.634-.996-.572zm21.397-12.307l.911-.51v6.664l10.233 5.941-10.402-.064-.742-.424zm7.86-7.002l-2.5-1.465 2.352-1.358.127.616 3.2-1.846.465-.276.551.318v-.573l9.28-5.602v11.544l10.253 5.92h-9.28v-2.483l-10.253-5.92-4.152 2.398zm-46.968 8.933l9.83-5.602v5.284l7.881 4.562v1.082l-8.601-.042zm4.11-18.419h7.754v6.366l2.352 1.358-4.386 2.547v1.697h-7.372l-9.534-5.496zm-13.156-7.193l-6.674-3.862h8.072v6.154l9.767 5.644-11.165.021zm1.398-55.658l-9.406 5.432v17.676l-10.953-6.324 12.69-20.965v1.74l4.979-2.843h2.69z"/><path d="M255.815 184.715l-2.204-2.992h-2.563l-2.564-1.485v-2.483l11.504 6.663-.466.276zm3.707.054l.466-.351zm-36.884-19.427v-9.846l.148-.085v7.49l4.301 2.483-.042 2.504zm-56.311-17.74l4.047-8.997 1.716-.997v.912l3.432-1.994-.827-.467h-2.605v-2.462l29.638 17.146v.848l-4.809-2.78h-3.835v-.615l-10.253-5.92-12.818 7.406zm13.58 44.9v-4.965l9.28 5.369-8.623-.022zm-.487-11.31v3.926l-6.8-3.926zm-28.177-15.617l3.877-2.228h5.402v12.986l8.411 4.86-1.864 1.06h-5.572v-1.57l-10.254-5.941zM140.1 181.192l-4.513 9.55 5.55 3.224h5.7l3.516-2.037v-4.795zm-26.694 9.718l6.292 3.65 9.237.022v-6.939l-10.932-6.323zM97.58 180.471l1.25.721h41.27l-21.906-12.646-11.144 6.45v-14.535zm71.967 50.502l-32.244-18.652v-9.91l-16.99 9.825 1.122.68c1.547-.658 7.14-.807 7.14-.807l4.406 2.589 7.076.063 1.504.764 14.64 8.467-3.369 1.952 9.406 5.369h8.792l-1.483-.34zm-16.779 26.821l42.393 24.509-7.627-.021-42.286-24.466 7.52-4.35zm-56.162-63.658l.762-.445 1.738 1.018h7.732l-15.168-8.785 2.14 6.557zm55.167 101.408l10.254 5.92-5.36-.042-10.085-5.836 5.19-3.013zm-15.148 20.604l-2.69-1.57.508 1.591zm-13.495-37.177l-1.123-.657.36 1.082zm-3.468-8.041l-.07.034.07.21zm46.284-47.808l-4.703-2.716 4.703-2.61zm5.169-92.686l-3.262-6.218 3.262-1.91zm-4.173 28.454l-6.42-3.713 6.525-3.777h20.508v16.785l-8.135 4.69v7.15h-4.81v-21.134zm-59.807-19.521h21.906v19.5h-21.906zm94.593-36.794h-7.669v11.394l7.67-4.413zm-30.613-.828l-14.067-.085-5.805 3.332v10.97h5.17l5.423-3.14 1.822 3.14h7.457z"/></g></g><g><path d="M258.95 58.735l64.7-37.41c3.454-1.994 6.187-1.782 8.454-.466l7.372 4.328c2.225 1.295 3.623 4.053 3.623 7.979l.127 45.77c.021 7.894-5.55 17.549-12.394 21.517l-51.417 29.728-25.655 39.617-7.373-4.33.148-85.216c-.02-7.894 5.551-17.549 12.415-21.517z" fill="#3B0063"/><path d="M265.92 63.446c-6.864 3.968-12.436 13.623-12.415 21.516l.233 84.836 25.656-39.617 51.417-29.728c6.864-3.968 12.415-13.623 12.394-21.517l-.127-45.77c-.022-7.894-5.615-11.098-12.479-7.13l-64.679 37.41z" fill="#7712BA"/><path d="M310.621 73.016c0 3.628 2.733 4.986 6.102 3.013 3.368-1.973 6.101-6.514 6.101-10.143 0-3.628-2.733-4.986-6.101-3.013-3.369 1.952-6.102 6.493-6.102 10.143zM292.19 83.795c0 3.629 2.733 4.987 6.102 3.014 3.368-1.974 6.1-6.515 6.1-10.143 0-3.629-2.732-4.987-6.1-3.013-3.369 1.973-6.102 6.514-6.102 10.142zm-18.431 10.801c0 3.629 2.733 4.987 6.101 3.013 3.369-1.973 6.102-6.514 6.102-10.143 0-3.628-2.733-4.986-6.102-3.013-3.368 1.952-6.101 6.493-6.101 10.143z" fill="#FFF"/></g><g><path d="M140.163 191.378l31.46-18.185c1.674-.976 3.009-.87 4.11-.234l3.58 2.101c1.081.637 1.76 1.973 1.76 3.883l.063 22.26v21.495l-8.432-4.669-3.22-3.204-19.343 11.289-9.321 2.08-3.305-1.91c-1.716-1.104-2.797-2.228-2.839-4.01l-.508-20.435c-.043-3.84 2.669-8.53 5.995-10.461z" fill="#3B0063"/><path d="M143.553 193.67c-3.326 1.93-6.038 6.62-6.038 10.46l.085 18.716c.02 4.71 5.127 7.618 9.194 5.241l3.326-1.973 22.097-12.647 8.919 9.252-.064-43.776c0-3.84-2.733-5.39-6.059-3.459l-31.46 18.185z" fill="#7712BA"/><path d="M165.29 198.316c0 1.762 1.334 2.42 2.965 1.465 1.631-.955 2.966-3.162 2.966-4.945 0-1.76-1.335-2.419-2.966-1.464-1.631.976-2.966 3.183-2.966 4.944zm-8.962 5.242c0 1.76 1.334 2.419 2.966 1.464 1.63-.955 2.966-3.162 2.966-4.944 0-1.783-1.335-2.42-2.966-1.464-1.632.976-2.966 3.182-2.966 4.944zm-8.962 5.241c0 1.761 1.335 2.419 2.966 1.464 1.631-.955 2.966-3.162 2.966-4.944 0-1.761-1.335-2.42-2.966-1.464-1.631.976-2.966 3.183-2.966 4.944z" fill="#FFF"/></g></g></svg>