<svg width="228" height="302" viewBox="0 0 228 302" xmlns="http://www.w3.org/2000/svg" xmlns:xlink="http://www.w3.org/1999/xlink"><title>Group 4</title><defs><path id="a" d="M0 301.438h227.829V0H0z"/></defs><g fill="none" fill-rule="evenodd"><path d="M198.827 232.875c-23.678-6.5-48.678-6.066-73.362-3.15-14.858 1.756-29.602 4.411-43.876 6.994-8.938 1.617-17.914 3.048-26.77 5.15-18.405 4.366-39.682 9.946-50.605 28.11-5.322 8.85-6.3 16.421 1.156 23.929 8.36 8.417 20.787 7.963 31.545 7.064 19.803-1.655 39.712-3.722 59.383-5.732 20.519-2.098 40.82-4.746 61.115-8.678 14.052-2.723 28.12-5.602 41.906-9.645 7.685-2.253 17.765-5.336 23.888-11.245 16.037-15.473-13.986-29.943-24.38-32.797M140.427 0c-.03.02-.059.047-.087.071.015.016.04.049.044.045.03-.019.056-.046.083-.07-.013-.016-.036-.048-.04-.045" fill="#00E07D"/><path d="M102.565 84.103a65.84 65.84 0 0 1-4.384.187c-4.366.017-8.56-.629-12.437-3.22-5.45-3.642-8.938-9.687-9.683-16.178-1.2-10.456 2.785-21.19 8.117-30.005.223-.369.876-1.946.358-2.242-.882-.504-1.627 2.481-2.555 1.565-.521-.515 1.67-4.44 2.024-5.113.238-.46.85-1.796.104-1.829-.91-.042-2.394 3.393-3.005 3.034-1.136-.665 2.176-5.8.771-6.443-.954-.425-2.303 4.247-3.508 5.277-1.276-1.14 1.81-4.197.687-4.754-1.133-.563-1.485 3.357-3.228 3.71-.546-.769.836-2.028.189-2.435-1.15-.716-2.854 4.846-3.137 5.542-3.076 7.566-5.277 15.46-6.195 23.433-1.28 11.129.43 23.783 7.474 32.839 3.875 4.982 8.965 9.553 15.222 10.72 4.089.763 8.46 2.346 12.284-.347 2.814-1.981 5.397-5.835 5.923-9.274.619-4.051-1.483-4.717-5.021-4.467" fill="#EB495F"/><path d="M126.899 9.316c.3 1.022.106 1.95-.878 2.308-.228-1.186.162-1.913.878-2.308-.51-1.737-2.446-3.75-4.363-3.709-4.129.087-6.423 2.11-7.53 4.254.381-4.318-4.989-5.1-7.828-3.46-3.58 2.07-4.869 5.199-3.78 9.145-7.326-1.107-5.461 11.365 1.428 11.331l4.547.786c7.236 1.049 20.898 2.716 25.909-4.668 2.174-3.204 1.108-9.276-1.321-12.158-1.103-1.308-5.193-2.552-7.062-1.521" fill="#272424"/><path d="M126.021 11.624c.984-.358 1.178-1.286.878-2.308-.716.395-1.106 1.122-.878 2.308" fill="#272424"/><path d="M130.631 26.101c-1.986-1.18-4.687-1.831-6.907-2.274-5.771-1.153-14.268-.37-19.164 3.244-3.006 2.218-2.23 11.471 1.487 12.913 1.95.755 4.366.181 6.387.143 3.85-.074 7.7-.237 11.546-.41 1.79-.08 5.957-.057 7.277-1.315.44-.419.209-.854.342-1.418.283-1.202.707-3.152.827-5.098.15-2.412-.168-4.819-1.795-5.785" fill="#F0B900"/><path d="M135.714 194.412c-11.306-5.097-26.85-9.297-38.862-7.542-3.594.524-8.292 4.877-11.923 4.888-2.376.008-3.84 4.81-6.162 5.415-2.241.584-6.37 2.29-7.417 4.644-2.434 5.477 29.305 9.661 38.09 9.661 7.947 0 40.111 2.423 40.578-1.963.258-2.426-11.641-15.128-14.304-15.103" fill="#00E07D"/><path d="M143.524 194.056c-1.695-3.934-2.977-4.271-6.964-4.643-5.08-.472-13.588.494-10.659 7.361 2.487 5.828 8.02 10.371 9.372 16.679.705 3.287.822 6.753.67 10.24-.188 4.361-.796 8.758-1.195 12.881-.439 4.527.598 8.924 1.621 13.296 2.263.814 4.703 1.255 7.026 1.553a45.14 45.14 0 0 0 3.726.34c.023-2.672.206-5.376.535-7.723.658-4.707.659-9.52 1.674-14.177 1.232-5.654 1.596-12.11 1.045-17.868-.562-5.881-4.496-12.473-6.85-17.939" fill="#EB495F"/><path d="M147.399 258.058a51.465 51.465 0 0 1-.266-4.305 42.01 42.01 0 0 1-4.03-.36c-2.037-.274-4.172-.641-6.21-1.252l.024.11c1.056 4.757 1.585 9.535 2.687 14.337.288 1.258 1.495 6.766 2.542 3.551.419-1.283-1-3.355-.22-4.479 1.606-2.315 3.652.715 4.882 1.837 2.992 2.73 8.957 4.3 12.34 1.314-.47-.465-1.108-.695-1.74-1.018-4.243-2.17-9.426-4.302-10.01-9.735" fill="#1E2140"/><path d="M85.73 189.224c-2.163.25-6.065.777-6.704 3.007-.62 2.165.596 5.824.788 8.135.28 3.359.6 6.734-.42 10.011-.484 1.555-1.439 2.782-2.365 4.08-4.047 5.667-8.38 10.607-10.776 17.323-1.01 2.834-3.197 8.1-2.974 11.123.245 3.336 4.852 5.614 7.545 6.825 1.354-2.37 2.875-4.692 4.344-6.615 2.883-3.774 5.245-7.965 8.413-11.519 3.848-4.316 7.332-9.758 9.678-15.043 2.686-6.05 2.193-11.906 2.614-18.265.016-.25.025-.494.027-.734.038-5.7-4.05-9.036-10.17-8.328" fill="#EB495F"/><path d="M67.35 255.898a51.324 51.324 0 0 1 1.625-3.993 42.05 42.05 0 0 1-3.475-2.078c-1.717-1.133-3.481-2.392-5.054-3.83l-.025.11c-1.108 4.746-2.7 9.28-3.787 14.086-.285 1.26-1.583 6.745.753 4.306.932-.975.552-3.458 1.74-4.131 2.45-1.388 2.982 2.231 3.604 3.777 1.514 3.761 6.207 7.77 10.548 6.551-.222-.623-.697-1.108-1.126-1.673-2.884-3.8-6.629-7.976-4.803-13.125" fill="#1E2140"/><path d="M124.825 140.029c1.745-6.95 6.43-13.592 9.652-19.917 1.702-3.343 4.364-7.348 4.931-11.113.295-1.958-.059-3.666.468-5.655.735-2.775 2.043-5.445 3.08-8.115.856-2.204 1.606-2.458.006-4.347-2.275-2.688-8.282-5.366-11.624-6.218-4.378-1.116-8.889-1.398-13.364-1.87-2.736-.289-5.559-1.137-8.327-.9-3.461.295-3.079 1.956-4.293 4.91-1.961 4.767-5.041 8.81-8.722 12.377-2.952 2.86-3.345 4.789-2.974 8.757.59 6.31-.259 9.368-3.792 14.477-4.209 6.084-9.85 11.24-13.031 18.006-7.497 15.953-6.665 34.333-6.682 51.554-.003 3.076-.183 6.535.332 9.544.596 3.474 25.056-7.485 41.814-6.127 18.951 1.536 34.628 11.385 37.719 14.123.902.8 2.43-7.604.004-14.394-5.352-14.98-28.418-42.26-25.197-55.092" fill="#FFDA00"/><path d="M130.657 58.076c-1.112-.885-3.661 1.776-4.977 1.56-2.132-.348-3.933-1.01-6.14-.678-4.22.635-8.265 2.724-12.53 2.973 2.63 3.373 4.401 7.39 5.253 11.534.216 1.044.265 1.943.214 2.768-.142 2.29-1.067 4.003-1.404 6.64-.771 6.024 3.86 12.688 10.467 12.042 4.6-.45 6.147-5.312 7.153-9.525 2.512-10.517 4.302-25.45 1.964-27.314" fill="#EB495F"/><path d="M131.767 46.251c-.178-3.534-3.575-7.563-5.8-10.13-2.45-2.825-5.692-4.379-9.405-4.68-5.4-.44-9.715 3.513-12.265 7.9a24.789 24.789 0 0 0-2.82 7.345c-.123.588-.282 1.292-.434 2.046-.399 1.974-.754 4.29-.31 5.755.69 2.265.85 4.57 1.65 6.823.787 2.214 1.95 4.278 3.335 6.168 1.197 1.631 2.286 3.367 3.717 4.81 1.26 1.27 2.79 2.304 4.26 3.311.759.52 1.594.958 2.502 1.138 3.13.62 6.443-1.43 8.717-3.363 1.958-1.664 4.7-4.765 5.68-7.36 1.403-3.715.992-6.3.482-10.141-.453-3.42.855-6.335.69-9.622" fill="#EB495F"/><path d="M123.475 62.503c-.001-.034.011-.067.012-.1v-.07c-.006.06-.005.115-.012.17m-16.955 1.844c-.001-.031.01-.062.01-.094v-.076c-.007.06-.005.114-.01.17" fill="#E58F7B"/><path d="M131.719 55.877c.045-.05.096-.098.135-.15l-.296-.094c.05.066.104.15.16.244" fill="#D35337"/><path d="M137.063 44.367c-.112-.803.452-1.086.892-1.62.552-.671.712-1.41.684-2.277-.054-1.707-.84-3.618-2.05-4.831-.808-.81-1.922-1.329-3.045-1.502-.437-.067-2.631-.266-2.8.375.597-2.266-1.3-4.76-3.484-5.516-1.489-.515-2.803-.59-4.188.172-.585.322-1.334 1.263-1.493 1.9-.71-.948-1.447-2.46-2.533-3.018-1.515-.777-3.4-1.116-5.029-.536-1.363.487-2.332.888-2.869 2.278-.24.622-.138 1.317-.445 1.9.355-.673-3-1.596-3.334-1.642-1.361-.188-2.835-.065-4.122.434-2.71 1.054-4.361 5.456-1.976 7.642-4.31-3.949-9.125 7.016-3.544 7.907-1.035.418-1.826.956-2.419 1.668-.555.666-.936 1.483-1.18 2.497-.612 2.546-.228 5.57 2.585 6.16 1.077.226 1.504-.39 1.94.575.13.285-.422 1.775-.35 2.297.133.957.706 1.856 1.306 2.585a9.96 9.96 0 0 0 2.335 2.058c.304.193 2.23.798 2.316.974-1.015-2.057-3.02-5.426-1.988-7.782 1.02-2.328 3.33-3.049 2.284-5.821 3.302-.265 4.828-3.276 2.142-5.713 2.843.49 4.206-2.09 4.127-4.504 1.313 1.428.486 3.188 2.855 3.748 2.482.587 4.423-1.065 5.37-3.022-.377.777 1.594 3.029 2.23 3.322 1.33.615 2.933-.08 3.629-1.337-.747 2.37 2.508 5.28 4.711 3.818-2.087 1.384-2.58 2.602-1.525 5.074.985 2.306 2.412 3.944 3.076 6.4.534 1.97-.05 4.024.657 6.023-.139-.392 2.955-2.558 3.254-2.786 1.315-1.006 2.379-1.946 3.039-3.52.365-.873.689-2.845-.625-3.237.47.14 2.187-3.21 2.37-3.634.507-1.175.886-2.655.891-3.93.006-1.799-1.533-4.653-3.694-3.579" fill="#272424"/><path d="M131.077 56.344c-.074.088-.143.246-.202.453-.396 1.382-.432 4.967.078 4.891 1.533-.227 3.21-1.749 3.258-3.363.047-1.6-1.652-3.716-3.134-1.981" fill="#EB495F"/><path d="M132.13 57.373c.06.293-.285 2.278-.126 2.292 1.285.115 1.41-2.402.127-2.292" fill="#A33017"/><path d="M118.92 267.567c-4.431-.807-9.308-.818-13.742-.187-4.13.588-14.035 2.347-12.02 8.652 1.687 5.285 12.197 5.574 17.38 5.267 4.616-.273 10.019-.652 14.05-3.14 6.995-4.313-.889-9.722-5.667-10.592m-11.254-153.339l-.287-1.508c-.195.527-.168 1.047.287 1.508" fill="#13110C"/><path d="M107.38 112.72l.287 1.508c-.455-.461-.482-.981-.287-1.508l-.13-.692c-.28 5.137.3 159.939 1.108 160.92 1.229 1.493 3.157.61 5.084.504-1.346-16.99-1.57-156.513-3.905-163.481-.593.706-1.783 1.741-2.157 2.749" fill="#13110C"/><path d="M119.744 80.323c-1.816-1.177-4.08-1.522-6.152-1.985-2.822-.63-4.654 1.88-5.244 4.357-.72 3.021-1.827 6.005-2.667 9.038-.714 2.577-1.207 5.748.973 7.778.376.35.936.687 1.6.991 2.178.998 5.48 1.641 7.052 1.15 3.887-1.217 5.128-9.902 6.123-13.881.742-2.969.938-5.748-1.685-7.448" fill="#272424"/><path d="M110.086 100.285c-1.122 1.27-1.308 3.337-1.712 4.916-.545 2.135-.789 4.197.156 4.626 2.133.969 3.464-5.415 3.666-6.785.22-1.48-.265-4.844-2.11-2.757" fill="#13110C"/><path d="M108.497 108.19c-1.08.063-1.862.517-2.326 1.132-1.048 1.386-.485 3.59 1.895 3.988 4.349.727 4.736-5.374.431-5.12" fill="#13110C"/><path d="M139.481 88.787c-2.348-.32-4.477 1.002-5.935 5.083-.958 2.683-1.004 5.873-.11 8.579.787 2.381 2.02 2.82 3.683 4.592 3.928 4.184 6.37 10.535 4.104 16.044-2.037 4.954-4.95 9.304-9.4 12.385-5.466 3.782-11.976 5.826-18.413 7.204-.421.09-2.014.695-1.874 1.275.238.989 2.918-.514 2.888.792-.016.733-4.37 1.826-5.101 2.03-.497.14-1.887.61-1.4 1.177.593.692 4.106-.58 4.265.112.295 1.284-5.705 2.389-5.209 3.855.346.988 4.664-1.232 6.238-1.059.047 1.713-4.289 1.558-3.923 2.759.367 1.212 3.456-1.219 4.908-.189-.185.925-2.047.78-1.899 1.532.269 1.329 5.477-1.24 6.176-1.511 7.607-2.946 14.852-6.755 21.274-11.555 3.492-2.61 6.14-5.52 8.63-9.165 1.681-2.462 3.245-5.014 4.402-7.738 3.202-7.536 3.789-15.154.43-22.706-2.368-5.326-7.435-12.638-13.734-13.496" fill="#EB495F"/><path d="M114.677 64.3c-.018-.724.012-1.474.043-2.26.13-3.238.276-6.906-3.395-8.886-1.217-.656-2.847-.669-4.057-.032-.937.494-1.514 1.32-1.625 2.327l.898.099c.098-.895.678-1.377 1.147-1.624.94-.495 2.26-.484 3.209.027 3.174 1.712 3.05 4.791 2.92 8.052-.036.91-.073 1.851-.028 2.735l.018.35.343.07c.156.032.309.048.457.048.517 0 .977-.189 1.28-.537l-.68-.596c-.118.136-.306.213-.53.226m4.017-12.86c-1.73.969-2.692 2.5-2.574 4.093l.901-.067c-.092-1.233.698-2.443 2.114-3.236 1.597-.895 3.48-.963 4.578-.166l.53-.734c-1.613-1.168-3.949-.787-5.549.11m4.158 6.419c-.447.333-1.042.405-1.677.204l-.272.863c.277.088.55.138.817.152a2.54 2.54 0 0 0 1.67-.492c.721-.536 1.128-1.441 1.115-2.483l-.904.012c.01.747-.263 1.383-.749 1.744" fill="#1D1D1B"/><path d="M110.7 57.886c.069.914-.307 1.754-.935 2.09-.526.283-1.154.174-1.769-.307l-.556.713c.554.434 1.146.655 1.718.655a2.17 2.17 0 0 0 1.033-.262c.953-.51 1.506-1.67 1.41-2.956l-.9.067zm4.627 10.226c-1.3 2.944 4.348 4.832 4.694 1.535.067-.646-.073-1.18-.346-1.602-.965-1.487-3.54-1.764-4.348.067m3.205-7.266a13.689 13.689 0 0 1-.223-.186l-.585.69.232.194c.412.342 1.102.913 1.068 1.247-.014.138-.195.31-.497.47l.424.8c.598-.32.925-.715.971-1.178.083-.815-.734-1.492-1.39-2.037" fill="#1D1D1B"/><path d="M106.355 95.546c-.258.489-.358 1.08-.29 1.708l.048.45.899-.097-.05-.45c-.033-.313-.027-.773.192-1.188l.211-.4-.798-.424-.212.4zm.085-2.871a6.633 6.633 0 0 1-.047.16c-.06.193-.127.413-.148.648l-.041.45.9.083.04-.451c.013-.141.061-.298.112-.464l.054-.177.123-.435-.868-.25-.124.436zm1.032-3.284c-.023.067-.049.136-.075.206-.133.357-.284.761-.25 1.187l.037.451.9-.073-.036-.451c-.018-.225.09-.516.195-.797.03-.077.057-.152.082-.225l.149-.428-.853-.297-.149.427zm.705-2.593c-.082.312-.16.607-.273.877l-.175.418.833.35.175-.418c.137-.328.227-.667.313-.995l.124-.467-.874-.232-.123.467zm.906-3.084a3.524 3.524 0 0 1-.19.563c-.086.221-.176.45-.231.7l-.096.443.882.192.097-.442c.038-.179.111-.364.189-.56.088-.225.18-.457.233-.711l.092-.443-.884-.185-.092.443zm.901-2.827c-.02.106-.068.223-.119.347-.094.23-.211.514-.189.853l.031.451.901-.061-.03-.452c-.009-.127.052-.275.123-.446a2.65 2.65 0 0 0 .171-.527l.083-.445-.889-.165-.082.445zm-1.842 12.409c-.128.32-.227.638-.322.945-.036.116-.072.233-.11.35l-.139.431.86.279.138-.43c.04-.121.077-.242.114-.36.094-.305.183-.592.298-.88l.167-.42-.839-.336-.167.42zm.631-2.343c-.021.28-.139.58-.267.887l-.174.418.833.35.174-.418c.152-.364.303-.753.335-1.166l.035-.451-.9-.07-.036.45zm.984-3.181c-.036.114-.08.228-.123.343-.104.278-.212.566-.256.88l-.061.449.895.124.061-.449c.03-.214.116-.443.207-.685.048-.13.096-.257.137-.385l.138-.431-.86-.277-.138.431zm.696-2.613a3.609 3.609 0 0 0-.347.969l-.092.443.884.185.093-.443a2.69 2.69 0 0 1 .255-.72l.217-.398-.793-.434-.217.398zm.67-2.666c-.012.126-.045.26-.078.4-.044.182-.09.37-.104.58l-.031.451.901.064.031-.452c.01-.134.045-.278.081-.431.04-.164.08-.334.099-.52l.045-.451-.899-.091-.045.45zm1.08-2.822l-.36.273a.597.597 0 0 0-.24.485l.002.453.904-.006-.002-.3.24-.182-.544-.723zm-5.148 18.008c-.102.253-.217.54-.265.845l-.07.447.893.14.07-.447c.031-.202.118-.418.21-.647l.065-.164.164-.421-.84-.33-.227.577zm1.17.879l-.301.337a.914.914 0 0 0-.233.713l.048.45.906-.108-.048-.45.301-.338-.673-.604zm.503-2.257c-.04.149-.11.3-.182.458-.09.198-.183.402-.242.638l-.11.44.876.22.11-.44c.039-.155.111-.313.188-.481.084-.185.171-.376.231-.596l.12-.436-.872-.24-.119.437zm.957-2.735c-.2.344-.427.734-.431 1.222l-.004.452.904.007.003-.452c.002-.247.15-.502.308-.772l.279-.484-.782-.452-.277.48zm.813-2.883a4.627 4.627 0 0 0-.177.49c-.054.165-.109.336-.167.44l-.22.396.79.44.22-.395c.1-.183.17-.397.236-.604.047-.146.091-.283.142-.397l.185-.413-.825-.37-.184.413zm.906-2.483c-.11.237-.247.53-.281.873l-.044.451.899.088.044-.45c.017-.175.094-.35.2-.576l.192-.41-.818-.385-.192.41zm.719-2.463c-.13.292-.199.55-.218.811l-.035.452.901.068.035-.451a1.56 1.56 0 0 1 .143-.516l.182-.414-.827-.365-.181.415zm.539-2.47c-.085.2-.155.412-.204.614l-.106.44.878.212.106-.44c.037-.154.092-.317.157-.471l.177-.417-.83-.355-.178.417zm.478-2.161c-.079.199-.161.406-.239.597l-.171.42.836.342.17-.419c.08-.196.165-.407.244-.61l.165-.421-.841-.33-.165.421z" fill="#FFF"/><mask id="b" fill="#fff"><use xlink:href="#a"/></mask><path fill="#FFF" mask="url(#b)" d="M113.349 80.336h.903v-1.388h-.903zm-4.132 19.018a6.86 6.86 0 0 1-.17.455l-.172.418.834.346.173-.418c.069-.167.133-.338.191-.51l.145-.43-.856-.29-.145.43zm.833-2.379c-.026.106-.07.218-.116.336-.098.252-.209.536-.198.875l.014.452.903-.029-.014-.452c-.005-.153.06-.321.137-.516.054-.14.11-.284.15-.446l.11-.44-.876-.22-.11.44zm.689-2.127a3.253 3.253 0 0 0-.21.632l-.096.443.883.191.096-.442c.03-.145.083-.302.151-.454l.184-.413-.824-.37-.184.413zm.814-2.407c-.117.277-.25.59-.252.96l-.002.452.903.006.003-.453c.001-.188.084-.385.18-.613l.2-.477-.833-.35-.199.475zm.895-2.589c-.025.219-.094.44-.167.672a8.043 8.043 0 0 0-.122.412l-.113.438.875.227.113-.439c.031-.122.07-.243.108-.364a4.38 4.38 0 0 0 .204-.845l.05-.45-.897-.101-.05.45zm.852-2.647a3.977 3.977 0 0 1-.116.382c-.042.125-.087.255-.122.391l-.113.438.874.227.113-.438c.027-.104.064-.212.103-.327.05-.148.103-.302.141-.469l.103-.44-.88-.205-.103.44zm.72-2.612a1.234 1.234 0 0 0-.19.668l.007.453.903-.013-.006-.453c0-.06.017-.12.052-.176l.24-.384-.767-.48-.24.385zm.646-3.103l.008.453c.002.14-.052.306-.11.483l-.052.162-.13.434.864.262.131-.433.046-.144c.074-.228.159-.487.154-.78l-.008-.452-.903.015zm.627-1.619l-.255.083.279.861.43-.14c.238-.077.402-.294.43-.565l.046-.45-.899-.092-.03.303zm-3.959 18.374a5.63 5.63 0 0 0-.198.593l-.117.437.872.236.117-.437c.044-.16.102-.336.165-.493l.167-.421-.84-.335-.166.42zm.866-2.343c-.067.122-.113.243-.154.35-.043.111-.08.207-.13.285l-.246.38.758.492.246-.38a2.26 2.26 0 0 0 .215-.452c.034-.089.066-.172.104-.24l.216-.398-.793-.434-.216.397zm.816-2.355c-.063.17-.136.335-.218.492l-.209.401.8.419.21-.402c.099-.19.188-.39.264-.594l.157-.425-.847-.315-.157.424zm1.086-2.721c-.036.092-.077.185-.117.278-.105.24-.213.488-.266.764l-.087.445.887.172.086-.444c.035-.178.118-.37.207-.574.047-.106.092-.21.133-.315l.162-.423-.843-.325-.162.422zm.82-2.936c-.021.118-.073.244-.127.376a2.777 2.777 0 0 0-.173.522l-.088.444.886.177.088-.444c.022-.11.07-.229.122-.354.067-.163.143-.347.181-.56l.08-.445-.888-.161-.08.445zm.554-2.283a1.866 1.866 0 0 0-.08.558l.005.452.903-.009-.004-.452a.943.943 0 0 1 .04-.287l.132-.433-.865-.263-.13.434zm.844-3.02l-.3.962-.136.431.86.274.137-.432c.101-.321.203-.646.302-.97l.133-.432-.864-.266-.132.433zm-3.746 17.37a4.512 4.512 0 0 1-.165.605l-.144.429.856.289.144-.429c.093-.277.154-.5.196-.724l.085-.444-.887-.17-.085.444zm.794-2.277a2.544 2.544 0 0 1-.123.306c-.066.149-.142.317-.185.505l-.103.44.88.207.102-.44c.024-.104.076-.22.13-.342.056-.123.118-.263.164-.417l.13-.434-.866-.26-.13.435zm1.129-2.94c-.222.372-.443.773-.484 1.217l-.041.45.899.084.042-.45c.025-.277.226-.614.36-.836l.231-.389-.775-.465-.232.39zm.752-2.412a3.547 3.547 0 0 0-.125.386c-.044.155-.081.289-.146.398l-.23.389.776.462.23-.39c.126-.21.186-.425.24-.614.029-.105.056-.203.092-.291l.17-.42-.838-.34-.17.42zm.941-2.525a4.136 4.136 0 0 1-.162.543l-.16.424.846.32.159-.424c.082-.217.148-.44.199-.664l.099-.442-.881-.199-.1.442zm.776-2.799c-.035.258-.11.542-.213.8l-.167.42.84.335.167-.421c.128-.324.223-.683.268-1.01l.062-.45-.895-.122-.062.448zm.849-2.568c-.032.152-.084.31-.148.446l-.19.41.817.384.192-.41c.093-.2.166-.42.213-.641l.094-.443-.884-.188-.094.442zm.535-2.433a2.823 2.823 0 0 1-.113.471l-.054.185-.12.437.87.241.12-.436.05-.169a3.72 3.72 0 0 0 .145-.624l.052-.45-.897-.104-.052.45zm-.471-1.545l-.367.264a.863.863 0 0 0-.369.75l.02.453.903-.04-.02-.433.36-.258-.527-.736zm-3.412 19.852a1.158 1.158 0 0 0-.2.4l-.117.436.872.236.118-.437a.247.247 0 0 1 .042-.083l.276-.359-.716-.552-.275.358zm.913-2.697c-.18.379-.33.741-.442 1.079l-.143.43.857.286.143-.43c.1-.3.235-.629.4-.973l.195-.408-.814-.392-.196.408zm.683-2.339c-.039.288-.085.379-.103.405l-.26.37.74.52.26-.371c.164-.236.224-.553.258-.803l.06-.448-.894-.122-.061.449zm.809-2.758a2.28 2.28 0 0 0-.15.678l-.028.451.901.057.029-.451c.008-.136.04-.277.09-.409l.164-.422-.843-.327-.163.423zm.822-3.006c-.022.107-.059.22-.098.339-.06.181-.127.387-.15.61l-.046.45.9.094.045-.45c.013-.128.06-.27.11-.422.045-.138.092-.281.124-.44l.09-.443-.885-.181-.09.443zm1.053-2.988l-.074.17c-.07.165-.135.319-.211.46l-.215.398.794.431.215-.398c.096-.178.174-.36.248-.535l.251-.577-.827-.364-.181.415zm.825-3.092c-.063.202-.109.41-.137.618l-.06.449.896.12.06-.45c.02-.156.056-.314.103-.467l.136-.432-.862-.27-.136.431zm-3.087 15.399a.66.66 0 0 1-.143.322l-.287.35.698.575.287-.35c.18-.219.297-.483.339-.764l.066-.447-.893-.134-.067.448zm.963-2.46c-.14.233-.236.475-.294.739l-.099.442.882.196.098-.442a1.55 1.55 0 0 1 .187-.469l.233-.388-.774-.466-.233.388zm.742-2.624l-.07.205c-.07.2-.143.408-.186.636l-.085.445.888.169.084-.445c.031-.162.09-.33.15-.506.027-.074.052-.148.077-.222l.14-.43-.859-.282-.14.43zm.701-2.375c-.017.184-.068.362-.127.568l-.16.572.87.244.158-.565c.066-.23.134-.467.159-.737l.04-.45-.899-.083-.04.451zm.481-1.725l.856.287.407-1.221-.857-.287zm1.038-3.478c-.045.173-.07.35-.075.525l-.012.452.903.024.012-.453c.003-.106.018-.214.046-.32l.113-.438-.874-.228-.114.438zM98.476 99.632a3.79 3.79 0 0 1-.637.8l-.334.305.608.67.334-.306c.282-.258.6-.654.808-1.01l.229-.39-.78-.46-.228.391zm2.914-3.295c-.274.38-.604.711-.982.984l-.366.265.528.734.366-.264c.457-.33.856-.73 1.186-1.189l.265-.367-.733-.53-.264.367zm2.137-3.029a2.566 2.566 0 0 1-.462.618l-.321.317.633.645.322-.317c.247-.244.456-.524.622-.832l.215-.398-.794-.43-.215.397zm-8.113 11.017c-.205.32-.462.917-.596 1.387l-.124.435.868.25.124-.436c.11-.384.329-.899.488-1.147l.244-.38-.76-.49-.244.38zm-.433 6.672h.903v-1.991h-.903zm-.361 5.433h.903v-1.63h-.903zm-1.586 3.929l-.88.202.1.442c.121.527-.027.972-.44 1.323l-.345.292.584.691.345-.293c.672-.57.934-1.358.737-2.216l-.101-.441zm-2.934 5.315c-.392.084-.923.358-1.233 1.19l-.158.424.847.317.157-.425c.202-.54.482-.6.575-.62l.442-.095-.189-.885-.442.094zm-3.245 4.561l-.436.116c-.246.064-.648.284-1.314 1.44l-.225.393.782.452.226-.392c.509-.885.765-1.018.76-1.018l.437-.115-.23-.876zm-5.163 4.749l.686.59.96-1.122-.686-.59zm-2.51 4.479l.774.468.653-1.086-.773-.467zm-2 4.132c-.254.349-.502.925-.618 1.435l-.1.441.882.2.1-.441c.086-.381.286-.855.465-1.1l.267-.366-.729-.535-.267.366zm-2.292 7.107l.88.21.459-1.939-.88-.21zm-.855 4.252a4.058 4.058 0 0 0-.183 1.224l.002.453.903-.003-.002-.453a3.166 3.166 0 0 1 .144-.954l.133-.433-.864-.267-.133.433zm-.734 7.649h.904v-2.173H73.3zm-.789 4.632a4.704 4.704 0 0 0-.367 1.369l-.05.45.898.1.05-.45c.042-.38.141-.751.296-1.105l.181-.414-.827-.364-.181.414zm-.656 7.5h.903v-2.173h-.903zm.181 4.889h.903v-1.63h-.903zm-.181 5.432h.903v-1.991h-.903zm0 5.07h.903v-2.354h-.903zm.807 1.663l-.733.529.264.367c.102.142.177.534.1 1.056l-.065.448.893.132.066-.448c.05-.338.124-1.181-.261-1.717l-.264-.367zm-.807 7.21h.903v-2.354h-.903zm4.387-.281l-.874.23.115.438c.038.144.02.218.016.226l-.383.242.482.765.382-.241c.375-.237.515-.694.377-1.222l-.115-.438zm-1.135-2.616h.903v-2.535h-.903zm-.181-5.252h.904v-1.991h-.904zm.496-7.109l-.899.088.044.451c.065.67.01 1.298-.16 1.818l-.14.43.858.282.14-.43c.209-.638.278-1.395.201-2.188l-.044-.45zm-.496-4.841h.904v-2.354h-.904zm.029-8.937c-.21.562-.281 1.225-.207 1.92l.049.45.898-.098-.049-.45c-.059-.554-.006-1.074.155-1.504l.158-.424-.846-.318-.158.424zm.898-6.145a3.97 3.97 0 0 0-.204 1.428l.018.452.902-.034-.017-.453a3.084 3.084 0 0 1 .158-1.107l.143-.43-.857-.285-.143.43zm1.445-6.698a8.932 8.932 0 0 0-.381 1.718l-.053.45.897.106.053-.45c.06-.509.178-1.042.342-1.541l.14-.43-.857-.283-.141.43zm1.47-6.217a2.548 2.548 0 0 0-.223 1.54l.07.447.893-.14-.07-.448c-.056-.356-.008-.7.138-.995l.202-.405-.809-.404-.201.405zm.681-4.199l.752.502.862-1.297-.752-.502zm3.151-6.186c-.315.436-.568.88-.772 1.355l-.178.416.83.357.178-.416c.178-.413.398-.8.674-1.18l.265-.367-.731-.531-.266.366zm3.179-3.824a.685.685 0 0 1-.313.43l-.4.21.42.802.4-.21a1.59 1.59 0 0 0 .77-1.02l.107-.44-.878-.212-.106.44zm3.444-4.256a2.2 2.2 0 0 0-.9 1.131l-.153.427.85.305.152-.426c.104-.29.273-.5.545-.68l.378-.248-.495-.757-.377.248zm4.115-4.135a4.245 4.245 0 0 0-1.012 1.218l-.217.397.792.435.217-.397a3.38 3.38 0 0 1 .795-.955l.348-.288-.575-.698-.348.288zm2.773-4.741a2.25 2.25 0 0 1-.592.747l-.359.275.549.72.359-.276c.33-.253.648-.65.853-1.064l.2-.406-.81-.401-.2.405zm1.601-4.102c-.138.432-.262.868-.37 1.295l-.11.44.877.22.11-.439c.102-.41.221-.826.353-1.24l.138-.43-.86-.277-.138.431zm1.435-6.48a8.244 8.244 0 0 0-.192 2.108l.017.453.902-.034-.016-.452c-.023-.64.034-1.27.17-1.875l.1-.442-.882-.2-.1.442zm-1.185-5.243a1.544 1.544 0 0 0-.262 1.273l.096.443.883-.19-.096-.443a.636.636 0 0 1 .1-.538l.272-.36-.72-.546-.273.361zm1.722-4.129l.751.502.863-1.296-.752-.502zm4.64-4.607l-.898.096.01.095-.095-.01-.096.9.45.048a.605.605 0 0 0 .083.005.595.595 0 0 0 .43-.17.612.612 0 0 0 .164-.514l-.048-.45zM78.36 199.904h.903v-1.991h-.903zm.439-6.964l-.884.187.093.443c.065.307.013.592-.075.691l-.301.338.674.603.3-.338c.3-.335.408-.903.286-1.482l-.093-.442zm-.981-3.176h.903v-2.173h-.903zm-.008-7.234l.008.452c.006.346-.04.62-.151.918l-.16.424.845.32.16-.423c.153-.407.218-.794.21-1.255l-.009-.453-.903.016zm.189-3.45h.903v-2.534H78zm0-5.793h.903v-2.354H78zm.777-7.913c-.228.42-.308.897-.23 1.377l.074.446.891-.146-.073-.447a1.218 1.218 0 0 1 .132-.796l.216-.398-.793-.433-.217.397zm1.045-4.973a7.207 7.207 0 0 0-.193.968l-.056.45.896.113.057-.449c.035-.28.091-.563.168-.843l.119-.436-.871-.24-.12.437zm1.589-5.52c-.29.606-.41 1.559-.311 2.487l.048.45.898-.097-.048-.45c-.081-.757.008-1.541.227-1.997l.197-.407-.814-.393-.196.407zm1.707-5.267a7.837 7.837 0 0 0-.384.768l-.18.415.83.36.179-.415a6.96 6.96 0 0 1 .34-.68l.223-.394-.785-.448-.223.394zm2.127-5.158a3.14 3.14 0 0 1-.473.948l-.268.365.728.537.268-.365c.27-.366.48-.79.61-1.225l.13-.433-.865-.26-.13.433zm2.544-4.026a4.875 4.875 0 0 1-.33.664l-.233.388.774.467.233-.389c.15-.248.277-.505.392-.785l.172-.419-.836-.344-.172.419zm3.345-3.807c-.303.235-.56.492-.765.765l-.272.362.722.544.272-.362a3.2 3.2 0 0 1 .595-.592l.358-.277-.553-.716-.357.276zm3.387-4.246a3.73 3.73 0 0 1-.962.968l-.377.25.498.754.377-.25c.44-.291.869-.72 1.206-1.205l.258-.372-.742-.517-.258.372zm1.9-2.639l.639.64 1-1.002-.639-.64zm3.49-4.011c-.187.362-.371.732-.548 1.1l-.196.407.814.393.196-.408c.173-.36.353-.721.536-1.075l.208-.402-.802-.416-.208.401zm1.996-4.361a7.834 7.834 0 0 0-.383.768l-.18.416.828.36.18-.415c.102-.235.213-.457.34-.68l.223-.394-.785-.448-.223.393zm.483-3.588a1.251 1.251 0 0 1-.134.533l-.201.405.81.403.2-.406c.144-.291.221-.6.228-.916l.01-.453-.904-.018-.01.452zm.361-4.064h.903v-1.992h-.903zm-.542-4.889h.903v-1.811h-.903zm2.542-5.991a.684.684 0 0 1-.313.429l-.4.21.42.802.4-.21c.371-.195.667-.586.77-1.02l.107-.44-.878-.211-.106.44zm-23.68 95.803h.903v-1.81h-.903zm0-4.165h.903v-1.63h-.903zm-.361-4.889h.903v-2.173h-.903zm.181-5.432h.903v-1.449h-.904zm.36-5.432h.904v-1.63h-.903zm.181-5.613h.904v-1.45h-.904zm.591-7.357c-.182.36-.259.745-.228 1.144l.035.452.9-.07-.034-.452a1.226 1.226 0 0 1 .133-.665l.204-.404-.806-.41-.204.405zm1.265-5.795a2.12 2.12 0 0 0-.228 1.145l.035.451.9-.07-.035-.451a1.224 1.224 0 0 1 .134-.665l.204-.404-.806-.41-.204.404zm2.848-5.068l-.66-.618-.309.33c-.287.309-.39.713-.29 1.138l.104.44.879-.208-.104-.44c-.039-.166.018-.254.071-.311l.309-.331zm1.003-5.34a2.798 2.798 0 0 0-.645 1.504l-.055.45.897.11.055-.45c.049-.4.193-.736.44-1.031l.29-.347-.692-.582-.29.346zm2.507-4.317a8.954 8.954 0 0 0-.952 1.718l-.174.417.833.35.174-.418a7.92 7.92 0 0 1 .855-1.541l.262-.369-.735-.525-.263.368zm2.811-3.962a.301.301 0 0 1-.152.219l-.384.239.477.769.384-.24c.32-.199.522-.507.57-.867l.06-.448-.895-.12-.06.448zm2.523-3.853l.705.566 1.287-1.613-.705-.565zm4.279-5.811a7.742 7.742 0 0 0-.771.967l-.246.38.757.493.246-.38c.156-.239.42-.57.674-.843l.309-.33-.66-.618-.309.33zm4.038-5.908c-.05.38-.206.74-.448 1.045l-.281.354.706.565.282-.354c.344-.433.564-.948.636-1.49l.06-.449-.895-.12-.06.449zm1.991-5.636a12.64 12.64 0 0 0-.188 1.501l-.03.452.902.06.03-.452c.032-.483.087-.926.174-1.396l.082-.445-.888-.165-.082.445zm.534-3.81h.903v-1.63h-.903zm.723-11.408h.903v-1.81h-.903zm-22.041 93.072h.903v-1.992h-.903zm-.06-6.451l.309 2.164.894-.128-.308-2.164zm.06-3.146h.903V185.6h-.903zm.549-8.454l-.853.298.148.428c.174.5.229 1.054.16 1.605l-.057.45.896.113.056-.45a4.472 4.472 0 0 0-.202-2.016l-.148-.428zm-.549-2.954h.903v-1.81h-.903zm1.084-5.613h.903v-1.992h-.903zm.903-5.975h.903v-1.811h-.903zm1.12-6.967a5.002 5.002 0 0 0-.397 1.99l.003.453.903-.007-.003-.452a4.155 4.155 0 0 1 .326-1.632l.176-.417-.832-.352-.176.417zm1.79-5.749a592.64 592.64 0 0 0-.543 1.812l-.129.434.866.258.13-.433c.177-.6.359-1.206.54-1.81l.131-.433-.864-.261-.131.433zm2.175-5.091c-.148.414-.327.834-.52 1.214l-.204.404.806.41.204-.404c.21-.414.405-.87.565-1.32l.151-.427-.85-.304-.152.427zm2.914-4.581c-.218.427-.408.872-.566 1.323l-.15.428.853.3.149-.428c.143-.407.322-.826.518-1.211l.206-.403-.805-.412-.205.403zm2.745-3.68a3.024 3.024 0 0 0-.425.852l-.136.431.86.274.137-.431c.069-.217.169-.417.298-.597l.263-.368-.733-.528-.264.367zm3.733-5.132a4.008 4.008 0 0 1-.486.975l-.256.373.743.514.257-.373c.248-.361.454-.775.598-1.198l.145-.43-.856-.29-.145.429zm3.656-4.8a7.6 7.6 0 0 0-.577 1.157l-.166.42.84.335.166-.421c.14-.351.314-.703.507-1.016l.236-.386-.769-.474-.237.385zm-15.786 66.183l.035-.451-.9-.07-.035.45c-.031.4.046.786.228 1.146l.204.404.806-.41-.205-.403a1.228 1.228 0 0 1-.133-.666m-.902-3.023h.904v-2.354h-.904zm.181-4.889h.903v-2.354h-.903zm.723-5.613h.903v-2.535h-.903zm.361-5.975h.903v-1.992H89.2zm.944-7.703c-.261.57-.4 1.2-.402 1.816l-.001.453.903.003.001-.453a3.54 3.54 0 0 1 .32-1.442l.189-.412-.821-.377-.189.412zm.729-5.99a2.548 2.548 0 0 0-.222 1.54l.07.448.892-.141-.07-.447c-.056-.356-.008-.7.139-.995l.201-.405-.808-.404-.202.405zm.857-4.896a4.84 4.84 0 0 1-.165.995l-.12.436.87.24.12-.436c.107-.388.172-.773.197-1.178l.028-.452-.902-.056-.028.451zm1.625-3.684h.903v-1.448h-.903zm2.605-6.679c-.292.44-.508.947-.608 1.427l-.092.443.884.185.092-.444c.077-.369.246-.762.476-1.108l.25-.377-.751-.502-.25.376zm1.51-3.955c-.157.307-.232.682-.23 1.147v.452l.904-.003-.001-.452c-.001-.313.043-.559.131-.733l.205-.403-.804-.41-.206.402zm4.222-4.141a1.702 1.702 0 0 0-.747 1.242l-.043.451.9.087.043-.451a.798.798 0 0 1 .337-.569l.38-.245-.49-.76-.38.245zm1.968-2.753l.75.502 1.225-1.84-.752-.502zM91.73 195.92h.903v-1.81h-.904zm-.181-4.526h.903v-2.535h-.903zm.181-5.432h.903v-2.354h-.904zm.18-4.708h.903v-1.992h-.903zm.542-4.889h.903v-2.897h-.903zm.814-7.425a1.543 1.543 0 0 0-.262 1.273l.095.443.883-.19-.095-.443a.636.636 0 0 1 .1-.538l.272-.361-.72-.546-.273.362zm.65-4.744c-.146.497-.27.996-.37 1.485l-.092.444.885.181.091-.443c.094-.457.215-.946.352-1.412l.128-.434-.867-.255-.127.434zm1.27-5.813a7.4 7.4 0 0 0-.385 1.929l-.028.451.902.057.028-.452a6.583 6.583 0 0 1 .338-1.692l.146-.429-.855-.293-.146.429zm1.955-4.161l.084-.445-.887-.168-.084.445c-.08.42-.236 1.468.021 2.146l.161.424.844-.323-.16-.423c-.118-.31-.11-.96.021-1.656m1.313-5.855c-.36.801-.371.852-.401 1.819l-.014.452.903.028.014-.452c.025-.815.025-.815.322-1.475l.185-.413-.824-.372-.185.413zm2.021-2.383l.869.249.61-2.139-.87-.248zm4.091-6.014a1.12 1.12 0 0 1-.258.514l-.299.34.677.599.3-.34c.233-.265.394-.588.465-.933l.09-.443-.885-.181-.09.443zm-9.585 55.045h.903v-2.173h-.903zm0-5.432h.903v-2.716h-.903zm0-5.613h.903v-2.173h-.903zm1.384-7.746l-.896.117.058.448c.073.56.02 1.084-.148 1.475l-.178.416.83.358.178-.416c.234-.546.308-1.22.214-1.95l-.058-.448zm.062-6.66a8.74 8.74 0 0 1-.172 1.55l-.09.445.886.178.09-.443a9.624 9.624 0 0 0 .189-1.709l.01-.452-.903-.022-.01.453zm.725-6.561c-.051.44-.104.813-.177 1.245l-.075.446.89.151.076-.446c.074-.442.13-.84.184-1.29l.052-.45-.897-.105-.053.45zm.72-3.478h.903v-1.63h-.903zm1.627-7.185c-.03.404-.087.81-.172 1.205l-.095.443.884.19.094-.443c.094-.436.158-.883.19-1.33l.033-.45-.901-.067-.033.452zm-.905 42.856h.904v-2.535h-.904zm0-5.07h.904v-1.991h-.904zm0-5.794h.904v-2.535h-.904zm0-6.7h.904v-1.991h-.904zm.904-6.337h.903v-1.63h-.903zm.542-6.519h.903v-1.992h-.903zm1.537-7.136l-.888.163.08.445a.72.72 0 0 1-.106.566l-.258.372.742.517.258-.373c.249-.36.337-.79.254-1.244l-.082-.446zm.631-2.46h.903v-2.536h-.903zm.542-5.252h.903v-1.63h-.903zm1.084-3.44h.903v-1.449h-.903zm-1.446 48.527h.904v-1.991h-.904zm0-4.165h.904v-1.629h-.904zm-.542-4.888h.904v-1.449h-.904zm-.18-4.889h.903V178.9h-.903zm0-4.889h.903v-1.992h-.903zm1.398-9.096l-.899.089.045.45c.066.668-.057 1.371-.176 2.05l-.078.446.89.157.078-.446c.123-.705.263-1.504.185-2.296l-.045-.45zm.409-6.045c-.023.478-.071.937-.123 1.423l-.056.546-.044.45.9.089.043-.451.055-.538c.051-.478.103-.972.127-1.476l.022-.453-.903-.042-.021.452zm1.589-5.717l-.9.071.035.452c.018.235-.025.452-.133.664l-.205.403.804.411.206-.403c.183-.36.26-.746.228-1.147l-.035-.451zm.218-3.768h.902v-2.354h-.903zm1.734-8.754l-.893.134.066.448c.082.548.026 1.123-.154 1.577l-.166.42.84.334.167-.42c.236-.599.311-1.344.207-2.045l-.067-.448zm-.296 50.022l.074-.447-.89-.148-.075.447c-.096.584.005 1.224.251 1.593l.252.377.75-.505-.251-.375c-.103-.154-.174-.557-.11-.942m-1.079-3.062h.904v-2.173h-.904zm.181-5.432h.903v-2.535h-.903zm0-5.975h.903v-1.992h-.903zm-.181-5.976h.904v-2.173h-.904zm.181-5.432h.903v-2.173h-.903zm7.44-60.954c-.423.264-.631.689-.571 1.166l.057.45.896-.114-.057-.45c-.01-.086-.001-.187.152-.282l.384-.24-.477-.768-.384.238zm2.119-3.405a1.892 1.892 0 0 0-.704 1.655l.037.45.9-.074-.037-.451a.996.996 0 0 1 .379-.881l.348-.288-.574-.699-.349.288zm2.754-3.789c-.107.295-.307.609-.439.742l-.318.321.642.638.318-.322c.243-.246.503-.676.645-1.07l.155-.425-.849-.31-.154.426zm-4.414 11.969c-.415.422-.722.963-.841 1.484l-.102.441.88.203.102-.441c.082-.357.307-.75.604-1.051l.317-.323-.643-.635-.317.322zm2.076-3.305c-.16.364-.335.715-.522 1.046l-.222.394.786.446.222-.394c.202-.357.391-.736.563-1.127l.182-.415-.827-.364-.182.414zm2.691-4.901c-.44.295-.715.642-.894 1.123l-.158.424.847.316.157-.424c.112-.3.271-.5.551-.688l.375-.252-.503-.752-.375.253zm2.86-3.599c-.349.28-.738.605-1.097.916l-.342.296.591.685.342-.296c.35-.304.73-.622 1.071-.895l.352-.282-.564-.707-.353.283zm2.683-1.949c-.586.555-.586.555-1.098.726l-.429.143.286.859.429-.143c.675-.226.729-.26 1.432-.927l.328-.31-.62-.659-.329.311zm2.77-2.712c-.113.233-1.056 1.15-1.29 1.282.013-.007.025-.011.035-.015l.299.855c.263-.093 1.814-1.43 1.837-1.977l-.902-.04c.003-.065.022-.104.022-.105m3.009-4.738l-.897.075.035.45c.02.271-.394 1.28-.575 1.467l-.335.299.6.676.338-.3c.356-.318.92-1.652.872-2.217l-.037-.45zm.45-2.766c-.182.36-.26.746-.228 1.146l.035.45.9-.07-.035-.45a1.225 1.225 0 0 1 .134-.666l.204-.404-.806-.41-.204.404zm-14.97 33.04l-.12-.436-.871.24.12.437c.09.327.144.652.165.994l.029.452.901-.056-.028-.452a5.74 5.74 0 0 0-.196-1.179m-.274-4.838l.02.452a.32.32 0 0 1-.082.24l-.283.352.704.567.283-.353c.2-.248.294-.533.28-.847l-.02-.452-.902.04zm1.878-4.487c-.19.36-.38.742-.55 1.103l-.194.409.815.388.194-.409c.167-.35.351-.72.535-1.07l.21-.4-.8-.422-.21.401zm2.55-4.02a6.125 6.125 0 0 1-.834 1.004l-.329.31.62.66.328-.311c.335-.316.716-.775.972-1.169l.247-.38-.757-.493-.247.38zm2.036-3.408c-.026.078-.192.298-.313.458-.317.421-.752.997-.885 1.66l-.089.443.886.179.089-.444c.092-.46.44-.92.72-1.291.22-.293.394-.523.46-.758l.12-.428-.853-.242-.136.423zm3.115-2.489a3.19 3.19 0 0 1-.794.476l-.415.177.353.833.415-.176c.374-.16.716-.365 1.014-.61l.35-.288-.574-.7-.35.288zm2.971-2.234c-.15.2-1.223 1.096-1.422 1.205 0 0 .021-.011.055-.021l.255.868c.266-.078 1.79-1.316 1.92-1.661l-.843-.322a.301.301 0 0 1 .035-.07m2.925-3.674a1.23 1.23 0 0 0-.28.847l.02.452.903-.04-.02-.453a.321.321 0 0 1 .081-.239l.283-.353-.704-.567-.283.353zm3.876-3.975l-.546-.721-.36.273a.885.885 0 0 0-.36.726l.004.453.904-.014-.004-.442.002-.001.36-.274zm-16.622 28.794h.903v-1.992h-.903zm.952-5.908a4.182 4.182 0 0 0-.408 1.427l-.044.45.899.09.044-.451c.038-.385.15-.78.316-1.109l.203-.404-.808-.407-.202.405zm1.035-3.146l.723.543 1.084-1.448-.723-.543zm3.483-4.643c-.142.277-.375.57-.609.764l-.348.288.576.698.348-.29c.327-.27.64-.662.837-1.047l.206-.402-.804-.414-.206.403zm3.81-2.599c-.43.023-.835.185-1.17.468l-.345.291.582.693.345-.292a1.07 1.07 0 0 1 .637-.256l.45-.025-.048-.904-.451.025zm2.789-1.872a7.528 7.528 0 0 1-.853.683l-.372.257.512.746.372-.256c.335-.231.656-.489.955-.766l.33-.307-.613-.665-.331.308zm-8.817 17.806h.903v-1.992h-.903zm.768-4.909l.839.336.696-1.746-.838-.336zm3.991-5.361a1.827 1.827 0 0 0-.733.735l-.21.401.802.42.209-.402a.926.926 0 0 1 .35-.352l.4-.209-.417-.803-.4.21zm3.547-2.312a.455.455 0 0 1-.379.093l-.447-.068-.135.895.446.068c.08.012.158.018.234.018.305 0 .584-.096.832-.288l.358-.276-.55-.718-.359.276zm-5.366 11.381a2.13 2.13 0 0 0-.229 1.145l.036.452.9-.07-.035-.452a1.225 1.225 0 0 1 .133-.665l.205-.404-.806-.41-.204.404zm1.845-4.228c-.27.367-.48.79-.61 1.224l-.13.434.865.26.13-.433c.1-.336.264-.664.473-.949l.268-.364-.728-.537-.268.365zm4.413-4.427a3.19 3.19 0 0 1-.793.476l-.415.177.352.833.416-.177a4.144 4.144 0 0 0 1.014-.61l.349-.287-.574-.7-.349.288zm-3.874 9.863a3.03 3.03 0 0 0-.425.852l-.136.431.86.274.137-.432a2.12 2.12 0 0 1 .298-.597l.264-.367-.734-.528-.264.367zm2.627-3.539c-.413.308-.676.754-.722 1.224l-.044.45.899.089.044-.45c.021-.217.153-.431.362-.587l.362-.27-.54-.726-.361.27zm1.308-1.196l.84.336.696-1.746-.84-.336zm2.117-4.417l.638.64 1-1.001-.638-.64zm.317-3.214l-.898.096.01.095-.095-.01-.096.9.449.048c.03.004.057.005.084.005a.594.594 0 0 0 .43-.169.612.612 0 0 0 .164-.514l-.048-.45zm-1.138-2.445a1.558 1.558 0 0 0-.761.77l-.181.414.826.364.182-.414a.652.652 0 0 1 .323-.317l.408-.195-.39-.817-.407.195zm-2.362 16.292c-.243.41-.426.776-.573 1.152l-.166.421.84.332.166-.42c.13-.33.291-.654.51-1.021l.23-.39-.775-.463-.231.39zm1.208-1.454l.751.503 1.224-1.84-.752-.502zm3.514-4.92c-.27.367-.48.79-.61 1.225l-.13.433.865.26.13-.433c.1-.336.264-.664.473-.948l.268-.365-.728-.537-.268.365zm1.713-4.162l.006.453a.84.84 0 0 1-.238.588l-.31.328.656.623.31-.328c.319-.338.491-.772.485-1.223l-.006-.453-.903.012zm-21.461 14.186c-.32.2-.522.507-.57.867l-.06.45.895.12.06-.45a.3.3 0 0 1 .152-.218l.384-.24-.477-.768-.384.239zm.078 5.936a1.02 1.02 0 0 0-.634.658l-.127.435.866.255.128-.434c.006-.023.041-.05.089-.067l.422-.161-.322-.847-.422.162zm3.383-5.318c-.004.413-.126.729-.237.847l-.311.328.655.623.31-.328c.3-.315.48-.862.486-1.462l.004-.453-.903-.008-.004.453zm1.458-4.646a7.509 7.509 0 0 0-.769 1.542l-.154.425.85.309.153-.425a6.72 6.72 0 0 1 .677-1.356l.247-.379-.757-.495-.247.38zm-3.468 8.034a1.41 1.41 0 0 1-.274.41l-.312.328.652.626.312-.327c.189-.196.34-.423.45-.675l.18-.414-.827-.363-.18.414zm-.637 7.837a1.741 1.741 0 0 0-.485 1.223l.006.453.904-.013-.007-.452a.841.841 0 0 1 .238-.589l.31-.328-.655-.623-.31.329zm2.111-3.547a9.902 9.902 0 0 0-.757 1.519l-.167.42.84.334.167-.421a8.96 8.96 0 0 1 .687-1.38l.236-.385-.77-.473-.236.386zm1.621-2.736l.856.286.647-1.945-.856-.287zm2.474-4.999c-.289.209-.444.53-.524.763l-.146.428.854.294.147-.428c.06-.176.142-.283.198-.324l.367-.265-.53-.734-.366.266zm.897-2.078h.903v-1.448h-.903zm3.387-.404l-.899.088.043.45c.047.478-.098.91-.43 1.286l-.3.34.677.6.3-.34a2.548 2.548 0 0 0 .652-1.973l-.043-.45zm-2.276 4.686c-.169.465-.35.95-.539 1.44l-.162.423.843.325.162-.422c.19-.496.374-.986.545-1.457l.155-.425-.85-.31-.154.426zm-2.005 5.315a1.12 1.12 0 0 1-.257.515l-.3.34.678.599.298-.34c.235-.265.396-.588.466-.933l.09-.443-.885-.181-.09.443zm-1.485 2.469c-.299.268-.545.675-.674 1.115l-.127.435.867.255.127-.434c.08-.275.237-.542.41-.696l.336-.301-.602-.675-.337.301zm-2.27 3.032c-.242.482-.489.978-.723 1.45l-.202.405.809.404.201-.406.722-1.447.203-.405-.808-.406-.202.405zm9.891-13.425a2.677 2.677 0 0 1-.464 1.238l-.257.372.742.516.258-.372a3.589 3.589 0 0 0 .62-1.66l.046-.45-.898-.094-.047.45zm-2.128 4.564c-.193.415-.38.85-.553 1.293l-.166.421.84.332.166-.421c.168-.426.346-.844.532-1.243l.19-.41-.819-.382-.19.41zm-1.725 4.407c-.311.329-.55.804-.656 1.303l-.094.443.883.189.094-.443c.072-.336.232-.661.429-.87l.31-.329-.656-.622-.31.33zm-1.75 4.466a1.253 1.253 0 0 1-.134.533l-.2.405.808.403.201-.405c.145-.292.221-.6.228-.917l.01-.452-.904-.02-.009.453zm-5.601 20.381h.903v-2.354h-.903zm1.264 3.003l.016-.453-.903-.03-.015.452c-.015.429.056.854.21 1.262l.159.423.845-.32-.16-.423a2.34 2.34 0 0 1-.152-.91m-.361 6.23h.904v-2.897h-.904zm.362 3.622h.903v-2.173h-.903zm.361 3.802h.903v-1.81h-.903zm1.443 2.857l.05-.45-.898-.1-.05.45a2.44 2.44 0 0 0 .221 1.33l.194.41.816-.389-.193-.409a1.524 1.524 0 0 1-.14-.842m-.359 6.74h.903v-2.354h-.903zm.181 4.527h.903v-1.992h-.903zm.18 4.889h.904v-1.81h-.904zm-.183-38.79l.05-.45-.898-.1-.05.45a2.44 2.44 0 0 0 .222 1.33l.193.41.816-.389-.193-.41a1.524 1.524 0 0 1-.14-.841m.723 3.444l.053-.45-.897-.108-.054.45a2.87 2.87 0 0 0 .215 1.502l.18.415.829-.36-.18-.416a1.944 1.944 0 0 1-.147-1.033m.679 4.091l-.201-.406-.81.403.202.405c.085.172.13.35.134.533l.009.452.903-.019-.01-.452a2.152 2.152 0 0 0-.227-.916m-.495 5.18h.903v-1.81h-.903zm.903 2.653l.026-.452-.902-.054-.026.452a5.219 5.219 0 0 0 .198 1.782l.125.435.868-.25-.126-.436a4.329 4.329 0 0 1-.163-1.477m.352 4.954l.092-.443-.884-.185-.092.444c-.107.514-.02 1.021.245 1.427l.247.378.756-.496-.247-.379c-.133-.203-.174-.468-.117-.746m-.239 3.519l.33 1.98.89-.149-.329-1.98zm1.329 4.052l.058-.45-.896-.115-.058.45a3.812 3.812 0 0 0 .207 1.85l.163.422.843-.326-.163-.422a2.939 2.939 0 0 1-.154-1.41m-.177 6.371h.903v-1.81h-.903zm.361 4.346h.904v-1.449h-.904zm-1.265-39.726l.02-.452-.902-.04-.02.452c-.014.313.08.598.28.847l.283.353.704-.567-.283-.353a.321.321 0 0 1-.082-.24m.721 3.558l-.044-.451-.899.088.044.45c.044.445.105.873.186 1.308l.084.445.888-.168-.084-.445c-.077-.409-.134-.81-.175-1.228m.725 4.589l.017-.452-.903-.035-.017.452c-.019.492.048.96.204 1.428l.142.43.857-.287-.142-.429a3.077 3.077 0 0 1-.158-1.107m0 5.505h.903v-1.81h-.903zm1.264 2.779l-.028-.452-.902.056.028.452c.025.405.09.79.196 1.179l.12.436.871-.24-.12-.437a4.827 4.827 0 0 1-.165-.994m-.18 6.094h.903v-1.63h-.903zm1.259 3.062l.074-.447-.891-.148-.074.446a2.59 2.59 0 0 0 .439 1.967l.261.368.736-.525-.262-.368a1.703 1.703 0 0 1-.283-1.293m-.356 6.172h.904v-1.81h-.904zm.723 5.07h.903v-2.172h-.903zm.542 3.984h.903v-1.992h-.903zm-2.542-41.483l-.108-.44-.877.216.107.44c.092.376.221.764.384 1.153l.174.418.833-.35-.174-.417a6.875 6.875 0 0 1-.339-1.02m.915 3.515l-.034-.451-.9.067.033.451c.046.618.106 1.218.183 1.834l.056.449.897-.113-.057-.45a34.654 34.654 0 0 1-.178-1.787m-.078 4.748l.357 1.793.886-.177-.358-1.793zm1.705 5.05l-.013-.452-.903.026.013.453c.013.464.079.924.195 1.368l.114.439.875-.23-.115-.438a5.195 5.195 0 0 1-.166-1.166m.868 4.183l-.176-.417-.832.352.176.417c.195.464.308.973.326 1.47l.016.452.902-.032-.016-.452a5.128 5.128 0 0 0-.396-1.79m1.116 5.303l.056-.45-.897-.112-.056.45a3.899 3.899 0 0 0 .206 1.841l.155.425.848-.312-.156-.425a3.003 3.003 0 0 1-.156-1.418m.219 3.909l-.866.255.127.435c.14.476.193.96.163 1.475l-.026.452.901.053.027-.452a5.175 5.175 0 0 0-.199-1.783l-.127-.435zm.688 5.091l.002-.453-.904-.004-.002.453c-.002.485.064.943.2 1.4l.13.433.865-.26-.13-.434a3.84 3.84 0 0 1-.161-1.135m-.362 6.969h.904v-2.354h-.904zm.723 4.889h.903v-1.448h-.903zm-3.617-43.779l-.049-.45-.898.1.05.45c.071.64.253 1.311.572 2.11l.167.42.84-.336-.168-.42c-.288-.721-.451-1.317-.513-1.874m1.081 5.047l-.073-.447-.891.146.072.447c.084.51.21 1.022.38 1.52l.145.43.855-.29-.145-.43a8.64 8.64 0 0 1-.343-1.376m1.09 4.233l-.005-.452-.903.008.004.453a5.42 5.42 0 0 0 .396 1.98l.172.417.835-.344-.172-.419a4.47 4.47 0 0 1-.327-1.643m1.076 5.715l-.084-.445-.888.169.084.444c.1.53.311 1.095.594 1.59l.225.392.783-.45-.224-.392c-.23-.404-.41-.88-.49-1.308m1.086 4.9l-.073-.447-.891.146.072.447c.074.455.209.928.39 1.367l.172.419.835-.346-.172-.418a5.383 5.383 0 0 1-.333-1.168m.006 6.682h.903v-2.354h-.903zm1.445 2.645l.018-.453-.903-.037-.018.452a5.84 5.84 0 0 0 .196 1.767l.119.437.871-.237-.118-.437a4.946 4.946 0 0 1-.165-1.493m.71 4.763l-.108-.44-.877.216.107.44c.097.393.226.783.385 1.156l.177.416.831-.355-.177-.416a6.625 6.625 0 0 1-.338-1.017m-.168 6.717h.903v-2.354h-.903zm.542 4.346h.903v-1.449h-.903zm-4.349-41.662l-.105-.44-.878.21.105.44c.116.486.318.89.634 1.271l.289.348.695-.579-.29-.348a2.116 2.116 0 0 1-.45-.902m1.273 4.515l.064-.448-.894-.128-.064.448c-.1.7.05 1.373.434 1.946l.251.376.75-.505-.252-.375a1.851 1.851 0 0 1-.289-1.314m1.246 4.318l-.145-.429-.856.29.145.43c.153.451.268.914.343 1.375l.073.447.892-.146-.073-.446a9.601 9.601 0 0 0-.38-1.521m1.468 5.25l.035-.45-.9-.071-.035.45c-.031.4.046.785.228 1.146l.204.404.806-.41-.204-.403a1.228 1.228 0 0 1-.134-.666m.858 4.291l-.2-.406-.81.402.2.406c.086.172.13.35.135.533l.009.452.903-.019-.01-.452a2.156 2.156 0 0 0-.227-.916m1.131 4.527l-.02-.452-.903.04.02.451c.026.603.163 1.219.395 1.783l.173.418.835-.345-.173-.418a4.426 4.426 0 0 1-.327-1.477m.723 4.721l-.007-.453-.903.013.006.453c.01.702.136 1.4.386 2.132l.146.428.855-.292-.146-.429a5.935 5.935 0 0 1-.337-1.852m.716 5.723l-.078-.446-.89.155.078.446c.09.524.148 1.04.174 1.575l.023.452.902-.045-.022-.452a13.753 13.753 0 0 0-.187-1.685m.643 5.564l.054-.449-.897-.109-.054.45c-.056.468.019.919.223 1.339l.198.407.812-.397-.198-.407a1.453 1.453 0 0 1-.138-.834m-2.637-26.782l-.11-.438-.876.219.109.439c.155.622.341 1.245.554 1.852l.15.426.853-.3-.15-.427a19.595 19.595 0 0 1-.53-1.77m1.614 4.488l-.148-.428-.854.297.149.428c.167.482.347.963.549 1.468l.168.42.839-.337-.169-.42c-.196-.492-.372-.96-.534-1.428m1.29 4.677l.002-.453-.904-.004-.002.453c-.002.485.063.943.2 1.4l.13.433.865-.26-.13-.434a3.84 3.84 0 0 1-.161-1.135m1.083 3.829l.028-.452-.902-.057-.028.452a4.298 4.298 0 0 0 .202 1.616l.139.431.86-.278-.14-.431a3.42 3.42 0 0 1-.16-1.281m.904 4.837l-.023-.452-.902.046.023.453c.03.57.09 1.12.187 1.683l.077.446.89-.153-.077-.447a13.158 13.158 0 0 1-.174-1.576m.901 5.232l-.042-.45-.9.084.043.451c.053.56.11 1.084.182 1.645l.058.449.896-.115-.058-.45a46.867 46.867 0 0 1-.179-1.614m.359 5.591l-.065-.448-.894.13.065.448c.083.571.213 1.157.376 1.696l.131.433.865-.263-.132-.433c-.15-.496-.27-1.037-.346-1.563m-.623-18.67l-.265-.367-.732.53.265.368a1.5 1.5 0 0 1 .279.695l.054.449.897-.11-.054-.449a2.422 2.422 0 0 0-.444-1.116m1.568 5.755a17.188 17.188 0 0 1-.228-.88l-.098-.441-.882.195.098.442c.068.311.155.624.24.928.112.403.228.82.298 1.224l.076.446.89-.153-.076-.446c-.077-.45-.2-.89-.318-1.315m1.068 4.305l-.345-.293-.584.691.345.293c.038.032.043.049.032.096l-.1.441.88.203.1-.44a.975.975 0 0 0-.328-.99m.16 6.229h.903v-2.535h-.903zm.542 5.614h.903v-2.535h-.903zm1.06-15.446l-.145-.43-.856.292.145.428c.11.327.238.647.38.952l.19.41.82-.382-.191-.41a8.516 8.516 0 0 1-.343-.86m1.94 5.336c-.038-.247-.075-.494-.116-.739l-.074-.446-.891.149.074.446c.04.24.077.483.113.725.074.488.15.992.252 1.469l.095.443.884-.191-.095-.442a23.12 23.12 0 0 1-.242-1.414m.195 4.497l.114 2.396.902-.043-.113-2.396zm.057 7.604h.903v-1.991h-.903zm2.383-7.558c-.066-.326-.134-.662-.235-.994l-.132-.433-.864.265.132.433c.088.29.15.59.214.909.086.426.176.867.338 1.293l.161.423.844-.323-.161-.423c-.136-.356-.214-.742-.297-1.15m1.026 5.791l-.836.342.17.42c.156.382.206.792.151 1.218l-.059.45.896.117.059-.45a3.277 3.277 0 0 0-.21-1.678l-.17-.419zm.203 6.657h.904v-1.268h-.903zm-37.697-90.341l.857.286.647-1.945-.857-.287zm-.061 5.598h.903v-1.992h-.903zm.415 4.583a2.548 2.548 0 0 1-.461.617l-.322.318.634.645.322-.318a3.5 3.5 0 0 0 .622-.831l.215-.398-.795-.431-.215.398zm.308 5.455c-.004.147-.072.276-.207.395l-.34.297.593.683.34-.297c.328-.287.506-.651.517-1.055l.011-.452-.903-.023-.011.452zm.945 6.34c-.07.15-.169.298-.287.43l-.303.336.67.607.303-.336a2.66 2.66 0 0 0 .436-.657l.19-.41-.82-.38-.19.41zm-1.126 19.294h.903v-1.811h-.903zm1.083 3.006l.02-.452-.903-.038-.02.452c-.024.604.04 1.182.197 1.767l.117.437.872-.235-.117-.438a4.896 4.896 0 0 1-.166-1.493m.538 5.296l.064-.448-.895-.127-.063.448a2.676 2.676 0 0 0 .218 1.52l.19.412.82-.38-.19-.411a1.782 1.782 0 0 1-.144-1.014m-.718 5.821h.903v-1.81h-.903zm.754 1.881l-.865.26.13.434c.11.37.164.74.162 1.135l-.002.453.903.004.002-.453a4.714 4.714 0 0 0-.2-1.4l-.13-.433zm.51 5.65l.016-.453-.903-.031-.015.452c-.015.43.056.854.21 1.262l.159.424.845-.32-.16-.424a2.34 2.34 0 0 1-.152-.91m-.361 5.687h.904v-1.81h-.904zm.181 4.527h.903v-1.63h-.903zm.181 4.165h.903v-1.63h-.903zm-.362-34.585h.904v-1.81h-.904zm.362 5.07h.903v-2.173h-.903zm.903 4.527h.903v-1.81h-.903zm1.257 3.074l.085-.445-.886-.172-.086.445a1.95 1.95 0 0 0 .242 1.413l.24.383.764-.482-.24-.383a1.034 1.034 0 0 1-.12-.76m.009 4.439l-.002-.452-.904.004.002.453c.003.525.068 1.049.194 1.556l.11.439.876-.22-.109-.439a5.668 5.668 0 0 1-.167-1.34m-.181 7.516h.903v-2.173h-.903zm.361 4.527h.904v-1.992h-.904zm.362 4.527h.903v-1.63h-.903zm5.781 2.897h.903v-1.449h-.903zm19.151 7.605h.903v-1.63h-.903zm3.974 2.426h.904v-1.52h-.904zm-10.118-5.866h.904v-1.63h-.903zm3.614 2.535h.904v-2.173h-.904z"/><path d="M129.192 28.624c-.516-.029-.824.514-1.21.834-1.161.964-2.516 1.422-3.47 2.645a1.219 1.219 0 0 0-.153.249c-.2.447.05.806.598.934.65.152 1.001-.33 1.536-.481.142.534-.455 2.443.726 2.04.565-.191.993-.812 1.314-1.285.68-1 1.498-2.379 1.52-3.621.009-.544-.181-1.278-.861-1.315" fill="#FFDA00" mask="url(#b)"/><path d="M128.085 27.361c-1.485-.266-2.708-1.008-4.256-.949a1.217 1.217 0 0 0-.289.043c-.47.135-.58.56-.325 1.061.303.595.897.553 1.359.866-.316.453-2.156 1.228-1.088 1.873.511.308 1.261.234 1.828.176 1.201-.125 2.78-.39 3.74-1.174.421-.344.858-.964.448-1.509-.312-.413-.924-.298-1.417-.387" fill="#FFDA00" mask="url(#b)"/><path d="M128.54 23.003a1.228 1.228 0 0 0-.2-.216c-.374-.314-.788-.168-1.058.325-.32.586.048 1.055.048 1.613-.551-.007-2.224-1.099-2.157.15.032.596.514 1.177.88 1.615.779.926 1.883 2.087 3.07 2.443.52.156 1.277.17 1.497-.476.166-.49-.273-.934-.476-1.393-.613-1.38-.687-2.812-1.605-4.061" fill="#FFDA00" mask="url(#b)"/><path d="M136.574 27.123c-.528-.408-1.046-.115-1.597-.2.091-.545 1.423-2.034.183-2.159-.593-.06-1.24.33-1.727.625-1.033.628-2.347 1.544-2.88 2.666-.232.49-.363 1.238.24 1.555.46.24.963-.127 1.447-.258 1.455-.396 2.878-.25 4.25-.968.096-.05.177-.105.243-.163.367-.323.286-.755-.159-1.098" fill="#FFDA00" mask="url(#b)"/><path d="M135.133 29.297c-1.146-.385-2.692-.799-3.89-.483-.525.138-1.18.521-1.03 1.187.113.506.717.656 1.13.94 1.24.86 2.048 2.042 3.48 2.63.1.04.195.067.282.08.483.073.76-.267.734-.83-.03-.668-.588-.876-.879-1.352.474-.282 2.47-.223 1.764-1.253-.338-.493-1.051-.737-1.591-.92" fill="#FFDA00" mask="url(#b)"/><path d="M131.13 29.152c-.409-.357-1.092-.685-1.558-.187-.355.378-.14.963-.143 1.465-.012 1.511-.535 2.845-.217 4.364.023.105.054.198.092.278.211.441.648.48 1.098.143.534-.4.393-.98.623-1.489.499.236 1.57 1.924 2.024.76.218-.557.02-1.285-.134-1.836-.325-1.166-.852-2.68-1.785-3.498" fill="#FFDA00" mask="url(#b)"/><path d="M133.162 22.912c-.664.062-.846.631-1.306.944-.303-.461-.34-2.461-1.333-1.706-.475.361-.684 1.087-.84 1.636-.33 1.165-.67 2.733-.298 3.918.163.519.575 1.155 1.232.975.499-.138.62-.75.884-1.176.797-1.283 1.938-2.147 2.456-3.61a1.19 1.19 0 0 0 .067-.285c.05-.487-.303-.748-.862-.696" fill="#FFDA00" mask="url(#b)"/><path d="M128.864 30.658c-.557.548-1.122 1.083-1.754 1.545-.19.14.063.404.25.267.633-.462 1.197-.997 1.754-1.544.169-.166-.082-.433-.25-.268m-2.037.696c-.175.16.076.426.25.267a11.527 11.527 0 0 1 1.13-.884c.053-.036.107-.07.162-.103.032-.02.054-.03.067-.037.125.028.283-.11.215-.27-.2-.468-1.633.853-1.824 1.027m1.549-2.534c-.78.011-1.553.138-2.333.15-.235.003-.243.37-.007.366.78-.011 1.553-.138 2.333-.15.235-.002.243-.37.007-.366m.235-.625c-.947-.183-1.9.039-2.851-.074-.234-.029-.24.338-.007.366.916.11 1.844-.117 2.754.06.23.044.336-.307.104-.352m-.253-3.078c-.088-.219-.409-.042-.321.175.316.788.756 1.518 1.073 2.307.088.22.408.042.321-.175-.316-.788-.756-1.519-1.073-2.307m.601 2.416c-.328-.074-.542-.483-.702-.746-.201-.33-.366-.68-.549-1.022-.11-.208-.432-.033-.32.176.212.398.409.804.65 1.186.19.303.446.674.817.758.23.052.335-.3.104-.352m2.977-2.953c-.593.974-1.18 1.952-1.586 3.022-.083.22.268.323.351.104.393-1.038.97-1.987 1.545-2.932.124-.201-.187-.395-.31-.194m-1.12.433c-.364.694-.713 1.39-.944 2.142-.07.225.281.33.351.104.22-.721.554-1.387.904-2.052.11-.208-.2-.403-.31-.194m2.274 2.694c-.644.506-1.537.552-2.297.78-.225.067-.14.423.087.355.835-.249 1.754-.312 2.461-.868.187-.146-.066-.411-.25-.267m-.337-.827c-.526.34-1.072.644-1.662.854-.22.078-.136.435.087.355a8.461 8.461 0 0 0 1.75-.887c.197-.127.025-.45-.175-.322m-.247 3.618c-.703-.287-1.407-.559-2.153-.715-.23-.049-.335.302-.104.352.747.156 1.45.427 2.154.714.218.09.32-.263.103-.351m.102-1.033a15.571 15.571 0 0 1-1.717-.21c-.23-.04-.337.312-.104.35.602.1 1.204.194 1.814.226.236.012.243-.355.007-.366m-2.77.988c.218.608.56 1.17.686 1.81.046.231.401.143.355-.088-.127-.642-.467-1.2-.686-1.81-.079-.22-.435-.135-.355.088m-.413.107c.14.592.301 1.184.288 1.799-.005.235.361.243.366.006.014-.646-.151-1.27-.3-1.893-.053-.23-.41-.143-.354.088" fill="#FFF" mask="url(#b)"/><path d="M128.15 28.466c-.09.248-.113.52-.08.786-.03.246-.005.501.09.756.226.597.728 1.03 1.363 1.122.722.104 1.342-.353 1.744-.912 1.601-2.227-2.103-4.532-3.117-1.752" fill="#272424" mask="url(#b)"/><path d="M130.758 30.192l-.047-.014a.148.148 0 0 0-.182.099.148.148 0 0 0 .099.182l.047.014a.147.147 0 0 0 .181-.1.147.147 0 0 0-.098-.181m.152-.516a.147.147 0 0 0-.182.1l-.014.046a.148.148 0 0 0 .1.182.147.147 0 0 0 .181-.099l.013-.047a.147.147 0 0 0-.098-.182m.247-.642c-.188-.054-.273.228-.086.282.187.054.274-.228.086-.282m-1.018 1.38c-.187-.054-.273.229-.085.283.187.053.273-.23.085-.283m.147-.67c-.187-.054-.273.229-.086.283.188.053.273-.23.086-.283m.214-.548c-.188-.054-.275.228-.087.282.187.054.273-.229.086-.282m.287-.629c-.187-.054-.273.228-.086.283.188.054.273-.229.086-.283m.161-.717c-.187-.054-.273.229-.086.283.188.054.273-.229.086-.283m-1.147 2.158c-.186-.054-.272.229-.084.283.186.054.273-.229.085-.283m-.334.614c-.188-.053-.273.229-.086.283.188.054.273-.228.086-.283m.416-1.405c-.188-.054-.274.228-.087.282.188.054.273-.228.087-.282m.18-.61c-.188-.053-.274.229-.086.283.186.054.273-.229.086-.283m.165-.562c-.187-.054-.273.229-.085.282.187.054.273-.228.085-.282m.148-.67c-.188-.054-.274.229-.086.282.187.055.273-.228.086-.282m-1.068 2.387a.148.148 0 0 0-.182.099l-.014.047a.148.148 0 0 0 .1.182.147.147 0 0 0 .18-.1l.014-.046a.148.148 0 0 0-.098-.182m-.314.568c-.187-.054-.273.228-.085.282.187.054.273-.229.085-.282m.302-1.388a.148.148 0 0 0-.182.1l-.014.047a.148.148 0 0 0 .099.182.148.148 0 0 0 .182-.1l.014-.046a.148.148 0 0 0-.1-.183m.201-.656c-.187-.054-.273.229-.086.283.187.054.274-.229.086-.283m.067-.744c-.187-.054-.273.228-.086.282.188.054.274-.228.086-.282m-.6 1.861c-.187-.054-.273.228-.086.282.188.054.273-.229.086-.282m-.499.31c-.187-.053-.273.23-.086.283.187.055.274-.229.086-.283m.366-1.063c-.188-.055-.274.228-.087.282.188.054.274-.229.086-.283m.175-.764c-.187-.054-.274.229-.086.283.187.054.273-.229.086-.283m-.514 1.225c-.187-.055-.273.228-.086.282.188.054.273-.229.086-.283m.15-1.026c-.187-.054-.273.229-.086.283.187.053.274-.229.086-.283" fill="#FFF" mask="url(#b)"/><path d="M105.099 11.501l.903-.007c-.004-.486.217-.988.562-1.28l-.582-.692c-.551.465-.89 1.223-.883 1.98m2.029-2.827l.698.575c.16-.194.4-.366.662-.47l-.335-.841a2.581 2.581 0 0 0-1.025.736m2.758-.587h1.084v-.906h-1.084zm2.938-.198l-.576.697c.2.166.376.377.494.593l.792-.435a2.99 2.99 0 0 0-.71-.856m-10.918 15.406l-.901.066c.057.784.408 1.402.962 1.695l.422-.8c-.399-.211-.47-.79-.483-.961m-.52-2.922l-.825-.368c-.28.631-.206 1.34.189 1.805l.688-.586c-.169-.199-.19-.54-.052-.85m.084-3.01l.693.58c.155-.186.422-.376.664-.473l-.335-.84c-.38.152-.772.433-1.022.733m2.575 5.801l-.843.326c.3.78.834.982 1.229 1.012l.07-.902c-.089-.007-.298-.024-.456-.436m-.455-2.799l-.897-.112c-.057.457-.013.962.133 1.502l.872-.236c-.113-.42-.15-.818-.109-1.154m.08-2.226l.872.235c.081-.303.269-.64.502-.902l-.672-.604c-.329.368-.585.83-.702 1.272m2.153-3.048l.902.053a.523.523 0 0 1 .334-.458l-.366-.828a1.426 1.426 0 0 0-.87 1.233m1.718-3.039l.838.336c.06-.15.18-.297.328-.405l-.53-.733a1.87 1.87 0 0 0-.636.802m2.263-1.926l.407.808c.224-.113.507-.183.776-.193l-.032-.905c-.401.014-.81.117-1.15.29m-3.735 12.624l-.797.427c.057.106.11.215.16.323.17.353.344.717.655 1.004l.612-.666c-.183-.17-.314-.442-.452-.73a9.033 9.033 0 0 0-.178-.358m-.85-1.355h.903v-.846h-.903zm1.956-4.396c-.287.31-.613.661-.737 1.143l.874.227c.068-.26.28-.489.525-.754.119-.128.242-.261.357-.408l-.71-.559c-.092.117-.198.231-.309.351m2.866-4.357l.895.122a.88.88 0 0 1 .241-.474l-.655-.623a1.79 1.79 0 0 0-.481.975m-2.397 10.08c.1.36.234.72.39 1.043l.813-.395a5.336 5.336 0 0 1-.332-.889l-.87.241zm.113-2.864l.886.176c.065-.327.178-.667.327-.981l-.817-.387c-.18.38-.316.792-.396 1.191m1.398-3.43l.74.52c.158-.227.377-.446.615-.616l-.525-.737a3.58 3.58 0 0 0-.83.833m4.309-5.318c.114.21.246.429.38.635l.756-.496a8.322 8.322 0 0 1-.343-.573l-.793.434zm2.032-.644l.824.371a.788.788 0 0 1 .375-.376l-.368-.826a1.69 1.69 0 0 0-.83.831m2.065-1.986l.546.721c.225-.17.595-.402.901-.563l-.42-.801a8.2 8.2 0 0 0-1.027.643m2.839-1.25l.409.808a.652.652 0 0 1 .363-.074l.07-.902a1.561 1.561 0 0 0-.842.168m2.298.244c.214.21.54.43.851.572l.375-.824a2.298 2.298 0 0 1-.595-.394l-.631.646zm1.992 1.625c.171.247.32.507.442.775l.822-.376a5.878 5.878 0 0 0-.522-.916l-.742.518zm2.057 1.886l.724.54c.173-.231.516-.43.966-.559l-.248-.87c-.452.129-1.07.388-1.442.889m3.104-.123c.217.014.423.048.63.105l.24-.872a3.953 3.953 0 0 0-.814-.136l-.056.903zm2.441-.042l-.25.87c.127.037.349.136.408.391l.88-.203c-.117-.509-.505-.904-1.038-1.058M133.454 14c.097.187.162.385.196.588l.891-.145a2.866 2.866 0 0 0-.286-.86l-.801.417zm1.042 3.489c.114.116.16.338.119.566l.888.164c.096-.526-.04-1.036-.363-1.365l-.644.635zm-.336 4.291l.593.682c.248-.216.389-.505.396-.813l-.903-.022c0 .021-.002.079-.086.152m-22.875-7.443l.333.842c.274-.109.548-.246.793-.398l-.473-.77a4.287 4.287 0 0 1-.653.326m4.387-1.776l.473.772c.308-.19.56-.443.75-.752l-.769-.475c-.115.188-.268.34-.454.456m1.991-1.844l.345.837a2.795 2.795 0 0 0 1.008-.72l-.675-.603c-.187.21-.428.383-.678.486m2.273-1.357l.135.895c.294-.044.593-.144.866-.288l-.422-.801a1.854 1.854 0 0 1-.58.194m2.365.473c.165.1.357.255.514.414l.642-.637a3.747 3.747 0 0 0-.69-.552l-.467.775zm1.347 1.54c-.004.399.131.786.36 1.035l.664-.614c-.06-.065-.122-.232-.12-.413l-.904-.008zm2.791 1.766l.38.822a1.97 1.97 0 0 0 .474-.316l-.605-.673a1.018 1.018 0 0 1-.249.167m1.758-.819l.477.77c.155-.097.341-.16.524-.176l-.08-.901a2.12 2.12 0 0 0-.92.307m2.345.299l.122.897c.09-.013.093 0 .112.057l.857-.288c-.161-.48-.578-.737-1.091-.666m2.196 2.095l-.899.086c.036.378.253.738.566.94l.49-.76a.386.386 0 0 1-.157-.266m-.298 3.423h.903v-.965h-.904zm.251 1.669c.033.145-.006.21-.083.272l.566.706c.362-.292.503-.71.399-1.177l-.882.199zm-22.356 2.606l-.898-.1a1.77 1.77 0 0 0 .162.968l.816-.388a.87.87 0 0 1-.08-.48m-.417-2.024l.9.086a.69.69 0 0 1 .122-.34l-.663-.614c-.19.206-.327.538-.359.868m1.376-2.706l.797.427a.854.854 0 0 1 .314-.307l-.462-.778a1.73 1.73 0 0 0-.649.658m2.239-1.8l.174.889c.172-.034.312-.001.345.023l.581-.693c-.258-.218-.68-.302-1.1-.219m2.187 1.443l-.092.859.85-.099a.84.84 0 0 0-.759-.76m-4.117 5.882h.904v-.724h-.904zm.401-2.998a.815.815 0 0 0 .178.623l.707-.564c.01.017.015.055.008.074a.481.481 0 0 1 .149-.15l-.536-.73c-.3.221-.47.472-.506.747m1.848-1.921l.02.905c.232-.005.459-.061.672-.168l-.402-.81a.676.676 0 0 1-.29.073m2.329-2.945l.902.035a.83.83 0 0 1 .24-.553l-.66-.619c-.299.32-.466.714-.482 1.137m1.766-2.293l.742.517a.52.52 0 0 1 .312-.175l-.162-.891c-.366.067-.7.272-.892.55m2.454-1.032l.17.889a.548.548 0 0 1 .397.06l.481-.767a1.442 1.442 0 0 0-1.049-.182m2.719 1.138l-.448.786c.034.02.03.079.022.125l.887.17c.086-.455-.09-.87-.461-1.081m2.227 1.883l.639.64.24-.24-.638-.64zm2.487.29h.723v-.905h-.723zm2.411.373l-.486.764c.145.093.249.286.276.517l.897-.108c-.06-.505-.31-.932-.687-1.173m.269 3.883h.904v-.725h-.904zm-13.22-2.21l.847.315a2.55 2.55 0 0 1 .41-.718l-.703-.569a3.454 3.454 0 0 0-.554.972m2.258-2.053l.424.8c.294-.157.62-.266.94-.315l-.136-.895c-.42.065-.845.206-1.227.41m2.964.247l-.447.788c.053.03.177.1.138.39l.895.122c.076-.57-.137-1.043-.586-1.3m2.143 2.094l.567.705c.21-.17.465-.316.72-.412l-.32-.847a3.613 3.613 0 0 0-.967.554m2.752-.096l.107.773.752-.198a.752.752 0 0 0-.86-.575m.935 3.708h.904v-.725h-.904zm-15.041 1.005l.634.645c.175-.173.324-.372.442-.59l-.795-.43c-.076.14-.168.263-.281.375m2.159-2.133l.411.806c.293-.15.605-.329.88-.503l-.485-.765c-.247.158-.542.327-.806.462m2.567-1.103l.336.84c.255-.103.556-.178.848-.212l-.105-.9a4.274 4.274 0 0 0-1.08.272m3.215-.145l.17.889c.046-.009.106-.013.125.02l.785-.448c-.212-.372-.626-.548-1.08-.462m2.374 1.622h.481v-.905h-.481zm2.29.547c.177.23.407.6.56.898l.803-.415a7.569 7.569 0 0 0-.645-1.033l-.718.55zm-6.175-3.776l.543.724a.79.79 0 0 1 .63-.155l.125-.897a1.69 1.69 0 0 0-1.298.328m6.408 2.004a.897.897 0 0 1 .392.229l.674-.603a1.78 1.78 0 0 0-.813-.495l-.254.869zm-10.884 2.599l.582.692c.21-.177.452-.316.698-.4l-.292-.857c-.351.12-.693.316-.988.565m2.977-.902l.409.807a.66.66 0 0 1 .363-.073l.07-.903a1.563 1.563 0 0 0-.842.169m2.597.955c.129.041.248.101.355.178l.527-.735a2.16 2.16 0 0 0-.609-.306l-.273.863zm2.857-.358l-.381.82c.121.057.245.15.331.249l.682-.594a1.967 1.967 0 0 0-.632-.476M96.365 53.952l-.9.075c.04.497.354.881.816 1.004l.23-.876c-.04-.01-.132-.035-.146-.203m-1.235-3.5c-.153.412-.202.85-.145 1.3l.896-.113a1.83 1.83 0 0 1 .096-.872l-.847-.315zm1.025-1.562l.724.542c.133-.179.32-.366.514-.515l-.548-.72a3.65 3.65 0 0 0-.69.693m2.205-1.975l.891.145c.033-.203.099-.401.196-.587l-.802-.418a2.855 2.855 0 0 0-.286.86m-.715-2.935l-.568.704c.196.16.372.335.536.538l.7-.572a4.548 4.548 0 0 0-.668-.67m-.438-2.25l-.897-.108c-.045.376.007.739.155 1.08l.828-.36a1.152 1.152 0 0 1-.086-.612m.246-1.73l.78.456c.103-.177.239-.347.404-.505l-.625-.654a3.233 3.233 0 0 0-.56.702m4.275-1.34h.903v-.363h-.903zm-1.716 1.177h.602v-.906h-.602zm1.892-4.006l-.893-.137c-.069.449.05.867.345 1.209l.684-.59a.57.57 0 0 1-.136-.483m-.892-2.079l.89.16a.798.798 0 0 1 .374-.528l-.433-.795a1.692 1.692 0 0 0-.83 1.163m2.314-2.147l.356.832.843-.362-.356-.832zm3.33.495c.167.039.329.103.468.188l.468-.775a2.507 2.507 0 0 0-.736-.295l-.2.882zm-8.409 22.17l.155.892c.225-.04.446.004.512.049l.507-.75c-.282-.191-.743-.267-1.174-.191m1.192 3.464h.903v-.483h-.903zm1.354 2.558l-.6.677c.134.12.285.35.358.545l.846-.318a2.416 2.416 0 0 0-.604-.903m-2.746-8.643l-.89-.146c-.072.432-.015.87.158 1.234l.815-.39a1.193 1.193 0 0 1-.083-.698m.136-2.245l.765.481c.08-.126.206-.252.347-.345l-.495-.757c-.25.164-.469.384-.617.62m2.525-2.118l.291.857c.436-.15.692-.553.667-1.055l-.902.045c.007.131-.036.146-.056.153m-.19-3.91l-.774.467c.283.471.62.903.923 1.185l.614-.664c-.24-.223-.526-.592-.763-.988m-1.202-1.113l.902-.053c-.006-.1.01-.144.007-.148a.157.157 0 0 1 .043-.008l-.067-.903c-.575.044-.922.48-.885 1.112m3.274-1.88l-.1.9a1.756 1.756 0 0 0 .966-.162l-.387-.817a.865.865 0 0 1-.48.08m1.071-1.738c-.087.55.016.932.305 1.138l.522-.739a.17.17 0 0 1 .058.065s-.03-.084.007-.323l-.892-.141zm.107-3.665c-.36.408-.519.888-.473 1.425l.9-.078a.946.946 0 0 1 .25-.748l-.677-.6zm.923-1.033l.759.492a.384.384 0 0 1 .266-.157l-.087-.902a1.285 1.285 0 0 0-.938.567m3.151-.026c.253-.003.48.032.712.102l.26-.867a3.336 3.336 0 0 0-.975-.14l.004.905zm3.086-.654l-.634.645c.193.19.423.421.597.598l.644-.634c-.177-.18-.41-.415-.607-.61m1.179-.538l.862.274c.04-.129.1-.248.176-.355l-.733-.53a2.186 2.186 0 0 0-.305.611m.734-2.082l.84.334c.087-.222.3-.466.553-.636l-.502-.752c-.41.275-.735.659-.891 1.054m2.708-.95h.602v-.905h-.602zm2.917.085l-.294.857c.202.07.363.205.48.405l.779-.46a1.788 1.788 0 0 0-.965-.802m1.556 3.738a.569.569 0 0 1 .135.336l.902-.049a1.469 1.469 0 0 0-.347-.87l-.69.583zM100.883 55.8h.903v-1.207h-.903zm.171-3.286l-.884-.188c-.104.487.055.932.425 1.19l.516-.743c-.08-.056-.076-.172-.057-.259m.029-2.041l.744.514c.04-.06.116-.14.305-.173l-.15-.892a1.324 1.324 0 0 0-.899.551m1.148 2.89l.857.287.12-.362-.856-.287zm1.792-3.158l.405.809c.28-.141.539-.348.746-.598l-.693-.58c-.128.153-.29.284-.458.369m1.863-1.279l.773.47c.145-.24.255-.617.3-.884l-.89-.151a1.97 1.97 0 0 1-.183.565m-2.608-1.171l.208.88c.392-.093.687-.382.81-.793l-.865-.26c-.029.097-.08.155-.153.173m-.34-2.736c-.117.65.112.945.325 1.078l.479-.768c.048.03.07.07.073.083 0-.001-.019-.065.012-.234l-.89-.16zm-.845-1.485l.892.148a1.04 1.04 0 0 1 .336-.58l-.6-.677c-.331.294-.56.698-.628 1.109m3.728-2.824h.903v-.603h-.903zm.534-2.81l-.887-.173a1.45 1.45 0 0 0 .182 1.052l.764-.482a.549.549 0 0 1-.059-.397m-1.936 4.173h-.017l-.113.898a.931.931 0 0 0 .922-.452l-.767-.478c-.015.024-.025.031-.025.032m2.292-6.251l.328.844c.236-.092.5-.167.765-.219l-.172-.889a5.45 5.45 0 0 0-.92.264m3.372-.226l-.396.814c.204.1.409.271.562.472l.717-.55a2.545 2.545 0 0 0-.883-.736m-3.965 10.294l-.897-.11c-.045.374.02.714.185.982l.768-.477c-.055-.09-.075-.233-.056-.396m-.152-2.252l.612.666a.45.45 0 0 1 .367-.124l.098-.9a1.353 1.353 0 0 0-1.077.358m2.202-1.219l.785.448a5.39 5.39 0 0 0 .262-.527l-.828-.36a4.513 4.513 0 0 1-.22.44m.302-2.191h.904v-.724h-.903zm.091-2.082h.723v-.906h-.723zm2.655.133l-.492.76c.077.05.17.144.237.24l.742-.517a1.854 1.854 0 0 0-.487-.483m.524 2.677l.241.845.869-.25-.241-.844zm1.954 1.398l-.39.817a.288.288 0 0 1 .143.136l.828-.364a1.188 1.188 0 0 0-.58-.589m2.036.323l-.127.896c.066.01.13.014.194.014.453 0 .828-.235 1.006-.643l-.828-.363c-.017.04-.054.124-.245.096m2.015-1.573h-.003v.006l-.005.006a.023.023 0 0 1 .005-.003l-.056.894a.999.999 0 0 0 .065.002c.412 0 .736-.249.874-.676l-.86-.279a.282.282 0 0 1-.02.05m-5.097-3.934l-.708.563c.207.26.495.55.79.792l.573-.7a4.67 4.67 0 0 1-.655-.655m4.262 2.365l-.079.902a1.615 1.615 0 0 0 1.155-.331l-.544-.722a.727.727 0 0 1-.532.151m-2.262.544l-.854.298c.13.37.41.65.772.765l.274-.863a.308.308 0 0 1-.192-.2m-1.943-5.129l-.099.9c.044.004.089.006.134.006.452 0 .916-.246 1.237-.664l-.716-.552c-.157.204-.38.329-.556.31m2.632-3.495l.177.887.602-.12-.177-.888zm-1.195 1.814l.64.64.12-.12-.639-.642zm3.677-.918l-.451.785a.54.54 0 0 1 .259.384l.897-.104a1.445 1.445 0 0 0-.705-1.065m1.127 2.322l-.541.724a.352.352 0 0 1 .065.178l.897-.11c-.04-.33-.198-.627-.42-.792m-5.034 2.004l.375.824a3.75 3.75 0 0 0 .687-.413l-.544-.722a2.853 2.853 0 0 1-.518.311m1.462-1.987l.583.693a.566.566 0 0 1 .335-.135l-.049-.904a1.46 1.46 0 0 0-.869.347m2.216 1.169l-.477.769c.026.016.033.027.031.041l.896.114a.932.932 0 0 0-.45-.924m2.188 5.264c.206.243.393.507.558.784l.776-.463a6.698 6.698 0 0 0-.646-.907l-.688.586zm-4.486-3.46l-.457.781c.234.138.503.192.77.192.298 0 .592-.068.828-.16l-.33-.843c-.3.118-.641.13-.811.03m6.082 5.787c.145.024.292.083.425.172l.5-.754a2 2 0 0 0-.78-.312l-.145.894zm2.267-.89l.188.886a1.73 1.73 0 0 0 .985-.647l-.712-.557a.829.829 0 0 1-.46.318m2.672 1.419l-.885-.178a1.1 1.1 0 0 0 .306 1.025l.629-.65c-.039-.038-.072-.088-.05-.197m2.074 2.206s.008.004.018.015l-.67.608c.174.192.434.294.729.294.1 0 .203-.012.308-.036l-.2-.883a.34.34 0 0 1-.184.002m.459 2.469l.856.287.24-.724-.856-.286zm-.506 1.711c-.001.338.044.658.14.977l.865-.26a2.412 2.412 0 0 1-.102-.713l-.903-.004zm.639 2.837c.146.339.32.688.505 1.01l.784-.448a9.485 9.485 0 0 1-.46-.92l-.829.358zm-2.406-7.8l-.862.272c.14.445.46.764.9.9l.266-.865a.426.426 0 0 1-.304-.307m-8.064-6.998a8 8 0 0 0 .511.385l.514-.745a7.073 7.073 0 0 1-.453-.34l-.572.7zm1.936.952c.118.218.267.417.442.59l.634-.645a1.559 1.559 0 0 1-.281-.376l-.795.43zm2.484 1.579l-.887-.157c-.066.377.086.846.711 1.034l.26-.867a.287.287 0 0 1-.104-.046.089.089 0 0 1 .02.036m1.004-.216l.569.703.597-.48-.564-.706zm-3.595-4.51l-.436.793c.252.14.51.362.708.61l.706-.565a3.384 3.384 0 0 0-.978-.838m3.998 2.78h.722v-.905h-.723zm-1.596-.625s-.004-.008-.008-.029l-.01.002v-.009c-.02.002-.03 0-.03 0a.068.068 0 0 1 .023.01l-.872.159c.082.452.422.737.862.737.036 0 .074-.002.112-.006l-.094-.883a.067.067 0 0 1 .017.019m-.557-2.612l-.754.5c.277.42.704.664 1.2.685l.04-.905a.586.586 0 0 1-.486-.28m-.213-1.727l.395.815a2.17 2.17 0 0 0 .46-.307l-.592-.684c-.08.07-.176.134-.263.176m.231-1.467l.895-.128s.007-.011.032-.027l-.476-.77a.933.933 0 0 0-.451.925m1.91 1.796l.208.881c.046-.01.055-.002.07.011l.616-.662a.95.95 0 0 0-.894-.23m.241 1.932l.208.88c.045-.01.055-.002.069.011l.617-.66a.95.95 0 0 0-.894-.231m2.474 5.481l-.885-.183c-.107.513.041.994.396 1.286l.574-.7c-.09-.073-.122-.227-.086-.403m3.111 2.762l-.843.328c.13.334.406.611.74.741l.327-.844a.418.418 0 0 1-.225-.225m-2.679-1.033c.005.233.061.46.168.675l.809-.403a.685.685 0 0 1-.074-.291l-.903.019zm4.167 4.028l-.685-.591c-.263.306-.287.772-.222 1.106l.887-.173c-.033-.17-.001-.311.022-.346l-.002.004zm-1.035 2.964h.903v-.845h-.903zm1.263 1.604l-.9-.07c-.024.294.033.578.167.843l.806-.409a.661.661 0 0 1-.073-.364m-.177 1.789c-.03.276-.107 1.01.404 1.213l.331-.842a.285.285 0 0 1 .162.146s-.032-.103.002-.422l-.899-.095zm-2.852-13.062l-.865.263c.13.431.396.804.766 1.078l.537-.728a1.187 1.187 0 0 1-.438-.612m-1.788-1.936l-.903.03c.02.577.384 1.018.952 1.15l.204-.882c-.17-.04-.247-.131-.253-.298m.175-2.645l-.53.733c.01.008.048.052.079.142l.854-.293c-.06-.176-.179-.42-.403-.583m.859 1.789c.082.389.304.781.61 1.077l.627-.651a1.264 1.264 0 0 1-.353-.613l-.884.187zm2.578 2.169l-.9.062c.032.473.269.892.667 1.18l.53-.733a.676.676 0 0 1-.296-.509m.722 3.375l-.9.072c.036.456.296.851.712 1.084l.44-.791a.459.459 0 0 1-.252-.365m1.924 2.518l-.893-.136a1.05 1.05 0 0 0 .208.827l.716-.552c-.029-.038-.042-.07-.031-.139m-.657 3.192h.903v-.845h-.904zm.12 2.172h.903v-.482h-.903zm1.48 2.136l-.902-.047c-.015.281-.003.683.27.917.116.1.26.15.414.15.05 0 .102-.005.154-.016l-.188-.885c.111-.024.239.065.264.136 0-.003-.022-.065-.012-.254m-1.692 8.759l-.475.275.417.177-.046.448a.448.448 0 0 1-.389-.338l.014.093c.03.198.06.39.112.544l.856-.288a2.998 2.998 0 0 1-.074-.388c-.023-.155-.07-.478-.415-.522m1.417-6.644c.02.333.132.67.315.947l.753-.5a1.058 1.058 0 0 1-.166-.502l-.902.055zm.842 3.593h.904v-.482h-.904zm-.602 2.13h.903v-.198h-.903zm-5.338-25.288c.166.238.315.499.44.774l.822-.378a5.874 5.874 0 0 0-.522-.916l-.74.52zm2.255 1.57l-.88.203c.095.412.409.727.82.822l.204-.882a.18.18 0 0 1-.144-.143m1.304 1.935l-.597.68c.157.138.283.296.384.48l.793-.434a2.674 2.674 0 0 0-.58-.726m.43 2.753c.015.02.024.068.024.127l.903.004a1.082 1.082 0 0 0-.216-.688l-.711.557zm.661 2.356a.144.144 0 0 1-.035-.042c0 .001.053.12.004.498l.896.116c.08-.616-.01-1.026-.272-1.255l-.593.683zm.688 3.318h.903v-.603h-.903zM132.64 35.89l.56.709c.053-.042.14-.035.188-.028l.138-.895a1.128 1.128 0 0 0-.887.214m-1.818.663l.361.12.286-.858-.362-.12zm4.239-1.303l-.726.54c.166.223.46.38.79.42l.11-.898a.352.352 0 0 1-.177-.066l.003.005zm.784 2.007l.241.604.839-.336-.241-.604zm.941 2.342c.028.128-.01.196-.04.235l.722.546c.206-.273.277-.618.201-.972l-.883.19zm-.473 2.234l.626.653a.781.781 0 0 1 .229-.153l-.362-.83a1.66 1.66 0 0 0-.493.33m-3.662-3.687h.295v-.906h-.295zm1.97-.829l-.176.888c.022.004.032.01.034.011 0 0 .003.005.006.018l.883-.192a.924.924 0 0 0-.746-.725m.348 2.669h.903v-.603h-.903zm-.474 1.574a.278.278 0 0 1-.117.028l.075.902c.494-.042.842-.326.908-.742l-.892-.143a.082.082 0 0 1 .026-.046m-.613-2.299l-.542.725c.016.015.054.08.066.177l.897-.11c-.04-.33-.198-.626-.42-.792m1.086 5.072h.903v-.483h-.903zm3.606 1.444l-.53.734a.328.328 0 0 1 .08.142l.854-.294c-.06-.176-.18-.42-.404-.582m-2.471-.064a.08.08 0 0 1 .026.023l-.698.574c.169.206.428.316.727.316.107 0 .22-.014.335-.043l-.22-.878c-.098.025-.158.014-.17.008m2.727 2.448c.02.106.026.26-.06.398l.765.481a1.45 1.45 0 0 0 .182-1.05l-.887.171zm-.695 3.117l.831.355c.09-.21.168-.408.249-.623l-.846-.317c-.076.204-.148.384-.234.585m-.919 2.093l.743.515a7.03 7.03 0 0 1 .339-.454l-.699-.574a8.015 8.015 0 0 0-.383.513m-1.195-4.722h.362v-.906h-.362zm.994 1.116h.903v-.483h-.903zm-1.173 2.369l.84.333c.09-.225.202-.452.326-.654l-.77-.474a5.231 5.231 0 0 0-.396.795m-1.591-1.57l.12.724.892-.149-.121-.724zm1.618 3.113l-.899-.098a1.36 1.36 0 0 0 .358 1.08l.664-.613a.453.453 0 0 1-.124-.369m.441 2.606c.072.267.159.526.256.772l.84-.335a6.47 6.47 0 0 1-.225-.677l-.872.24zm-.052 2.634l.734.528c.132-.184.234-.39.304-.61l-.861-.274c-.04.13-.1.25-.177.356" fill="#F6F6F6" mask="url(#b)"/><path d="M97.907 275.596l-.304-.335-.67.607.304.336c.384.426 1.018.8 1.613.956l.437.114.228-.876-.437-.114c-.43-.112-.901-.389-1.171-.688m5.309 1.515c-.417.035-.832-.093-1.056-.324l-.314-.326-.65.63.315.325c.373.387.946.606 1.563.606.071 0 .143-.003.216-.009l.45-.037-.074-.902-.45.037zm4.571.172c-.408.16-.849.13-1.24-.087l-.396-.218-.435.793.395.218c.36.199.755.299 1.15.299.29 0 .58-.054.855-.162l.42-.165-.329-.843-.42.165zm4.166-.249c-.38.166-.83.246-1.263.224l-.452-.022-.044.904.451.022a3.795 3.795 0 0 0 1.67-.299l.414-.181-.362-.83-.414.182zm3.671-.174c-.176.191-.375.24-.645.16l-.433-.13-.258.869.433.129c.167.05.33.074.488.074.41 0 .782-.166 1.079-.487l.306-.333-.663-.614-.307.332zm4.736-1.233a3.639 3.639 0 0 1-1.474.383l-.452.016.033.905.451-.016a4.546 4.546 0 0 0 1.844-.477l.405-.2-.402-.812-.404.201zm3.374-2.178a.713.713 0 0 1-.484.533l-.43.14.278.86.43-.139c.545-.177.94-.605 1.082-1.174l.11-.439-.876-.22-.11.439zM99.27 278.43c-.473-.169-.96-.343-1.25-.534l-.377-.25-.498.756.377.25c.381.251.922.444 1.444.63.267.096.52.186.743.28l.416.176.351-.834-.416-.176a14.966 14.966 0 0 0-.79-.298m6.124 1.191c-.493.045-.975-.042-1.36-.243l-.401-.209-.418.803.401.21c.447.233.98.356 1.529.356.11 0 .22-.005.33-.015l.45-.04-.081-.902-.45.04zm5.453-.17c-.44.031-.873.086-1.292.139-.243.03-.486.061-.731.087l-.45.048.096.9.45-.047c.25-.027.5-.059.748-.09.426-.054.828-.104 1.243-.134l.45-.031-.063-.903-.45.031zm5.36-.629c-.592.151-1.151.294-1.72.336l-.45.034.067.902.45-.033c.648-.049 1.272-.208 1.875-.361l.66-.167-.22-.878-.662.167zm5.817-1.603a7.121 7.121 0 0 1-1.584.744l-.43.14.281.861.43-.14a8.034 8.034 0 0 0 1.784-.839l.382-.24-.48-.767-.383.24zm2.886-2.422c-.069.265-.249.468-.47.532l-.435.124.248.87.435-.124c.527-.15.948-.601 1.096-1.175l.113-.438-.874-.227-.113.438zm-29.875-1.107l-.385-.237-.472.773.386.236a.925.925 0 0 1 .325.374l.18.415.829-.362-.181-.415a1.823 1.823 0 0 0-.682-.784m-.143 2.666l-.44-.099-.197.884.44.099c.179.04.294.14.362.314l.164.422.842-.33-.165-.421a1.375 1.375 0 0 0-1.006-.869m30.484-3.166l.902.058.073-1.08-.901-.065zm-62.034-11.264c-.05-.16-.126-.4-.101-.475l.144-.43-.856-.288-.144.43c-.12.355-.005.718.097 1.038.052.164.106.334.123.485l.052.45.897-.104-.052-.45a3.486 3.486 0 0 0-.16-.656m1.105 2.502l-.137-.431-.86.276.137.431c.166.52.506 1.01.981 1.414l.344.293.585-.69-.345-.293c-.346-.295-.59-.64-.705-1m1.993 2.782l-.253-.375-.75.505.253.375c.218.325.532.589.909.763l.41.19.378-.823-.41-.19a1.307 1.307 0 0 1-.537-.445m3.267 1.862c-.229.047-.376-.006-.508-.187l-.267-.365-.728.536.267.365c.275.375.655.572 1.093.572.105 0 .215-.011.327-.035l.442-.092-.184-.886-.442.092zm76.088-4.492l-.354-.282-.56.71.354.281c.231.184.575.43.875.627l.378.249.496-.757-.378-.248a12.54 12.54 0 0 1-.81-.58m2.069 1.588l-.335-.304-.605.672.334.303c.204.185.393.411.518.621l.232.389.775-.465-.232-.388a3.732 3.732 0 0 0-.687-.828m2.312 1.833l-.313-.327-.652.627.313.327a1.6 1.6 0 0 0 1.164.501l.452.005.01-.905-.452-.005a.698.698 0 0 1-.522-.223m3.237.95a.869.869 0 0 1-.479-.08l-.408-.194-.387.818.408.194a1.76 1.76 0 0 0 .966.162l.449-.05-.1-.9-.449.05zm2.873-.243c-.014.013-.024.021-.07.011l-.439-.104-.208.88.44.105c.083.02.165.03.245.03a.935.935 0 0 0 .65-.26l.33-.31-.618-.661-.33.31z" fill="#FFF" mask="url(#b)"/></g></svg>