<svg width="1140" height="712" viewBox="0 0 1140 712" xmlns="http://www.w3.org/2000/svg"><title>Page 1</title><g fill="none" fill-rule="evenodd"><path d="M0 651.371V67.456C0 5.333 36.26 0 74.007 0h995.575c47.198 0 69.96 13.087 69.96 82.831v562.825c0 31.012-8.545 66.063-61.089 65.831-6.263-.029-52.084.046-115.097.122-104.2.126-900.265.252-910.304-.094C35.383 710.913 0 697.482 0 651.37zM307.217 27.876c-13.592.083-40.393.133-53.987.183-22.188.085-137.707.168-159.897.252-11.54.041-13.777.128-25.315.128-31.746 0-28.758 17.093-28.758 34.957 0 21.287.941 228.93.92 250.218-.027 31.156-.047 62.31-.04 93.467.005 14.48-.105 224.786-.085 239.265.021 12.674-5.282 38.275 21.054 38.275 17.855 0 158.365-.06 176.219-.051 18.894.002 50.997.015 69.889.023 34.13.018 622.974.027 657.102.047 7.25.004 13.349.002 19.078.002 11.113-.005 20.843-.006 34.903.035 11.824.03 38.852 2.675 38.852-42.441 0-18.007-.407-564.739-.285-579.626.285-35.227-26.49-35.318-33.167-35.298-19.89.065-39.78.136-59.672.203-34.031.117-622.777.24-656.811.36z" fill="#F4F4FC"/><circle fill="#847FE2" cx="20" cy="356" r="4"/><path d="M1093.17 344.584c-1.06 1.131-2.09 2.652-2.868 4.438-.775 1.784-1.302 3.831-1.302 5.998 0 1.506.258 3.065.856 4.612.598 1.542 1.54 3.07 2.884 4.505l.573-.616.575-.614c-1.207-1.292-2.016-2.615-2.53-3.94a10.819 10.819 0 0 1-.732-3.947c0-1.864.454-3.67 1.15-5.264.693-1.593 1.627-2.965 2.541-3.942 1.24-1.324 2.568-2.345 3.941-3.035 1.37-.685 2.778-1.043 4.192-1.043 1.276.003 2.561.29 3.842.905 1.28.617 2.559 1.564 3.8 2.89 1.237 1.32 2.052 2.657 2.56 3.968.51 1.312.72 2.607.72 3.858 0 2.003-.542 3.898-1.267 5.484-.72 1.578-1.63 2.846-2.282 3.544-2.513 2.686-5.479 3.872-8.33 3.876-2.855 0-5.592-1.201-7.605-3.354l-.575.614-.573.616c2.317 2.48 5.471 3.863 8.754 3.863 3.278.004 6.683-1.39 9.478-4.389.8-.858 1.785-2.242 2.595-4.007.805-1.765 1.432-3.91 1.433-6.247 0-1.459-.246-2.992-.846-4.525-.596-1.536-1.542-3.065-2.913-4.532-1.36-1.456-2.799-2.53-4.282-3.244-1.48-.713-3.002-1.056-4.51-1.056-1.67 0-3.32.425-4.884 1.205-1.562.787-3.042 1.93-4.395 3.38" fill="#FFF"/><path d="M1080.252 335.364a26.1 26.1 0 0 0-4.53 8.03c-1.096 3.115-1.722 6.677-1.722 10.71h1.689c0-5.117 1.052-9.353 2.776-12.847 2.586-5.244 6.71-8.852 11.185-11.167 4.474-2.312 9.3-3.303 13.162-3.303h.013c3.839 0 7.414.586 10.61 1.74 4.802 1.73 8.75 4.722 11.516 8.953 2.762 4.232 4.363 9.726 4.363 16.53 0 5.584-1.205 10.035-3.106 13.602a23.443 23.443 0 0 1-5.283 6.635c-3.043 2.666-6.55 4.41-9.816 5.487-3.26 1.074-6.285 1.475-8.3 1.476h-.04c-8.238-.002-14.99-3.254-19.703-8.262-4.711-5.006-7.377-11.781-7.377-18.844H1074c0 7.542 2.847 14.768 7.873 20.11 5.023 5.342 12.234 8.789 20.896 8.786h.043c1.968-.003 4.675-.341 7.663-1.208 4.48-1.3 9.593-3.796 13.617-8.218 2.012-2.208 3.743-4.898 4.969-8.144 1.223-3.238 1.942-7.028 1.939-11.42.003-4.734-.745-8.924-2.127-12.546-2.072-5.438-5.59-9.584-10.09-12.336-4.497-2.755-9.958-4.128-15.958-4.128h-.016c-2.75 0-5.905.466-9.107 1.493-4.797 1.547-9.715 4.375-13.45 8.87" fill="#FFF"/><path d="M1125.572 367.946a23.332 23.332 0 0 1-1.572 2.71 8.03 8.03 0 0 0 1.078 1.344 26.298 26.298 0 0 0 3.15-6.243c.988-2.824 1.625-6.064 1.772-9.757a85.432 85.432 0 0 0-1.74 2.294c-.4 3.787-1.362 6.968-2.688 9.652M1093 326.431a4.41 4.41 0 0 0 .407 1.569c3.124-.956 6.23-1.388 8.875-1.388h.013c.735 0 1.464.021 2.18.062a39.065 39.065 0 0 0 1.525-1.506 40.12 40.12 0 0 0-3.705-.168h-.016c-2.719 0-5.837.419-9.002 1.348l-.277.083zm30.9 12.327a24.479 24.479 0 0 1 1.756 3.242 86.5 86.5 0 0 1 1.344-1.17c-2.125-4.555-5.325-8.091-9.276-10.54a24.906 24.906 0 0 0-2.354-1.29c-.454.447-.911.895-1.37 1.341 4.073 1.811 7.449 4.623 9.9 8.417m-11.152 11.001c.49 1.325.691 2.631.691 3.895 0 2.023-.519 3.936-1.215 5.537-.69 1.594-1.563 2.873-2.188 3.578-.189.215-.385.422-.58.615-.155.863-.31 1.739-.456 2.616a14.758 14.758 0 0 0 2.138-1.993c.768-.866 1.711-2.265 2.489-4.046.772-1.78 1.372-3.948 1.373-6.307 0-1.473-.236-3.02-.81-4.57a13.502 13.502 0 0 0-.982-2.084 92.41 92.41 0 0 0-.645 2.285c.066.157.129.315.185.474" fill="#FFF"/><path d="M1123 333c.119.112.233.229.351.343-.118-.114-.232-.231-.351-.343m2 3" fill="#1F1F1D"/><path d="M1131 358c-.295 2.977-.993 5.636-2 8 1.007-2.362 1.707-5.022 2-8" fill="#FFF"/><path d="M1120 331l.019.015zm1 1c.109.088.212.182.318.272-.106-.09-.209-.184-.318-.272m-1-1" fill="#1F1F1D"/><path d="M1128.227 349.996c.133 1.316.204 2.687.204 4.122a36.7 36.7 0 0 1-.203 3.882 82.677 82.677 0 0 1 1.739-2.228c.022-.541.033-1.096.033-1.654.002-4.615-.693-8.699-1.979-12.228a25.807 25.807 0 0 0-.775-1.89c-.42.37-.834.745-1.246 1.122 1.123 2.583 1.883 5.539 2.227 8.874" fill="#FFF"/><path d="M1125 370.243l.159-.243-.159.243zm1-33.243c.086.128.178.253.262.386-.084-.133-.176-.258-.262-.386m1.58 2.998a18.207 18.207 0 0 0-.58-.998c.202.325.394.658.577 1l.003-.002zM1127 339l.137.231L1127 339z" fill="#1F1F1D"/><path d="M1123.988 337.845l.024.036.003.01.025.034.008.01.018.033.03.04.023.043.005.002.025.036.006.009.02.036.008.01.022.035.007.01.022.035.007.01.021.035.006.01.021.037.007.007.023.037.005.005.024.038v.003l.027.042.003.002.026.043.001.003.027.044a22.61 22.61 0 0 1 1.308 2.46c.418-.365.838-.724 1.26-1.08-1.766-3.728-4.323-6.717-7.465-8.92a134.03 134.03 0 0 1-.535 1.636 20.664 20.664 0 0 1 4.988 5.21" fill="#FFF"/></g></svg>