<svg width="82" height="122" viewBox="0 0 82 122" xmlns="http://www.w3.org/2000/svg" xmlns:xlink="http://www.w3.org/1999/xlink"><title>Group 15</title><defs><path id="a" d="M.92.478h48.822v130.408H.921V.478z"/><path id="c" d="M53.97 90.78V.477H.81v133.44h53.16V90.778l.001 43.139H.811V90.779z"/></defs><g fill="none" fill-rule="evenodd"><path d="M60.745 2.205c-.063 1.414.788 2.263 1.945 2.934 1.63.943 3.489 1.653 5.237 2.357 1.695.685 3.365 1.317 5.124 1.8 1.002.27 1.947.715 2.926 1.051 1.018.35 1.76.935 2.709 1.39.902.434 1.527-.812.719-1.353-.707-.474-1.511-.718-2.22-1.203-.65-.444-1.275-.88-1.966-1.265-1.683-.94-3.195-1.974-4.959-2.791-2.864-1.324-6-2.895-9.16-3.216-.197-.021-.347.09-.355.296m-2.887 7.289c1.862 2.523 4.888 3.69 7.628 5.059 2.88 1.44 5.918 2.828 8.967 3.87 1.163.4 1.664-1.36.717-1.937-1.438-.878-3.002-1.505-4.433-2.408-1.341-.842-2.76-1.508-4.174-2.224-2.654-1.345-5.226-3.057-8.258-3.201-.399-.02-.685.522-.447.84m-3.523 6.226c.408 1.525 1.914 2.258 3.2 2.98a52.289 52.289 0 0 0 5.35 2.591c2.875 1.208 6.266 2.938 9.427 2.146.257-.065.422-.437.248-.66-1.971-2.51-5.47-3.468-8.314-4.71-1.627-.713-3.251-1.436-4.879-2.147-1.414-.62-3.023-1.562-4.594-1.023a.676.676 0 0 0-.438.823" fill="#00E07D"/><g transform="rotate(28 44.976 97.94)"><mask id="b" fill="#fff"><use xlink:href="#a"/></mask><path d="M44.564 87.424c-3.545-5.415-10.789-10.63-17.426-11.462a623.805 623.805 0 0 1-.394-35.423c.024-.558.05-1.115.069-1.673.033-1.019.042-2.04.033-3.062.163-6.303.428-12.6.802-18.89.834-3.254 1.738-6.5 2.476-9.773.398-1.773.432-3.593-.952-4.972-1.13-1.124-2.91-1.503-4.454-1.657-4.63-.46-6.22 3.7-6.419 4.621-.641 2.991.642 6.212 1.128 9.142.044.284.084.57.129.852a205.198 205.198 0 0 1-.254 6.83c-.343 6.38-.172 12.583-.276 18.975-.105 6.432-.462 13.015-.152 19.439.065 1.329-.147 12.587-.11 16.872-2.37.936-4.663 2.23-6.73 3.485-3.51 2.133-6.288 4.965-7.856 8.801-3.06 7.487-3.78 13.42-2.921 18.763 1.192 7.405 5.43 14.031 11.488 18.385 3.322 2.386 6.786 3.53 10.855 4.023 4.487.544 9.46-.11 13.477-1.88 3.18-1.405 6.01-3.604 8.227-6.363 2.691-3.35 4.206-8.948 4.378-13.123.334-8.058-.633-15.061-5.118-21.91" fill="#00E07D" mask="url(#b)"/></g><path d="M71.011 20.952c-.033.005-.062.013-.094.016-2.107.37-2.053 3.445-.419 4.314 1.643.873 4.211-.815 3.345-2.759-.016-.028-.026-.056-.04-.086-.544-1.214-1.47-1.714-2.792-1.485m4.012-5.366c-.033.005-.062.013-.094.016-2.107.37-2.053 3.443-.418 4.312 1.643.873 4.209-.816 3.343-2.757-.015-.028-.026-.056-.04-.086-.541-1.213-1.47-1.716-2.791-1.485M57.39 6.21a.971.971 0 0 1-.094.016c-2.107.37-2.053 3.443-.416 4.313 1.641.873 4.21-.815 3.341-2.757-.013-.027-.025-.057-.04-.087-.54-1.212-1.469-1.716-2.79-1.484M60.653.074a.971.971 0 0 1-.094.016c-2.107.37-2.053 3.443-.416 4.313 1.64.872 4.209-.816 3.341-2.758l-.04-.086c-.54-1.213-1.47-1.716-2.791-1.485m17.751 8.991c-2.107.37-2.052 3.443-.418 4.312 1.643.874 4.21-.816 3.343-2.756-.015-.028-.025-.057-.04-.087-.54-1.212-1.469-1.716-2.79-1.484-.034.005-.063.012-.095.015zM21.883 88.771l-.3.053c-6.738 1.181-6.568 11.009-1.335 13.791 5.249 2.791 13.46-2.609 10.687-8.819l-.124-.278c-1.732-3.881-4.703-5.489-8.928-4.747m32.992-75.794a1.02 1.02 0 0 1-.094.015c-2.107.37-2.053 3.443-.416 4.313 1.64.873 4.209-.816 3.34-2.757l-.037-.086c-.543-1.214-1.472-1.717-2.793-1.485" fill="#FFDA00"/><path d="M50.015 36.452C43.052 48.661 36.88 61.258 30.548 73.804c-2.743 5.435-5.488 10.868-8.234 16.302-2.723 5.392-5.879 10.749-8.14 16.35-.101.25.23.437.376.199 2.825-4.593 5.006-9.69 7.438-14.507 2.448-4.855 4.894-9.707 7.343-14.56 4.801-9.509 9.601-19.02 14.401-28.532 4.7-9.315 10.155-18.302 15.313-27.366 3.337-5.859 6.735-11.688 9.92-17.627.077-.144-.139-.256-.222-.119-6.475 10.693-12.537 21.652-18.728 32.508zm-1.548 7.995c-7.04 13.348-13.768 26.866-20.309 40.463-3.722 7.73-7.456 15.452-11.103 23.218-.148.315.306.559.48.255.265-.465.522-.935.78-1.406.145-.267-.258-.473-.415-.221-.286.457-.57.912-.845 1.372l.48.255c13.182-27.278 26.059-54.69 40.896-81.124C62.629 19.78 67.094 12.47 71.385 5.05c.113-.192-.182-.341-.301-.16-8.347 12.648-15.555 26.166-22.617 39.557z" fill="#154733"/><path d="M67.916 14.236a642.803 642.803 0 0 0-5.965 10.107 767.793 767.793 0 0 0-12.833 23.091C41.533 61.672 34.896 76.276 28.38 91.018c-2.772 6.273-6.416 12.096-8.781 18.562-.143.391.492.53.637.14 2.192-5.999 5.563-11.393 8.16-17.195 2.546-5.679 4.951-11.422 7.52-17.094 7.453-16.446 16-32.374 24.967-48.042a694.61 694.61 0 0 1 6.605-11.322c1.864-3.121 3.931-6.183 5.578-9.422.054-.107-.1-.232-.178-.13-1.871 2.408-3.398 5.11-4.971 7.72z" fill="#154733"/><path d="M15.822 111.616c1.299.79 2.77 2.12 4.281 2.327.558.077 1.214-.56.79-1.11-.986-1.277-2.87-1.953-4.322-2.625-1.597-.737-3.212-1.293-4.881-1.822-.41-.131-.614.495-.258.694a123.87 123.87 0 0 1 4.39 2.536z" fill="#00E07D"/><g transform="rotate(28 45.414 96.183)"><mask id="d" fill="#fff"><use xlink:href="#c"/></mask><path d="M2.021 98.643c-2.807 7.654-.354 16.466 3.48 23.326 4.528 8.092 13.411 10.81 16.664 11.368 6.484 1.108 14.56.812 20.552-2.482 2.803-1.544 5.481-4.236 7.22-6.865 2.071-3.138 3.272-6.588 3.836-10.34.555-3.704-.165-7.357-.813-10.997-.653-3.66-3.057-8.95-5.582-11.827-.561-.64 1.395 5.562 1.685 6.902.325 1.497.198 2.628.459 4.137.45 2.599.503 5.538-.023 8.128-1.152 5.651-1.695 9.926-8.275 13.997-4.117 2.544-10.866 4.014-15.463 3.669-2.713-.206-5.514-.607-8.119-1.435-2.963-.943-5.285-3.104-7.13-5.544-2.246-2.966-4.053-6.365-5.331-9.856-1.4-3.811-2.58-8.029-2.618-12.108-.003-.323-.437-.357-.542-.073" fill="#181617" mask="url(#d)"/></g></g></svg>