<svg width="65" height="143" viewBox="0 0 65 143" xmlns="http://www.w3.org/2000/svg" xmlns:xlink="http://www.w3.org/1999/xlink"><title>Group 17</title><defs><path id="a" d="M0 34.266V.34h45.26v33.926z"/><path id="c" d="M23.684.112v16.732H.914V.112h22.77z"/><path id="e" d="M23.796 6.08H.73V0h23.066v6.08z"/></defs><g fill="none" fill-rule="evenodd"><path d="M40.634 105.538c.055-1.784.621-7.901.521-12.116.205-2.737.205-1.685.205-2.737 0-1.642 2.178-1.265 5.99-5.537 1.045-1.172 3.041-4.129 3.423-2.68.606 2.303.813 8.152.476 10.52-.298 2.099-.924 4.145-1.566 6.156-1.336 4.177-1.891 6.709-5.521 10.292-2.399 2.365-5.253 4.492-4.78 1.748.171-.999 1.061-4.651 1.252-5.646M5.979 111.61c.457 0 .853.116 1.185.31 1.087-.832 2.863-.947 4.055-.964 1.445-.018 2.6.895 2.424 2.257-.51 4.002-1.492 4.931-1.86 6.24-.454 1.627-2.13 1.588-2.963.587-.193.497-.379.999-.538 1.507.007.338.009.673.004 1.006-.013 1.288-.114 2.59-.221 3.872-.106 1.265-.11 2.7-.867 3.76-.35.49-1.154.795-1.611.212-.807-1.029-.939-2.23-1.107-3.512-.181-1.359-.352-2.746-.44-4.117-.167-2.62-.44-5.396-.91-7.976-.294-1.612 1.153-3.181 2.849-3.181" fill="#FFDA00"/><path d="M10.009 133.98c.333-.352.8-.596 1.292-.699a3.045 3.045 0 0 1-1.557-.842c-1.007-1.002-1.267-2.716-.51-3.94a41.963 41.963 0 0 0 6.26-21.01c.099-3.966-.237-7.185-1.152-10.883-.177-.715-.532-2.037-.69-2.381-.414-.888-.923-1.337-1.562-2.129-1.375-1.709-2.438-3.494-3.233-5.54-.8-2.062-1.2-4.322-1.233-6.533-.037-2.41.244-4.898 1.575-6.945.79-1.208 2.231-1.878 3.664-1.486.858.234 1.732.957 2.148 1.833a2.97 2.97 0 0 1 .15-.071 3.66 3.66 0 0 1 .95-.246c.346-1.14 1.184-2.145 2.402-2.422 1.426-.324 2.65.147 3.576 1.142a2.87 2.87 0 0 1 .594-.206 4.012 4.012 0 0 1 1.508-.037c.66-1.085 1.92-1.659 3.147-1.617.303-1.143 1.212-2.177 2.375-2.441a3.965 3.965 0 0 1 2.137.126c.45-.711 1.154-1.273 1.95-1.454a4.005 4.005 0 0 1 2.175.14c.58-.663 1.396-1.104 2.305-1.11.156-1.572 1.582-2.848 3.176-2.848 1.267 0 2.235.693 2.762 1.684a4.733 4.733 0 0 0-.589-1.445c-.763-1.243.925-2.404 1.953-1.5.179.16.35.325.508.497.405-.273.929-.344 1.375-.018 1.256.91 1.842 2.478 2.42 3.875a19.487 19.487 0 0 1 1.31 4.778c.449 3.157.23 6.332-.984 9.303-1.074 2.633-2.71 5.042-4.951 6.824a15.25 15.25 0 0 1-3.818 2.246c-.212.085-.51.237-.816.363.016.413-.044.885-.042 1.238.042 7.091-.041 14.302-1.743 21.234-1.612 6.566-5.501 11.98-9.87 17.017-2.146 2.476-4.382 5.632-7.77 6.204.458.282.852.683 1.194 1.176.391.57.453 1.33.265 2.026.982.22 1.966.436 2.953.635.78.156 1.561.301 2.34.455.882.172 1.592.502 2.432.764 1.163.36 1.198 2.039 0 2.388-.876.252-1.569.52-2.493.624-.876.096-1.785.128-2.67.126-1.766 0-3.514-.168-5.262-.434-3.41-.516-6.683-1.493-9.882-2.775-1.939-.78-2.553-2.818-1.18-4.458.354-.424.734-.823 1.11-1.227" fill="#FFDA00"/><g transform="matrix(-1 0 0 1 65 0)"><mask id="b" fill="#fff"><use xlink:href="#a"/></mask><path d="M45.231 32.582c-.346-1.809-.006.522-1.431-.231-1.518-.8-5.114-4.568-6.6-5.433-2.86-1.664-6.433-4.756-9.191-6.593-5.543-3.69-8.807-6.53-14.92-10.972-1.551-1.126-3.79-2.622-5.205-3.92-1.01-.928-2.672-1.944-2.84-2.578-.292-1.1-.8-2.547-1.339-2.515-.8.05-1.22.788-1.388 1.476a.778.778 0 0 0-.183.268C1.98 2.444.582 5.537.288 6.407c-.3.88-.56 2.142.27 1.906 1.444-.412 2.325-.48 2.835-.89.29.457 3.814 2.067 8.743 5.428 10.235 6.978 28.341 18.882 29.521 19.5 1.73.911 1.101 2.64 3.04 1.585.48-.261.634-.846.534-1.354" fill="#FFDA00" mask="url(#b)"/></g><path d="M52.169 10.663c1.598-.174 3.419.645 4.667 1.528 1.406.99 2.551 2.225 3.194 3.791 1.222 2.962-.243 5.892-2.655 7.828-2.521 2.02-5.472 3.64-8.384 5.084a65.825 65.825 0 0 1-9.707 3.888c-1.662.515-3.386.912-5.118.459-1.372-.36-2.62-1.184-3.552-2.197-.953-1.037-2.194-2.598-1.767-4.079.456-1.59 2.183-1.304 3.104-.256.857.979 1.435 2.208 2.69 2.801 1.296.611 2.729.002 3.995-.406a59.774 59.774 0 0 0 9.448-3.963 61.469 61.469 0 0 0 4.964-2.899c1.159-.754 2.484-1.59 3.161-2.803 1.853-3.339-3.556-5.031-5.043-7.108-.549-.77.208-1.58 1.003-1.668" fill="#FFDA00"/><path d="M43.86 35.167c-.063-.35-.033-.195 0 0" fill="#FFF"/><path d="M11.096 39.846l.01-.016a.047.047 0 0 0-.01.016zM4.791 54.148c.25-3.15.827-6.324 2.398-9.1.728-1.293 1.727-2.395 2.696-3.506.47-.537.655-.726.966-1.244.085-.14.163-.284.234-.431v-.002c-.026.043-.03.032-.01-.037a1.175 1.175 0 0 1-.032-.13c-.568-1.993 1.45-4.387 3.56-3.585 2.274.864 4.543 1.73 6.77 2.67a1.28 1.28 0 0 1 .725-.12c1.138.135 2.327.252 3.447.506 1.06.242 2.132.719 3.14 1.129 2.05.836 4.104 1.779 5.986 2.954.096.058.188.12.282.18.204-.002.41-.005.616-.014.27-.011.54-.03.81-.048l.133-.01c.021-.006.067-.016.142-.032.495-.099.985-.216 1.466-.369.213-.066.421-.14.632-.22.12-.045.195-.07.247-.086a1.77 1.77 0 0 1 .239-.138c7.42-3.623 3.636-12.249 2.95-14.079.004.012-.078-.198-.108-.28-.071-.153-.216-.475-.24-.524a17.47 17.47 0 0 0-.66-1.182c-.284-.477-.596-.943-.82-1.447a4.743 4.743 0 0 1-.225-.586 2.354 2.354 0 0 1-.112-.576c-.039-.373-.053-.4-.041-.083-.726-1.371.467-2.685 1.876-2.452.476.08.916-.004 1.42.134.593.159 1.094.484 1.584.839.928.675 1.709 1.505 2.421 2.401a18.214 18.214 0 0 1 3.254 6.46c1.278 4.625 1.237 9.566-.684 13.997-1.226 2.835-3.335 4.932-5.824 6.522.19.233.375.463.558.698 1.455 1.86 3.07 4.03 3.708 6.342.387 1.402.369 2.999-.352 4.296-.802 1.443-2.126 2.155-3.623 2.694-5.31 1.917-10.663 3.703-16 5.55-6.011 2.078-12.002 4.26-18.074 6.157-1.587.498-3.723-.588-4.037-2.307-1.253-6.847-1.974-13.98-1.418-20.941z" fill="#00E07D"/><path d="M11.455 23.949c.28-.532.74-.957 1.35-1.076 2.141-.413 3.955 1.02 6.069 1.478.998.217 5.037 1.187 5.926 1.69.592.335-1.425 2.806-1.514 3.016.116.103.228.208.337.322.424.45.813.96 1.12 1.496.665 1.162 1.054 2.558.991 3.907-.145 3.163-2.63 5.47-5.56 6.056-6.226 1.247-12.144-3.48-12.54-9.933-.169-2.75 1.23-5.878 3.82-6.956" fill="#000"/><g transform="matrix(-1 0 0 1 24.23 14.805)"><mask id="d" fill="#fff"><use xlink:href="#c"/></mask><path d="M18.621.81c-2.406-.864-7.843.02-8.856 2.888A98.372 98.372 0 0 0 3.25.31C1.355-.59.025 1.804 1.633 3.012 4.169 4.92 6.557 7.07 8.944 9.16c2.432 2.13 4.585 4.498 6.884 6.757 1.263 1.24 3.426 1.234 4.688 0 .269-.262 2.406-2.66 2.724-4.026 1.257-5.41-.105-9.462-4.619-11.08" fill="#FFDA00" mask="url(#d)"/></g><path d="M43.86 22.675c.003-1.501-.554-6.076-2.478-5.953-1.92.124-5.46 1.248-5.037 2.974.425 1.729 1.931 4.781 3.229 4.617 1.3-.165 4.286-.77 4.286-1.638" fill="#000"/><path d="M33.414 21.215c0 .806.65 1.457 1.447 1.457.8 0 1.45-.651 1.45-1.457 0-.805-.65-1.456-1.45-1.456-.797 0-1.447.65-1.447 1.456m-3.023 1.52c0 .806.65 1.46 1.447 1.46.803 0 1.453-.654 1.453-1.46 0-.805-.65-1.456-1.453-1.456-.797 0-1.447.65-1.447 1.456" fill="#FFDC9C"/><path d="M28.884 24.258c0 .806.65 1.456 1.447 1.456.8 0 1.45-.65 1.45-1.456 0-.805-.65-1.459-1.45-1.459-.797 0-1.447.654-1.447 1.46" fill="#FFDC9C"/><path d="M16.68 32.679a2.273 2.273 0 0 0 2.266 2.28 2.272 2.272 0 0 0 2.265-2.28 2.272 2.272 0 0 0-2.265-2.28 2.273 2.273 0 0 0-2.265 2.28" fill="#EB495F"/><path d="M42.074 52.374c-.546.243-.962.838-1.371 1.24-.454.447-.929.848-1.46 1.21-1.155.788-2.423 1.396-3.756 1.864-2.707.957-5.582 1.236-8.446.98-3.04-.27-5.991-.997-8.853-1.994-2.31-.803-6.22-1.841-7.322-4.203-.958-2.052 1.336-3.695 3.168-2.335.89.66 1.5 1.33 2.547 1.822 1.135.533 2.32.978 3.507 1.397 2.594.917 5.312 1.669 8.08 1.867 2.434.174 4.927.045 7.279-.61 1.2-.336 2.288-.81 3.394-1.367 1.025-.516 1.77-.98 2.961-.832.459.058.82.718.272.96" fill="#154733"/><path d="M17.348 25.874c.686.625 1.169 1.549.574 2.355-.507.69-1.546.839-2.307.408-.429-.24 0-.84.399-.581.815.532 1.718-.248 1.63-1.02-.045-.385-.253-.71-.51-1.02-.097-.109.109-.24.214-.142" fill="#FFF"/><g transform="matrix(-1 0 0 1 31.78 136.795)"><mask id="f" fill="#fff"><use xlink:href="#e"/></mask><path d="M11.836 5.601c3.46-.57 6.781-1.649 10.027-3.068 1.14-.496 1.823-1.459 1.933-2.533-3.972 1.611-8.119 2.888-12.22 4.005a24.493 24.493 0 0 1-6.533.882c-1.38.002-2.887-.157-4.313.035.138.145.313.259.528.327.889.281 1.591.578 2.53.69a22.5 22.5 0 0 0 2.709.141c1.792-.002 3.565-.187 5.339-.479" fill="#000" mask="url(#f)"/></g><path d="M3.956 121.621c-.153-2.588-.4-5.332-.83-7.882-.19-1.129.418-2.235 1.338-2.783.69 2.372.732 5.173.946 7.524.143 1.576.29 3.15.425 4.727.14 1.652.56 3.68-.031 5.262a2.604 2.604 0 0 1-.412.726l-.029-.034c-.734-1.019-.854-2.207-1.007-3.47-.166-1.346-.32-2.715-.4-4.07" fill="#000"/></g></svg>