<svg width="95" height="127" viewBox="0 0 95 127" xmlns="http://www.w3.org/2000/svg" xmlns:xlink="http://www.w3.org/1999/xlink"><title>Group 12</title><defs><path id="a" d="M4.503 5.832H.493V.709h4.01z"/><path id="c" d="M0 .657v26.67h27.608V.656z"/><path id="e" d="M.172.371h7.534v8.17H.172V.371z"/><path id="g" d="M4.67 3.949H.707V.043H4.67V3.95z"/><path d="M39.254.573c1.73 1.167 3.06 2.925 4.026 4.734a29.805 29.805 0 0 1 1.542 3.356H.774c.18-1.127.482-2.22 1.047-3.246C3.113 3.072 5.58 1.413 8.173.817c.496-.113.994-.193 1.495-.244h2.683c1.625.155 3.23.575 4.755 1.164a55.102 55.102 0 0 1 4.5 1.974c.504.25.877.364 1.444.541.297.095.297.123.773.08-.198.019-.154 0-.063-.017.091-.023.23-.039.21-.023.385-.182.82-.754 1.225-1.165a14.44 14.44 0 0 1 1.313-1.193 14.036 14.036 0 0 1 2.008-1.36h10.738z" id="i"/><path d="M36.607 5.24c-1.082-1.712-2.515-3.272-4.329-4.188a9.285 9.285 0 0 0-4.227-.999 10.68 10.68 0 0 0-4.108.845 14.004 14.004 0 0 0-3.47 2.07c-.463.37-.9.77-1.312 1.192-.354.36-.733.843-1.08 1.08h18.526zM.693 2.298c.473-.186.957-.336 1.446-.448 2.997-.683 6.102-.174 8.933.92a55.102 55.102 0 0 1 4.5 1.974c.46.227.811.342 1.3.496H.694V2.298z" id="k"/><path d="M43.787.466c1.088 2.215 1.978 4.65 2.15 7.088a8.635 8.635 0 0 1-.078 1.89H.752C.7 9.167.656 8.884.619 8.596.43 7.088.476 5.587.62 4.071.74 2.83.941 1.614 1.404.466h42.383z" id="m"/><path d="M45.672.702c.13.621.22 1.246.265 1.87.156 2.248-.596 4.299-1.714 6.167H2.33C1.478 7.286.869 5.58.619 3.615A17.808 17.808 0 0 1 .51.702h45.163z" id="o"/><path d="M45.785.937c-.436 2.197-1.648 4.185-3.024 5.983a20.972 20.972 0 0 1-2.048 2.326H22.835a10.535 10.535 0 0 0-.28-.076c-.135-.031-1.028-.15-.706-.138-.234-.012-.464-.027-.706-.02-.02 0-.635.064-.623.052a11.92 11.92 0 0 0-.828.182H6.742C4.018 7.596 1.688 4.833.838.937h44.947z" id="q"/><path d="M20.032 5.07a7.698 7.698 0 0 1-.546.045c-.25.044-.5.103-.746.162-1.253.308-2.458.774-3.695 1.125-2.796.786-5.56.778-8.2-.49-2.39-1.144-4.601-3.09-5.97-5.85h19.157v5.009z" id="s"/><path d="M19.157.07c-1.53 1.783-3.319 3.283-5.58 4.125-.475.177-.96.308-1.451.397H8.632a12.946 12.946 0 0 1-2.593-.72C4.73 3.357 3.477 2.745 2.205 2.157c-.19-.087-.381-.17-.567-.253a12.656 12.656 0 0 1-.516-.213c-.239-.087-.479-.17-.721-.246V.07h18.756z" id="u"/></defs><g fill="none" fill-rule="evenodd"><path d="M38.541 123.452c.766-1.251.595-2.993.663-4.398.075-1.473.095-2.946.154-4.419.127-3.135.25-6.27.4-9.405.151-3.072.413-6.14.77-9.2.163-1.43.345-2.756.57-4.186.219-1.402.282-3.12.834-4.43l-.75 1.283a8.71 8.71 0 0 1-.285.174c1.19-.798 1.788-2.235 1.185-3.597-.583-1.323-1.986-2.034-3.418-1.67-2.387.6-2.557 2.894-2.847 4.892a144.403 144.403 0 0 0-.682 5.516c-.345 3.3-.539 6.61-.598 9.93-.056 3.302.047 6.678.471 9.955.226 1.753.44 3.518.81 5.247.313 1.461.495 3.337 1.593 4.454.33.336.889.245 1.13-.146m16.294-.314c.71-1.417.179-3.336-.07-4.829-.278-1.67-.588-3.34-.881-5.015-.567-3.21-1.202-6.42-1.92-9.599-.693-3.095-1.383-6.195-2.152-9.27a65.447 65.447 0 0 0-1.238-4.407c-.622-1.92-1.173-3.858-3.223-4.656-1.174-.458-2.245.521-2.649 1.497-.65 1.583.397 3.395.904 4.888.488 1.45.908 2.914 1.3 4.39.821 3.069 1.527 6.172 2.34 9.24a256.285 256.285 0 0 0 2.669 9.398c.476 1.556.931 3.12 1.431 4.667.456 1.406.853 3.14 2.086 4.063.424.316 1.173.087 1.403-.367" fill="#FFDC9C"/><g transform="translate(51.547 121.002)"><mask id="b" fill="#fff"><use xlink:href="#a"/></mask><path d="M.93 3.357l.048.351a.927.927 0 0 1-.048-.351m3.125-1.528a1.762 1.762 0 0 0-.61-.608c.043.023.082.047.126.07a2.03 2.03 0 0 0-.436-.32C2.75.787 2.663.756 2.857.882c-.444-.201-.892-.257-1.336 0a1.287 1.287 0 0 0-.266.21v-.005c-.004.004-.012.012-.015.02-.147.15-.266.34-.33.541-.392.73-.392 1.78-.416 2.531C.44 5.536 1.957 6.184 3.048 5.64c.844-.422 1.455-1.465 1.455-2.409 0-.485-.187-1.006-.448-1.401" fill="#000" mask="url(#b)"/></g><path d="M55.335 52.612c.246-1.832-.781-3.629-1.701-5.137-.924-1.517-1.979-2.978-3.021-4.41-1.075-1.466-2.237-2.88-3.518-4.17a23.06 23.06 0 0 0-1.958-1.766c-.742-.596-1.547-1.35-2.522-1.496-.773-.119-1.507.016-2.007.683-.44.588-.57 1.465-.15 2.112.563.861 1.4 1.3 2.196 1.908.56.43 1.095.9 1.61 1.378 1.174 1.093 2.229 2.294 3.268 3.506 1.05 1.22 2.042 2.484 3.049 3.735 1.07 1.327 1.875 2.725 2.7 4.21.587 1.05 1.92.434 2.054-.553" fill="#FFDC9C"/><path d="M49.887 90.082c-.08-.568.297-10.428-1.396-15.47-.103-.312-1.967-11.854-2.149-13.457-.377-3.328-.67-6.673-.956-10.013-.3-3.586-.515-7.127.425-10.476.448-1.599-.21-3.636-1.63-4.217-2.395-2.7-6.701-3.127-10.246-2.732-4.679.513-8.323 3.19-11.852 6.092-1.09.9.306 2.535 1.471 1.9.35-.19.702-.38 1.055-.569.178.604-.642 1.252-.1 1.5 2.027.94 3.538 1.536 4.823 3.16.388 1.346 2.133 3.237 2.58 4.568.52 3.068.818 6.152.917 9.346.214 6.68-1.126 13.378-.536 20.043.322 3.629 2.736 10.768 2.705 11.02-.587 4.687 1.614 4.308 3.62 3.605 1.51-.525 7.914-.387 9.247-.754 1.669-.454 2.24-1.994 2.022-3.546" fill="#FFF"/><path d="M28.95 24.18c.055 2.175.384 4.264.928 6.4.487 1.93.634 4.869 2.914 6.018 1.098.552 2.97.059 3.2-1.035.238-1.133-.222-2.037-.603-3.115-.353-1.015-.765-2.01-1.17-3.01a30.658 30.658 0 0 0-3.021-5.744c-.56-.841-2.268-.447-2.248.485" fill="#FFDC9C"/><path d="M13.573 123.267c.944-.462 1.638-1.508 2.213-2.365.678-1.015 1.181-2.124 1.645-3.25.94-2.306 1.27-4.79 1.547-7.25.547-4.868 1.019-9.744 1.003-14.648a70.648 70.648 0 0 0-.107-3.665c-.087-1.453-.091-3.13-1.178-4.244-.98-1.003-2.526-.9-3.29.3-.822 1.283-.493 2.89-.401 4.312.317 4.888.027 9.796-.159 14.684-.103 2.693-.222 5.378-.781 8.024a39.363 39.363 0 0 1-.92 3.557c-.36 1.177-1.031 2.468-1.039 3.708-.004.778.82 1.153 1.467.837m10.389-.377c2.102-2.449 2.879-6.117 3.434-9.232.627-3.491.991-7.01 1.07-10.555.076-3.522-.198-7.013-.677-10.503a71.933 71.933 0 0 0-.865-5.027c-.396-1.88-.618-4.402-2.39-5.468-1.083-.652-2.729-.28-3.324.868-.602 1.15-.444 2.101-.138 3.29.202.793.408 1.587.598 2.388a69.19 69.19 0 0 1 .96 4.822c.52 3.178.773 6.412.888 9.63.115 3.27.02 6.559-.265 9.82-.143 1.615-.282 3.238-.456 4.853-.175 1.63-.31 3.19-.02 4.801.09.51.852.695 1.185.312" fill="#FFDA00"/><path d="M18.97 122.21c-.404-.094-.891-.489-1.28-.65a10.714 10.714 0 0 0-1.606-.553c-1.003-.25-2.11-.344-3.12-.06-1.003.28-1.86.936-2.229 1.923-.365.987.131 1.931-.138 2.89-.242.854.82 1.395 1.435.834.535-.482.733-1.098.924-1.765.139-.462.13-.928.67-1.007 1.027-.15 2.066.505 2.787 1.232.552 1.374 2.423 1.789 3.502.715 1.106-1.098.638-3.19-.944-3.558m10.188-.984c.797-.154.496-.027.048-.158-.27-.079-.54-.161-.81-.233a20.17 20.17 0 0 0-1.665-.359c-1.078-.19-2.232-.434-3.279-.031-1.13.434-1.479 1.48-1.344 2.598.063.545.238 1.086.523 1.555.298.478.686.628 1.126.928.27.186.686-.004.758-.308.107-.43.329-.774.392-1.224.008-.055.012-.134.016-.209a20.2 20.2 0 0 1 1.428.584c.971.447 1.816 1.145 2.807 1.509 1.503.549 3.065-.861 3.065-2.326 0-1.639-1.534-2.618-3.065-2.326" fill="#00E07D"/><path d="M64.528 124.729c.412-1.49 1.15-2.733 1.249-4.304.1-1.544-.032-3.132-.25-4.66-.436-3.087-1.483-5.89-2.538-8.805-1.019-2.82-1.074-5.82-1.229-8.778-.083-1.587-.162-3.174-.246-4.762-.095-1.86-.015-3.928-.809-5.63-1.05-2.259-4.56-1.516-5.154.671-.432 1.607.035 3.51.234 5.141.194 1.591.388 3.175.579 4.766.392 3.234.694 6.389 2.002 9.405 1.15 2.646 2.316 5.248 3.025 8.055.37 1.446.659 2.907.869 4.38.095.667.166 1.346.377 1.99.277.837.61 1.464.701 2.369.064.647 1 .86 1.19.162m21.653-5.555c.829-2.535-.313-5.078-1.665-7.23-1.451-2.306-3.458-4.161-5.456-5.99-.94-.864-1.915-1.694-2.84-2.582a24.97 24.97 0 0 1-1.375-1.425c-.5-.561-.635-.715-.976-1.213-1.601-2.306-2.18-4.797-2.839-7.605a56.227 56.227 0 0 1-.979-5.192c.008.079.032.288-.012-.075a43.24 43.24 0 0 1-.091-.723 89.148 89.148 0 0 1-.147-1.445c-.095-1.07-.158-2.128-.321-3.186-.23-1.516-2.042-2.4-3.41-2.22-1.55.21-2.649 1.49-2.7 3.045-.052 1.714.273 3.483.507 5.177.21 1.5.468 2.997.79 4.477.665 3.072 1.534 6.196 3.148 8.92 1.411 2.377 3.41 4.32 5.547 6.045 2.05 1.655 4.255 3.045 6.19 4.798 1.019.916 2.073 1.867 2.878 2.985.829 1.145 1.507 2.432 2.248 3.633.385.616 1.285.473 1.503-.194" fill="#000"/><path d="M58.317 126.527c1.415-.189 2.847-.244 4.23-.612 1.202-.315 2.59-.663 3.205-1.844.452-.872.23-1.982-.659-2.495-.78-.454-2.105-.253-2.51.655-.067.158-.15.352-.253.498-.12.162.142-.087-.167.126-.46.324-.96.597-1.435.9-.956.613-1.824 1.229-2.867 1.69-.678.3-.139 1.165.456 1.082m24.41-3.499c.547.056 1.392-.383 1.832-.675.809-.545 1.328-1.216 1.673-2.124.611-1.603.647-4.162-.654-5.445-.638-.632-1.614-.289-1.891.497-.571 1.6.484 3.262-.61 4.794-.413.572-.937.99-1.083 1.721-.107.561.103 1.165.733 1.232" fill="#FFDA00"/><path d="M29.391 81.102c-.8-3.135-1.55-5.895-1.094-9.133.5-3.613 1.832-7.068 2.026-10.732.187-3.424-.702-6.804-2.95-9.441-2.014-2.366-5.793-4.08-8.803-2.63-3.188 1.54-3.021 6.002-2.66 8.979.36 2.985 1.249 6.006 1.507 8.927.237 2.646-.17 5.003-1.864 7.049-2.106 2.554-4.667 4.679-5.952 7.806-.694 1.686-.836 3.617-.694 5.421.1 1.216.508 8.099 3.01 8.095 5.523-.008 11.126-.77 16.51-1.97.845-.186 1.753-1.02 1.9-1.892.607-3.581-.047-7-.936-10.48" fill="#000"/><path d="M19.61 45.004c-.21 1.567.004 3.218.024 4.797.02 1.493-.052 3.262 1.13 4.36a.867.867 0 0 0 1.011.13c1.594-.909 1.733-3.037 1.602-4.668-.143-1.769-.468-3.75-1.507-5.227-.73-1.043-2.105-.577-2.26.608" fill="#FFDA00"/><path d="M25.743 37.95c-.317-3.874-3.128-7.432-6.8-8.739-1.982-.707-4.294-.45-5.805 1.102-.65.667-1.082 1.516-1.344 2.428-.46.395-.662 1.11-.718 1.69-.178 1.876.21 3.862.686 5.678.877 3.388 3.398 6.495 7.249 6.144 4.215-.391 7.07-4.166 6.732-8.304" fill="#FFDA00"/><g transform="translate(0 21.255)"><mask id="d" fill="#fff"><use xlink:href="#c"/></mask><path d="M25.469 9.153c.008.004.016.02.02.044-.008-.016-.012-.032-.02-.044zM2.602 11.38c-.008-.008-.012-.011-.016-.02l.012.016.004.004zm24.12-4.28c-.623-.572-1.527-.817-2.395-.738a10.33 10.33 0 0 0-.413-.695c-.84-1.323-2.062-2.74-3.68-3.202-1.094-.312-2.07-.075-2.755.493a3.18 3.18 0 0 0-.282-.663C15.766-.19 11.77.293 10.718 2.788a3.326 3.326 0 0 0-1.562-.849c-1.53-.343-3.089.439-3.894 1.679-.638.987-.852 2.313-.4 3.411-1.404-.695-3.482-.087-3.823 1.536-.115.545-.146 1.098.032 1.635.155.458.424.92.781 1.275-.472.138-.848.45-1.154.857-.491.655-.495 1.647-.214 2.377a3.9 3.9 0 0 0 .761 1.224 4.964 4.964 0 0 0-.23.146c-.432.32-.812.778-.935 1.3a2.78 2.78 0 0 0 0 1.326c.154.651.662 1.117 1.197 1.493.512.35 1.162.544 1.828.576-.004.095-.004.19-.004.28-.075.739.095 1.481.496 2.18.587 1.023 2.074 1.627 3.251 1.26.234-.072.464-.17.678-.285a2.004 2.004 0 0 0-.043.41c0 .601.226 1.166.602 1.636.31.379.667.643 1.13.833.54.213 1.273.34 1.84.134.555-.201 1.047-.395 1.467-.817.127-.123.23-.245.322-.38.134.103.265.198.404.277.373.213.88.34 1.312.34a2.67 2.67 0 0 0 1.575-.534 3 3 0 0 0 .472-.446c.075.103.166.202.261.296l.563.415c.428.237.896.36 1.396.363.38.012.738-.063 1.067-.229a2.01 2.01 0 0 0 .888-.549c.273-.236.468-.52.575-.848.174-.316.254-.656.238-1.02-.032-.232-.064-.465-.1-.702a2.59 2.59 0 0 0-.713-1.165c-.187-.138-.369-.276-.555-.414-.436-.237-.9-.36-1.4-.36-.38-.016-.738.06-1.067.225a2.14 2.14 0 0 0-.892.55 2.282 2.282 0 0 0-.25.268c-.015-.04-.04-.08-.06-.119.235-.766.132-1.563-.415-2.243a2.408 2.408 0 0 0-.742-.62 2.27 2.27 0 0 0-.424-.402c.051-.344.04-.695-.072-1.023a3.186 3.186 0 0 0-.721-1.185 2.738 2.738 0 0 0-.19-.17 1.805 1.805 0 0 0-.21-.216 2.719 2.719 0 0 0-.477-.328c.096-.593.028-1.189-.222-1.706.016-.11.024-.221.028-.332.476-.94.31-2.041-.555-2.839a2.04 2.04 0 0 0 .587-.616c.29-.477.38-1.105.222-1.654.048-.119.091-.241.123-.363.04-.162.063-.328.095-.49.016.004.028.004.044.008.027.367.198.722.432 1.01.103.127.186.238.313.34.31.25.607.454 1.007.545.42.099.81.063 1.23-.016.666-.126 1.213-.722 1.387-1.322.052-.182.072-.375.064-.573.182.138.376.257.579.367.646.853 1.958 1.244 2.938.691-.032 1 .436 1.998 1.352 2.634.163.115.333.19.511.233-.027.343.16.73.552.786.733.102 1.157.102 1.816-.3.59-.364 1.062-.924 1.372-1.525.626-1.212.634-2.96-.46-3.964z" fill="#000" mask="url(#d)"/></g><path d="M52.241 21.68c-2.57-1.35-5.345-.102-6.431 2.405-.476.573-.825 1.276-1.063 2.006-.646 2.022-.948 4.371-.761 6.492.218 2.48 1.8 4.505 4.46 4.525 2.36.015 4.152-1.615 5.341-3.487 2.225-3.494 2.752-9.69-1.546-11.94" fill="#000"/><path d="M47.92 33.023a23.064 23.064 0 0 1 2.177 3.838c.559 1.248 1.027 3.056 2.355 3.708.595.288 1.467.201 1.792-.47.781-1.619-.178-3.455-1.062-4.845-.885-1.398-1.983-2.685-3.157-3.85-1.043-1.034-3.001.344-2.105 1.62" fill="#000"/><path d="M73.322 83.728c.23-1.686.646-3.91.694-5.832.087-3.85-1.384-7.337-3.295-10.606-.865-1.473-1.793-2.914-2.617-4.41-.944-1.71-1.467-2.895-2.038-4.62a29.644 29.644 0 0 1-.738-2.61 28.666 28.666 0 0 1-.238-1.161 13.04 13.04 0 0 1-.115-.667c-.012-.064-.063-.403-.075-.478-.226-1.876-.111-3.712-.115-5.595-.004-1.339-.393-2.622-1.344-3.601-.766-.782-1.3-2.156-2.26-2.642-2.082-1.066-3.383-1.43-5.453-2.527-1.467-.782-4.54.205-5.095 1.737-.416.419-.809.85-1.102 1.378a31.555 31.555 0 0 0-1.075 2.093c-.741 1.58-1.324 3.127-1.717 4.83-.384 1.673-.809 3.494-.214 5.168.321.888 3.256 2.97 4.001 3.494-.02.225 4.703 11.735 4.485 14.428-.095 1.165-.67 2.824-1.095 4.166-.543 1.733-.96 3.451-1.102 5.271-.262 3.368-.226 7.238 1.26 10.255.647 1.303 19.458-1.37 19.272-2.788-.23-1.75-.234-3.74-.024-5.283" fill="#FFDA00"/><path d="M60.563 73.872c2.787 1.16 6.142-.952 8.14-2.756 2.268-2.05 3.894-4.833 4.6-7.799 1.467-6.207-.79-12.955-5.845-16.9-1.376-1.073-2.855-1.982-4.322-2.937-1.507-.983-3.061-2.184-4.865-2.37-.968-.102-1.915.933-1.864 1.857.048.864.436 1.334.73 1.998.317.714.825 1.228 1.42 1.725 1.102.916 2.363 1.639 3.572 2.409 2.002 1.275 3.648 2.622 4.861 4.592 2.419 3.937 2.356 8.69-.051 12.793a17.456 17.456 0 0 1-2.38 3.183c-.844.904-1.966 2.187-3.354 1.875-1.562-.355-2.05 1.746-.642 2.33" fill="#000"/><path d="M94.553 23.827c-.198-2.808-1.348-5.611-2.657-8.075-1.134-2.128-2.771-4.182-4.968-5.291-2.649-1.335-5.63-1.276-8.335-.15a13.87 13.87 0 0 0-3.47 2.065c-.463.371-.9.77-1.312 1.192-.404.411-.837.988-1.225 1.17.047-.04-.547.074-.147.039-.472.04-.472.011-.773-.083-.567-.178-.94-.292-1.443-.541a57.967 57.967 0 0 0-4.5-1.975c-2.832-1.093-5.94-1.603-8.934-.916-2.594.597-5.064 2.251-6.352 4.597-.766 1.393-1.051 2.925-1.202 4.489-.143 1.512-.194 3.013 0 4.521.654 5.137 3.767 8.525 7.26 10.195 2.641 1.268 5.409 1.276 8.2.49 1.237-.348 2.443-.813 3.692-1.125.25-.06.495-.115.75-.162-.013.015.602-.052.622-.052.242-.004.472.008.706.02-.318-.012.57.107.705.138.448.115.889.26 1.325.419.04.02.468.197.515.213.187.083.377.17.567.257 1.27.584 2.526 1.196 3.835 1.71 2.383.931 5.095 1.231 7.537.323 2.693-1.003 4.715-2.937 6.428-5.172 1.844-2.409 3.398-5.161 3.176-8.296" fill="#FFF"/><path d="M24.78 20.038c0 .04 0 .083-.004.122l.626-1.09c.135-.03.278-.066.412-.102.322.13.639.26.956.395.226.249.135.304.103-.055-.024-.261-.095-.518-.15-.774a7.258 7.258 0 0 1-.123-1.209c-.016-.781.04-1.666.186-2.388.055-.261.115-.55.226-.79-.12.256.02-.004.087-.091.111-.146.266-.347.369-.426-.135.11.896-.494.448-.308.163-.068.337-.107.504-.162.46-.162-.096-.036.182-.052.178-.011.353-.008.535-.004.44.008-.353-.094.072.008.226.052.444.107.662.186-.282-.103-.076-.044.08.051.05.032.653.395.4.221-.203-.142.202.174.245.214.135.126.262.256.385.394.194.214-.119-.26.123.182.091.166.198.332.281.505-.174-.355.036.13.08.277.055.193.103.39.146.588.096.49-.011-.403 0 .095.008.257.012.51.008.762-.008.233-.06.41.008.079-.134.683-.301 1.327-.36 2.026 1.038-1.039 2.081-2.073 3.124-3.108l-.163.012c-1.328.099-2.402.833-2.803 2.124l-.047.146c-1.047 3.345 4.036 5.52 5.71 2.397 1.724-3.222.562-7.893-2.05-10.317-2.57-2.381-6.297-3.096-9.45-1.446-3.168 1.659-4.583 5.461-3.382 8.79.496 1.386 1.202 2.993 2.415 3.913.59.446 1.34.636 1.998.201.659-.442.889-1.307.448-1.982-.666-1.01-2.248-.624-2.287.616" fill="#FFDA00"/><g transform="translate(23.791 .48)"><mask id="f" fill="#fff"><use xlink:href="#e"/></mask><path d="M7.219 2.82C6.834 1.365 5.435.394 3.964.37 2.588.351 1.37 1.275.736 2.441.042 3.715-.037 5.255.645 6.55c.947 1.808 4.65 2.823 6.039 1.113.345-.422.602-.825.721-1.338.643-.885.1-2.433-.186-3.507" fill="#FFDA00" mask="url(#f)"/></g><path d="M37.496 21.216c-.19-3.313-2.296-6.914-5.337-8.414-1.769-.877-4.132-1.244-5.678.288-1.345 1.33-1.511 3.435-1.357 5.236.008.126.028.252.04.375-.155 1.22.036 2.606.19 3.652.246 1.639.659 3.266 1.793 4.533 1.07 1.2 2.83 1.832 4.42 1.714 3.665-.277 6.131-3.89 5.929-7.384" fill="#FFDC9C"/><path d="M44.559 28.488c-.25.759-2.538 2.527-2.538 3.033 0 .505 3.43 0 3.68.379.257.379-1.142-3.412-1.142-3.412" fill="#000"/><path d="M33.288 37.81c.266.956 1.142 2.943 1.63 3.807.52.916 1.114 1.331 1.356 1.461.456.257 1.744.028 2.248-.055.69-.114.61.395 1.09 1.035.04.05.08.094.123.134-.174.718-.027 1.319-.023 1.484.04 1.15.67 1.059.693 1.07-.043.352-.122 1.28-.099 1.71-.305.158-.848.616-.864.628-.876.53-1.003.762-1.13 1.343-.12.544-.044 1.125.004 1.674.043.564.091 1.125.13 1.686.04.485 7.221 71.883 7.725 71.95.476.064.963-.102 1.094-.568.056-.19-6.844-71.497-6.844-71.69 0-.134-.19-1.615-.253-2.239.035-.194.083-.205.13-.221a3.3 3.3 0 0 0 .322-.123c1.407-.548 1.748-1.125 1.792-1.212.337-.635-.06-1.323-.63-1.524-.04-.355-.108-.71-.155-1.058a9.137 9.137 0 0 0-.052-.348c.365-.185.48-.556.389-.92a41.666 41.666 0 0 0-.31-1.954.71.71 0 0 0-.055-.162c-.087-.344-.373-.569-.698-.648-.012-.11-.246-.505-.226-.651.02-.178 1.047-.975 1.174-1.062.38-.245.694-.707.646-1.173.091-.75-.967-3.131-1.122-3.558-.369-1.01-.773-2.08-1.348-2.997-.58-.912-1.206-1.765-2.28-1.863-.968-.091-2.026.256-2.946.545-.512.161-1.23.54-1.642.892-.436.375-.626.971-.587 1.532.08 1.035.44 2.08.718 3.076z" fill="#00E07D"/><path d="M39.424 41.528c-.484-.64-.777-1.402-1.11-2.125-.33-.71-.647-1.425-.964-2.144-.32-.714-.638-1.43-.955-2.148-.147-.327-.294-.66-.456-.987-.155-.32-.361-.584-.551-.884-.08-.127.099-.245.198-.154.246.213.396.545.527.829.15.32.286.651.436.975l1.035 2.235c.337.727.674 1.453 1 2.188.32.718.693 1.433.852 2.207.004.008-.008.012-.012.008m-1.394.248c-.444-.533-.694-1.212-.971-1.84-.298-.667-.599-1.335-.908-2.002-.61-1.33-1.237-2.653-1.864-3.972-.103-.21.202-.387.305-.182.655 1.33 1.281 2.673 1.896 4.024.305.667.61 1.334.908 2.002.273.624.607 1.26.69 1.946.004.028-.036.044-.056.024m-1.25.65c-.08-.138-.163-.237-.227-.387a10.379 10.379 0 0 1-.186-.49c-.13-.343-.286-.679-.436-1.014-.298-.64-.627-1.268-.944-1.896-.333-.655-.666-1.315-.995-1.97-.167-.336-.337-.675-.504-1.015-.139-.276-.376-.588-.388-.9-.004-.099.126-.19.214-.122.25.193.365.552.511.829.175.331.353.663.528.999.36.683.705 1.374 1.054 2.06.33.644.663 1.284.96 1.944.143.304.262.616.365.931.06.166.107.332.135.506.035.193.003.304-.004.501 0 .044-.064.067-.084.024" fill="#154733"/><path d="M41.128 44.178c.016.075.036.15.036.225 0 .13-.04.226-.151.3.04-.047.08-.102.119-.15-.008.016-.012.032-.02.048a.238.238 0 0 1-.456 0c-.008-.016-.012-.032-.02-.048.04.048.08.103.115.15a.335.335 0 0 1-.15-.3c.003-.075.023-.15.04-.225.05-.24.435-.244.487 0m.337 4.782c-.246.23-.547.407-.82.604-.227.166-.52.502-.822.442-.071-.011-.103-.082-.11-.146-.036-.323.443-.592.677-.734.298-.174.65-.332.996-.352.099-.007.15.123.079.186" fill="#FFF"/><path d="M40.493 41.07c-.69-1.299-1.237-2.669-1.82-4.015-.29-.671-.575-1.335-.868-2.002-.282-.652-.663-1.307-.86-1.99-.048-.174.205-.285.3-.127.346.6.548 1.307.813 1.947.29.687.575 1.378.865 2.065.567 1.355 1.17 2.705 1.626 4.099.011.031-.04.055-.056.023m.867-.55c-.345-.593-.55-1.264-.809-1.9-.285-.699-.587-1.394-.888-2.089-.29-.655-.59-1.307-.904-1.95-.159-.32-.317-.644-.48-.964-.162-.316-.349-.624-.456-.963-.04-.138.155-.269.254-.146.452.548.738 1.283 1.047 1.923.321.659.622 1.33.912 2.005.281.66.54 1.327.777 2.002.242.672.52 1.355.607 2.065.004.032-.044.04-.06.016" fill="#154733"/><path d="M17.275 50.855c-3.24-.442-4.211 5.378-4.354 7.826-.186 3.266.702 6.725 2.574 9.426 3.933 5.686 11.661 7.707 17.649 3.952 2.938-1.848 5.079-4.722 6.598-7.794.8-1.627 2.593-4.458.971-6.073a2.28 2.28 0 0 0-2.716-.348c-1.003.585-1.289 1.718-1.713 2.709-1.217 2.827-2.867 5.595-5.365 7.427-2.323 1.71-5.067 2.148-7.803 1.22-3.192-1.082-5.357-3.92-6.19-7.091a12.463 12.463 0 0 1-.281-4.932c.095-.675.285-1.402.578-2.022.338-.702.845-1.228 1.047-2.002.107-.422-.995-2.298-.995-2.298" fill="#FFDA00"/><path d="M38.177 56.907a10.41 10.41 0 0 0 .893 3.447c.436.984 1.986 1.252 2.827.691.912-.604 1.32-1.848.698-2.819a9.654 9.654 0 0 0-2.106-2.306c-.436-.343-.948-.497-1.487-.256-.46.209-.872.706-.825 1.243" fill="#FFDC9C"/><path d="M46.13 28.984c-.241.446.136.987.623 1.015.52.027 1.02-.498.948-1.011-.012-.095-.163-.15-.238-.095-.194.142-.325.363-.535.486-.195.106-.599.02-.496-.269.064-.177-.214-.288-.301-.126" fill="#FFF"/><path d="M44.42 34.55c.451.43 1.4-.059 1.74-.422.337-.36-.163-.826-.531-.533a3.196 3.196 0 0 1-.623.422c-.19.095-.444.146-.587.32-.051.06-.063.15 0 .213m1.158 1.918c.266-.02.476-.146.658-.34.159-.169.29-.441.238-.678a.165.165 0 0 0-.198-.11c-.087.027-.13.078-.194.122-.056.035-.111.059-.167.106a1.12 1.12 0 0 0-.119.119c-.142.154-.29.292-.392.473-.072.127.016.32.174.308M29.72 24.717c.084.099.952-.375 1.047-.414.175-.083.385-.222.587-.194.15.024.262.154.416.19.127.031.29-.04.318-.178.063-.344-.167-.557-.492-.636-.408-.102-.797.095-1.138.292-.282.162-.82.368-.971.687-.072.158-.04.364.15.391.087.012.139-.07.083-.138m.48 1.788c.449.15 1.004.201 1.46.04.36-.127.305-.656-.091-.672-.456-.02-.948.11-1.368.253a.198.198 0 0 0 0 .379" fill="#EB495F"/><path d="M28.226 20.175c-.54-.593-1.166-.845-1.979-.707-.317.051-.65.17-.793.482a.581.581 0 0 0 .412.82c.353.068.726-.303.5-.647a.29.29 0 0 0-.016-.055c-.016.122-.028.249-.047.375.099-.181.693-.193.852-.197.313-.004.67 0 .968.106.107.04.17-.106.103-.177m4.786-.983c.38.138.884-.198 1.245-.316.198-.064.408-.143.618-.146.068-.004.127.007.195.015.059.008.25.099.162.036.337.237.67-.205.516-.513-.266-.55-.845-.55-1.368-.348-.445.17-1.452.608-1.436 1.189 0 .04.028.07.068.083m-2.215 2.067c.095-.095.099-.23 0-.324-.143-.138-.397-.04-.397.162 0 .201.254.3.397.162m.79-.151c.258 0 .258-.403 0-.403-.262 0-.262.403 0 .403M16.714 37.93c.035.252.17.533.356.718.19.186.563.166.69-.09.084-.166.12-.328.131-.514-.024.08-.043.162-.067.241.154-.272.083-.58-.036-.849-.091-.193-.353-.284-.547-.256a.525.525 0 0 0-.452.387c-.012.043-.064.359-.036.181m5.486-2.816c.028.221.107.407.293.537.242.174.647.21.817-.079a.81.81 0 0 0 .008-.778.843.843 0 0 0-.706-.474c-.115-.015-.29.067-.364.15a.581.581 0 0 0-.155.372" fill="#330800"/><path d="M22.518 40.672c.599-.257 1.015-.995 1.562-1.37.27-.182.571-.38.897-.443.293-.055.535.048.828.08.333.03.627-.376.52-.68-.742-2.041-4.564.675-4.076 2.302.031.123.158.158.27.11m.626 1.192c.952.51 2.661.557 3.248-.541.087-.162.115-.39 0-.549-.305-.434-.746-.213-1.138-.02-.634.312-1.348.261-2.022.427-.306.075-.37.529-.088.683" fill="#EB495F"/><path d="M22.278 37.785c.162-.114.162-.28 0-.395-.147-.102-.345.036-.345.198s.198.3.345.197m.739-.43a.34.34 0 0 0 .127-.012c.23-.055.23-.402 0-.462-.043-.007-.079-.015-.127-.011-.126.015-.241.102-.241.24 0 .147.115.23.241.245" fill="#330800"/><g transform="translate(34.824 122.885)"><mask id="h" fill="#fff"><use xlink:href="#g"/></mask><path d="M3.442 3.12c.083-.095.174-.197.27-.28-.112.087-.219.17-.33.253a.435.435 0 0 1 .084-.056c.352-.233.626-.553.741-.963.111-.387.06-.9-.163-1.244-.222-.344-.55-.648-.967-.742-.444-.1-.837-.028-1.245.162-.527.244-.94.758-1.079 1.314-.166.664.107 1.473.742 1.805.25.134.527.21.813.221.368.016.888-.186 1.134-.47" fill="#000" mask="url(#h)"/></g><path d="M66.05 126.312c.024-.802.773-4.194-.888-3.93-.754.123-.932 1.126-.897 1.742.024.45.123.904.278 1.327.163.442.432.707.69 1.082.242.347.8.229.817-.221m22.381-7.874c-.02-.778-.428-1.473-.904-2.07-.484-.615-.987-1.275-1.705-1.634-.67-.332-1.764.24-1.423 1.09.305.766.828 1.35 1.387 1.95.508.545 1.079 1.094 1.82 1.292.4.106.837-.202.825-.628" fill="#FFDA00"/><g transform="translate(48.616 10.442)"><mask id="j" fill="#fff"><use xlink:href="#i"/></mask><path d="M-.995 7.552C.2 6.435 1.737 5.744 3.248 5.136c1.455-.585 2.974-.968 4.548-1.043 1.59-.075 3.156.146 4.663.671 1.749.608 3.287 1.64 4.957 2.417 3.433 1.591 6.966 1.935 10.622.869 3.406-.988 6.21-3.293 9.564-4.348 1.693-.529 3.41-.568 5.103-.012.813.265 1.539.68 2.245 1.157.785.537 1.391 1.098 2.37 1.193.449.047.77-.399.794-.79.11-1.721-1.927-2.961-3.287-3.605C43.26.911 41.524.504 39.787.583c-3.799.166-6.856 2.464-10.163 4.04-1.72.817-3.616 1.37-5.527 1.464-2.034.099-3.886-.32-5.766-1.07C14.99 3.687 11.77 2.103 8.074 2.34a14.424 14.424 0 0 0-5.282 1.358c-1.69.81-2.914 2.129-4.104 3.538-.182.217.103.514.317.316" fill="#00E07D" mask="url(#j)"/></g><g transform="translate(54.65 9.41)"><mask id="l" fill="#fff"><use xlink:href="#k"/></mask><path d="M1.041.894C2.921.44 4.721-.11 6.497.929c1.233.723 2.3 1.643 3.672 2.133.77.276 1.594.331 2.347.667.786.347 1.5.801 2.32 1.074 1.527.501 3.172.529 4.754.296 1.622-.237 3.172-.817 4.636-1.544 1.594-.794 3.053-1.852 4.746-2.432 1.606-.557 3.31-.825 4.98-1.126 1.82-.327 3.704-.47 5.448-1.09.385-.138.432-.6.107-.829-1.534-1.085-3.414-.916-5.194-.702-1.82.217-3.648.43-5.413.951-3.425 1.003-6.161 3.42-9.702 4.158-1.697.355-3.323.19-4.885-.54-.797-.368-1.511-.648-2.387-.759-.813-.103-1.511-.229-2.249-.604C8.345-.09 7.092-.962 5.577-1.16 3.801-1.392 2.215-.654.82.373c-.246.185-.11.604.222.52" fill="#00E07D" mask="url(#l)"/></g><g transform="translate(48.616 16.274)"><mask id="n" fill="#fff"><use xlink:href="#m"/></mask><path d="M-.131 4.275C2.617 2.36 6.023 1.977 9.262 2.656c1.646.344 3.212.983 4.616 1.903 1.542 1.003 2.93 2.058 4.718 2.61 3.934 1.224 8.327.991 12.296.119 2.157-.474 4.287-1.054 6.428-1.595 1.867-.474 3.894-1.244 5.837-.861 2.307.45 4.595 1.575 6.76 2.46 1.138.466 2.276.932 3.426 1.366.508.19 1.035.403 1.558.549.682.19 1.349.075 2.023.217.812.17 1.15-.798.535-1.267-.464-.352-.746-.861-1.225-1.205-.44-.312-.952-.549-1.432-.793-1.039-.53-2.133-.988-3.208-1.438-2.073-.86-4.199-1.678-6.34-2.35-2.11-.662-4.088-.591-6.213-.046-2.2.56-4.386 1.18-6.575 1.768-4.195 1.126-8.612 1.951-12.918.857-1.915-.485-3.33-1.733-5.004-2.7A13.258 13.258 0 0 0 9.69.582C6.027.073 2.169 1.227-.39 3.94c-.158.17.048.482.258.336" fill="#00E07D" mask="url(#n)"/></g><g transform="translate(48.616 21.255)"><mask id="p" fill="#fff"><use xlink:href="#o"/></mask><path d="M-1.99 4.395C.968 2.11 4.878 1.7 8.403 2.737c1.84.54 3.533 1.425 5.103 2.511C15 6.278 16.448 7.325 18.16 7.981c3.707 1.417 7.946.572 11.673-.304 1.935-.454 3.85-.972 5.774-1.45 1.935-.477 3.897-1.101 5.88-1.33 2.13-.249 4.215.221 6.178 1.03 1.959.806 3.727 2.129 5.864 2.381.536.064.932-.67.63-1.097-1.141-1.596-2.973-2.504-4.738-3.285-1.832-.806-3.723-1.414-5.73-1.572-2.081-.17-4.143.296-6.126.888-2.065.612-4.12 1.236-6.185 1.84-3.93 1.142-8.505 2.508-12.538 1.027-1.82-.667-3.414-1.915-5.08-2.882-1.68-.976-3.489-1.793-5.396-2.208C4.537.19.254.921-2.371 4.016c-.226.269.111.589.381.38" fill="#00E07D" mask="url(#p)"/></g><g transform="translate(48.616 25.204)"><mask id="r" fill="#fff"><use xlink:href="#q"/></mask><path d="M-1.641 3.882c1.443-.959 3.184-.92 4.849-.92 1.642-.003 3.545-.146 5.075.534 1.622.718 2.998 1.978 4.533 2.862 1.53.88 3.184 1.607 4.877 2.125C21.26 9.568 24.838 9.5 28.347 8.25c1.852-.66 3.64-1.323 5.595-1.631 2.058-.32 4.187-.56 6.273-.596 2.244-.036 4.326.473 6.46 1.133 2.005.624 3.929 1.323 6.042.884.56-.118.638-.94.159-1.2-1.701-.928-3.533-1.457-5.373-2.045-1.9-.608-3.81-1.138-5.81-1.28-2.097-.15-4.198.115-6.276.352-2.106.24-4.124.592-6.122 1.31-1.844.66-3.656 1.398-5.63 1.52-1.805.115-3.577-.118-5.306-.615-1.82-.53-3.545-1.319-5.187-2.255-1.55-.888-2.997-2.093-4.758-2.566C6.654.79 4.47.889 2.681 1.197.9 1.505-.654 2.26-1.824 3.646c-.103.122.028.34.183.236" fill="#00E07D" mask="url(#r)"/></g><g transform="translate(49.65 29.152)"><mask id="t" fill="#fff"><use xlink:href="#s"/></mask><path d="M-.6 1.465c.186-.371 2.304.027 2.617.083.963.166 1.927.367 2.82.778 1.855.848 3.167 2.412 4.777 3.605 1.443 1.07 3.113 1.986 4.881 2.385 1.789.406 3.858.588 5.337-.691.318-.273.246-.893-.138-1.074-1.693-.81-3.712-.703-5.52-1.15-2.177-.537-3.715-1.69-5.448-3.04C7.128 1.121 5.344.343 3.326.118 2.087-.02-.228-.004-.685 1.433c-.011.044.06.08.084.032" fill="#00E07D" mask="url(#t)"/></g><g transform="translate(71.373 33.1)"><mask id="v" fill="#fff"><use xlink:href="#u"/></mask><path d="M.617 3.846c1.24.924 2.625.805 4.064.537 1.788-.336 3.58-.589 5.38-.826a66.018 66.018 0 0 1 5.365-.485c.873-.044 1.856-.15 2.693.158.654.237 1.07.79 1.633 1.172.821.55 2.15-.17 2.058-1.176C21.64 1.323 19.792.37 18.051.15c-1.919-.245-3.965.126-5.864.399a35.221 35.221 0 0 0-5.599 1.263c-.94.296-1.867.64-2.803.96-.829.28-1.856.703-2.673.229-.559-.324-.987.478-.495.845" fill="#00E07D" mask="url(#v)"/></g></g></svg>