<svg width="105" height="121" viewBox="0 0 105 121" xmlns="http://www.w3.org/2000/svg" xmlns:xlink="http://www.w3.org/1999/xlink"><title>Group 14</title><defs><path id="a" d="M0 87.16V.829h55.464v86.333z"/><path id="c" d="M.453.958h63.65V117.99H.453z"/><path id="e" d="M15.226 3.857H.162V.906h15.064z"/></defs><g fill="none" fill-rule="evenodd"><path d="M10 100.623a216.1 216.1 0 0 1-.251-5.289c1.771-.19 3.68-.126 5.444.053a17.26 17.26 0 0 1 2.706.489c.035 1.458.082 2.914.132 4.37-2.619.526-5.348.468-8.03.377m-3.603-.234c-.067-1.016-.134-2.03-.208-3.049l-.058-.855a20.13 20.13 0 0 1 1.707-.706c.027.78.062 1.558.1 2.34.04.814.082 1.628.129 2.442a9.708 9.708 0 0 1-1.67-.172M6.261 84.04c.448-.131.937-.184 1.4-.298 0 .14 0 .284-.003.419-.003.436-.003.87-.003 1.303a19.688 19.688 0 0 1-2.112-.314c-.009-.254-.014-.506-.023-.758a2.8 2.8 0 0 1 .74-.352m1.43 6.262c.014.893.035 1.786.055 2.682a7.037 7.037 0 0 0-1.765 1.169 308.784 308.784 0 0 1-.244-4.3c.645.173 1.295.323 1.954.449m9.4.74h.744c0 .598.006 1.198.015 1.799a19.08 19.08 0 0 0-1.198-.223c-2.27-.334-4.7-.512-6.987-.173a192.05 192.05 0 0 1-.044-1.836c2.48.325 5.005.41 7.47.434m3.032 2.45c-.02-.74-.038-1.478-.056-2.216-.003-.114-.003-.229-.006-.343.454-.038.905-.09 1.353-.16.009 1.092.03 2.181.056 3.27a15.837 15.837 0 0 0-1.347-.55m.087 3.262c.115.059.232.112.343.173.252.144.709.401 1.034.723l.058 1.327c-.36.302-.934.5-1.335.638a345.98 345.98 0 0 1-.1-2.86m4.247-15.367c-1.693-1.177-4.144-2.527-6.253-1.906-1.15.333-2.094 1.95-1.244 3.051.34.44.723.788 1.133 1.095-.22.648-.243 1.353-.24 2.056-.114.003-.226.01-.343.01-2.524.055-5.084.055-7.605-.071a217.51 217.51 0 0 0-.322-.018c0-.401 0-.8.003-1.2.008-1.374.137-2.9-.516-4.147-.16-.305-.618-.284-.785 0-.178.31-.304.647-.398.998-.676-.296-1.523-.334-2.211-.257-.097.011-.19.029-.287.04-.085-.81-.267-1.598-.697-2.366-.187-.33-.72-.345-.902 0-.53 1.002-.644 2.015-.65 3.084a6.818 6.818 0 0 0-1.587 1.128C.316 84.079-.343 85.81.764 87.324c.632.864 1.637 1.418 2.688 1.825.12 2.088.26 4.179.419 6.267a4.982 4.982 0 0 0-.337.36C2.527 96.99 2.052 98.72 2.8 100.19c.372.738.964 1.28 1.652 1.68.184 1.755.383 3.512.58 5.266.167 1.544.348 3.078.574 4.616.117.802.225 1.61.354 2.413.155.949.545 1.64.79 2.545.039.143.244.105.253-.035.055-.87.31-1.556.287-2.446-.02-.814-.08-1.631-.12-2.442-.08-1.637-.2-3.266-.326-4.894-.108-1.414-.202-2.826-.298-4.24.126.029.249.055.375.079.43.082.86.152 1.294.222.094 1.403.196 2.803.32 4.206.266 3.11.523 6.14 1.44 9.134.152.498.858.386.89-.12.185-3.037-.16-5.99-.407-9.014-.105-1.315-.202-2.63-.29-3.942 1.081.117 2.168.193 3.263.216 1.56.036 3.145-.032 4.697-.272.17 5.072.677 10.903 1.36 15.205.031.202 1.012.08 1.03-.167.351-4.937.22-10.358-.07-15.542.454-.131.916-.28 1.37-.462.117 1.798.267 3.593.437 5.388a60.27 60.27 0 0 0 .465 3.693c.211 1.365.72 2.642 1.037 3.983.094.387.676.293.685-.094.044-2.302.264-4.53.147-6.847a671.892 671.892 0 0 1-.308-6.861c-.014-.314-.02-.627-.032-.94a3.61 3.61 0 0 0 .515-.89c.595-1.497.229-2.724-.635-3.711-.035-1.916-.047-3.83-.038-5.743 1.543-.486 3.104-1.31 3.505-2.85.665-2.574-1.2-4.58-3.14-5.933m-.851-67.91c-1.429-.003-2.832-.044-4.226.018-1.728-1.482-3.98-2.378-6.451-2.422-2.554-.044-5.726 1.007-6.965 3.423-1.022 1.989-.164 7.046 4.645 10.795a31.508 31.508 0 0 1-.055 1.83c-.027.39-.068.77-.123 1.154a62.243 62.243 0 0 1-1.148 4.337c-.49 1.632 1.599 2.372 2.547 1.324.314.24.71.384 1.099.413.465.129.975.094 1.4-.12.796.143 2.213 1.763 2.372.94.266-1.4-.636-4.756-.917-6.12-.02-.097-.038-.197-.056-.294a17.44 17.44 0 0 0-.09-1.297c1.306.202 2.626.12 3.827-.428 2.466-1.115 3.427-3.91 3.318-6.469a9.984 9.984 0 0 0-.521-2.802 7.04 7.04 0 0 1 1.778-1.07c1.62-.65 1.546-3.206-.434-3.212m20.838 51.353c-.024-.393-3.12-2.37-3.4-2.7-.577-.683-1.242-1.362-1.652-2.173-.682-1.353-.495-3.336 1.21-3.848.779-.235 1.194.638.881 1.28-.176.365-.053.737.2 1.089-.153-1.125.09-1.713 1.338-2.194.4-.155.656.363.474.688-.586 1.052.867 1.427 1.488 1.942.703.586 1.341 1.172 1.795 1.989.867 1.56.993 3.628.433 5.388-.714 2.27-2.583 1.883-2.767-1.461" fill="#FFDA00"/><g transform="translate(0 32.186)"><mask id="b" fill="#fff"><use xlink:href="#a"/></mask><path d="M54.16 80.417c-.266-.106-5.584-2.302-6.059-2.276a9.224 9.224 0 0 0-.207-.732c-.024-.08-.059-.15-.094-.223.228-.12.445-.272.635-.462.85-.85.773-1.963.694-3.06-.14-1.942-.275-3.887-.415-5.829-.282-3.912-.6-7.95-1.82-11.7-.942-2.887-1.153-4.228-3.607-7.324-.472-.603-2.422-2.129-3.058-2.574-3.678-2.586-4.94-3.725-8.604-4.858-1.73-.533-4.182-1.391-5.953-1.728-1.558-.296-3.895-1.26-5.38-1.74-.349-.111-2.03-10.382-2.943-15.788-.15-.875 1.153 3.884 1.982 6.253.677 1.93 2.639 5.078 2.817 5.262 1.304 1.33 4.534 1.14 6.162.65 1.96-.588 3.664-1.704 5.45-2.653 1.62-.86 3.26-1.637 5-2.222 1.923-.648 5.704-.314 6.22-2.68.26-1.19-1.192-2.853-2.229-3.37-1.133-.57-2.425-.367-3.61-.068-2.01.503-3.627 1.555-5.474 2.48-1.807.905-3.772 1.927-5.448 3.043-.07.047-.137.09-.208.135a69.32 69.32 0 0 0-2.31-11.073c-1.26-4.279-2.856-8.721-5.175-12.552C18.33 1.697 14.868.786 10.244.83c-2.48.026-5.017 1.602-6.49 3.394-2.37 2.885-3.47 6.083-3.693 9.799-.217 3.693.185 7.465.454 11.146.287 3.93.677 7.846 1.08 11.764.417 4.06.645 8.194 1.313 12.221.624 3.737 3.678 5.72 7.216 6.381 3.625.677 7.318.27 10.976.577 2.697.229 6.542.451 8.332 2.791 2.19 2.87 1.79 6.923 2.003 10.309.246 3.874 1.11 7.834 3.962 10.651.17.193.366.357.58.486.044 1.391-.047 2.762-.34 4.13-.28 1.294.566 2.278 1.83 2.404 1.884.184 3.708-.49 5.58-.355 1.965.144 3.655.932 5.664.51 1.607-.34 1.959-1.675 1.118-2.744-.058-.073-.117-.146-.172-.22-.572-.729-3.518-1.083-4.15-1.21-.48-.242-.97-.482-1.476-.737-1.178-.589-2.449-1.236-3.48-2.118 1.06-.304 1.901-1.18 1.828-2.58-.255-4.706-.512-9.433-.925-14.13-.39-4.422-1.594-8.481-4.92-11.597-2.897-2.712-6.502-4.3-10.142-5.755-1.546-.615-2.076-1.224-3.667-1.953-.615-.281-.87-.91-.6-1.046.565-.287 1.757.475 2.302.803 2.067 1.25 3.828 2.041 5.755 2.85 3.048 1.273 6.44 2.439 8.82 4.823.018.014.033.035.05.052a14.264 14.264 0 0 1 1.869 3.403c1.317 3.477 1.49 7.22 1.848 10.88a51.8 51.8 0 0 1 .248 5.345c0 1.733.405 3.13.744 4.767.434 2.106.02 2.985.038 3.793.024 1.195.774 2.158 1.942 2.401 1.051.217 3.268-.252 4.3.158 1.156.463 1.903 1.547 3.103 1.875 2.425.665 3.245-2.797 1.017-3.681" fill="#00E07D" mask="url(#b)"/></g><g transform="translate(40.071 -.029)"><mask id="d" fill="#fff"><use xlink:href="#c"/></mask><path d="M63.63 44.812c-.914-.794-2.021-1.136-3.073-1.708-.89-.48-1.766-1.022-2.556-1.648a18.005 18.005 0 0 1-4.253-4.827c-1.265-2.105-1.98-4.43-2.764-6.741-.858-2.525-1.924-5.005-3.116-7.395C43.51 13.77 36.449 5.583 26.993 2.356c-2.759-.943-5.723-1.394-8.64-1.4a19.892 19.892 0 0 0-4.57.528c-1.439.33-3.058.664-4.072 1.815-.539.612-.348 1.608.49 1.842.081.024.166.044.254.062.495 1.842 13.7 31.028 15.487 35.131a170.973 170.973 0 0 0 2.711 5.919c.252.524.501 1.06.75 1.593-2.176-.273-4.334-.832-6.545-.73-3.345.153-6.874.806-10.01 1.963-1.359.5-1.298 2.187 0 2.709.035.014.073.023.108.038-.03.088-.073.181-.076.28-.123 6.268-.023 7.202.038 9.823-.287 1.274-.111 5.609.109 5.752a633.24 633.24 0 0 0-3.34.255c-2.105.17-4.316.27-6.424.65-.08-.117-.156-.237-.238-.363-.559-.844-1.692-.633-2.038.266-.29.756-.504 1.342-.533 2.159-.023.729.574 1.613 1.33 1.745 2.583.454 5.289.363 7.904.363 1.68 0 3.365-.011 5.052-.032-.068 1.297-.469 3.655-.463 4.958.009 2.167-.102 3.91.123 6.068.21 1.974.908 3.529 1.877 5.295.32.583.75 1.048 1.236 1.385-.05.621-.032 1.257-.038 1.874-.015 1.79-.032 3.58-.044 5.371-.015 1.734.012 3.46.305 5.172.231 1.36.673 3.272 1.874 4.13-.38.398-.448 2.782-.507 3.376-.278 2.759.01 5.128 1.757 7.246.615.74 2.091.369 2.247-.595.316-1.939.319-3.872.035-5.816-.211-1.444-.527-2.876-1.529-3.904.009-.006.02-.012.03-.02.802-.331 1.385-1.172 1.423-2.168.04-1.063.316-6.738.369-8.501.073-2.305-.053-4.996-1.081-7.163l-.018-.144c2.214-2.73 2.206-6.77 1.749-10.077a43.306 43.306 0 0 0-1.3-6.191 16.573 16.573 0 0 1-.13-.451c3.263-.091 6.525-.202 9.788-.305 5.02-.16 24.881-.726 26.16-.644 1.57.102 2.86.22 4.1-.943.742-.694 2.133-24.817.926-25.865" fill="#000" mask="url(#d)"/></g><path d="M9.877 30.523c-.934.504-2.858 2.533-3.007 3.397-.15.861 5.535-1.555 9.828 1.25 4.293 2.81 5.105 5.123 5.41 4.602.304-.525-1.24-5.673-5.12-7.82-2.422-1.34-5.389-2.363-7.11-1.429M39.38 61.432c-.441-.387.985-1.353 2.057-2.668 1.074-1.312 1.953-3.031 2.726-2.22 1.239 1.292 2.469 1.992 1.971 2.9-.495.91-3.207 2.96-4.246 3.338-1.037.38-1.965-.881-2.507-1.35" fill="#00E07D"/><g transform="translate(35.143 116.186)"><mask id="f" fill="#fff"><use xlink:href="#e"/></mask><path d="M.385.985C-1.18 3.196 5.961 3.492 6.8 3.571c1.532.144 8.466 1.169 8.355-1.795-.012-.363.234-.95-.123-.861-.457.111-.053.222-1.121.86-.536.323-1.746.475-2.355.47-1.03-.012-2.07-.147-3.096-.211-1.197-.074-2.398-.15-3.599-.208C3.98 1.779.954 2.124.664 1.02.626.886.456.883.385.985" fill="#000" mask="url(#f)"/></g><path d="M45.478 114.18c1.377.79 3.219.766 4.739 1.188.784.22 1.478.668 2.263.882.75.207 1.333.51 2.065.225.32-.126.287-.56-.041-.68-1.526-.553-2.893-1.165-4.135-1.443-1.546-.349-2.53-.43-4.12-.39-.144.006-.77.217-.77.217" fill="#000"/><path d="M35.74 60.647a.248.248 0 0 0 .012.05c.076.193.073.167-.003-.082-.018.126.055.275.132.369a.64.64 0 0 0 .313.217.586.586 0 0 0 .302.026.458.458 0 0 0 .228-.073c-.103.04-.126.052-.067.035.263-.076.41-.302.43-.562 0-.01 0-.018.003-.027l-.07.255c.026-.05.05-.105.07-.158.111-.302-.176-.577-.45-.595-.019 0-.036-.003-.054-.003.147.082.29.167.434.246-.065-.084-.12-.172-.223-.225-.044-.02-.094-.038-.14-.059-.188-.023-.205-.026-.056-.005l.264.152c-.106-.085-.211-.164-.346-.182-.27-.038-.542.024-.688.281l-.003.003c.114-.088.231-.175.345-.266-.008.006-.023.012-.035.017h.281a.286.286 0 0 1-.07-.023c-.158-.064-.369.015-.48.129-.135.132-.161.301-.129.48" fill="#330800"/><path d="M21.3 71.652c.744-.044 1.587-.132 2.366-.366-1.2-.398-2.465-.887-3.4-1.189-.035-.012-.09-.14-.155-.369a13.566 13.566 0 0 1-3.169-.726c-.726-.255-1.435.53-1.23 1.227 1.063 3.631.967 7.468-.225 11.061-.589 1.76-1.45 3.385-2.495 4.914-.349.51-.797 1.14-1.321 1.746.75.082 1.502.131 2.255.16a18.884 18.884 0 0 0 2.943-4.896 20.51 20.51 0 0 0 1.18-11.828c1.07.228 2.17.328 3.251.266" fill="#00E07D"/><path d="M14.293 12.474c.015 0 .015-.023 0-.023-.014 0-.014.023 0 .023" fill="#330800"/><path d="M17.614 12.908c.627.234 1.142-.454 1.016-1.014-.735-3.253-4.964-3.233-7.57-3.245-3.031-.008-7.5-.752-9.275 2.42-.823 1.467.243 3.007 1.801 3.142a6.92 6.92 0 0 1 1.672.351c-.337.25-.67.51-.97.791-1.018.97-1.671 2.363-1.305 3.78.337 1.319 1.113 1.948 2.076 2.191-.143.85-.088 1.684.31 2.443 1.304 2.474 5.594 2.589 6.171-.54.152-.81-.038-1.44-.515-1.973.284-.659.726-1.37.969-1.83.794-1.497.135-3.187-1.148-3.892a3.492 3.492 0 0 0-.267-2.487 4.622 4.622 0 0 0-.524-.776c.49-.032.978-.064 1.465-.1 2.15-.155 4.07-.023 6.094.739" fill="#000"/><path d="M18.932 15.447c-.117-.167-.36-.143-.428.056-.24.714-.184 1.485-.992 1.836-.873.38-1.728-.217-1.67-1.165.01-.18-.249-.2-.295-.041-.375 1.145.714 2.19 1.842 2.047 1.118-.144 2.316-1.646 1.543-2.733m3.369 2.454c.065-.04.129-.082.188-.129a.798.798 0 0 0 .196-.234c.228-.372-.229-.823-.6-.597a.768.768 0 0 0-.232.19c-.05.061-.09.126-.132.187-.231.355.229.812.58.583m.272 3.386c-.589.404-1.002.972-1.734 1.157-.97.243-1.962-.185-2.545-.967-.117-.158-.357-.026-.27.159.504 1.025 1.503 1.719 2.675 1.645.978-.061 2.16-.726 2.237-1.786.012-.176-.217-.307-.363-.208" fill="#000"/><path d="M43.58 68.926c1.557.41 3.306.244 4.899.147 1.423-.085 3.274.03 4.55-.659.326-.176.258-.72-.108-.805-1.432-.328-3.224.199-4.685.328-1.532.134-3.17.093-4.657.512-.231.067-.237.416 0 .477M54.498 5.47c1.778-.659 3.55-.454 5.383-.155 1.86.305 3.728.644 5.526 1.221 1.602.516 3.13 1.216 4.502 2.205 1.358.981 2.357 2.238 3.482 3.453.228.246.568-.02.518-.301-.61-3.606-4.744-5.799-7.878-6.774-2.076-.645-4.238-.967-6.39-1.213-1.857-.21-3.851-.254-5.433.885-.31.225-.137.837.29.68M75.053 14.7c.087-.134.1-.157.035-.07a.359.359 0 0 0-.088.164.653.653 0 0 0-.027.185c0 .1.015.202.039.296a.75.75 0 0 0 .43.503c.176.08.351.091.518-.035.132-.105.232-.316.164-.489-.008-.02-.05-.146-.058-.143.012-.003.038.093.023.017-.014-.082-.073-.167-.111-.24-.009-.014-.038-.088-.012-.02.024.07 0-.01-.003-.024a.958.958 0 0 0-.064-.15c-.015-.023-.132-.201-.05-.064l.062.223c-.003-.012-.003-.026-.006-.035-.018-.22-.15-.398-.375-.428a.433.433 0 0 0-.477.31M59.675 99.382c-.252 1.183-.492 3.022.378 4.012.096.111.287.02.287-.12-.006-.542-.243-1.048-.352-1.576a6.826 6.826 0 0 1-.073-2.249c.02-.155-.205-.228-.24-.067" fill="#FFF"/></g></svg>