<svg width="87" height="135" viewBox="0 0 87 135" xmlns="http://www.w3.org/2000/svg"><title>Group 11</title><g fill="none" fill-rule="evenodd"><path d="M28.524 61.456c-2.254 3.263-.091 9.204 2.785 10.748 4.055 2.175 8.89 3.906 13.435 4.192 4.547.285 13.498.512 17.8-1.007 5.073-1.791 7.847-11.077 4.808-16.987-1.686-3.277-6.413-2.876-8.2 0a5.756 5.756 0 0 0-.757 1.604c-.185.568-.176.694.028.377-.07.306-.634.743-.445.602-1.192.891-2.102 1.066-3.666 1.541a40.064 40.064 0 0 1-8.987 1.647c-3.142.205-6.21-.045-9.299-.59-1.1-.195-2.227-.443-3.23-.953a6.829 6.829 0 0 1-1.177-.79 2.835 2.835 0 0 0-.686-.605c-.612-.26-.669-.283-.17-.067-.667-.715-1.74-.435-2.239.288" fill="#00E07D"/><path d="M53.36 89.023c-.69-3.429-1.616-6.823-2.436-10.223-.492-2.047 2.07-3.72.116-4.92-.753-.462-3.562-1.141-4.451-1.141-.53.02-10.243-1.807-12.037-2.35a268.967 268.967 0 0 1-10.036-3.276c-2.583-.892-4.984 1.044-5.842 3.313-.893 2.364-1.182 4.913-.945 7.418.101 2.62.055 7.613 1.522 9.685.074.127.143.257.22.384.501.817 3.712.143 4.333.454 3.485 1.751 7.62 2.452 11.363 3.467 4.072 1.103 8.166 2.106 12.264 3.108 3.734.913 6.654-2.318 5.93-5.919" fill="#FDC004"/><path d="M77.342 87.32a64.984 64.984 0 0 0-.998-8.34c-.468-2.49-.017-4.8-1.317-7.017-1.03-1.759-1.642-3.232-3.617-3.498-1.593-.213-5.145.058-6.678.452-2.525.65-5.07 1.255-7.584 1.951-2.582.718-5.467.95-7.378 2.517-1.33 1.092-.264 9.799-.074 10.016.233.358 2.532 10.034 2.716 10.6.112.593.238 1.18.393 1.757l.071-.02c.514 1.647 1.826 2.913 3.734 2.913a3.9 3.9 0 0 0 2.338-.794 7.072 7.072 0 0 0 1.882-.564c3.76-1.71 8.007-3.208 12.353-4.52 2.278-.685 4.3-2.952 4.16-5.453" fill="#000"/><path d="M60.723 126.317c-2.007-8.95-2.442-18.687-2.423-28.15.006-2.277-1.71-4.868-4.065-5.331-14.541-2.867-28.87-6.567-43.218-10.258-4.284-1.101-6.277.523-7.75 8.656-.008.047-1.565 9.38-1.964 12.277a959.69 959.69 0 0 0-1.218 9.214c-.416 3.262.665 6.357 3.757 7.88 2.425 1.193 5.803 1.112 8.044 1.452 3.074.466 5.183.676 8.366 1.243 5.353.95 10.673 2.128 15.89 3.662 6.243 1.836 11.848 4.209 17.417 6.509 1.854.766 6.561 1.008 7.892-.32 1.523-1.521-.267-4.78-.728-6.834" fill="#00E07D"/><path d="M86.217 118.757c-1.564-4.038-3.052-8.07-4.182-12.255a98.212 98.212 0 0 1-2.046-9.408c-.072-.437-1.171-6.775-1.913-7.62-1.176-1.342-4.016-.92-5.706-.317-4.405 1.572-12.028 3.055-16.514 4.381-.19.055-.747.662-.748 2.515-.005 7.42.732 19.328 1.138 22.26.17 1.227.313 14.33 2.44 15.74 1.422.942 5.467-.467 7.57-2.134.664-.527 7.068-3.12 8.21-3.71.54-.279 9.045-3.3 10.707-4.373 1.803-1.164 1.7-3.392 1.044-5.079M76.426 46.3c-2.776-4.64-9.696-10.872-13.722-14.517-2.08-1.885-16.195-9.885-18.386-11.64-9.818-7.881-6.963-7.378-7.411-13.712-.263-3.724-.56-7.432-3.359-6.185-1.681.749-12.09 8.048-22.837 24.814-2.038 3.181-7.836 21.461-5.373 22.133 1.895.515 2.91-3.345 11.194-5.608 3.444-.94 8.115-1.38 11.663-1.546 9.504-.445 12.716 0 19.085 1.33 12.101 2.524 24.505 10.894 27.386 23.347.647 2.793.52 5.781-.344 8.758-.418 1.431-.86 2.88-1.415 4.26-.28.695-1.387 3.847-1.928 4.536-1.325 1.692.268 3.748 2.247 2.908 1.602-.68 2.938-.953 4.372-2.053 1.41-1.081 2.638-2.537 3.557-4.055 1.903-3.143 2.632-7.104 2.723-10.73.192-7.672-.773-10.883-7.452-22.042" fill="#FFDA00"/><path d="M66.78 59.246c-.35-2.595-2.9-3.796-5.111-4.555-1.805-.62-3.733-.824-5.614-1.085-2.148-.297-4.286-.662-6.438-.929-3.991-.491-7.977-.565-11.958.078-3.823.619-10.452 3.872-9.232 8.97.465 1.949 8.228 4.915 10.794 5.043 4.306.215 8.64.093 12.95.05 3.769-.036 7.793-.18 11.15-2.107 1.982-1.138 3.792-3.003 3.46-5.465" fill="#000"/><path d="M53.96 56.66c-2.633-.865-5.582-.938-8.123.256-1.805.847-1.176 3.978.689 4.182 2.124 1.245 5.308.888 7.435.027 2.074-.84 2.316-3.707 0-4.466" fill="#FFF"/><path d="M51.477 58.172c-.901-.295-1.911-.32-2.781.088-.619.29-.402 1.362.236 1.433.728.426 1.818.304 2.545.008.71-.288.794-1.268 0-1.529" fill="#330800"/><path d="M65.031 52.254c-.549-.663-1.93-.949-2.72-1.238a64.57 64.57 0 0 0-3.168-1.052c-4.377-1.348-8.945-1.955-13.525-1.7-.711.04-1.262.556-1.286 1.284-.075 2.288-.34 4.522.37 6.722.131.41.803.595 1.014.131.813-1.789.96-3.66 1.094-5.582 5.42-.015 11.203.661 16.112 3.012.078.601.165 1.207.306 1.793.212.881.677 1.338 1.018 2.133.087.203.352.1.417-.054.421-1.023.845-1.457.856-2.679.006-.718.01-2.17-.488-2.77" fill="#000"/><path d="M17.79 35.995c7.098.122 14.089-.95 21.16.32 3.077.554 6.146 1.364 9.121 2.324 3.01.97 5.445 2.601 8.203 4.048.323.169.742-.186.525-.524-1.541-2.4-4.61-3.61-7.196-4.505a66.48 66.48 0 0 0-10.013-2.596c-7.093-1.258-14.815-.903-21.84.648-.163.036-.122.282.04.285m5.584-10.798c1.59-.017 3.453.792 4.983 1.199 1.751.465 3.495.953 5.231 1.462 3.38.99 6.725 2.111 9.99 3.434 3.046 1.237 6.006 2.72 8.854 4.36a60.347 60.347 0 0 1 4.218 2.673c1.347.936 2.608 2.095 4.064 2.858.29.151.736-.187.498-.497-1.898-2.453-5.116-4.205-7.755-5.743-3.003-1.749-6.16-3.168-9.386-4.456-3.528-1.407-7.152-2.565-10.816-3.574a133.64 133.64 0 0 0-5.545-1.386c-1.344-.31-3.002-1.01-4.372-.591-.14.043-.118.264.036.261m7.635-7.162c5.382 3.12 10.715 6.302 16.167 9.315 2.421 1.337 4.815 2.706 7.11 4.252 2.502 1.685 4.82 3.743 7.51 5.127.356.183.707-.256.43-.557-1.949-2.116-4.446-3.76-6.808-5.38-2.365-1.626-4.827-3.067-7.355-4.423-5.577-2.992-11.244-5.766-16.883-8.625-.194-.099-.36.18-.171.29" fill="#154733"/><path d="M8.092 91.14c.727-.73 1.826-2.068 1.323-3.178-.068-.148-.273-.114-.35 0-.256.386-.299.899-.44 1.336-.174.54-.47 1.098-.857 1.519-.201.214.114.535.324.324m2.314 4.425c.64-.394 1.04-.998 1.125-1.742.061-.538-.81-.64-.937-.127-.13.526-.27 1.039-.548 1.51-.13.224.134.497.36.359m2.748-5.942c.246-.416.658-.905.57-1.416-.024-.147-.205-.186-.32-.129-.445.227-.595.896-.773 1.325-.128.304.362.49.523.22m-7.961 9.411c.146-.456.266-.915.426-1.367.142-.397.34-.756.232-1.182-.043-.158-.226-.22-.363-.147-.761.415-.805 1.89-.714 2.64.027.23.342.3.42.056m4.724 3.722c.25-.534.457-1.116.576-1.694.113-.545-.704-.78-.842-.232a7.953 7.953 0 0 0-.222 1.793c-.004.247.375.375.488.133m4.262.339c.202-.529.45-1.07.553-1.631.107-.584-.73-.835-.904-.248-.168.575-.193 1.204-.253 1.798-.036.368.49.38.604.081m3.05-8.563c.055-.681.522-1.3.896-1.847.32-.47-.42-1.048-.795-.612-.623.725-.703 1.543-.682 2.459.009.378.552.368.581 0M4.686 108.68c-.06-.779.211-1.502.22-2.267a.411.411 0 0 0-.204-.355c-.115-.068-.19-.061-.318-.043-.145.022-.244.163-.288.288-.268.756-.044 1.681.076 2.448.045.29.537.224.514-.07m5.531.399c.154-.33.367-.634.492-.978.082-.233.159-.705-.142-.828-.281-.117-.541.228-.645.438-.17.346-.223.734-.346 1.099-.124.37.473.632.641.269m5.739 1.484c.076-.376.171-.723.102-1.106-.022-.117-.173-.108-.228-.031-.22.3-.282.646-.372 1-.082.323.432.46.498.137m4.666-9.03c.15-.338.403-.753.372-1.134-.011-.159-.189-.238-.309-.128-.283.258-.384.727-.507 1.075-.088.256.33.438.444.187m2.86-7.862c.248-.545.612-1.153.565-1.77-.013-.186-.23-.291-.371-.154-.448.428-.585 1.114-.761 1.686-.102.327.42.562.567.238m-2.664-6.089c.073-.171.172-.328.15-.519-.012-.106-.116-.186-.22-.126-.165.097-.233.25-.327.414-.153.262.283.498.397.231M8.333 85.325c.698-.228 1.397-1.005 1.028-1.773-.053-.109-.2-.06-.235.032-.188.495-.39 1.042-.927 1.253-.298.115-.182.592.134.488m36.88-29.363c.08-.365.152-.726.199-1.099.042-.327.121-.693.001-1.01-.05-.13-.222-.166-.302-.04-.17.273-.17.624-.194.94-.028.39-.03.776-.021 1.167.005.175.277.225.317.042M29.422 3.161a68.44 68.44 0 0 0-4.928 4.508c-.859 2.387-1.74 4.774-2.845 7.039-1.682 3.444-3.979 6.61-6.038 9.834-1.849 2.896-3.703 5.788-5.729 8.566a77.041 77.041 0 0 1-3.334 4.224c-.14.169-.28.341-.42.513a57.899 57.899 0 0 0-1.042 4.541c.682-.34 1.315-.865 1.868-1.304 1.521-1.209 2.816-2.628 4.072-4.104 2.55-3 4.795-6.245 7.006-9.497 2.347-3.447 4.938-6.854 6.892-10.544 1.97-3.719 3.415-7.76 5.05-11.634.391-.929.065-1.684-.552-2.142" fill="#FFF"/></g></svg>