<svg width="102" height="131" viewBox="0 0 102 131" xmlns="http://www.w3.org/2000/svg" xmlns:xlink="http://www.w3.org/1999/xlink"><title>Group 13</title><defs><path id="a" d="M56.865 130.418H.998V.354h55.867z"/></defs><g fill="none" fill-rule="evenodd"><path d="M16.312 71.98c-3.495-11.587-9.489-57.04 33.223-57.894C92.247 13.23 91.784 35.51 87.026 58.54c-4.762 23.03-38.961 34.794-49.035 32.598-10.078-2.195-18.185-7.567-21.68-19.157" fill="#00E07D"/><g transform="translate(26.154 .18)"><mask id="b" fill="#fff"><use xlink:href="#a"/></mask><path d="M53.552 8.58c-2.32-1.996-6.33-4.15-9.204-5.056-5.144-1.628-11.06-3.6-16.48-3.087-6.044.573-9.556 5.393-12.78 10.538C11.84 16.152 9.591 22.21 7.53 27.942 6.666 30.345.711 43.805 1.246 48.06c-.272 2.63 1.48 5.232 3.61 6.64.719.478 6.465 4.995 6.583 6 .104.825-1.2 3.044-1.261 3.686-1.823.433-3.42 1.711-3.926 3.652-.136.286-.24.594-.295.92A632.175 632.175 0 0 0 4.11 80.01c.032-.006.063-.008.094-.014-.499 2.062.14 4.165 2.18 5.217-.106.65-.202 1.304-.291 1.97-.251 1.96-.623 3.972-.855 5.976-3.202 1.14-5.438 5.043-3.544 8.634.259.487 2.181 3.737 10.043 6.852.633.269 1.242.5 1.802.69.277.091.549.155.818.197-.02.35-.044.699-.08 1.049-.34 3.526-1.44 11.908-1.44 12.668.003 1.09.056 2.13.357 3.192a5.462 5.462 0 0 0 5.981 3.928c2.809-.381 4.509-2.63 4.729-5.385.253-3.176.502-6.352.755-9.529.246-3.102.693-6.391.016-9.476-.722-3.286-1.412-4.593-6.34-7.598-.096-.058-3.13-2.653-4.83-3.542.128-2.443-.322-7.686-.555-9.668.134-.084 3.662.431 3.879-6.063.031-.926.86-4.333-.16-8.04-.031-.114.03-.232.045-.35.233-.227.455-.476.662-.755 2.701-3.618 2.251-6.502 6.13-5.856 2.817.474 10.027 1.775 12.601.327 1.331-.75 4.687-3.087 7.595-8.285 2.73-4.883 7.637-16.129 9.12-21.51 1.546-5.636 3.58-11.552 4.012-17.407.233-3.158-.848-6.558-3.282-8.653" fill="#FFDA00" mask="url(#b)"/></g><path d="M44.605 55.828c2.693-3.618 4.352-7.928 6.216-12.009a908.492 908.492 0 0 0 5.393-12.12c1.781-4.052 3.56-8.102 5.338-12.153a155.413 155.413 0 0 1 2.558-5.585c.882-1.814 2.024-3.318 3.094-5.004.45-.717-.533-1.383-1.12-.867-1.351 1.19-2.194 3.068-2.944 4.68-.85 1.825-1.606 3.694-2.448 5.524l-5.79 12.631a927.58 927.58 0 0 0-5.6 12.374c-1.792 4.057-3.881 8.117-4.781 12.492-.01.055.052.079.084.037m7.797 1.404c2.503-3.013 3.879-6.85 5.45-10.399 1.674-3.783 3.364-7.554 5.074-11.316 3.421-7.528 6.95-15.006 10.465-22.489.546-1.16-1.156-2.182-1.724-1.015-3.667 7.528-7.18 15.13-10.634 22.757-1.71 3.765-3.395 7.538-5.064 11.322-1.556 3.534-3.405 7.138-3.876 11.011-.02.155.212.245.31.13m7.017 3.679c.422-.784.91-1.344 1.254-2.183.379-.917.716-1.843 1.061-2.774.72-1.945 1.572-3.841 2.435-5.726 1.666-3.626 3.502-7.173 5.291-10.736 1.865-3.712 3.727-7.42 5.563-11.145.942-1.91 1.886-3.818 2.83-5.727.774-1.562 2.108-3.34 2.16-5.106.019-.55-.703-1.057-1.184-.684-1.41 1.094-2.048 3.113-2.867 4.68-.983 1.886-1.967 3.77-2.945 5.659a919.755 919.755 0 0 0-5.934 11.663c-1.828 3.64-3.709 7.26-5.372 10.978a56.82 56.82 0 0 0-2.043 5.264c-.314.946-.593 1.874-.756 2.86-.188 1.105-.031 1.738.027 2.845.013.245.353.368.48.132" fill="#154733"/><path d="M35.047 70.823c-.089.42-.201.847-.199 1.28.006.737.223 1.27.845 1.699-.22-.29-.44-.576-.661-.865.034.092.068.181.099.273.458 1.27 2.118 1.273 2.576 0 .031-.092.065-.181.1-.273-.22.29-.443.576-.662.865.617-.423.852-.97.845-1.699-.006-.433-.11-.854-.197-1.28-.287-1.365-2.463-1.367-2.746 0m-1.892 27.051c1.402 1.28 3.075 2.292 4.603 3.42 1.26.934 2.903 2.827 4.603 2.496.397-.08.594-.474.633-.837.185-1.83-2.49-3.352-3.798-4.136-1.674-1.004-3.643-1.877-5.605-2.006-.53-.034-.823.71-.436 1.063" fill="#FFF"/><path d="M38.603 53.248c3.868-7.343 6.949-15.092 10.21-22.72 1.616-3.775 3.233-7.551 4.852-11.324 1.577-3.684 3.7-7.396 4.804-11.251.285-.991-1.148-1.604-1.66-.702-1.934 3.39-3.071 7.394-4.562 10.998-1.611 3.897-3.225 7.791-4.836 11.685C44.236 37.6 40.85 45.216 38.3 53.12c-.06.18.217.298.304.13m-4.867-3.123c1.946-3.36 3.102-7.138 4.553-10.738 1.598-3.96 3.275-7.893 4.975-11.808 1.608-3.718 3.3-7.4 5.071-11.043a456.923 456.923 0 0 1 2.689-5.448c.9-1.783 1.948-3.534 2.531-5.453.238-.779-.868-1.504-1.417-.831-2.535 3.11-4.138 7.27-5.856 10.877a281.495 281.495 0 0 0-5.116 11.364 195.501 195.501 0 0 0-4.365 11.3c-1.347 3.813-2.898 7.668-3.374 11.696-.02.174.233.218.309.084" fill="#154733"/><path d="M67.116 75.01c1.65-1.084 3.385-2.072 4.773-3.487 1.143-1.165-.295-2.84-1.668-2.174-1.774.862-3.264 2.221-4.81 3.436-1.26.989.374 3.097 1.705 2.225m6.408 7.846c1.036-.257 1.988-.825 2.83-1.47 1.01-.767 1.962-1.635 2.087-2.96.087-.889-.787-1.507-1.558-1.567-1.122-.087-2.223.836-2.992 1.564-.73.695-1.465 1.544-1.87 2.464-.46 1.041.295 2.27 1.503 1.97m-16.614.884c1.358-1.073 2.626-2.1 3.332-3.723.186-.416-.01-1.13-.599-1.052a8.318 8.318 0 0 0-2.346.681c-.858.381-1.59.989-2.35 1.536-.786.562-1.086 1.57-.456 2.395.64.83 1.658.765 2.42.163m17.942-22.878c.345-.584.823-1.147 1.3-1.63.567-.576 1.401-1.134 1.55-1.986.126-.725-.185-1.375-.912-1.617-1.138-.376-2.33.524-3.042 1.336-.738.844-1.17 1.746-1.444 2.816-.39 1.533 1.732 2.461 2.548 1.08m7.58 4.704c1.093-1.139 5.147-5.112 3.073-6.724-2.116-1.638-4.694 3.566-5.403 4.915-.766 1.459 1.12 3.068 2.33 1.809m-65.779.43c1.394-.986 6.695-6.182 4.245-7.988-1.295-.95-2.668 1.01-3.21 1.914-.933 1.551-1.924 3.234-2.458 4.975-.238.77.722 1.593 1.423 1.099m-3-31.093c.66-.77 1.42-1.55 2.255-2.13.92-.636 1.846-1.109 2.686-1.848.975-.86.115-2.266-.973-2.36-2.702-.237-5.244 2.2-6.3 4.53-.642 1.417 1.142 3.197 2.332 1.808m4.206 14.445c.81-.847 1.752-1.614 2.712-2.282.904-.634 1.927-1.318 2.021-2.52.021-.265-.162-.54-.382-.67-2.364-1.377-5.113 2.409-6.206 4.034-.761 1.122.934 2.4 1.854 1.438M3.734 59.838c.573-.22 1.135-.273 1.697-.57a8.258 8.258 0 0 0 1.536-1.047c.897-.773 1.417-1.764 1.571-2.929.074-.53-.546-.849-.975-.75-.254.059-.515.1-.745.227-.466.252.136.021-.262.15-.596.192-1.075.505-1.57.9-.381.299-.752.614-1.126.925-.335.281-.814.867-1.002 1.01-.458.341-.701.86-.466 1.424.202.482.811.865 1.342.66m21.408-34.839c.406.06.675.4 1.107.46a4.05 4.05 0 0 0 1.446-.084c1.177-.298 1.896-.958 2.615-1.899.314-.405.204-1.007 0-1.425l.11.32c-.042-.49-.423-1.043-.983-.988-.468.048-.881.063-1.397.424-.41.286-.8.562-1.182.894-.306.268-.622.53-.934.794-.198.168-.358.27-.517.48-.092.116-.11.287-.265.348-.272.113-.381.618 0 .676m-4.49-10.524c1.86-.67 4.198-.968 5.383-2.716.628-.929-.225-2.007-1.188-2.075-1.924-.137-3.624 1.551-5.152 2.508-1.143.718-.42 2.782.957 2.283M2.518 43.424c.008-.065.019-.131.027-.2-.178.234-.356.466-.534.697.599-.292.782-1.06 1.106-1.609.34-.584.934-1.023 1.094-1.74-.134.228-.265.457-.395.683.089-.102.19-.197.28-.302.073-.087.468-.75.345-.592-.115.147.154-.113.178-.131.11-.098.206-.21.316-.308.466-.407.144-1.052-.327-1.246a3.09 3.09 0 0 0-2.662.147l.779-.213c-1.344.142-2.09 1.141-2.524 2.353-.327.915-.345 2.45.638 2.958a160.59 160.59 0 0 1-.533-.697c.015.069.034.135.05.2.256 1.005 2.005 1.141 2.162 0m84.546 3.437c.902-.489 1.69-1.115 2.503-1.738.868-.67 1.752-1.396 2.212-2.411.523-1.154-.35-2.71-1.75-2.285-2.021.618-3.789 2.708-4.995 4.391-.923 1.286.824 2.695 2.03 2.043m3.241-17.306c1.049-.579 2.46-1.212 2.984-2.37.298-.66-.042-1.543-.868-1.519-1.405.037-2.548 1.144-3.586 1.975-.463.376-.434 1.17-.094 1.598a1.217 1.217 0 0 0 1.564.316m5.974 24.88c1.077-.34 2.178-.652 3.175-1.205.98-.544 2.087-1.693 1.38-2.89-.695-1.185-2.225-.77-3.148-.147-.952.645-1.731 1.486-2.527 2.309-.776.8-.005 2.29 1.12 1.933M17.386 86.351c1.402.763 3.23.295 4.598-.34 1.192-.551 2.733-1.792 2.293-3.328-.366-1.283-2.03-.683-2.806-.197-.654.415-1.195.88-1.933 1.162-.711.271-1.472.363-2.152.705-.77.386-.73 1.601 0 1.998m-12.18-7.899c1.036-.421 2.074-.837 3.11-1.26.902-.368 1.603-.875 1.977-1.809.092-.226-.055-.605-.285-.705-1.8-.773-3.829.608-5.479 1.307-.635.271-1.08.842-.887 1.573.157.61.929 1.151 1.564.894m49.597 18.462c1.389.124 6.183 1.778 6.295-.823.055-1.264-1.593-1.922-2.602-2.058-1.368-.184-2.72.192-3.991.667a1.134 1.134 0 0 0 .298 2.214m15.966-.896c.891.05 1.982-.255 2.835-.836.91-.62 2.05-2.13 1.36-3.27-.343-.563-.926-.847-1.575-.76-.437.06-.722.273-1.054.546.01-.008-.397.342-.222.2-.743.615-1.334 1.15-2.009 1.651-1.035.773-.711 2.39.665 2.47" fill="#FFA632"/></g></svg>